<?xml version="1.0" encoding="utf-8" standalone="no"?>
<!DOCTYPE svg PUBLIC "-//W3C//DTD SVG 1.1//EN"
  "http://www.w3.org/Graphics/SVG/1.1/DTD/svg11.dtd">
<!-- Created with matplotlib (http://matplotlib.org/) -->
<svg height="576pt" version="1.1" viewBox="0 0 864 576" width="864pt" xmlns="http://www.w3.org/2000/svg" xmlns:xlink="http://www.w3.org/1999/xlink">
 <defs>
  <style type="text/css">
*{stroke-linecap:butt;stroke-linejoin:round;stroke-miterlimit:100000;}
  </style>
 </defs>
 <g id="figure_1">
  <g id="patch_1">
   <path d="M 0 576 
L 864 576 
L 864 0 
L 0 0 
z
" style="fill:#ffffff;"/>
  </g>
  <g id="axes_1">
   <g id="patch_2">
    <path d="M 108 504 
L 777.6 504 
L 777.6 57.6 
L 108 57.6 
z
" style="fill:#eaeaf2;"/>
   </g>
   <g id="matplotlib.axis_1">
    <g id="xtick_1">
     <g id="line2d_1">
      <path clip-path="url(#p526bf85a22)" d="M 137.085489 504 
L 137.085489 57.6 
" style="fill:none;stroke:#ffffff;stroke-linecap:round;"/>
     </g>
     <g id="line2d_2">
      <defs>
       <path d="M 0 0 
L 0 0 
" id="mc3e438505c" style="stroke:#262626;"/>
      </defs>
      <g>
       <use style="fill:#262626;stroke:#262626;" x="137.085489467" xlink:href="#mc3e438505c" y="504.0"/>
      </g>
     </g>
     <g id="line2d_3">
      <g>
       <use style="fill:#262626;stroke:#262626;" x="137.085489467" xlink:href="#mc3e438505c" y="57.6"/>
      </g>
     </g>
     <g id="text_1">
      <!-- Mar 2015 -->
      <defs>
       <path d="M 40.4375 6.390625 
Q 35.546875 2.25 31.03125 0.53125 
Q 26.515625 -1.171875 21.34375 -1.171875 
Q 12.796875 -1.171875 8.203125 3 
Q 3.609375 7.171875 3.609375 13.671875 
Q 3.609375 17.484375 5.34375 20.625 
Q 7.078125 23.78125 9.890625 25.6875 
Q 12.703125 27.59375 16.21875 28.5625 
Q 18.796875 29.25 24.03125 29.890625 
Q 34.671875 31.15625 39.703125 32.90625 
Q 39.75 34.71875 39.75 35.203125 
Q 39.75 40.578125 37.25 42.78125 
Q 33.890625 45.75 27.25 45.75 
Q 21.046875 45.75 18.09375 43.578125 
Q 15.140625 41.40625 13.71875 35.890625 
L 5.125 37.0625 
Q 6.296875 42.578125 8.984375 45.96875 
Q 11.671875 49.359375 16.75 51.1875 
Q 21.828125 53.03125 28.515625 53.03125 
Q 35.15625 53.03125 39.296875 51.46875 
Q 43.453125 49.90625 45.40625 47.53125 
Q 47.359375 45.171875 48.140625 41.546875 
Q 48.578125 39.3125 48.578125 33.453125 
L 48.578125 21.734375 
Q 48.578125 9.46875 49.140625 6.21875 
Q 49.703125 2.984375 51.375 0 
L 42.1875 0 
Q 40.828125 2.734375 40.4375 6.390625 
M 39.703125 26.03125 
Q 34.90625 24.078125 25.34375 22.703125 
Q 19.921875 21.921875 17.671875 20.9375 
Q 15.4375 19.96875 14.203125 18.09375 
Q 12.984375 16.21875 12.984375 13.921875 
Q 12.984375 10.40625 15.640625 8.0625 
Q 18.3125 5.71875 23.4375 5.71875 
Q 28.515625 5.71875 32.46875 7.9375 
Q 36.421875 10.15625 38.28125 14.015625 
Q 39.703125 17 39.703125 22.796875 
z
" id="ArialMT-61"/>
       <path d="M 6.5 0 
L 6.5 51.859375 
L 14.40625 51.859375 
L 14.40625 44 
Q 17.4375 49.515625 20 51.265625 
Q 22.5625 53.03125 25.640625 53.03125 
Q 30.078125 53.03125 34.671875 50.203125 
L 31.640625 42.046875 
Q 28.421875 43.953125 25.203125 43.953125 
Q 22.3125 43.953125 20.015625 42.21875 
Q 17.71875 40.484375 16.75 37.40625 
Q 15.28125 32.71875 15.28125 27.15625 
L 15.28125 0 
z
" id="ArialMT-72"/>
       <path d="M 4.15625 18.75 
L 13.375 19.53125 
Q 14.40625 12.796875 18.140625 9.390625 
Q 21.875 6 27.15625 6 
Q 33.5 6 37.890625 10.78125 
Q 42.28125 15.578125 42.28125 23.484375 
Q 42.28125 31 38.0625 35.34375 
Q 33.84375 39.703125 27 39.703125 
Q 22.75 39.703125 19.328125 37.765625 
Q 15.921875 35.84375 13.96875 32.765625 
L 5.71875 33.84375 
L 12.640625 70.609375 
L 48.25 70.609375 
L 48.25 62.203125 
L 19.671875 62.203125 
L 15.828125 42.96875 
Q 22.265625 47.46875 29.34375 47.46875 
Q 38.71875 47.46875 45.15625 40.96875 
Q 51.609375 34.46875 51.609375 24.265625 
Q 51.609375 14.546875 45.953125 7.46875 
Q 39.0625 -1.21875 27.15625 -1.21875 
Q 17.390625 -1.21875 11.203125 4.25 
Q 5.03125 9.71875 4.15625 18.75 
" id="ArialMT-35"/>
       <path d="M 4.15625 35.296875 
Q 4.15625 48 6.765625 55.734375 
Q 9.375 63.484375 14.515625 67.671875 
Q 19.671875 71.875 27.484375 71.875 
Q 33.25 71.875 37.59375 69.546875 
Q 41.9375 67.234375 44.765625 62.859375 
Q 47.609375 58.5 49.21875 52.21875 
Q 50.828125 45.953125 50.828125 35.296875 
Q 50.828125 22.703125 48.234375 14.96875 
Q 45.65625 7.234375 40.5 3 
Q 35.359375 -1.21875 27.484375 -1.21875 
Q 17.140625 -1.21875 11.234375 6.203125 
Q 4.15625 15.140625 4.15625 35.296875 
M 13.1875 35.296875 
Q 13.1875 17.671875 17.3125 11.828125 
Q 21.4375 6 27.484375 6 
Q 33.546875 6 37.671875 11.859375 
Q 41.796875 17.71875 41.796875 35.296875 
Q 41.796875 52.984375 37.671875 58.78125 
Q 33.546875 64.59375 27.390625 64.59375 
Q 21.34375 64.59375 17.71875 59.46875 
Q 13.1875 52.9375 13.1875 35.296875 
" id="ArialMT-30"/>
       <path d="M 37.25 0 
L 28.46875 0 
L 28.46875 56 
Q 25.296875 52.984375 20.140625 49.953125 
Q 14.984375 46.921875 10.890625 45.40625 
L 10.890625 53.90625 
Q 18.265625 57.375 23.78125 62.296875 
Q 29.296875 67.234375 31.59375 71.875 
L 37.25 71.875 
z
" id="ArialMT-31"/>
       <path d="M 50.34375 8.453125 
L 50.34375 0 
L 3.03125 0 
Q 2.9375 3.171875 4.046875 6.109375 
Q 5.859375 10.9375 9.828125 15.625 
Q 13.8125 20.3125 21.34375 26.46875 
Q 33.015625 36.03125 37.109375 41.625 
Q 41.21875 47.21875 41.21875 52.203125 
Q 41.21875 57.421875 37.46875 61 
Q 33.734375 64.59375 27.734375 64.59375 
Q 21.390625 64.59375 17.578125 60.78125 
Q 13.765625 56.984375 13.71875 50.25 
L 4.6875 51.171875 
Q 5.609375 61.28125 11.65625 66.578125 
Q 17.71875 71.875 27.9375 71.875 
Q 38.234375 71.875 44.234375 66.15625 
Q 50.25 60.453125 50.25 52 
Q 50.25 47.703125 48.484375 43.546875 
Q 46.734375 39.40625 42.65625 34.8125 
Q 38.578125 30.21875 29.109375 22.21875 
Q 21.1875 15.578125 18.9375 13.203125 
Q 16.703125 10.84375 15.234375 8.453125 
z
" id="ArialMT-32"/>
       <path d="M 7.421875 0 
L 7.421875 71.578125 
L 21.6875 71.578125 
L 38.625 20.90625 
Q 40.96875 13.8125 42.046875 10.296875 
Q 43.265625 14.203125 45.84375 21.78125 
L 62.984375 71.578125 
L 75.734375 71.578125 
L 75.734375 0 
L 66.609375 0 
L 66.609375 59.90625 
L 45.796875 0 
L 37.25 0 
L 16.546875 60.9375 
L 16.546875 0 
z
" id="ArialMT-4d"/>
       <path id="ArialMT-20"/>
      </defs>
      <g style="fill:#262626;" transform="translate(132.290902207 553.142787937)rotate(-70.0)scale(0.1 -0.1)">
       <use xlink:href="#ArialMT-4d"/>
       <use x="83.30078125" xlink:href="#ArialMT-61"/>
       <use x="138.916015625" xlink:href="#ArialMT-72"/>
       <use x="172.216796875" xlink:href="#ArialMT-20"/>
       <use x="200.0" xlink:href="#ArialMT-32"/>
       <use x="255.615234375" xlink:href="#ArialMT-30"/>
       <use x="311.23046875" xlink:href="#ArialMT-31"/>
       <use x="366.845703125" xlink:href="#ArialMT-35"/>
      </g>
     </g>
    </g>
    <g id="xtick_2">
     <g id="line2d_4">
      <path clip-path="url(#p526bf85a22)" d="M 209.334373 504 
L 209.334373 57.6 
" style="fill:none;stroke:#ffffff;stroke-linecap:round;"/>
     </g>
     <g id="line2d_5">
      <g>
       <use style="fill:#262626;stroke:#262626;" x="209.334372604" xlink:href="#mc3e438505c" y="504.0"/>
      </g>
     </g>
     <g id="line2d_6">
      <g>
       <use style="fill:#262626;stroke:#262626;" x="209.334372604" xlink:href="#mc3e438505c" y="57.6"/>
      </g>
     </g>
     <g id="text_2">
      <!-- Apr 2015 -->
      <defs>
       <path d="M -0.140625 0 
L 27.34375 71.578125 
L 37.546875 71.578125 
L 66.84375 0 
L 56.0625 0 
L 47.703125 21.6875 
L 17.78125 21.6875 
L 9.90625 0 
z
M 20.515625 29.390625 
L 44.78125 29.390625 
L 37.3125 49.21875 
Q 33.890625 58.25 32.234375 64.0625 
Q 30.859375 57.171875 28.375 50.390625 
z
" id="ArialMT-41"/>
       <path d="M 6.59375 -19.875 
L 6.59375 51.859375 
L 14.59375 51.859375 
L 14.59375 45.125 
Q 17.4375 49.078125 21 51.046875 
Q 24.5625 53.03125 29.640625 53.03125 
Q 36.28125 53.03125 41.359375 49.609375 
Q 46.4375 46.1875 49.015625 39.953125 
Q 51.609375 33.734375 51.609375 26.3125 
Q 51.609375 18.359375 48.75 11.984375 
Q 45.90625 5.609375 40.453125 2.21875 
Q 35.015625 -1.171875 29 -1.171875 
Q 24.609375 -1.171875 21.109375 0.6875 
Q 17.625 2.546875 15.375 5.375 
L 15.375 -19.875 
z
M 14.546875 25.640625 
Q 14.546875 15.625 18.59375 10.84375 
Q 22.65625 6.0625 28.421875 6.0625 
Q 34.28125 6.0625 38.453125 11.015625 
Q 42.625 15.96875 42.625 26.375 
Q 42.625 36.28125 38.546875 41.203125 
Q 34.46875 46.140625 28.8125 46.140625 
Q 23.1875 46.140625 18.859375 40.890625 
Q 14.546875 35.640625 14.546875 25.640625 
" id="ArialMT-70"/>
      </defs>
      <g style="fill:#262626;" transform="translate(204.837503744 551.593639217)rotate(-70.0)scale(0.1 -0.1)">
       <use xlink:href="#ArialMT-41"/>
       <use x="66.69921875" xlink:href="#ArialMT-70"/>
       <use x="122.314453125" xlink:href="#ArialMT-72"/>
       <use x="155.615234375" xlink:href="#ArialMT-20"/>
       <use x="183.3984375" xlink:href="#ArialMT-32"/>
       <use x="239.013671875" xlink:href="#ArialMT-30"/>
       <use x="294.62890625" xlink:href="#ArialMT-31"/>
       <use x="350.244140625" xlink:href="#ArialMT-35"/>
      </g>
     </g>
    </g>
    <g id="xtick_3">
     <g id="line2d_7">
      <path clip-path="url(#p526bf85a22)" d="M 279.252647 504 
L 279.252647 57.6 
" style="fill:none;stroke:#ffffff;stroke-linecap:round;"/>
     </g>
     <g id="line2d_8">
      <g>
       <use style="fill:#262626;stroke:#262626;" x="279.252646607" xlink:href="#mc3e438505c" y="504.0"/>
      </g>
     </g>
     <g id="line2d_9">
      <g>
       <use style="fill:#262626;stroke:#262626;" x="279.252646607" xlink:href="#mc3e438505c" y="57.6"/>
      </g>
     </g>
     <g id="text_3">
      <!-- May 2015 -->
      <defs>
       <path d="M 6.203125 -19.96875 
L 5.21875 -11.71875 
Q 8.109375 -12.5 10.25 -12.5 
Q 13.1875 -12.5 14.9375 -11.515625 
Q 16.703125 -10.546875 17.828125 -8.796875 
Q 18.65625 -7.46875 20.515625 -2.25 
Q 20.75 -1.515625 21.296875 -0.09375 
L 1.609375 51.859375 
L 11.078125 51.859375 
L 21.875 21.828125 
Q 23.96875 16.109375 25.640625 9.8125 
Q 27.15625 15.875 29.25 21.625 
L 40.328125 51.859375 
L 49.125 51.859375 
L 29.390625 -0.875 
Q 26.21875 -9.421875 24.46875 -12.640625 
Q 22.125 -17 19.09375 -19.015625 
Q 16.0625 -21.046875 11.859375 -21.046875 
Q 9.328125 -21.046875 6.203125 -19.96875 
" id="ArialMT-79"/>
      </defs>
      <g style="fill:#262626;" transform="translate(274.131307535 554.72252199)rotate(-70.0)scale(0.1 -0.1)">
       <use xlink:href="#ArialMT-4d"/>
       <use x="83.30078125" xlink:href="#ArialMT-61"/>
       <use x="138.916015625" xlink:href="#ArialMT-79"/>
       <use x="188.916015625" xlink:href="#ArialMT-20"/>
       <use x="216.69921875" xlink:href="#ArialMT-32"/>
       <use x="272.314453125" xlink:href="#ArialMT-30"/>
       <use x="327.9296875" xlink:href="#ArialMT-31"/>
       <use x="383.544921875" xlink:href="#ArialMT-35"/>
      </g>
     </g>
    </g>
    <g id="xtick_4">
     <g id="line2d_10">
      <path clip-path="url(#p526bf85a22)" d="M 351.50153 504 
L 351.50153 57.6 
" style="fill:none;stroke:#ffffff;stroke-linecap:round;"/>
     </g>
     <g id="line2d_11">
      <g>
       <use style="fill:#262626;stroke:#262626;" x="351.501529743" xlink:href="#mc3e438505c" y="504.0"/>
      </g>
     </g>
     <g id="line2d_12">
      <g>
       <use style="fill:#262626;stroke:#262626;" x="351.501529743" xlink:href="#mc3e438505c" y="57.6"/>
      </g>
     </g>
     <g id="text_4">
      <!-- Jun 2015 -->
      <defs>
       <path d="M 2.875 20.3125 
L 11.421875 21.484375 
Q 11.765625 13.28125 14.5 10.25 
Q 17.234375 7.234375 22.078125 7.234375 
Q 25.640625 7.234375 28.21875 8.859375 
Q 30.8125 10.5 31.78125 13.296875 
Q 32.765625 16.109375 32.765625 22.265625 
L 32.765625 71.578125 
L 42.234375 71.578125 
L 42.234375 22.796875 
Q 42.234375 13.8125 40.0625 8.875 
Q 37.890625 3.953125 33.171875 1.359375 
Q 28.46875 -1.21875 22.125 -1.21875 
Q 12.703125 -1.21875 7.6875 4.203125 
Q 2.6875 9.625 2.875 20.3125 
" id="ArialMT-4a"/>
       <path d="M 40.578125 0 
L 40.578125 7.625 
Q 34.515625 -1.171875 24.125 -1.171875 
Q 19.53125 -1.171875 15.546875 0.578125 
Q 11.578125 2.34375 9.640625 5 
Q 7.71875 7.671875 6.9375 11.53125 
Q 6.390625 14.109375 6.390625 19.734375 
L 6.390625 51.859375 
L 15.1875 51.859375 
L 15.1875 23.09375 
Q 15.1875 16.21875 15.71875 13.8125 
Q 16.546875 10.359375 19.234375 8.375 
Q 21.921875 6.390625 25.875 6.390625 
Q 29.828125 6.390625 33.296875 8.421875 
Q 36.765625 10.453125 38.203125 13.9375 
Q 39.65625 17.4375 39.65625 24.078125 
L 39.65625 51.859375 
L 48.4375 51.859375 
L 48.4375 0 
z
" id="ArialMT-75"/>
       <path d="M 6.59375 0 
L 6.59375 51.859375 
L 14.5 51.859375 
L 14.5 44.484375 
Q 20.21875 53.03125 31 53.03125 
Q 35.6875 53.03125 39.625 51.34375 
Q 43.5625 49.65625 45.515625 46.921875 
Q 47.46875 44.1875 48.25 40.4375 
Q 48.734375 37.984375 48.734375 31.890625 
L 48.734375 0 
L 39.9375 0 
L 39.9375 31.546875 
Q 39.9375 36.921875 38.90625 39.578125 
Q 37.890625 42.234375 35.28125 43.8125 
Q 32.671875 45.40625 29.15625 45.40625 
Q 23.53125 45.40625 19.453125 41.84375 
Q 15.375 38.28125 15.375 28.328125 
L 15.375 0 
z
" id="ArialMT-6e"/>
      </defs>
      <g style="fill:#262626;" transform="translate(346.894786359 552.110594324)rotate(-70.0)scale(0.1 -0.1)">
       <use xlink:href="#ArialMT-4a"/>
       <use x="50.0" xlink:href="#ArialMT-75"/>
       <use x="105.615234375" xlink:href="#ArialMT-6e"/>
       <use x="161.23046875" xlink:href="#ArialMT-20"/>
       <use x="189.013671875" xlink:href="#ArialMT-32"/>
       <use x="244.62890625" xlink:href="#ArialMT-30"/>
       <use x="300.244140625" xlink:href="#ArialMT-31"/>
       <use x="355.859375" xlink:href="#ArialMT-35"/>
      </g>
     </g>
    </g>
    <g id="xtick_5">
     <g id="line2d_13">
      <path clip-path="url(#p526bf85a22)" d="M 421.419804 504 
L 421.419804 57.6 
" style="fill:none;stroke:#ffffff;stroke-linecap:round;"/>
     </g>
     <g id="line2d_14">
      <g>
       <use style="fill:#262626;stroke:#262626;" x="421.419803747" xlink:href="#mc3e438505c" y="504.0"/>
      </g>
     </g>
     <g id="line2d_15">
      <g>
       <use style="fill:#262626;stroke:#262626;" x="421.419803747" xlink:href="#mc3e438505c" y="57.6"/>
      </g>
     </g>
     <g id="text_5">
      <!-- Jul 2015 -->
      <defs>
       <path d="M 6.390625 0 
L 6.390625 71.578125 
L 15.1875 71.578125 
L 15.1875 0 
z
" id="ArialMT-6c"/>
      </defs>
      <g style="fill:#262626;" transform="translate(417.38407368 548.972901932)rotate(-70.0)scale(0.1 -0.1)">
       <use xlink:href="#ArialMT-4a"/>
       <use x="50.0" xlink:href="#ArialMT-75"/>
       <use x="105.615234375" xlink:href="#ArialMT-6c"/>
       <use x="127.83203125" xlink:href="#ArialMT-20"/>
       <use x="155.615234375" xlink:href="#ArialMT-32"/>
       <use x="211.23046875" xlink:href="#ArialMT-30"/>
       <use x="266.845703125" xlink:href="#ArialMT-31"/>
       <use x="322.4609375" xlink:href="#ArialMT-35"/>
      </g>
     </g>
    </g>
    <g id="xtick_6">
     <g id="line2d_16">
      <path clip-path="url(#p526bf85a22)" d="M 493.668687 504 
L 493.668687 57.6 
" style="fill:none;stroke:#ffffff;stroke-linecap:round;"/>
     </g>
     <g id="line2d_17">
      <g>
       <use style="fill:#262626;stroke:#262626;" x="493.668686883" xlink:href="#mc3e438505c" y="504.0"/>
      </g>
     </g>
     <g id="line2d_18">
      <g>
       <use style="fill:#262626;stroke:#262626;" x="493.668686883" xlink:href="#mc3e438505c" y="57.6"/>
      </g>
     </g>
     <g id="text_6">
      <!-- Aug 2015 -->
      <defs>
       <path d="M 4.984375 -4.296875 
L 13.53125 -5.5625 
Q 14.0625 -9.515625 16.5 -11.328125 
Q 19.78125 -13.765625 25.4375 -13.765625 
Q 31.546875 -13.765625 34.859375 -11.328125 
Q 38.1875 -8.890625 39.359375 -4.5 
Q 40.046875 -1.8125 39.984375 6.78125 
Q 34.234375 0 25.640625 0 
Q 14.9375 0 9.078125 7.71875 
Q 3.21875 15.4375 3.21875 26.21875 
Q 3.21875 33.640625 5.90625 39.90625 
Q 8.59375 46.1875 13.6875 49.609375 
Q 18.796875 53.03125 25.6875 53.03125 
Q 34.859375 53.03125 40.828125 45.609375 
L 40.828125 51.859375 
L 48.921875 51.859375 
L 48.921875 7.03125 
Q 48.921875 -5.078125 46.453125 -10.125 
Q 44 -15.1875 38.640625 -18.109375 
Q 33.296875 -21.046875 25.484375 -21.046875 
Q 16.21875 -21.046875 10.5 -16.875 
Q 4.78125 -12.703125 4.984375 -4.296875 
M 12.25 26.859375 
Q 12.25 16.65625 16.296875 11.96875 
Q 20.359375 7.28125 26.46875 7.28125 
Q 32.515625 7.28125 36.609375 11.9375 
Q 40.71875 16.609375 40.71875 26.5625 
Q 40.71875 36.078125 36.5 40.90625 
Q 32.28125 45.75 26.3125 45.75 
Q 20.453125 45.75 16.34375 40.984375 
Q 12.25 36.234375 12.25 26.859375 
" id="ArialMT-67"/>
      </defs>
      <g style="fill:#262626;" transform="translate(488.735191687 553.690328377)rotate(-70.0)scale(0.1 -0.1)">
       <use xlink:href="#ArialMT-41"/>
       <use x="66.69921875" xlink:href="#ArialMT-75"/>
       <use x="122.314453125" xlink:href="#ArialMT-67"/>
       <use x="177.9296875" xlink:href="#ArialMT-20"/>
       <use x="205.712890625" xlink:href="#ArialMT-32"/>
       <use x="261.328125" xlink:href="#ArialMT-30"/>
       <use x="316.943359375" xlink:href="#ArialMT-31"/>
       <use x="372.55859375" xlink:href="#ArialMT-35"/>
      </g>
     </g>
    </g>
    <g id="xtick_7">
     <g id="line2d_19">
      <path clip-path="url(#p526bf85a22)" d="M 565.91757 504 
L 565.91757 57.6 
" style="fill:none;stroke:#ffffff;stroke-linecap:round;"/>
     </g>
     <g id="line2d_20">
      <g>
       <use style="fill:#262626;stroke:#262626;" x="565.91757002" xlink:href="#mc3e438505c" y="504.0"/>
      </g>
     </g>
     <g id="line2d_21">
      <g>
       <use style="fill:#262626;stroke:#262626;" x="565.91757002" xlink:href="#mc3e438505c" y="57.6"/>
      </g>
     </g>
     <g id="text_7">
      <!-- Sep 2015 -->
      <defs>
       <path d="M 4.5 23 
L 13.421875 23.78125 
Q 14.0625 18.40625 16.375 14.96875 
Q 18.703125 11.53125 23.578125 9.40625 
Q 28.46875 7.28125 34.578125 7.28125 
Q 39.984375 7.28125 44.140625 8.890625 
Q 48.296875 10.5 50.3125 13.296875 
Q 52.34375 16.109375 52.34375 19.4375 
Q 52.34375 22.796875 50.390625 25.3125 
Q 48.4375 27.828125 43.953125 29.546875 
Q 41.0625 30.671875 31.203125 33.03125 
Q 21.34375 35.40625 17.390625 37.5 
Q 12.25 40.1875 9.734375 44.15625 
Q 7.234375 48.140625 7.234375 53.078125 
Q 7.234375 58.5 10.296875 63.203125 
Q 13.375 67.921875 19.28125 70.359375 
Q 25.203125 72.796875 32.421875 72.796875 
Q 40.375 72.796875 46.453125 70.234375 
Q 52.546875 67.671875 55.8125 62.6875 
Q 59.078125 57.71875 59.328125 51.421875 
L 50.25 50.734375 
Q 49.515625 57.515625 45.28125 60.984375 
Q 41.0625 64.453125 32.8125 64.453125 
Q 24.21875 64.453125 20.28125 61.296875 
Q 16.359375 58.15625 16.359375 53.71875 
Q 16.359375 49.859375 19.140625 47.359375 
Q 21.875 44.875 33.421875 42.265625 
Q 44.96875 39.65625 49.265625 37.703125 
Q 55.515625 34.8125 58.484375 30.390625 
Q 61.46875 25.984375 61.46875 20.21875 
Q 61.46875 14.5 58.203125 9.4375 
Q 54.9375 4.390625 48.796875 1.578125 
Q 42.671875 -1.21875 35.015625 -1.21875 
Q 25.296875 -1.21875 18.71875 1.609375 
Q 12.15625 4.4375 8.421875 10.125 
Q 4.6875 15.828125 4.5 23 
" id="ArialMT-53"/>
       <path d="M 42.09375 16.703125 
L 51.171875 15.578125 
Q 49.03125 7.625 43.21875 3.21875 
Q 37.40625 -1.171875 28.375 -1.171875 
Q 17 -1.171875 10.328125 5.828125 
Q 3.65625 12.84375 3.65625 25.484375 
Q 3.65625 38.578125 10.390625 45.796875 
Q 17.140625 53.03125 27.875 53.03125 
Q 38.28125 53.03125 44.875 45.953125 
Q 51.46875 38.875 51.46875 26.03125 
Q 51.46875 25.25 51.421875 23.6875 
L 12.75 23.6875 
Q 13.234375 15.140625 17.578125 10.59375 
Q 21.921875 6.0625 28.421875 6.0625 
Q 33.25 6.0625 36.671875 8.59375 
Q 40.09375 11.140625 42.09375 16.703125 
M 13.234375 30.90625 
L 42.1875 30.90625 
Q 41.609375 37.453125 38.875 40.71875 
Q 34.671875 45.796875 27.984375 45.796875 
Q 21.921875 45.796875 17.796875 41.75 
Q 13.671875 37.703125 13.234375 30.90625 
" id="ArialMT-65"/>
      </defs>
      <g style="fill:#262626;" transform="translate(561.082448894 553.721858359)rotate(-70.0)scale(0.1 -0.1)">
       <use xlink:href="#ArialMT-53"/>
       <use x="66.69921875" xlink:href="#ArialMT-65"/>
       <use x="122.314453125" xlink:href="#ArialMT-70"/>
       <use x="177.9296875" xlink:href="#ArialMT-20"/>
       <use x="205.712890625" xlink:href="#ArialMT-32"/>
       <use x="261.328125" xlink:href="#ArialMT-30"/>
       <use x="316.943359375" xlink:href="#ArialMT-31"/>
       <use x="372.55859375" xlink:href="#ArialMT-35"/>
      </g>
     </g>
    </g>
    <g id="xtick_8">
     <g id="line2d_22">
      <path clip-path="url(#p526bf85a22)" d="M 635.835844 504 
L 635.835844 57.6 
" style="fill:none;stroke:#ffffff;stroke-linecap:round;"/>
     </g>
     <g id="line2d_23">
      <g>
       <use style="fill:#262626;stroke:#262626;" x="635.835844023" xlink:href="#mc3e438505c" y="504.0"/>
      </g>
     </g>
     <g id="line2d_24">
      <g>
       <use style="fill:#262626;stroke:#262626;" x="635.835844023" xlink:href="#mc3e438505c" y="57.6"/>
      </g>
     </g>
     <g id="text_8">
      <!-- Oct 2015 -->
      <defs>
       <path d="M 40.4375 19 
L 49.078125 17.875 
Q 47.65625 8.9375 41.8125 3.875 
Q 35.984375 -1.171875 27.484375 -1.171875 
Q 16.84375 -1.171875 10.375 5.78125 
Q 3.90625 12.75 3.90625 25.734375 
Q 3.90625 34.125 6.6875 40.421875 
Q 9.46875 46.734375 15.15625 49.875 
Q 20.84375 53.03125 27.546875 53.03125 
Q 35.984375 53.03125 41.359375 48.75 
Q 46.734375 44.484375 48.25 36.625 
L 39.703125 35.296875 
Q 38.484375 40.53125 35.375 43.15625 
Q 32.28125 45.796875 27.875 45.796875 
Q 21.234375 45.796875 17.078125 41.03125 
Q 12.9375 36.28125 12.9375 25.984375 
Q 12.9375 15.53125 16.9375 10.796875 
Q 20.953125 6.0625 27.390625 6.0625 
Q 32.5625 6.0625 36.03125 9.234375 
Q 39.5 12.40625 40.4375 19 
" id="ArialMT-63"/>
       <path d="M 25.78125 7.859375 
L 27.046875 0.09375 
Q 23.34375 -0.6875 20.40625 -0.6875 
Q 15.625 -0.6875 12.984375 0.828125 
Q 10.359375 2.34375 9.28125 4.8125 
Q 8.203125 7.28125 8.203125 15.1875 
L 8.203125 45.015625 
L 1.765625 45.015625 
L 1.765625 51.859375 
L 8.203125 51.859375 
L 8.203125 64.703125 
L 16.9375 69.96875 
L 16.9375 51.859375 
L 25.78125 51.859375 
L 25.78125 45.015625 
L 16.9375 45.015625 
L 16.9375 14.703125 
Q 16.9375 10.9375 17.40625 9.859375 
Q 17.875 8.796875 18.921875 8.15625 
Q 19.96875 7.515625 21.921875 7.515625 
Q 23.390625 7.515625 25.78125 7.859375 
" id="ArialMT-74"/>
       <path d="M 4.828125 34.859375 
Q 4.828125 52.6875 14.390625 62.765625 
Q 23.96875 72.859375 39.109375 72.859375 
Q 49.03125 72.859375 56.984375 68.109375 
Q 64.9375 63.375 69.109375 54.90625 
Q 73.296875 46.4375 73.296875 35.6875 
Q 73.296875 24.8125 68.890625 16.21875 
Q 64.5 7.625 56.4375 3.203125 
Q 48.390625 -1.21875 39.0625 -1.21875 
Q 28.953125 -1.21875 20.984375 3.65625 
Q 13.03125 8.546875 8.921875 16.984375 
Q 4.828125 25.4375 4.828125 34.859375 
M 14.59375 34.71875 
Q 14.59375 21.78125 21.546875 14.328125 
Q 28.515625 6.890625 39.015625 6.890625 
Q 49.703125 6.890625 56.609375 14.40625 
Q 63.53125 21.921875 63.53125 35.75 
Q 63.53125 44.484375 60.578125 51 
Q 57.625 57.515625 51.921875 61.109375 
Q 46.234375 64.703125 39.15625 64.703125 
Q 29.109375 64.703125 21.84375 57.78125 
Q 14.59375 50.875 14.59375 34.71875 
" id="ArialMT-4f"/>
      </defs>
      <g style="fill:#262626;" transform="translate(631.325828211 551.579080685)rotate(-70.0)scale(0.1 -0.1)">
       <use xlink:href="#ArialMT-4f"/>
       <use x="77.783203125" xlink:href="#ArialMT-63"/>
       <use x="127.783203125" xlink:href="#ArialMT-74"/>
       <use x="155.56640625" xlink:href="#ArialMT-20"/>
       <use x="183.349609375" xlink:href="#ArialMT-32"/>
       <use x="238.96484375" xlink:href="#ArialMT-30"/>
       <use x="294.580078125" xlink:href="#ArialMT-31"/>
       <use x="350.1953125" xlink:href="#ArialMT-35"/>
      </g>
     </g>
    </g>
    <g id="xtick_9">
     <g id="line2d_25">
      <path clip-path="url(#p526bf85a22)" d="M 708.084727 504 
L 708.084727 57.6 
" style="fill:none;stroke:#ffffff;stroke-linecap:round;"/>
     </g>
     <g id="line2d_26">
      <g>
       <use style="fill:#262626;stroke:#262626;" x="708.08472716" xlink:href="#mc3e438505c" y="504.0"/>
      </g>
     </g>
     <g id="line2d_27">
      <g>
       <use style="fill:#262626;stroke:#262626;" x="708.08472716" xlink:href="#mc3e438505c" y="57.6"/>
      </g>
     </g>
     <g id="text_9">
      <!-- Nov 2015 -->
      <defs>
       <path d="M 21 0 
L 1.265625 51.859375 
L 10.546875 51.859375 
L 21.6875 20.796875 
Q 23.484375 15.765625 25 10.359375 
Q 26.171875 14.453125 28.265625 20.21875 
L 39.796875 51.859375 
L 48.828125 51.859375 
L 29.203125 0 
z
" id="ArialMT-76"/>
       <path d="M 7.625 0 
L 7.625 71.578125 
L 17.328125 71.578125 
L 54.9375 15.375 
L 54.9375 71.578125 
L 64.015625 71.578125 
L 64.015625 0 
L 54.296875 0 
L 16.703125 56.25 
L 16.703125 0 
z
" id="ArialMT-4e"/>
       <path d="M 3.328125 25.921875 
Q 3.328125 40.328125 11.328125 47.265625 
Q 18.015625 53.03125 27.640625 53.03125 
Q 38.328125 53.03125 45.109375 46.015625 
Q 51.90625 39.015625 51.90625 26.65625 
Q 51.90625 16.65625 48.90625 10.90625 
Q 45.90625 5.171875 40.15625 2 
Q 34.421875 -1.171875 27.640625 -1.171875 
Q 16.75 -1.171875 10.03125 5.8125 
Q 3.328125 12.796875 3.328125 25.921875 
M 12.359375 25.921875 
Q 12.359375 15.96875 16.703125 11.015625 
Q 21.046875 6.0625 27.640625 6.0625 
Q 34.1875 6.0625 38.53125 11.03125 
Q 42.875 16.015625 42.875 26.21875 
Q 42.875 35.84375 38.5 40.796875 
Q 34.125 45.75 27.640625 45.75 
Q 21.046875 45.75 16.703125 40.8125 
Q 12.359375 35.890625 12.359375 25.921875 
" id="ArialMT-6f"/>
      </defs>
      <g style="fill:#262626;" transform="translate(703.193946734 553.671365036)rotate(-70.0)scale(0.1 -0.1)">
       <use xlink:href="#ArialMT-4e"/>
       <use x="72.216796875" xlink:href="#ArialMT-6f"/>
       <use x="127.83203125" xlink:href="#ArialMT-76"/>
       <use x="177.83203125" xlink:href="#ArialMT-20"/>
       <use x="205.615234375" xlink:href="#ArialMT-32"/>
       <use x="261.23046875" xlink:href="#ArialMT-30"/>
       <use x="316.845703125" xlink:href="#ArialMT-31"/>
       <use x="372.4609375" xlink:href="#ArialMT-35"/>
      </g>
     </g>
    </g>
   </g>
   <g id="matplotlib.axis_2">
    <g id="ytick_1">
     <g id="line2d_28">
      <path clip-path="url(#p526bf85a22)" d="M 108 504 
L 777.6 504 
" style="fill:none;stroke:#ffffff;stroke-linecap:round;"/>
     </g>
     <g id="line2d_29">
      <g>
       <use style="fill:#262626;stroke:#262626;" x="108.0" xlink:href="#mc3e438505c" y="504.0"/>
      </g>
     </g>
     <g id="line2d_30">
      <g>
       <use style="fill:#262626;stroke:#262626;" x="777.6" xlink:href="#mc3e438505c" y="504.0"/>
      </g>
     </g>
     <g id="text_10">
      <!-- 0 -->
      <g style="fill:#262626;" transform="translate(95.4390625 506.58515625)scale(0.1 -0.1)">
       <use xlink:href="#ArialMT-30"/>
      </g>
     </g>
    </g>
    <g id="ytick_2">
     <g id="line2d_31">
      <path clip-path="url(#p526bf85a22)" d="M 108 429.6 
L 777.6 429.6 
" style="fill:none;stroke:#ffffff;stroke-linecap:round;"/>
     </g>
     <g id="line2d_32">
      <g>
       <use style="fill:#262626;stroke:#262626;" x="108.0" xlink:href="#mc3e438505c" y="429.6"/>
      </g>
     </g>
     <g id="line2d_33">
      <g>
       <use style="fill:#262626;stroke:#262626;" x="777.6" xlink:href="#mc3e438505c" y="429.6"/>
      </g>
     </g>
     <g id="text_11">
      <!-- 20 -->
      <g style="fill:#262626;" transform="translate(89.878125 432.18515625)scale(0.1 -0.1)">
       <use xlink:href="#ArialMT-32"/>
       <use x="55.615234375" xlink:href="#ArialMT-30"/>
      </g>
     </g>
    </g>
    <g id="ytick_3">
     <g id="line2d_34">
      <path clip-path="url(#p526bf85a22)" d="M 108 355.2 
L 777.6 355.2 
" style="fill:none;stroke:#ffffff;stroke-linecap:round;"/>
     </g>
     <g id="line2d_35">
      <g>
       <use style="fill:#262626;stroke:#262626;" x="108.0" xlink:href="#mc3e438505c" y="355.2"/>
      </g>
     </g>
     <g id="line2d_36">
      <g>
       <use style="fill:#262626;stroke:#262626;" x="777.6" xlink:href="#mc3e438505c" y="355.2"/>
      </g>
     </g>
     <g id="text_12">
      <!-- 40 -->
      <defs>
       <path d="M 32.328125 0 
L 32.328125 17.140625 
L 1.265625 17.140625 
L 1.265625 25.203125 
L 33.9375 71.578125 
L 41.109375 71.578125 
L 41.109375 25.203125 
L 50.78125 25.203125 
L 50.78125 17.140625 
L 41.109375 17.140625 
L 41.109375 0 
z
M 32.328125 25.203125 
L 32.328125 57.46875 
L 9.90625 25.203125 
z
" id="ArialMT-34"/>
      </defs>
      <g style="fill:#262626;" transform="translate(89.878125 357.78515625)scale(0.1 -0.1)">
       <use xlink:href="#ArialMT-34"/>
       <use x="55.615234375" xlink:href="#ArialMT-30"/>
      </g>
     </g>
    </g>
    <g id="ytick_4">
     <g id="line2d_37">
      <path clip-path="url(#p526bf85a22)" d="M 108 280.8 
L 777.6 280.8 
" style="fill:none;stroke:#ffffff;stroke-linecap:round;"/>
     </g>
     <g id="line2d_38">
      <g>
       <use style="fill:#262626;stroke:#262626;" x="108.0" xlink:href="#mc3e438505c" y="280.8"/>
      </g>
     </g>
     <g id="line2d_39">
      <g>
       <use style="fill:#262626;stroke:#262626;" x="777.6" xlink:href="#mc3e438505c" y="280.8"/>
      </g>
     </g>
     <g id="text_13">
      <!-- 60 -->
      <defs>
       <path d="M 49.75 54.046875 
L 41.015625 53.375 
Q 39.84375 58.546875 37.703125 60.890625 
Q 34.125 64.65625 28.90625 64.65625 
Q 24.703125 64.65625 21.53125 62.3125 
Q 17.390625 59.28125 14.984375 53.46875 
Q 12.59375 47.65625 12.5 36.921875 
Q 15.671875 41.75 20.265625 44.09375 
Q 24.859375 46.4375 29.890625 46.4375 
Q 38.671875 46.4375 44.84375 39.96875 
Q 51.03125 33.5 51.03125 23.25 
Q 51.03125 16.5 48.125 10.71875 
Q 45.21875 4.9375 40.140625 1.859375 
Q 35.0625 -1.21875 28.609375 -1.21875 
Q 17.625 -1.21875 10.6875 6.859375 
Q 3.765625 14.9375 3.765625 33.5 
Q 3.765625 54.25 11.421875 63.671875 
Q 18.109375 71.875 29.4375 71.875 
Q 37.890625 71.875 43.28125 67.140625 
Q 48.6875 62.40625 49.75 54.046875 
M 13.875 23.1875 
Q 13.875 18.65625 15.796875 14.5 
Q 17.71875 10.359375 21.1875 8.171875 
Q 24.65625 6 28.46875 6 
Q 34.03125 6 38.03125 10.484375 
Q 42.046875 14.984375 42.046875 22.703125 
Q 42.046875 30.125 38.078125 34.390625 
Q 34.125 38.671875 28.125 38.671875 
Q 22.171875 38.671875 18.015625 34.390625 
Q 13.875 30.125 13.875 23.1875 
" id="ArialMT-36"/>
      </defs>
      <g style="fill:#262626;" transform="translate(89.878125 283.38515625)scale(0.1 -0.1)">
       <use xlink:href="#ArialMT-36"/>
       <use x="55.615234375" xlink:href="#ArialMT-30"/>
      </g>
     </g>
    </g>
    <g id="ytick_5">
     <g id="line2d_40">
      <path clip-path="url(#p526bf85a22)" d="M 108 206.4 
L 777.6 206.4 
" style="fill:none;stroke:#ffffff;stroke-linecap:round;"/>
     </g>
     <g id="line2d_41">
      <g>
       <use style="fill:#262626;stroke:#262626;" x="108.0" xlink:href="#mc3e438505c" y="206.4"/>
      </g>
     </g>
     <g id="line2d_42">
      <g>
       <use style="fill:#262626;stroke:#262626;" x="777.6" xlink:href="#mc3e438505c" y="206.4"/>
      </g>
     </g>
     <g id="text_14">
      <!-- 80 -->
      <defs>
       <path d="M 17.671875 38.8125 
Q 12.203125 40.828125 9.5625 44.53125 
Q 6.9375 48.25 6.9375 53.421875 
Q 6.9375 61.234375 12.546875 66.546875 
Q 18.171875 71.875 27.484375 71.875 
Q 36.859375 71.875 42.578125 66.421875 
Q 48.296875 60.984375 48.296875 53.171875 
Q 48.296875 48.1875 45.671875 44.5 
Q 43.0625 40.828125 37.75 38.8125 
Q 44.34375 36.671875 47.78125 31.875 
Q 51.21875 27.09375 51.21875 20.453125 
Q 51.21875 11.28125 44.71875 5.03125 
Q 38.234375 -1.21875 27.640625 -1.21875 
Q 17.046875 -1.21875 10.546875 5.046875 
Q 4.046875 11.328125 4.046875 20.703125 
Q 4.046875 27.6875 7.59375 32.390625 
Q 11.140625 37.109375 17.671875 38.8125 
M 15.921875 53.71875 
Q 15.921875 48.640625 19.1875 45.40625 
Q 22.46875 42.1875 27.6875 42.1875 
Q 32.765625 42.1875 36.015625 45.375 
Q 39.265625 48.578125 39.265625 53.21875 
Q 39.265625 58.0625 35.90625 61.359375 
Q 32.5625 64.65625 27.59375 64.65625 
Q 22.5625 64.65625 19.234375 61.421875 
Q 15.921875 58.203125 15.921875 53.71875 
M 13.09375 20.65625 
Q 13.09375 16.890625 14.875 13.375 
Q 16.65625 9.859375 20.171875 7.921875 
Q 23.6875 6 27.734375 6 
Q 34.03125 6 38.125 10.046875 
Q 42.234375 14.109375 42.234375 20.359375 
Q 42.234375 26.703125 38.015625 30.859375 
Q 33.796875 35.015625 27.4375 35.015625 
Q 21.234375 35.015625 17.15625 30.90625 
Q 13.09375 26.8125 13.09375 20.65625 
" id="ArialMT-38"/>
      </defs>
      <g style="fill:#262626;" transform="translate(89.878125 208.98515625)scale(0.1 -0.1)">
       <use xlink:href="#ArialMT-38"/>
       <use x="55.615234375" xlink:href="#ArialMT-30"/>
      </g>
     </g>
    </g>
    <g id="ytick_6">
     <g id="line2d_43">
      <path clip-path="url(#p526bf85a22)" d="M 108 132 
L 777.6 132 
" style="fill:none;stroke:#ffffff;stroke-linecap:round;"/>
     </g>
     <g id="line2d_44">
      <g>
       <use style="fill:#262626;stroke:#262626;" x="108.0" xlink:href="#mc3e438505c" y="132.0"/>
      </g>
     </g>
     <g id="line2d_45">
      <g>
       <use style="fill:#262626;stroke:#262626;" x="777.6" xlink:href="#mc3e438505c" y="132.0"/>
      </g>
     </g>
     <g id="text_15">
      <!-- 100 -->
      <g style="fill:#262626;" transform="translate(84.3171875 134.58515625)scale(0.1 -0.1)">
       <use xlink:href="#ArialMT-31"/>
       <use x="55.615234375" xlink:href="#ArialMT-30"/>
       <use x="111.23046875" xlink:href="#ArialMT-30"/>
      </g>
     </g>
    </g>
    <g id="ytick_7">
     <g id="line2d_46">
      <path clip-path="url(#p526bf85a22)" d="M 108 57.6 
L 777.6 57.6 
" style="fill:none;stroke:#ffffff;stroke-linecap:round;"/>
     </g>
     <g id="line2d_47">
      <g>
       <use style="fill:#262626;stroke:#262626;" x="108.0" xlink:href="#mc3e438505c" y="57.6"/>
      </g>
     </g>
     <g id="line2d_48">
      <g>
       <use style="fill:#262626;stroke:#262626;" x="777.6" xlink:href="#mc3e438505c" y="57.6"/>
      </g>
     </g>
     <g id="text_16">
      <!-- 120 -->
      <g style="fill:#262626;" transform="translate(84.3171875 60.18515625)scale(0.1 -0.1)">
       <use xlink:href="#ArialMT-31"/>
       <use x="55.615234375" xlink:href="#ArialMT-32"/>
       <use x="111.23046875" xlink:href="#ArialMT-30"/>
      </g>
     </g>
    </g>
    <g id="text_17">
     <!-- Actual number of strategies -->
     <defs>
      <path d="M 14.703125 0 
L 6.546875 0 
L 6.546875 71.578125 
L 15.328125 71.578125 
L 15.328125 46.046875 
Q 20.90625 53.03125 29.546875 53.03125 
Q 34.328125 53.03125 38.59375 51.09375 
Q 42.875 49.171875 45.625 45.671875 
Q 48.390625 42.1875 49.953125 37.25 
Q 51.515625 32.328125 51.515625 26.703125 
Q 51.515625 13.375 44.921875 6.09375 
Q 38.328125 -1.171875 29.109375 -1.171875 
Q 19.921875 -1.171875 14.703125 6.5 
z
M 14.59375 26.3125 
Q 14.59375 17 17.140625 12.84375 
Q 21.296875 6.0625 28.375 6.0625 
Q 34.125 6.0625 38.328125 11.0625 
Q 42.53125 16.0625 42.53125 25.984375 
Q 42.53125 36.140625 38.5 40.96875 
Q 34.46875 45.796875 28.765625 45.796875 
Q 23 45.796875 18.796875 40.796875 
Q 14.59375 35.796875 14.59375 26.3125 
" id="ArialMT-62"/>
      <path d="M 6.640625 61.46875 
L 6.640625 71.578125 
L 15.4375 71.578125 
L 15.4375 61.46875 
z
M 6.640625 0 
L 6.640625 51.859375 
L 15.4375 51.859375 
L 15.4375 0 
z
" id="ArialMT-69"/>
      <path d="M 3.078125 15.484375 
L 11.765625 16.84375 
Q 12.5 11.625 15.84375 8.84375 
Q 19.1875 6.0625 25.203125 6.0625 
Q 31.25 6.0625 34.171875 8.515625 
Q 37.109375 10.984375 37.109375 14.3125 
Q 37.109375 17.28125 34.515625 19 
Q 32.71875 20.171875 25.53125 21.96875 
Q 15.875 24.421875 12.140625 26.203125 
Q 8.40625 27.984375 6.46875 31.125 
Q 4.546875 34.28125 4.546875 38.09375 
Q 4.546875 41.546875 6.125 44.5 
Q 7.71875 47.46875 10.453125 49.421875 
Q 12.5 50.921875 16.03125 51.96875 
Q 19.578125 53.03125 23.640625 53.03125 
Q 29.734375 53.03125 34.34375 51.265625 
Q 38.96875 49.515625 41.15625 46.5 
Q 43.359375 43.5 44.1875 38.484375 
L 35.59375 37.3125 
Q 35.015625 41.3125 32.203125 43.546875 
Q 29.390625 45.796875 24.265625 45.796875 
Q 18.21875 45.796875 15.625 43.796875 
Q 13.03125 41.796875 13.03125 39.109375 
Q 13.03125 37.40625 14.109375 36.03125 
Q 15.1875 34.625 17.484375 33.6875 
Q 18.796875 33.203125 25.25 31.453125 
Q 34.578125 28.953125 38.25 27.359375 
Q 41.9375 25.78125 44.03125 22.75 
Q 46.140625 19.734375 46.140625 15.234375 
Q 46.140625 10.84375 43.578125 6.953125 
Q 41.015625 3.078125 36.171875 0.953125 
Q 31.34375 -1.171875 25.25 -1.171875 
Q 15.140625 -1.171875 9.84375 3.03125 
Q 4.546875 7.234375 3.078125 15.484375 
" id="ArialMT-73"/>
      <path d="M 8.6875 0 
L 8.6875 45.015625 
L 0.921875 45.015625 
L 0.921875 51.859375 
L 8.6875 51.859375 
L 8.6875 57.375 
Q 8.6875 62.59375 9.625 65.140625 
Q 10.890625 68.5625 14.078125 70.671875 
Q 17.28125 72.796875 23.046875 72.796875 
Q 26.765625 72.796875 31.25 71.921875 
L 29.9375 64.265625 
Q 27.203125 64.75 24.75 64.75 
Q 20.75 64.75 19.09375 63.03125 
Q 17.4375 61.328125 17.4375 56.640625 
L 17.4375 51.859375 
L 27.546875 51.859375 
L 27.546875 45.015625 
L 17.4375 45.015625 
L 17.4375 0 
z
" id="ArialMT-66"/>
      <path d="M 6.59375 0 
L 6.59375 51.859375 
L 14.453125 51.859375 
L 14.453125 44.578125 
Q 16.890625 48.390625 20.9375 50.703125 
Q 25 53.03125 30.171875 53.03125 
Q 35.9375 53.03125 39.625 50.640625 
Q 43.3125 48.25 44.828125 43.953125 
Q 50.984375 53.03125 60.84375 53.03125 
Q 68.5625 53.03125 72.703125 48.75 
Q 76.859375 44.484375 76.859375 35.59375 
L 76.859375 0 
L 68.109375 0 
L 68.109375 32.671875 
Q 68.109375 37.9375 67.25 40.25 
Q 66.40625 42.578125 64.15625 43.984375 
Q 61.921875 45.40625 58.890625 45.40625 
Q 53.421875 45.40625 49.796875 41.765625 
Q 46.1875 38.140625 46.1875 30.125 
L 46.1875 0 
L 37.40625 0 
L 37.40625 33.6875 
Q 37.40625 39.546875 35.25 42.46875 
Q 33.109375 45.40625 28.21875 45.40625 
Q 24.515625 45.40625 21.359375 43.453125 
Q 18.21875 41.5 16.796875 37.734375 
Q 15.375 33.984375 15.375 26.90625 
L 15.375 0 
z
" id="ArialMT-6d"/>
     </defs>
     <g style="fill:#262626;" transform="translate(77.00203125 347.746171875)rotate(-90.0)scale(0.11 -0.11)">
      <use xlink:href="#ArialMT-41"/>
      <use x="66.69921875" xlink:href="#ArialMT-63"/>
      <use x="116.69921875" xlink:href="#ArialMT-74"/>
      <use x="144.482421875" xlink:href="#ArialMT-75"/>
      <use x="200.09765625" xlink:href="#ArialMT-61"/>
      <use x="255.712890625" xlink:href="#ArialMT-6c"/>
      <use x="277.9296875" xlink:href="#ArialMT-20"/>
      <use x="305.712890625" xlink:href="#ArialMT-6e"/>
      <use x="361.328125" xlink:href="#ArialMT-75"/>
      <use x="416.943359375" xlink:href="#ArialMT-6d"/>
      <use x="500.244140625" xlink:href="#ArialMT-62"/>
      <use x="555.859375" xlink:href="#ArialMT-65"/>
      <use x="611.474609375" xlink:href="#ArialMT-72"/>
      <use x="644.775390625" xlink:href="#ArialMT-20"/>
      <use x="672.55859375" xlink:href="#ArialMT-6f"/>
      <use x="728.173828125" xlink:href="#ArialMT-66"/>
      <use x="755.95703125" xlink:href="#ArialMT-20"/>
      <use x="783.740234375" xlink:href="#ArialMT-73"/>
      <use x="833.740234375" xlink:href="#ArialMT-74"/>
      <use x="861.5234375" xlink:href="#ArialMT-72"/>
      <use x="894.82421875" xlink:href="#ArialMT-61"/>
      <use x="950.439453125" xlink:href="#ArialMT-74"/>
      <use x="978.22265625" xlink:href="#ArialMT-65"/>
      <use x="1033.83789062" xlink:href="#ArialMT-67"/>
      <use x="1089.453125" xlink:href="#ArialMT-69"/>
      <use x="1111.66992188" xlink:href="#ArialMT-65"/>
      <use x="1167.28515625" xlink:href="#ArialMT-73"/>
     </g>
    </g>
   </g>
   <g id="line2d_49">
    <path clip-path="url(#p526bf85a22)" d="M 108 504 
L 108.006447 504 
L 108.006447 504 
L 108.006447 504 
L 111.049969 504 
L 111.049969 504 
L 111.049969 504 
L 111.083876 504 
L 111.083876 504 
L 111.083876 504 
L 112.288995 504 
L 112.38837 481.68 
L 112.711877 481.68 
L 112.810469 474.24 
L 112.834449 474.24 
L 112.886241 477.96 
L 112.886241 477.96 
L 112.886241 477.96 
L 112.920283 474.24 
L 112.920283 474.24 
L 115.275493 474.24 
L 115.330629 470.52 
L 115.330629 470.52 
L 115.330629 470.52 
L 115.350941 474.24 
L 115.353908 474.24 
L 115.353908 474.24 
L 115.355041 470.52 
L 115.386574 470.52 
L 115.386574 470.52 
L 115.386574 474.24 
L 115.581763 474.24 
L 115.588965 466.8 
L 115.70385 466.8 
L 115.796184 474.24 
L 115.796859 470.52 
L 117.043195 470.52 
L 117.050883 466.8 
L 117.14087 466.8 
L 117.14087 466.8 
L 117.199405 470.52 
L 117.213297 470.52 
L 117.213297 470.52 
L 117.218153 466.8 
L 117.237655 466.8 
L 117.237655 466.8 
L 117.24448 470.52 
L 117.24448 470.52 
L 117.24448 470.52 
L 117.265574 466.8 
L 117.35138 466.8 
L 117.35138 466.8 
L 117.351893 470.52 
L 117.379218 470.52 
L 117.379218 470.52 
L 117.380998 466.8 
L 117.426828 466.8 
L 117.542954 466.8 
L 117.545058 470.52 
L 117.545058 470.52 
L 117.545058 470.52 
L 117.584684 466.8 
L 117.584684 466.8 
L 117.584684 466.8 
L 117.647481 470.52 
L 117.647481 470.52 
L 117.647481 470.52 
L 117.711869 463.08 
L 117.742755 463.08 
L 117.867082 463.08 
L 117.974549 459.36 
L 117.974549 459.36 
L 117.974549 459.36 
L 117.985392 463.08 
L 117.985392 463.08 
L 117.985392 463.08 
L 117.985851 459.36 
L 118.007997 459.36 
L 118.007997 459.36 
L 118.010236 463.08 
L 118.116327 463.08 
L 118.116327 463.08 
L 118.195228 448.2 
L 118.220153 448.2 
L 119.072201 448.2 
L 119.072201 440.76 
L 119.343539 440.76 
L 119.347855 448.2 
L 119.372995 448.2 
L 119.372995 448.2 
L 119.395492 440.76 
L 119.395492 440.76 
L 119.395492 440.76 
L 119.397812 448.2 
L 119.397812 448.2 
L 119.397812 448.2 
L 119.407361 440.76 
L 119.496053 440.76 
L 119.496053 440.76 
L 119.496053 463.08 
L 119.726471 463.08 
L 119.726471 425.88 
L 120.037488 425.88 
L 120.123726 437.04 
L 120.350772 437.04 
L 120.395253 422.16 
L 120.395253 422.16 
L 120.395253 422.16 
L 120.398301 437.04 
L 120.431804 433.32 
L 120.553999 433.32 
L 120.553999 422.16 
L 120.613208 422.16 
L 122.273255 422.16 
L 122.282831 437.04 
L 122.282831 437.04 
L 122.282831 437.04 
L 122.342148 414.72 
L 122.599081 414.72 
L 122.599971 411 
L 122.599971 411 
L 122.599971 411 
L 122.604206 414.72 
L 122.604206 414.72 
L 122.604206 414.72 
L 122.710244 403.56 
L 122.793083 403.56 
L 122.801229 407.28 
L 122.801229 407.28 
L 122.801229 407.28 
L 122.829013 403.56 
L 122.829013 403.56 
L 124.727731 403.56 
L 124.727731 414.72 
L 124.730779 414.72 
L 124.730779 414.72 
L 124.730779 399.84 
L 125.222311 399.84 
L 125.223822 403.56 
L 125.267683 403.56 
L 125.267683 403.56 
L 125.341323 392.4 
L 125.631166 392.4 
L 125.631166 392.4 
L 125.653312 396.12 
L 125.653312 396.12 
L 125.653312 396.12 
L 125.675189 392.4 
L 125.675189 392.4 
L 126.860724 392.4 
L 126.902211 381.24 
L 126.902211 381.24 
L 126.902211 381.24 
L 126.978064 392.4 
L 126.981274 388.68 
L 127.027886 388.68 
L 127.062683 470.52 
L 127.092679 470.52 
L 127.263617 470.52 
L 127.283201 384.96 
L 127.305293 384.96 
L 129.589911 384.96 
L 129.603964 381.24 
L 129.603964 381.24 
L 130.047859 381.24 
L 130.047859 370.08 
L 130.506212 370.08 
L 130.506212 362.64 
L 130.753408 362.64 
L 130.753408 370.08 
L 131.358908 370.08 
L 131.37574 366.36 
L 131.429365 366.36 
L 131.429365 366.36 
L 131.468991 370.08 
L 131.516413 370.08 
L 131.516413 370.08 
L 131.597768 362.64 
L 131.618512 362.64 
L 131.835496 362.64 
L 131.941155 358.92 
L 131.941155 358.92 
L 131.941155 358.92 
L 131.942396 362.64 
L 131.952997 362.64 
L 131.952997 362.64 
L 131.982696 358.92 
L 131.982696 358.92 
L 131.982696 358.92 
L 132.064187 362.64 
L 132.064187 362.64 
L 132.064187 362.64 
L 132.064187 358.92 
L 132.295764 358.92 
L 132.336496 347.76 
L 133.43984 347.76 
L 133.506791 358.92 
L 134.011567 358.92 
L 134.101447 351.48 
L 134.123404 351.48 
L 134.124213 355.2 
L 134.161843 355.2 
L 134.161843 355.2 
L 134.183827 347.76 
L 134.183827 347.76 
L 134.183827 347.76 
L 134.191866 355.2 
L 134.191866 355.2 
L 134.191866 355.2 
L 134.197287 344.04 
L 134.197287 344.04 
L 134.197287 344.04 
L 134.197287 355.2 
L 134.205569 355.2 
L 134.205569 355.2 
L 134.205569 344.04 
L 134.255202 344.04 
L 134.346295 344.04 
L 134.34902 351.48 
L 134.34902 351.48 
L 134.34902 351.48 
L 134.37327 340.32 
L 134.455435 340.32 
L 138.230428 340.32 
L 138.230428 325.44 
L 138.340781 325.44 
L 143.667491 325.44 
L 143.731907 321.72 
L 143.731907 321.72 
L 143.731907 321.72 
L 143.783293 325.44 
L 143.821354 325.44 
L 143.821354 325.44 
L 143.831686 321.72 
L 143.847061 321.72 
L 143.847061 321.72 
L 143.866078 325.44 
L 143.866078 325.44 
L 143.866078 325.44 
L 143.866267 321.72 
L 143.866267 321.72 
L 143.866267 321.72 
L 143.878757 325.44 
L 143.878757 325.44 
L 143.878757 325.44 
L 143.884934 321.72 
L 143.960679 321.72 
L 145.357102 321.72 
L 145.362335 325.44 
L 145.366381 325.44 
L 154.567486 325.44 
L 154.645415 306.84 
L 154.645415 306.84 
L 154.645415 306.84 
L 154.6575 325.44 
L 154.858596 325.44 
L 154.923281 306.84 
L 158.044814 306.84 
L 158.044814 303.12 
L 158.907085 303.12 
L 158.909324 306.84 
L 158.996749 306.84 
L 159.381057 306.84 
L 159.461495 303.12 
L 159.461495 303.12 
L 159.461495 303.12 
L 159.461981 306.84 
L 159.462547 306.84 
L 160.018387 306.84 
L 160.029284 303.12 
L 160.029284 303.12 
L 161.256496 303.12 
L 161.345944 306.84 
L 161.356329 306.84 
L 161.493981 306.84 
L 161.493981 303.12 
L 161.610565 303.12 
L 161.638942 306.84 
L 161.638942 306.84 
L 162.286334 306.84 
L 162.371196 303.12 
L 162.371196 303.12 
L 162.371196 303.12 
L 162.374918 306.84 
L 162.457677 306.84 
L 162.490154 306.84 
L 162.490154 303.12 
L 192.471444 303.12 
L 192.471444 299.4 
L 192.664475 299.4 
L 192.665014 303.12 
L 192.698652 303.12 
L 192.698652 303.12 
L 192.795383 273.36 
L 194.314379 273.36 
L 194.326949 303.12 
L 194.360667 303.12 
L 194.647219 303.12 
L 194.647813 273.36 
L 194.661758 273.36 
L 194.794015 273.36 
L 194.794015 262.2 
L 194.877043 262.2 
L 196.259467 262.2 
L 196.259467 273.36 
L 196.367473 273.36 
L 196.407072 273.36 
L 196.407072 262.2 
L 196.476855 262.2 
L 196.476855 262.2 
L 196.476855 273.36 
L 196.564307 273.36 
L 196.817221 273.36 
L 196.817221 262.2 
L 196.838261 262.2 
L 196.838261 262.2 
L 196.838261 273.36 
L 196.885035 273.36 
L 196.885035 273.36 
L 196.885035 262.2 
L 196.971705 262.2 
L 233.275582 262.2 
L 233.275582 258.48 
L 233.308329 258.48 
L 246.053524 258.48 
L 246.053524 362.64 
L 246.055925 362.64 
L 246.055925 362.64 
L 246.121716 254.76 
L 247.669224 254.76 
L 247.669224 258.48 
L 248.118946 258.48 
L 248.132703 254.76 
L 248.132703 254.76 
L 271.061392 254.76 
L 271.062713 258.48 
L 271.075769 258.48 
L 271.075769 258.48 
L 271.111241 254.76 
L 271.111241 254.76 
L 285.702068 254.76 
L 285.702068 251.04 
L 285.860679 251.04 
L 285.860679 254.76 
L 285.973001 254.76 
L 285.98104 247.32 
L 285.98104 247.32 
L 285.98104 247.32 
L 285.998492 254.76 
L 285.998492 254.76 
L 285.998492 254.76 
L 286.000812 247.32 
L 286.000812 247.32 
L 287.841481 247.32 
L 287.84461 254.76 
L 287.84461 254.76 
L 287.84461 254.76 
L 287.8718 247.32 
L 287.925642 247.32 
L 391.090567 247.32 
L 391.090567 236.16 
L 391.305151 236.16 
L 391.390795 247.32 
L 391.390795 247.32 
L 391.390795 247.32 
L 391.412024 232.44 
L 391.625636 232.44 
L 391.659975 225 
L 391.691374 225 
L 391.691374 225 
L 391.691374 247.32 
L 392.520197 247.32 
L 392.57687 225 
L 462.73797 225 
L 462.73797 217.56 
L 464.753758 217.56 
L 464.803661 213.84 
L 464.85958 213.84 
L 465.136124 213.84 
L 465.136124 217.56 
L 475.121921 217.56 
L 475.138105 210.12 
L 475.151755 210.12 
L 476.017937 210.12 
L 476.036927 213.84 
L 476.036927 213.84 
L 476.036927 213.84 
L 476.036927 210.12 
L 476.839504 210.12 
L 476.906779 202.68 
L 476.906779 202.68 
L 476.906779 202.68 
L 477.01403 210.12 
L 477.01403 210.12 
L 477.01403 210.12 
L 477.052685 202.68 
L 477.091501 202.68 
L 478.425181 202.68 
L 478.443956 210.12 
L 478.443956 210.12 
L 478.443956 210.12 
L 478.531003 202.68 
L 478.531003 202.68 
L 478.842101 202.68 
L 478.850518 198.96 
L 478.918682 198.96 
L 478.918682 198.96 
L 478.918682 202.68 
L 479.04255 202.68 
L 479.057602 198.96 
L 479.144649 198.96 
L 485.847659 198.96 
L 485.847659 191.52 
L 485.847659 191.52 
L 485.847659 191.52 
L 485.847686 198.96 
L 485.847686 198.96 
L 485.847686 198.96 
L 485.847686 191.52 
L 485.895917 191.52 
L 491.226457 191.52 
L 491.269131 176.64 
L 491.269131 176.64 
L 493.006756 176.64 
L 493.011881 191.52 
L 493.033083 191.52 
L 493.033083 191.52 
L 493.033083 176.64 
L 493.836388 176.64 
L 493.836388 191.52 
L 493.867139 191.52 
L 495.289054 191.52 
L 495.289054 176.64 
L 496.91727 176.64 
L 496.91727 191.52 
L 500.268654 191.52 
L 500.268654 176.64 
L 505.416548 176.64 
L 505.451157 172.92 
L 505.451157 172.92 
L 505.755674 172.92 
L 505.847954 232.44 
L 505.847954 187.8 
L 533.008398 187.8 
L 533.008398 172.92 
L 533.884804 172.92 
L 533.884804 187.8 
L 534.233559 187.8 
L 534.237983 172.92 
L 534.237983 172.92 
L 534.237983 172.92 
L 534.237983 187.8 
L 534.349173 187.8 
L 534.358668 172.92 
L 534.437272 172.92 
L 534.437272 172.92 
L 534.448709 187.8 
L 534.448709 187.8 
L 534.757677 187.8 
L 534.757677 154.32 
L 534.780227 154.32 
L 535.231297 154.32 
L 535.231297 172.92 
L 535.455618 172.92 
L 535.478682 187.8 
L 535.478682 187.8 
L 535.478682 187.8 
L 535.481163 172.92 
L 535.481163 172.92 
L 538.945274 172.92 
L 538.945274 154.32 
L 613.840424 154.32 
L 613.845872 150.6 
L 613.845872 150.6 
L 613.845872 150.6 
L 613.850161 154.32 
L 613.879402 154.32 
L 613.879402 154.32 
L 613.880886 150.6 
L 613.880886 150.6 
L 613.880886 150.6 
L 613.904057 154.32 
L 613.97527 154.32 
L 613.998144 154.32 
L 614.003162 150.6 
L 614.003162 150.6 
L 614.003162 150.6 
L 614.003216 154.32 
L 614.003539 154.32 
L 614.003539 154.32 
L 614.028221 150.6 
L 614.028221 150.6 
L 614.028221 150.6 
L 614.10081 154.32 
L 614.10081 154.32 
L 614.10081 154.32 
L 614.119989 150.6 
L 614.119989 150.6 
L 625.621086 150.6 
L 625.656369 154.32 
L 625.656369 154.32 
L 625.656369 154.32 
L 625.656369 150.6 
L 654.456116 150.6 
L 654.456116 120.84 
L 654.456116 128.28 
L 654.456116 128.28 
L 654.474702 150.6 
L 654.474702 150.6 
L 654.474702 150.6 
L 654.474702 120.84 
L 661.563476 120.84 
L 661.579472 150.6 
L 661.579472 150.6 
L 662.181195 150.6 
L 662.181195 120.84 
L 695.989405 120.84 
L 695.999251 109.68 
L 696.45844 109.68 
L 696.45844 117.12 
L 698.164856 117.12 
L 698.165585 109.68 
L 698.165585 109.68 
L 698.165585 109.68 
L 698.168714 117.12 
L 698.170089 117.12 
L 698.170089 117.12 
L 698.173299 109.68 
L 698.181715 109.68 
L 698.181715 109.68 
L 698.233749 117.12 
L 698.233749 117.12 
L 698.233749 117.12 
L 698.299729 105.96 
L 698.314619 105.96 
L 699.691567 105.96 
L 699.696126 120.84 
L 699.696126 120.84 
L 699.696126 120.84 
L 699.703409 105.96 
L 699.722588 105.96 
L 700.336396 105.96 
L 700.406449 117.12 
L 700.406449 117.12 
L 700.406449 117.12 
L 700.414595 105.96 
L 700.414595 105.96 
L 700.414595 105.96 
L 700.414595 117.12 
L 702.255696 117.12 
L 702.260227 105.96 
L 702.260227 105.96 
L 702.260227 105.96 
L 702.281268 117.12 
L 702.571272 117.12 
L 702.571272 105.96 
L 704.903769 105.96 
L 704.906548 102.24 
L 704.908814 102.24 
L 707.691949 102.24 
L 707.691949 105.96 
L 710.539743 105.96 
L 710.539743 87.36 
L 712.730057 87.36 
L 712.730057 102.24 
L 713.612991 102.24 
L 713.617631 87.36 
L 713.648355 87.36 
L 713.648355 87.36 
L 713.735915 102.24 
L 713.757063 102.24 
L 713.833347 102.24 
L 713.851582 87.36 
L 713.862507 87.36 
L 714.17223 87.36 
L 714.18364 83.64 
L 714.199123 83.64 
L 714.199123 83.64 
L 714.199123 87.36 
L 715.743098 87.36 
L 715.749707 83.64 
L 715.836781 83.64 
L 720.907663 83.64 
L 720.962772 65.04 
L 720.968869 65.04 
L 721.45568 65.04 
L 721.462046 83.64 
L 721.462046 83.64 
L 721.462046 83.64 
L 721.462046 65.04 
L 723.589023 65.04 
L 723.645562 83.64 
L 723.645562 83.64 
L 725.778987 83.64 
L 725.805017 65.04 
L 725.876015 65.04 
L 777.6 65.04 
L 777.6 65.04 
" style="fill:none;stroke:#4c72b0;stroke-linecap:round;stroke-width:1.75;"/>
   </g>
   <g id="patch_3">
    <path d="M 108 57.6 
L 777.6 57.6 
" style="fill:none;"/>
   </g>
   <g id="patch_4">
    <path d="M 777.6 504 
L 777.6 57.6 
" style="fill:none;"/>
   </g>
   <g id="patch_5">
    <path d="M 108 504 
L 777.6 504 
" style="fill:none;"/>
   </g>
   <g id="patch_6">
    <path d="M 108 504 
L 108 57.6 
" style="fill:none;"/>
   </g>
  </g>
 </g>
 <defs>
  <clipPath id="p526bf85a22">
   <rect height="446.4" width="669.6" x="108.0" y="57.6"/>
  </clipPath>
 </defs>
</svg>
