<?xml version="1.0" encoding="utf-8" standalone="no"?>
<!DOCTYPE svg PUBLIC "-//W3C//DTD SVG 1.1//EN"
  "http://www.w3.org/Graphics/SVG/1.1/DTD/svg11.dtd">
<!-- Created with matplotlib (http://matplotlib.org/) -->
<svg height="288pt" version="1.1" viewBox="0 0 432 288" width="432pt" xmlns="http://www.w3.org/2000/svg" xmlns:xlink="http://www.w3.org/1999/xlink">
 <defs>
  <style type="text/css">
*{stroke-linecap:butt;stroke-linejoin:round;stroke-miterlimit:100000;}
  </style>
 </defs>
 <g id="figure_1">
  <g id="patch_1">
   <path d="M 0 288 
L 432 288 
L 432 0 
L 0 0 
z
" style="fill:#ffffff;"/>
  </g>
  <g id="axes_1">
   <g id="patch_2">
    <path d="M 54 252 
L 388.8 252 
L 388.8 28.8 
L 54 28.8 
z
" style="fill:#eaeaf2;"/>
   </g>
   <g id="matplotlib.axis_1">
    <g id="xtick_1">
     <g id="line2d_1">
      <path clip-path="url(#p9c7b71be26)" d="M 54 252 
L 54 28.8 
" style="fill:none;stroke:#ffffff;stroke-linecap:round;"/>
     </g>
     <g id="line2d_2">
      <defs>
       <path d="M 0 0 
L 0 0 
" id="mc8f86a2d01" style="stroke:#262626;"/>
      </defs>
      <g>
       <use style="fill:#262626;stroke:#262626;" x="54.0" xlink:href="#mc8f86a2d01" y="252.0"/>
      </g>
     </g>
     <g id="line2d_3">
      <g>
       <use style="fill:#262626;stroke:#262626;" x="54.0" xlink:href="#mc8f86a2d01" y="28.8"/>
      </g>
     </g>
     <g id="text_1">
      <!-- 0 -->
      <defs>
       <path d="M 4.15625 35.296875 
Q 4.15625 48 6.765625 55.734375 
Q 9.375 63.484375 14.515625 67.671875 
Q 19.671875 71.875 27.484375 71.875 
Q 33.25 71.875 37.59375 69.546875 
Q 41.9375 67.234375 44.765625 62.859375 
Q 47.609375 58.5 49.21875 52.21875 
Q 50.828125 45.953125 50.828125 35.296875 
Q 50.828125 22.703125 48.234375 14.96875 
Q 45.65625 7.234375 40.5 3 
Q 35.359375 -1.21875 27.484375 -1.21875 
Q 17.140625 -1.21875 11.234375 6.203125 
Q 4.15625 15.140625 4.15625 35.296875 
M 13.1875 35.296875 
Q 13.1875 17.671875 17.3125 11.828125 
Q 21.4375 6 27.484375 6 
Q 33.546875 6 37.671875 11.859375 
Q 41.796875 17.71875 41.796875 35.296875 
Q 41.796875 52.984375 37.671875 58.78125 
Q 33.546875 64.59375 27.390625 64.59375 
Q 21.34375 64.59375 17.71875 59.46875 
Q 13.1875 52.9375 13.1875 35.296875 
" id="ArialMT-30"/>
      </defs>
      <g style="fill:#262626;" transform="translate(51.21953125 266.1578125)scale(0.1 -0.1)">
       <use xlink:href="#ArialMT-30"/>
      </g>
     </g>
    </g>
    <g id="xtick_2">
     <g id="line2d_4">
      <path clip-path="url(#p9c7b71be26)" d="M 120.96 252 
L 120.96 28.8 
" style="fill:none;stroke:#ffffff;stroke-linecap:round;"/>
     </g>
     <g id="line2d_5">
      <g>
       <use style="fill:#262626;stroke:#262626;" x="120.96" xlink:href="#mc8f86a2d01" y="252.0"/>
      </g>
     </g>
     <g id="line2d_6">
      <g>
       <use style="fill:#262626;stroke:#262626;" x="120.96" xlink:href="#mc8f86a2d01" y="28.8"/>
      </g>
     </g>
     <g id="text_2">
      <!-- 20 -->
      <defs>
       <path d="M 50.34375 8.453125 
L 50.34375 0 
L 3.03125 0 
Q 2.9375 3.171875 4.046875 6.109375 
Q 5.859375 10.9375 9.828125 15.625 
Q 13.8125 20.3125 21.34375 26.46875 
Q 33.015625 36.03125 37.109375 41.625 
Q 41.21875 47.21875 41.21875 52.203125 
Q 41.21875 57.421875 37.46875 61 
Q 33.734375 64.59375 27.734375 64.59375 
Q 21.390625 64.59375 17.578125 60.78125 
Q 13.765625 56.984375 13.71875 50.25 
L 4.6875 51.171875 
Q 5.609375 61.28125 11.65625 66.578125 
Q 17.71875 71.875 27.9375 71.875 
Q 38.234375 71.875 44.234375 66.15625 
Q 50.25 60.453125 50.25 52 
Q 50.25 47.703125 48.484375 43.546875 
Q 46.734375 39.40625 42.65625 34.8125 
Q 38.578125 30.21875 29.109375 22.21875 
Q 21.1875 15.578125 18.9375 13.203125 
Q 16.703125 10.84375 15.234375 8.453125 
z
" id="ArialMT-32"/>
      </defs>
      <g style="fill:#262626;" transform="translate(115.3990625 266.1578125)scale(0.1 -0.1)">
       <use xlink:href="#ArialMT-32"/>
       <use x="55.615234375" xlink:href="#ArialMT-30"/>
      </g>
     </g>
    </g>
    <g id="xtick_3">
     <g id="line2d_7">
      <path clip-path="url(#p9c7b71be26)" d="M 187.92 252 
L 187.92 28.8 
" style="fill:none;stroke:#ffffff;stroke-linecap:round;"/>
     </g>
     <g id="line2d_8">
      <g>
       <use style="fill:#262626;stroke:#262626;" x="187.92" xlink:href="#mc8f86a2d01" y="252.0"/>
      </g>
     </g>
     <g id="line2d_9">
      <g>
       <use style="fill:#262626;stroke:#262626;" x="187.92" xlink:href="#mc8f86a2d01" y="28.8"/>
      </g>
     </g>
     <g id="text_3">
      <!-- 40 -->
      <defs>
       <path d="M 32.328125 0 
L 32.328125 17.140625 
L 1.265625 17.140625 
L 1.265625 25.203125 
L 33.9375 71.578125 
L 41.109375 71.578125 
L 41.109375 25.203125 
L 50.78125 25.203125 
L 50.78125 17.140625 
L 41.109375 17.140625 
L 41.109375 0 
z
M 32.328125 25.203125 
L 32.328125 57.46875 
L 9.90625 25.203125 
z
" id="ArialMT-34"/>
      </defs>
      <g style="fill:#262626;" transform="translate(182.3590625 266.1578125)scale(0.1 -0.1)">
       <use xlink:href="#ArialMT-34"/>
       <use x="55.615234375" xlink:href="#ArialMT-30"/>
      </g>
     </g>
    </g>
    <g id="xtick_4">
     <g id="line2d_10">
      <path clip-path="url(#p9c7b71be26)" d="M 254.88 252 
L 254.88 28.8 
" style="fill:none;stroke:#ffffff;stroke-linecap:round;"/>
     </g>
     <g id="line2d_11">
      <g>
       <use style="fill:#262626;stroke:#262626;" x="254.88" xlink:href="#mc8f86a2d01" y="252.0"/>
      </g>
     </g>
     <g id="line2d_12">
      <g>
       <use style="fill:#262626;stroke:#262626;" x="254.88" xlink:href="#mc8f86a2d01" y="28.8"/>
      </g>
     </g>
     <g id="text_4">
      <!-- 60 -->
      <defs>
       <path d="M 49.75 54.046875 
L 41.015625 53.375 
Q 39.84375 58.546875 37.703125 60.890625 
Q 34.125 64.65625 28.90625 64.65625 
Q 24.703125 64.65625 21.53125 62.3125 
Q 17.390625 59.28125 14.984375 53.46875 
Q 12.59375 47.65625 12.5 36.921875 
Q 15.671875 41.75 20.265625 44.09375 
Q 24.859375 46.4375 29.890625 46.4375 
Q 38.671875 46.4375 44.84375 39.96875 
Q 51.03125 33.5 51.03125 23.25 
Q 51.03125 16.5 48.125 10.71875 
Q 45.21875 4.9375 40.140625 1.859375 
Q 35.0625 -1.21875 28.609375 -1.21875 
Q 17.625 -1.21875 10.6875 6.859375 
Q 3.765625 14.9375 3.765625 33.5 
Q 3.765625 54.25 11.421875 63.671875 
Q 18.109375 71.875 29.4375 71.875 
Q 37.890625 71.875 43.28125 67.140625 
Q 48.6875 62.40625 49.75 54.046875 
M 13.875 23.1875 
Q 13.875 18.65625 15.796875 14.5 
Q 17.71875 10.359375 21.1875 8.171875 
Q 24.65625 6 28.46875 6 
Q 34.03125 6 38.03125 10.484375 
Q 42.046875 14.984375 42.046875 22.703125 
Q 42.046875 30.125 38.078125 34.390625 
Q 34.125 38.671875 28.125 38.671875 
Q 22.171875 38.671875 18.015625 34.390625 
Q 13.875 30.125 13.875 23.1875 
" id="ArialMT-36"/>
      </defs>
      <g style="fill:#262626;" transform="translate(249.3190625 266.1578125)scale(0.1 -0.1)">
       <use xlink:href="#ArialMT-36"/>
       <use x="55.615234375" xlink:href="#ArialMT-30"/>
      </g>
     </g>
    </g>
    <g id="xtick_5">
     <g id="line2d_13">
      <path clip-path="url(#p9c7b71be26)" d="M 321.84 252 
L 321.84 28.8 
" style="fill:none;stroke:#ffffff;stroke-linecap:round;"/>
     </g>
     <g id="line2d_14">
      <g>
       <use style="fill:#262626;stroke:#262626;" x="321.84" xlink:href="#mc8f86a2d01" y="252.0"/>
      </g>
     </g>
     <g id="line2d_15">
      <g>
       <use style="fill:#262626;stroke:#262626;" x="321.84" xlink:href="#mc8f86a2d01" y="28.8"/>
      </g>
     </g>
     <g id="text_5">
      <!-- 80 -->
      <defs>
       <path d="M 17.671875 38.8125 
Q 12.203125 40.828125 9.5625 44.53125 
Q 6.9375 48.25 6.9375 53.421875 
Q 6.9375 61.234375 12.546875 66.546875 
Q 18.171875 71.875 27.484375 71.875 
Q 36.859375 71.875 42.578125 66.421875 
Q 48.296875 60.984375 48.296875 53.171875 
Q 48.296875 48.1875 45.671875 44.5 
Q 43.0625 40.828125 37.75 38.8125 
Q 44.34375 36.671875 47.78125 31.875 
Q 51.21875 27.09375 51.21875 20.453125 
Q 51.21875 11.28125 44.71875 5.03125 
Q 38.234375 -1.21875 27.640625 -1.21875 
Q 17.046875 -1.21875 10.546875 5.046875 
Q 4.046875 11.328125 4.046875 20.703125 
Q 4.046875 27.6875 7.59375 32.390625 
Q 11.140625 37.109375 17.671875 38.8125 
M 15.921875 53.71875 
Q 15.921875 48.640625 19.1875 45.40625 
Q 22.46875 42.1875 27.6875 42.1875 
Q 32.765625 42.1875 36.015625 45.375 
Q 39.265625 48.578125 39.265625 53.21875 
Q 39.265625 58.0625 35.90625 61.359375 
Q 32.5625 64.65625 27.59375 64.65625 
Q 22.5625 64.65625 19.234375 61.421875 
Q 15.921875 58.203125 15.921875 53.71875 
M 13.09375 20.65625 
Q 13.09375 16.890625 14.875 13.375 
Q 16.65625 9.859375 20.171875 7.921875 
Q 23.6875 6 27.734375 6 
Q 34.03125 6 38.125 10.046875 
Q 42.234375 14.109375 42.234375 20.359375 
Q 42.234375 26.703125 38.015625 30.859375 
Q 33.796875 35.015625 27.4375 35.015625 
Q 21.234375 35.015625 17.15625 30.90625 
Q 13.09375 26.8125 13.09375 20.65625 
" id="ArialMT-38"/>
      </defs>
      <g style="fill:#262626;" transform="translate(316.2790625 266.1578125)scale(0.1 -0.1)">
       <use xlink:href="#ArialMT-38"/>
       <use x="55.615234375" xlink:href="#ArialMT-30"/>
      </g>
     </g>
    </g>
    <g id="xtick_6">
     <g id="line2d_16">
      <path clip-path="url(#p9c7b71be26)" d="M 388.8 252 
L 388.8 28.8 
" style="fill:none;stroke:#ffffff;stroke-linecap:round;"/>
     </g>
     <g id="line2d_17">
      <g>
       <use style="fill:#262626;stroke:#262626;" x="388.8" xlink:href="#mc8f86a2d01" y="252.0"/>
      </g>
     </g>
     <g id="line2d_18">
      <g>
       <use style="fill:#262626;stroke:#262626;" x="388.8" xlink:href="#mc8f86a2d01" y="28.8"/>
      </g>
     </g>
     <g id="text_6">
      <!-- 100 -->
      <defs>
       <path d="M 37.25 0 
L 28.46875 0 
L 28.46875 56 
Q 25.296875 52.984375 20.140625 49.953125 
Q 14.984375 46.921875 10.890625 45.40625 
L 10.890625 53.90625 
Q 18.265625 57.375 23.78125 62.296875 
Q 29.296875 67.234375 31.59375 71.875 
L 37.25 71.875 
z
" id="ArialMT-31"/>
      </defs>
      <g style="fill:#262626;" transform="translate(380.45859375 266.1578125)scale(0.1 -0.1)">
       <use xlink:href="#ArialMT-31"/>
       <use x="55.615234375" xlink:href="#ArialMT-30"/>
       <use x="111.23046875" xlink:href="#ArialMT-30"/>
      </g>
     </g>
    </g>
   </g>
   <g id="matplotlib.axis_2">
    <g id="ytick_1">
     <g id="line2d_19">
      <path clip-path="url(#p9c7b71be26)" d="M 54 252 
L 388.8 252 
" style="fill:none;stroke:#ffffff;stroke-linecap:round;"/>
     </g>
     <g id="line2d_20">
      <g>
       <use style="fill:#262626;stroke:#262626;" x="54.0" xlink:href="#mc8f86a2d01" y="252.0"/>
      </g>
     </g>
     <g id="line2d_21">
      <g>
       <use style="fill:#262626;stroke:#262626;" x="388.8" xlink:href="#mc8f86a2d01" y="252.0"/>
      </g>
     </g>
     <g id="text_7">
      <!-- 0 -->
      <g style="fill:#262626;" transform="translate(41.4390625 254.58515625)scale(0.1 -0.1)">
       <use xlink:href="#ArialMT-30"/>
      </g>
     </g>
    </g>
    <g id="ytick_2">
     <g id="line2d_22">
      <path clip-path="url(#p9c7b71be26)" d="M 54 214.8 
L 388.8 214.8 
" style="fill:none;stroke:#ffffff;stroke-linecap:round;"/>
     </g>
     <g id="line2d_23">
      <g>
       <use style="fill:#262626;stroke:#262626;" x="54.0" xlink:href="#mc8f86a2d01" y="214.8"/>
      </g>
     </g>
     <g id="line2d_24">
      <g>
       <use style="fill:#262626;stroke:#262626;" x="388.8" xlink:href="#mc8f86a2d01" y="214.8"/>
      </g>
     </g>
     <g id="text_8">
      <!-- 50000 -->
      <defs>
       <path d="M 4.15625 18.75 
L 13.375 19.53125 
Q 14.40625 12.796875 18.140625 9.390625 
Q 21.875 6 27.15625 6 
Q 33.5 6 37.890625 10.78125 
Q 42.28125 15.578125 42.28125 23.484375 
Q 42.28125 31 38.0625 35.34375 
Q 33.84375 39.703125 27 39.703125 
Q 22.75 39.703125 19.328125 37.765625 
Q 15.921875 35.84375 13.96875 32.765625 
L 5.71875 33.84375 
L 12.640625 70.609375 
L 48.25 70.609375 
L 48.25 62.203125 
L 19.671875 62.203125 
L 15.828125 42.96875 
Q 22.265625 47.46875 29.34375 47.46875 
Q 38.71875 47.46875 45.15625 40.96875 
Q 51.609375 34.46875 51.609375 24.265625 
Q 51.609375 14.546875 45.953125 7.46875 
Q 39.0625 -1.21875 27.15625 -1.21875 
Q 17.390625 -1.21875 11.203125 4.25 
Q 5.03125 9.71875 4.15625 18.75 
" id="ArialMT-35"/>
      </defs>
      <g style="fill:#262626;" transform="translate(19.1953125 217.38515625)scale(0.1 -0.1)">
       <use xlink:href="#ArialMT-35"/>
       <use x="55.615234375" xlink:href="#ArialMT-30"/>
       <use x="111.23046875" xlink:href="#ArialMT-30"/>
       <use x="166.845703125" xlink:href="#ArialMT-30"/>
       <use x="222.4609375" xlink:href="#ArialMT-30"/>
      </g>
     </g>
    </g>
    <g id="ytick_3">
     <g id="line2d_25">
      <path clip-path="url(#p9c7b71be26)" d="M 54 177.6 
L 388.8 177.6 
" style="fill:none;stroke:#ffffff;stroke-linecap:round;"/>
     </g>
     <g id="line2d_26">
      <g>
       <use style="fill:#262626;stroke:#262626;" x="54.0" xlink:href="#mc8f86a2d01" y="177.6"/>
      </g>
     </g>
     <g id="line2d_27">
      <g>
       <use style="fill:#262626;stroke:#262626;" x="388.8" xlink:href="#mc8f86a2d01" y="177.6"/>
      </g>
     </g>
     <g id="text_9">
      <!-- 100000 -->
      <g style="fill:#262626;" transform="translate(13.634375 180.18515625)scale(0.1 -0.1)">
       <use xlink:href="#ArialMT-31"/>
       <use x="55.615234375" xlink:href="#ArialMT-30"/>
       <use x="111.23046875" xlink:href="#ArialMT-30"/>
       <use x="166.845703125" xlink:href="#ArialMT-30"/>
       <use x="222.4609375" xlink:href="#ArialMT-30"/>
       <use x="278.076171875" xlink:href="#ArialMT-30"/>
      </g>
     </g>
    </g>
    <g id="ytick_4">
     <g id="line2d_28">
      <path clip-path="url(#p9c7b71be26)" d="M 54 140.4 
L 388.8 140.4 
" style="fill:none;stroke:#ffffff;stroke-linecap:round;"/>
     </g>
     <g id="line2d_29">
      <g>
       <use style="fill:#262626;stroke:#262626;" x="54.0" xlink:href="#mc8f86a2d01" y="140.4"/>
      </g>
     </g>
     <g id="line2d_30">
      <g>
       <use style="fill:#262626;stroke:#262626;" x="388.8" xlink:href="#mc8f86a2d01" y="140.4"/>
      </g>
     </g>
     <g id="text_10">
      <!-- 150000 -->
      <g style="fill:#262626;" transform="translate(13.634375 142.98515625)scale(0.1 -0.1)">
       <use xlink:href="#ArialMT-31"/>
       <use x="55.615234375" xlink:href="#ArialMT-35"/>
       <use x="111.23046875" xlink:href="#ArialMT-30"/>
       <use x="166.845703125" xlink:href="#ArialMT-30"/>
       <use x="222.4609375" xlink:href="#ArialMT-30"/>
       <use x="278.076171875" xlink:href="#ArialMT-30"/>
      </g>
     </g>
    </g>
    <g id="ytick_5">
     <g id="line2d_31">
      <path clip-path="url(#p9c7b71be26)" d="M 54 103.2 
L 388.8 103.2 
" style="fill:none;stroke:#ffffff;stroke-linecap:round;"/>
     </g>
     <g id="line2d_32">
      <g>
       <use style="fill:#262626;stroke:#262626;" x="54.0" xlink:href="#mc8f86a2d01" y="103.2"/>
      </g>
     </g>
     <g id="line2d_33">
      <g>
       <use style="fill:#262626;stroke:#262626;" x="388.8" xlink:href="#mc8f86a2d01" y="103.2"/>
      </g>
     </g>
     <g id="text_11">
      <!-- 200000 -->
      <g style="fill:#262626;" transform="translate(13.634375 105.78515625)scale(0.1 -0.1)">
       <use xlink:href="#ArialMT-32"/>
       <use x="55.615234375" xlink:href="#ArialMT-30"/>
       <use x="111.23046875" xlink:href="#ArialMT-30"/>
       <use x="166.845703125" xlink:href="#ArialMT-30"/>
       <use x="222.4609375" xlink:href="#ArialMT-30"/>
       <use x="278.076171875" xlink:href="#ArialMT-30"/>
      </g>
     </g>
    </g>
    <g id="ytick_6">
     <g id="line2d_34">
      <path clip-path="url(#p9c7b71be26)" d="M 54 66 
L 388.8 66 
" style="fill:none;stroke:#ffffff;stroke-linecap:round;"/>
     </g>
     <g id="line2d_35">
      <g>
       <use style="fill:#262626;stroke:#262626;" x="54.0" xlink:href="#mc8f86a2d01" y="66.0"/>
      </g>
     </g>
     <g id="line2d_36">
      <g>
       <use style="fill:#262626;stroke:#262626;" x="388.8" xlink:href="#mc8f86a2d01" y="66.0"/>
      </g>
     </g>
     <g id="text_12">
      <!-- 250000 -->
      <g style="fill:#262626;" transform="translate(13.634375 68.58515625)scale(0.1 -0.1)">
       <use xlink:href="#ArialMT-32"/>
       <use x="55.615234375" xlink:href="#ArialMT-35"/>
       <use x="111.23046875" xlink:href="#ArialMT-30"/>
       <use x="166.845703125" xlink:href="#ArialMT-30"/>
       <use x="222.4609375" xlink:href="#ArialMT-30"/>
       <use x="278.076171875" xlink:href="#ArialMT-30"/>
      </g>
     </g>
    </g>
    <g id="ytick_7">
     <g id="line2d_37">
      <path clip-path="url(#p9c7b71be26)" d="M 54 28.8 
L 388.8 28.8 
" style="fill:none;stroke:#ffffff;stroke-linecap:round;"/>
     </g>
     <g id="line2d_38">
      <g>
       <use style="fill:#262626;stroke:#262626;" x="54.0" xlink:href="#mc8f86a2d01" y="28.8"/>
      </g>
     </g>
     <g id="line2d_39">
      <g>
       <use style="fill:#262626;stroke:#262626;" x="388.8" xlink:href="#mc8f86a2d01" y="28.8"/>
      </g>
     </g>
     <g id="text_13">
      <!-- 300000 -->
      <defs>
       <path d="M 4.203125 18.890625 
L 12.984375 20.0625 
Q 14.5 12.59375 18.140625 9.296875 
Q 21.78125 6 27 6 
Q 33.203125 6 37.46875 10.296875 
Q 41.75 14.59375 41.75 20.953125 
Q 41.75 27 37.796875 30.921875 
Q 33.84375 34.859375 27.734375 34.859375 
Q 25.25 34.859375 21.53125 33.890625 
L 22.515625 41.609375 
Q 23.390625 41.5 23.921875 41.5 
Q 29.546875 41.5 34.03125 44.421875 
Q 38.53125 47.359375 38.53125 53.46875 
Q 38.53125 58.296875 35.25 61.46875 
Q 31.984375 64.65625 26.8125 64.65625 
Q 21.6875 64.65625 18.265625 61.421875 
Q 14.84375 58.203125 13.875 51.765625 
L 5.078125 53.328125 
Q 6.6875 62.15625 12.390625 67.015625 
Q 18.109375 71.875 26.609375 71.875 
Q 32.46875 71.875 37.390625 69.359375 
Q 42.328125 66.84375 44.9375 62.5 
Q 47.5625 58.15625 47.5625 53.265625 
Q 47.5625 48.640625 45.0625 44.828125 
Q 42.578125 41.015625 37.703125 38.765625 
Q 44.046875 37.3125 47.5625 32.6875 
Q 51.078125 28.078125 51.078125 21.140625 
Q 51.078125 11.765625 44.234375 5.25 
Q 37.40625 -1.265625 26.953125 -1.265625 
Q 17.53125 -1.265625 11.296875 4.34375 
Q 5.078125 9.96875 4.203125 18.890625 
" id="ArialMT-33"/>
      </defs>
      <g style="fill:#262626;" transform="translate(13.634375 31.38515625)scale(0.1 -0.1)">
       <use xlink:href="#ArialMT-33"/>
       <use x="55.615234375" xlink:href="#ArialMT-30"/>
       <use x="111.23046875" xlink:href="#ArialMT-30"/>
       <use x="166.845703125" xlink:href="#ArialMT-30"/>
       <use x="222.4609375" xlink:href="#ArialMT-30"/>
       <use x="278.076171875" xlink:href="#ArialMT-30"/>
      </g>
     </g>
    </g>
   </g>
   <g id="patch_3">
    <path clip-path="url(#p9c7b71be26)" d="M 64.044 252 
L 94.35456 252 
L 94.35456 170.812488 
L 64.044 170.812488 
z
" style="fill:#4c72b0;stroke:#000000;stroke-linejoin:miter;stroke-width:0.3;"/>
   </g>
   <g id="patch_4">
    <path clip-path="url(#p9c7b71be26)" d="M 94.35456 252 
L 124.66512 252 
L 124.66512 199.755576 
L 94.35456 199.755576 
z
" style="fill:#4c72b0;stroke:#000000;stroke-linejoin:miter;stroke-width:0.3;"/>
   </g>
   <g id="patch_5">
    <path clip-path="url(#p9c7b71be26)" d="M 124.66512 252 
L 154.97568 252 
L 154.97568 213.519576 
L 124.66512 213.519576 
z
" style="fill:#4c72b0;stroke:#000000;stroke-linejoin:miter;stroke-width:0.3;"/>
   </g>
   <g id="patch_6">
    <path clip-path="url(#p9c7b71be26)" d="M 154.97568 252 
L 185.28624 252 
L 185.28624 222.5376 
L 154.97568 222.5376 
z
" style="fill:#4c72b0;stroke:#000000;stroke-linejoin:miter;stroke-width:0.3;"/>
   </g>
   <g id="patch_7">
    <path clip-path="url(#p9c7b71be26)" d="M 185.28624 252 
L 215.5968 252 
L 215.5968 229.0662 
L 185.28624 229.0662 
z
" style="fill:#4c72b0;stroke:#000000;stroke-linejoin:miter;stroke-width:0.3;"/>
   </g>
   <g id="patch_8">
    <path clip-path="url(#p9c7b71be26)" d="M 215.5968 252 
L 245.90736 252 
L 245.90736 234.5904 
L 215.5968 234.5904 
z
" style="fill:#4c72b0;stroke:#000000;stroke-linejoin:miter;stroke-width:0.3;"/>
   </g>
   <g id="patch_9">
    <path clip-path="url(#p9c7b71be26)" d="M 245.90736 252 
L 276.21792 252 
L 276.21792 239.2776 
L 245.90736 239.2776 
z
" style="fill:#4c72b0;stroke:#000000;stroke-linejoin:miter;stroke-width:0.3;"/>
   </g>
   <g id="patch_10">
    <path clip-path="url(#p9c7b71be26)" d="M 276.21792 252 
L 306.52848 252 
L 306.52848 242.4582 
L 276.21792 242.4582 
z
" style="fill:#4c72b0;stroke:#000000;stroke-linejoin:miter;stroke-width:0.3;"/>
   </g>
   <g id="patch_11">
    <path clip-path="url(#p9c7b71be26)" d="M 306.52848 252 
L 336.83904 252 
L 336.83904 246.978 
L 306.52848 246.978 
z
" style="fill:#4c72b0;stroke:#000000;stroke-linejoin:miter;stroke-width:0.3;"/>
   </g>
   <g id="patch_12">
    <path clip-path="url(#p9c7b71be26)" d="M 336.83904 252 
L 367.1496 252 
L 367.1496 248.9868 
L 336.83904 248.9868 
z
" style="fill:#4c72b0;stroke:#000000;stroke-linejoin:miter;stroke-width:0.3;"/>
   </g>
   <g id="patch_13">
    <path clip-path="url(#p9c7b71be26)" d="M 57.348 252 
L 86.262816 252 
L 86.262816 101.763336 
L 57.348 101.763336 
z
" style="fill:#55a868;opacity:0.9;stroke:#000000;stroke-linejoin:miter;stroke-width:0.3;"/>
   </g>
   <g id="patch_14">
    <path clip-path="url(#p9c7b71be26)" d="M 86.262816 252 
L 115.177632 252 
L 115.177632 198.865752 
L 86.262816 198.865752 
z
" style="fill:#55a868;opacity:0.9;stroke:#000000;stroke-linejoin:miter;stroke-width:0.3;"/>
   </g>
   <g id="patch_15">
    <path clip-path="url(#p9c7b71be26)" d="M 115.177632 252 
L 144.092448 252 
L 144.092448 223.153632 
L 115.177632 223.153632 
z
" style="fill:#55a868;opacity:0.9;stroke:#000000;stroke-linejoin:miter;stroke-width:0.3;"/>
   </g>
   <g id="patch_16">
    <path clip-path="url(#p9c7b71be26)" d="M 144.092448 252 
L 173.007264 252 
L 173.007264 234.85452 
L 144.092448 234.85452 
z
" style="fill:#55a868;opacity:0.9;stroke:#000000;stroke-linejoin:miter;stroke-width:0.3;"/>
   </g>
   <g id="patch_17">
    <path clip-path="url(#p9c7b71be26)" d="M 173.007264 252 
L 201.92208 252 
L 201.92208 241.677 
L 173.007264 241.677 
z
" style="fill:#55a868;opacity:0.9;stroke:#000000;stroke-linejoin:miter;stroke-width:0.3;"/>
   </g>
   <g id="patch_18">
    <path clip-path="url(#p9c7b71be26)" d="M 201.92208 252 
L 230.836896 252 
L 230.836896 245.90664 
L 201.92208 245.90664 
z
" style="fill:#55a868;opacity:0.9;stroke:#000000;stroke-linejoin:miter;stroke-width:0.3;"/>
   </g>
   <g id="patch_19">
    <path clip-path="url(#p9c7b71be26)" d="M 230.836896 252 
L 259.751712 252 
L 259.751712 248.5404 
L 230.836896 248.5404 
z
" style="fill:#55a868;opacity:0.9;stroke:#000000;stroke-linejoin:miter;stroke-width:0.3;"/>
   </g>
   <g id="patch_20">
    <path clip-path="url(#p9c7b71be26)" d="M 259.751712 252 
L 288.666528 252 
L 288.666528 250.20324 
L 259.751712 250.20324 
z
" style="fill:#55a868;opacity:0.9;stroke:#000000;stroke-linejoin:miter;stroke-width:0.3;"/>
   </g>
   <g id="patch_21">
    <path clip-path="url(#p9c7b71be26)" d="M 288.666528 252 
L 317.581344 252 
L 317.581344 251.2746 
L 288.666528 251.2746 
z
" style="fill:#55a868;opacity:0.9;stroke:#000000;stroke-linejoin:miter;stroke-width:0.3;"/>
   </g>
   <g id="patch_22">
    <path clip-path="url(#p9c7b71be26)" d="M 317.581344 252 
L 346.49616 252 
L 346.49616 251.74332 
L 317.581344 251.74332 
z
" style="fill:#55a868;opacity:0.9;stroke:#000000;stroke-linejoin:miter;stroke-width:0.3;"/>
   </g>
   <g id="patch_23">
    <path clip-path="url(#p9c7b71be26)" d="M 54 252 
L 81.299642 252 
L 81.299642 45.839832 
L 54 45.839832 
z
" style="fill:#c44e52;opacity:0.7;stroke:#000000;stroke-linejoin:miter;stroke-width:0.3;"/>
   </g>
   <g id="patch_24">
    <path clip-path="url(#p9c7b71be26)" d="M 81.299642 252 
L 108.599283 252 
L 108.599283 214.180248 
L 81.299642 214.180248 
z
" style="fill:#c44e52;opacity:0.7;stroke:#000000;stroke-linejoin:miter;stroke-width:0.3;"/>
   </g>
   <g id="patch_25">
    <path clip-path="url(#p9c7b71be26)" d="M 108.599283 252 
L 135.898925 252 
L 135.898925 236.861088 
L 108.599283 236.861088 
z
" style="fill:#c44e52;opacity:0.7;stroke:#000000;stroke-linejoin:miter;stroke-width:0.3;"/>
   </g>
   <g id="patch_26">
    <path clip-path="url(#p9c7b71be26)" d="M 135.898925 252 
L 163.198566 252 
L 163.198566 245.056992 
L 135.898925 245.056992 
z
" style="fill:#c44e52;opacity:0.7;stroke:#000000;stroke-linejoin:miter;stroke-width:0.3;"/>
   </g>
   <g id="patch_27">
    <path clip-path="url(#p9c7b71be26)" d="M 163.198566 252 
L 190.498208 252 
L 190.498208 248.68176 
L 163.198566 248.68176 
z
" style="fill:#c44e52;opacity:0.7;stroke:#000000;stroke-linejoin:miter;stroke-width:0.3;"/>
   </g>
   <g id="patch_28">
    <path clip-path="url(#p9c7b71be26)" d="M 190.498208 252 
L 217.79785 252 
L 217.79785 250.44132 
L 190.498208 250.44132 
z
" style="fill:#c44e52;opacity:0.7;stroke:#000000;stroke-linejoin:miter;stroke-width:0.3;"/>
   </g>
   <g id="patch_29">
    <path clip-path="url(#p9c7b71be26)" d="M 217.79785 252 
L 245.097491 252 
L 245.097491 251.302872 
L 217.79785 251.302872 
z
" style="fill:#c44e52;opacity:0.7;stroke:#000000;stroke-linejoin:miter;stroke-width:0.3;"/>
   </g>
   <g id="patch_30">
    <path clip-path="url(#p9c7b71be26)" d="M 245.097491 252 
L 272.397133 252 
L 272.397133 251.723976 
L 245.097491 251.723976 
z
" style="fill:#c44e52;opacity:0.7;stroke:#000000;stroke-linejoin:miter;stroke-width:0.3;"/>
   </g>
   <g id="patch_31">
    <path clip-path="url(#p9c7b71be26)" d="M 272.397133 252 
L 299.696774 252 
L 299.696774 251.915184 
L 272.397133 251.915184 
z
" style="fill:#c44e52;opacity:0.7;stroke:#000000;stroke-linejoin:miter;stroke-width:0.3;"/>
   </g>
   <g id="patch_32">
    <path clip-path="url(#p9c7b71be26)" d="M 299.696774 252 
L 326.996416 252 
L 326.996416 251.979168 
L 299.696774 251.979168 
z
" style="fill:#c44e52;opacity:0.7;stroke:#000000;stroke-linejoin:miter;stroke-width:0.3;"/>
   </g>
   <g id="patch_33">
    <path clip-path="url(#p9c7b71be26)" d="M 70.74 252 
L 102.546 252 
L 102.546 222.036144 
L 70.74 222.036144 
z
" style="fill:#8172b2;opacity:0.5;stroke:#000000;stroke-linejoin:miter;stroke-width:0.3;"/>
   </g>
   <g id="patch_34">
    <path clip-path="url(#p9c7b71be26)" d="M 102.546 252 
L 134.352 252 
L 134.352 224.966016 
L 102.546 224.966016 
z
" style="fill:#8172b2;opacity:0.5;stroke:#000000;stroke-linejoin:miter;stroke-width:0.3;"/>
   </g>
   <g id="patch_35">
    <path clip-path="url(#p9c7b71be26)" d="M 134.352 252 
L 166.158 252 
L 166.158 222.968376 
L 134.352 222.968376 
z
" style="fill:#8172b2;opacity:0.5;stroke:#000000;stroke-linejoin:miter;stroke-width:0.3;"/>
   </g>
   <g id="patch_36">
    <path clip-path="url(#p9c7b71be26)" d="M 166.158 252 
L 197.964 252 
L 197.964 225.660168 
L 166.158 225.660168 
z
" style="fill:#8172b2;opacity:0.5;stroke:#000000;stroke-linejoin:miter;stroke-width:0.3;"/>
   </g>
   <g id="patch_37">
    <path clip-path="url(#p9c7b71be26)" d="M 197.964 252 
L 229.77 252 
L 229.77 225.90792 
L 197.964 225.90792 
z
" style="fill:#8172b2;opacity:0.5;stroke:#000000;stroke-linejoin:miter;stroke-width:0.3;"/>
   </g>
   <g id="patch_38">
    <path clip-path="url(#p9c7b71be26)" d="M 229.77 252 
L 261.576 252 
L 261.576 223.901352 
L 229.77 223.901352 
z
" style="fill:#8172b2;opacity:0.5;stroke:#000000;stroke-linejoin:miter;stroke-width:0.3;"/>
   </g>
   <g id="patch_39">
    <path clip-path="url(#p9c7b71be26)" d="M 261.576 252 
L 293.382 252 
L 293.382 226.481544 
L 261.576 226.481544 
z
" style="fill:#8172b2;opacity:0.5;stroke:#000000;stroke-linejoin:miter;stroke-width:0.3;"/>
   </g>
   <g id="patch_40">
    <path clip-path="url(#p9c7b71be26)" d="M 293.382 252 
L 325.188 252 
L 325.188 224.3976 
L 293.382 224.3976 
z
" style="fill:#8172b2;opacity:0.5;stroke:#000000;stroke-linejoin:miter;stroke-width:0.3;"/>
   </g>
   <g id="patch_41">
    <path clip-path="url(#p9c7b71be26)" d="M 325.188 252 
L 356.994 252 
L 356.994 226.907856 
L 325.188 226.907856 
z
" style="fill:#8172b2;opacity:0.5;stroke:#000000;stroke-linejoin:miter;stroke-width:0.3;"/>
   </g>
   <g id="patch_42">
    <path clip-path="url(#p9c7b71be26)" d="M 356.994 252 
L 388.8 252 
L 388.8 224.755464 
L 356.994 224.755464 
z
" style="fill:#8172b2;opacity:0.5;stroke:#000000;stroke-linejoin:miter;stroke-width:0.3;"/>
   </g>
   <g id="patch_43">
    <path d="M 388.8 252 
L 388.8 28.8 
" style="fill:none;"/>
   </g>
   <g id="patch_44">
    <path d="M 54 252 
L 54 28.8 
" style="fill:none;"/>
   </g>
   <g id="patch_45">
    <path d="M 54 28.8 
L 388.8 28.8 
" style="fill:none;"/>
   </g>
   <g id="patch_46">
    <path d="M 54 252 
L 388.8 252 
" style="fill:none;"/>
   </g>
   <g id="text_14">
    <!-- Game parameters when no one gives gifts -->
    <defs>
     <path d="M 3.328125 25.921875 
Q 3.328125 40.328125 11.328125 47.265625 
Q 18.015625 53.03125 27.640625 53.03125 
Q 38.328125 53.03125 45.109375 46.015625 
Q 51.90625 39.015625 51.90625 26.65625 
Q 51.90625 16.65625 48.90625 10.90625 
Q 45.90625 5.171875 40.15625 2 
Q 34.421875 -1.171875 27.640625 -1.171875 
Q 16.75 -1.171875 10.03125 5.8125 
Q 3.328125 12.796875 3.328125 25.921875 
M 12.359375 25.921875 
Q 12.359375 15.96875 16.703125 11.015625 
Q 21.046875 6.0625 27.640625 6.0625 
Q 34.1875 6.0625 38.53125 11.03125 
Q 42.875 16.015625 42.875 26.21875 
Q 42.875 35.84375 38.5 40.796875 
Q 34.125 45.75 27.640625 45.75 
Q 21.046875 45.75 16.703125 40.8125 
Q 12.359375 35.890625 12.359375 25.921875 
" id="ArialMT-6f"/>
     <path d="M 6.59375 0 
L 6.59375 51.859375 
L 14.453125 51.859375 
L 14.453125 44.578125 
Q 16.890625 48.390625 20.9375 50.703125 
Q 25 53.03125 30.171875 53.03125 
Q 35.9375 53.03125 39.625 50.640625 
Q 43.3125 48.25 44.828125 43.953125 
Q 50.984375 53.03125 60.84375 53.03125 
Q 68.5625 53.03125 72.703125 48.75 
Q 76.859375 44.484375 76.859375 35.59375 
L 76.859375 0 
L 68.109375 0 
L 68.109375 32.671875 
Q 68.109375 37.9375 67.25 40.25 
Q 66.40625 42.578125 64.15625 43.984375 
Q 61.921875 45.40625 58.890625 45.40625 
Q 53.421875 45.40625 49.796875 41.765625 
Q 46.1875 38.140625 46.1875 30.125 
L 46.1875 0 
L 37.40625 0 
L 37.40625 33.6875 
Q 37.40625 39.546875 35.25 42.46875 
Q 33.109375 45.40625 28.21875 45.40625 
Q 24.515625 45.40625 21.359375 43.453125 
Q 18.21875 41.5 16.796875 37.734375 
Q 15.375 33.984375 15.375 26.90625 
L 15.375 0 
z
" id="ArialMT-6d"/>
     <path d="M 4.984375 -4.296875 
L 13.53125 -5.5625 
Q 14.0625 -9.515625 16.5 -11.328125 
Q 19.78125 -13.765625 25.4375 -13.765625 
Q 31.546875 -13.765625 34.859375 -11.328125 
Q 38.1875 -8.890625 39.359375 -4.5 
Q 40.046875 -1.8125 39.984375 6.78125 
Q 34.234375 0 25.640625 0 
Q 14.9375 0 9.078125 7.71875 
Q 3.21875 15.4375 3.21875 26.21875 
Q 3.21875 33.640625 5.90625 39.90625 
Q 8.59375 46.1875 13.6875 49.609375 
Q 18.796875 53.03125 25.6875 53.03125 
Q 34.859375 53.03125 40.828125 45.609375 
L 40.828125 51.859375 
L 48.921875 51.859375 
L 48.921875 7.03125 
Q 48.921875 -5.078125 46.453125 -10.125 
Q 44 -15.1875 38.640625 -18.109375 
Q 33.296875 -21.046875 25.484375 -21.046875 
Q 16.21875 -21.046875 10.5 -16.875 
Q 4.78125 -12.703125 4.984375 -4.296875 
M 12.25 26.859375 
Q 12.25 16.65625 16.296875 11.96875 
Q 20.359375 7.28125 26.46875 7.28125 
Q 32.515625 7.28125 36.609375 11.9375 
Q 40.71875 16.609375 40.71875 26.5625 
Q 40.71875 36.078125 36.5 40.90625 
Q 32.28125 45.75 26.3125 45.75 
Q 20.453125 45.75 16.34375 40.984375 
Q 12.25 36.234375 12.25 26.859375 
" id="ArialMT-67"/>
     <path d="M 21 0 
L 1.265625 51.859375 
L 10.546875 51.859375 
L 21.6875 20.796875 
Q 23.484375 15.765625 25 10.359375 
Q 26.171875 14.453125 28.265625 20.21875 
L 39.796875 51.859375 
L 48.828125 51.859375 
L 29.203125 0 
z
" id="ArialMT-76"/>
     <path d="M 42.09375 16.703125 
L 51.171875 15.578125 
Q 49.03125 7.625 43.21875 3.21875 
Q 37.40625 -1.171875 28.375 -1.171875 
Q 17 -1.171875 10.328125 5.828125 
Q 3.65625 12.84375 3.65625 25.484375 
Q 3.65625 38.578125 10.390625 45.796875 
Q 17.140625 53.03125 27.875 53.03125 
Q 38.28125 53.03125 44.875 45.953125 
Q 51.46875 38.875 51.46875 26.03125 
Q 51.46875 25.25 51.421875 23.6875 
L 12.75 23.6875 
Q 13.234375 15.140625 17.578125 10.59375 
Q 21.921875 6.0625 28.421875 6.0625 
Q 33.25 6.0625 36.671875 8.59375 
Q 40.09375 11.140625 42.09375 16.703125 
M 13.234375 30.90625 
L 42.1875 30.90625 
Q 41.609375 37.453125 38.875 40.71875 
Q 34.671875 45.796875 27.984375 45.796875 
Q 21.921875 45.796875 17.796875 41.75 
Q 13.671875 37.703125 13.234375 30.90625 
" id="ArialMT-65"/>
     <path d="M 25.78125 7.859375 
L 27.046875 0.09375 
Q 23.34375 -0.6875 20.40625 -0.6875 
Q 15.625 -0.6875 12.984375 0.828125 
Q 10.359375 2.34375 9.28125 4.8125 
Q 8.203125 7.28125 8.203125 15.1875 
L 8.203125 45.015625 
L 1.765625 45.015625 
L 1.765625 51.859375 
L 8.203125 51.859375 
L 8.203125 64.703125 
L 16.9375 69.96875 
L 16.9375 51.859375 
L 25.78125 51.859375 
L 25.78125 45.015625 
L 16.9375 45.015625 
L 16.9375 14.703125 
Q 16.9375 10.9375 17.40625 9.859375 
Q 17.875 8.796875 18.921875 8.15625 
Q 19.96875 7.515625 21.921875 7.515625 
Q 23.390625 7.515625 25.78125 7.859375 
" id="ArialMT-74"/>
     <path d="M 3.078125 15.484375 
L 11.765625 16.84375 
Q 12.5 11.625 15.84375 8.84375 
Q 19.1875 6.0625 25.203125 6.0625 
Q 31.25 6.0625 34.171875 8.515625 
Q 37.109375 10.984375 37.109375 14.3125 
Q 37.109375 17.28125 34.515625 19 
Q 32.71875 20.171875 25.53125 21.96875 
Q 15.875 24.421875 12.140625 26.203125 
Q 8.40625 27.984375 6.46875 31.125 
Q 4.546875 34.28125 4.546875 38.09375 
Q 4.546875 41.546875 6.125 44.5 
Q 7.71875 47.46875 10.453125 49.421875 
Q 12.5 50.921875 16.03125 51.96875 
Q 19.578125 53.03125 23.640625 53.03125 
Q 29.734375 53.03125 34.34375 51.265625 
Q 38.96875 49.515625 41.15625 46.5 
Q 43.359375 43.5 44.1875 38.484375 
L 35.59375 37.3125 
Q 35.015625 41.3125 32.203125 43.546875 
Q 29.390625 45.796875 24.265625 45.796875 
Q 18.21875 45.796875 15.625 43.796875 
Q 13.03125 41.796875 13.03125 39.109375 
Q 13.03125 37.40625 14.109375 36.03125 
Q 15.1875 34.625 17.484375 33.6875 
Q 18.796875 33.203125 25.25 31.453125 
Q 34.578125 28.953125 38.25 27.359375 
Q 41.9375 25.78125 44.03125 22.75 
Q 46.140625 19.734375 46.140625 15.234375 
Q 46.140625 10.84375 43.578125 6.953125 
Q 41.015625 3.078125 36.171875 0.953125 
Q 31.34375 -1.171875 25.25 -1.171875 
Q 15.140625 -1.171875 9.84375 3.03125 
Q 4.546875 7.234375 3.078125 15.484375 
" id="ArialMT-73"/>
     <path d="M 6.59375 0 
L 6.59375 51.859375 
L 14.5 51.859375 
L 14.5 44.484375 
Q 20.21875 53.03125 31 53.03125 
Q 35.6875 53.03125 39.625 51.34375 
Q 43.5625 49.65625 45.515625 46.921875 
Q 47.46875 44.1875 48.25 40.4375 
Q 48.734375 37.984375 48.734375 31.890625 
L 48.734375 0 
L 39.9375 0 
L 39.9375 31.546875 
Q 39.9375 36.921875 38.90625 39.578125 
Q 37.890625 42.234375 35.28125 43.8125 
Q 32.671875 45.40625 29.15625 45.40625 
Q 23.53125 45.40625 19.453125 41.84375 
Q 15.375 38.28125 15.375 28.328125 
L 15.375 0 
z
" id="ArialMT-6e"/>
     <path d="M 6.5 0 
L 6.5 51.859375 
L 14.40625 51.859375 
L 14.40625 44 
Q 17.4375 49.515625 20 51.265625 
Q 22.5625 53.03125 25.640625 53.03125 
Q 30.078125 53.03125 34.671875 50.203125 
L 31.640625 42.046875 
Q 28.421875 43.953125 25.203125 43.953125 
Q 22.3125 43.953125 20.015625 42.21875 
Q 17.71875 40.484375 16.75 37.40625 
Q 15.28125 32.71875 15.28125 27.15625 
L 15.28125 0 
z
" id="ArialMT-72"/>
     <path d="M 6.640625 61.46875 
L 6.640625 71.578125 
L 15.4375 71.578125 
L 15.4375 61.46875 
z
M 6.640625 0 
L 6.640625 51.859375 
L 15.4375 51.859375 
L 15.4375 0 
z
" id="ArialMT-69"/>
     <path d="M 41.21875 28.078125 
L 41.21875 36.46875 
L 71.53125 36.53125 
L 71.53125 9.96875 
Q 64.546875 4.390625 57.125 1.578125 
Q 49.703125 -1.21875 41.890625 -1.21875 
Q 31.34375 -1.21875 22.71875 3.296875 
Q 14.109375 7.8125 9.71875 16.359375 
Q 5.328125 24.90625 5.328125 35.453125 
Q 5.328125 45.90625 9.6875 54.953125 
Q 14.0625 64.015625 22.265625 68.40625 
Q 30.46875 72.796875 41.15625 72.796875 
Q 48.921875 72.796875 55.1875 70.28125 
Q 61.46875 67.78125 65.03125 63.28125 
Q 68.609375 58.796875 70.453125 51.5625 
L 61.921875 49.21875 
Q 60.296875 54.6875 57.90625 57.8125 
Q 55.515625 60.9375 51.0625 62.8125 
Q 46.625 64.703125 41.21875 64.703125 
Q 34.71875 64.703125 29.984375 62.71875 
Q 25.25 60.75 22.34375 57.515625 
Q 19.4375 54.296875 17.828125 50.4375 
Q 15.09375 43.796875 15.09375 36.03125 
Q 15.09375 26.46875 18.390625 20.015625 
Q 21.6875 13.578125 27.984375 10.453125 
Q 34.28125 7.328125 41.359375 7.328125 
Q 47.515625 7.328125 53.375 9.6875 
Q 59.234375 12.0625 62.25 14.75 
L 62.25 28.078125 
z
" id="ArialMT-47"/>
     <path d="M 40.4375 6.390625 
Q 35.546875 2.25 31.03125 0.53125 
Q 26.515625 -1.171875 21.34375 -1.171875 
Q 12.796875 -1.171875 8.203125 3 
Q 3.609375 7.171875 3.609375 13.671875 
Q 3.609375 17.484375 5.34375 20.625 
Q 7.078125 23.78125 9.890625 25.6875 
Q 12.703125 27.59375 16.21875 28.5625 
Q 18.796875 29.25 24.03125 29.890625 
Q 34.671875 31.15625 39.703125 32.90625 
Q 39.75 34.71875 39.75 35.203125 
Q 39.75 40.578125 37.25 42.78125 
Q 33.890625 45.75 27.25 45.75 
Q 21.046875 45.75 18.09375 43.578125 
Q 15.140625 41.40625 13.71875 35.890625 
L 5.125 37.0625 
Q 6.296875 42.578125 8.984375 45.96875 
Q 11.671875 49.359375 16.75 51.1875 
Q 21.828125 53.03125 28.515625 53.03125 
Q 35.15625 53.03125 39.296875 51.46875 
Q 43.453125 49.90625 45.40625 47.53125 
Q 47.359375 45.171875 48.140625 41.546875 
Q 48.578125 39.3125 48.578125 33.453125 
L 48.578125 21.734375 
Q 48.578125 9.46875 49.140625 6.21875 
Q 49.703125 2.984375 51.375 0 
L 42.1875 0 
Q 40.828125 2.734375 40.4375 6.390625 
M 39.703125 26.03125 
Q 34.90625 24.078125 25.34375 22.703125 
Q 19.921875 21.921875 17.671875 20.9375 
Q 15.4375 19.96875 14.203125 18.09375 
Q 12.984375 16.21875 12.984375 13.921875 
Q 12.984375 10.40625 15.640625 8.0625 
Q 18.3125 5.71875 23.4375 5.71875 
Q 28.515625 5.71875 32.46875 7.9375 
Q 36.421875 10.15625 38.28125 14.015625 
Q 39.703125 17 39.703125 22.796875 
z
" id="ArialMT-61"/>
     <path d="M 8.6875 0 
L 8.6875 45.015625 
L 0.921875 45.015625 
L 0.921875 51.859375 
L 8.6875 51.859375 
L 8.6875 57.375 
Q 8.6875 62.59375 9.625 65.140625 
Q 10.890625 68.5625 14.078125 70.671875 
Q 17.28125 72.796875 23.046875 72.796875 
Q 26.765625 72.796875 31.25 71.921875 
L 29.9375 64.265625 
Q 27.203125 64.75 24.75 64.75 
Q 20.75 64.75 19.09375 63.03125 
Q 17.4375 61.328125 17.4375 56.640625 
L 17.4375 51.859375 
L 27.546875 51.859375 
L 27.546875 45.015625 
L 17.4375 45.015625 
L 17.4375 0 
z
" id="ArialMT-66"/>
     <path id="ArialMT-20"/>
     <path d="M 6.59375 -19.875 
L 6.59375 51.859375 
L 14.59375 51.859375 
L 14.59375 45.125 
Q 17.4375 49.078125 21 51.046875 
Q 24.5625 53.03125 29.640625 53.03125 
Q 36.28125 53.03125 41.359375 49.609375 
Q 46.4375 46.1875 49.015625 39.953125 
Q 51.609375 33.734375 51.609375 26.3125 
Q 51.609375 18.359375 48.75 11.984375 
Q 45.90625 5.609375 40.453125 2.21875 
Q 35.015625 -1.171875 29 -1.171875 
Q 24.609375 -1.171875 21.109375 0.6875 
Q 17.625 2.546875 15.375 5.375 
L 15.375 -19.875 
z
M 14.546875 25.640625 
Q 14.546875 15.625 18.59375 10.84375 
Q 22.65625 6.0625 28.421875 6.0625 
Q 34.28125 6.0625 38.453125 11.015625 
Q 42.625 15.96875 42.625 26.375 
Q 42.625 36.28125 38.546875 41.203125 
Q 34.46875 46.140625 28.8125 46.140625 
Q 23.1875 46.140625 18.859375 40.890625 
Q 14.546875 35.640625 14.546875 25.640625 
" id="ArialMT-70"/>
     <path d="M 16.15625 0 
L 0.296875 51.859375 
L 9.375 51.859375 
L 17.625 21.921875 
L 20.703125 10.796875 
Q 20.90625 11.625 23.390625 21.484375 
L 31.640625 51.859375 
L 40.671875 51.859375 
L 48.4375 21.78125 
L 51.03125 11.859375 
L 54 21.875 
L 62.890625 51.859375 
L 71.4375 51.859375 
L 55.21875 0 
L 46.09375 0 
L 37.84375 31.0625 
L 35.84375 39.890625 
L 25.34375 0 
z
" id="ArialMT-77"/>
     <path d="M 6.59375 0 
L 6.59375 71.578125 
L 15.375 71.578125 
L 15.375 45.90625 
Q 21.53125 53.03125 30.90625 53.03125 
Q 36.671875 53.03125 40.921875 50.75 
Q 45.171875 48.484375 47 44.484375 
Q 48.828125 40.484375 48.828125 32.859375 
L 48.828125 0 
L 40.046875 0 
L 40.046875 32.859375 
Q 40.046875 39.453125 37.1875 42.453125 
Q 34.328125 45.453125 29.109375 45.453125 
Q 25.203125 45.453125 21.75 43.421875 
Q 18.3125 41.40625 16.84375 37.9375 
Q 15.375 34.46875 15.375 28.375 
L 15.375 0 
z
" id="ArialMT-68"/>
    </defs>
    <g style="fill:#262626;" transform="translate(108.6825 23.8)scale(0.12 -0.12)">
     <use xlink:href="#ArialMT-47"/>
     <use x="77.783203125" xlink:href="#ArialMT-61"/>
     <use x="133.3984375" xlink:href="#ArialMT-6d"/>
     <use x="216.69921875" xlink:href="#ArialMT-65"/>
     <use x="272.314453125" xlink:href="#ArialMT-20"/>
     <use x="300.09765625" xlink:href="#ArialMT-70"/>
     <use x="355.712890625" xlink:href="#ArialMT-61"/>
     <use x="411.328125" xlink:href="#ArialMT-72"/>
     <use x="444.62890625" xlink:href="#ArialMT-61"/>
     <use x="500.244140625" xlink:href="#ArialMT-6d"/>
     <use x="583.544921875" xlink:href="#ArialMT-65"/>
     <use x="639.16015625" xlink:href="#ArialMT-74"/>
     <use x="666.943359375" xlink:href="#ArialMT-65"/>
     <use x="722.55859375" xlink:href="#ArialMT-72"/>
     <use x="755.859375" xlink:href="#ArialMT-73"/>
     <use x="805.859375" xlink:href="#ArialMT-20"/>
     <use x="833.642578125" xlink:href="#ArialMT-77"/>
     <use x="905.859375" xlink:href="#ArialMT-68"/>
     <use x="961.474609375" xlink:href="#ArialMT-65"/>
     <use x="1017.08984375" xlink:href="#ArialMT-6e"/>
     <use x="1072.705078125" xlink:href="#ArialMT-20"/>
     <use x="1100.48828125" xlink:href="#ArialMT-6e"/>
     <use x="1156.103515625" xlink:href="#ArialMT-6f"/>
     <use x="1211.71875" xlink:href="#ArialMT-20"/>
     <use x="1239.501953125" xlink:href="#ArialMT-6f"/>
     <use x="1295.1171875" xlink:href="#ArialMT-6e"/>
     <use x="1350.732421875" xlink:href="#ArialMT-65"/>
     <use x="1406.34765625" xlink:href="#ArialMT-20"/>
     <use x="1434.130859375" xlink:href="#ArialMT-67"/>
     <use x="1489.74609375" xlink:href="#ArialMT-69"/>
     <use x="1511.962890625" xlink:href="#ArialMT-76"/>
     <use x="1561.962890625" xlink:href="#ArialMT-65"/>
     <use x="1617.578125" xlink:href="#ArialMT-73"/>
     <use x="1667.578125" xlink:href="#ArialMT-20"/>
     <use x="1695.361328125" xlink:href="#ArialMT-67"/>
     <use x="1750.9765625" xlink:href="#ArialMT-69"/>
     <use x="1773.193359375" xlink:href="#ArialMT-66"/>
     <use x="1800.9765625" xlink:href="#ArialMT-74"/>
     <use x="1828.759765625" xlink:href="#ArialMT-73"/>
    </g>
   </g>
   <g id="legend_1">
    <g id="patch_47">
     <path d="M 344.2 44.957813 
L 364.2 44.957813 
L 364.2 37.957813 
L 344.2 37.957813 
z
" style="fill:#4c72b0;stroke:#000000;stroke-linejoin:miter;stroke-width:0.3;"/>
    </g>
    <g id="text_15">
     <!-- $R$ -->
     <defs>
      <path d="M 4.890625 0 
Q 3.90625 0 3.90625 1.3125 
Q 3.953125 1.5625 4.09375 2.171875 
Q 4.25 2.78125 4.515625 3.140625 
Q 4.78125 3.515625 5.171875 3.515625 
Q 11.28125 3.515625 13.71875 4.203125 
Q 14.984375 4.640625 15.578125 6.890625 
L 29.296875 61.8125 
Q 29.5 62.796875 29.5 63.1875 
Q 29.5 64.265625 28.328125 64.40625 
Q 26.421875 64.796875 21.09375 64.796875 
Q 20.125 64.796875 20.125 66.109375 
Q 20.171875 66.359375 20.3125 66.96875 
Q 20.453125 67.578125 20.71875 67.9375 
Q 21 68.3125 21.390625 68.3125 
L 51.703125 68.3125 
Q 55.328125 68.3125 59.234375 67.484375 
Q 63.140625 66.65625 66.40625 64.875 
Q 69.671875 63.09375 71.765625 60.125 
Q 73.875 57.171875 73.875 53.21875 
Q 73.875 48.1875 70.546875 44.234375 
Q 67.234375 40.28125 62.15625 37.625 
Q 57.078125 34.96875 52.296875 33.890625 
Q 56.203125 32.46875 58.6875 29.359375 
Q 61.1875 26.265625 61.1875 22.21875 
Q 61.1875 21.6875 61.15625 21.40625 
Q 61.140625 21.140625 61.078125 20.796875 
L 60.296875 11.921875 
Q 60.203125 9.96875 60.109375 8.59375 
Q 60.015625 7.234375 60.015625 6.390625 
Q 60.015625 3.65625 60.8125 2.015625 
Q 61.625 0.390625 64.015625 0.390625 
Q 67.140625 0.390625 69.5 3.296875 
Q 71.875 6.203125 72.609375 9.625 
Q 73.046875 10.5 73.578125 10.5 
L 74.515625 10.5 
Q 75.484375 10.5 75.484375 9.1875 
Q 74.75 6.296875 73.15625 3.703125 
Q 71.578125 1.125 69.15625 -0.53125 
Q 66.75 -2.203125 63.921875 -2.203125 
Q 58.0625 -2.203125 53.9375 0.40625 
Q 49.8125 3.03125 49.8125 8.59375 
Q 49.8125 10.6875 50.203125 12.3125 
L 52.390625 21.1875 
Q 52.78125 22.40625 52.78125 24.03125 
Q 52.78125 28.171875 49.96875 30.53125 
Q 47.171875 32.90625 42.921875 32.90625 
L 30.609375 32.90625 
L 24.03125 6.5 
Q 23.78125 5.671875 23.78125 5.078125 
Q 23.78125 4.046875 25 3.90625 
Q 26.90625 3.515625 32.171875 3.515625 
Q 33.203125 3.515625 33.203125 2.203125 
Q 32.859375 0.78125 32.65625 0.390625 
Q 32.46875 0 31.5 0 
z
M 31.203125 35.5 
L 42.28125 35.5 
Q 53.171875 35.5 58.6875 41.015625 
Q 61.234375 43.5625 62.71875 47.484375 
Q 64.203125 51.421875 64.203125 55.328125 
Q 64.203125 59.03125 62.03125 61.125 
Q 59.859375 63.234375 56.65625 64.015625 
Q 53.46875 64.796875 49.609375 64.796875 
L 42.921875 64.796875 
Q 40.1875 64.796875 39.296875 64.328125 
Q 38.421875 63.875 37.703125 61.375 
z
" id="Cmmi10-52"/>
     </defs>
     <g style="fill:#262626;" transform="translate(372.2 44.9578125)scale(0.1 -0.1)">
      <use transform="translate(0.0 0.6875)" xlink:href="#Cmmi10-52"/>
     </g>
    </g>
    <g id="patch_48">
     <path d="M 344.2 59.103125 
L 364.2 59.103125 
L 364.2 52.103125 
L 344.2 52.103125 
z
" style="fill:#55a868;opacity:0.9;stroke:#000000;stroke-linejoin:miter;stroke-width:0.3;"/>
    </g>
    <g id="text_16">
     <!-- $P$ -->
     <defs>
      <path d="M 4.890625 0 
Q 3.90625 0 3.90625 1.3125 
Q 3.953125 1.5625 4.09375 2.171875 
Q 4.25 2.78125 4.515625 3.140625 
Q 4.78125 3.515625 5.171875 3.515625 
Q 11.28125 3.515625 13.71875 4.203125 
Q 14.984375 4.640625 15.578125 6.890625 
L 29.296875 61.8125 
Q 29.5 62.796875 29.5 63.1875 
Q 29.5 64.265625 28.328125 64.40625 
Q 26.421875 64.796875 21.09375 64.796875 
Q 20.125 64.796875 20.125 66.109375 
Q 20.171875 66.359375 20.3125 66.96875 
Q 20.453125 67.578125 20.71875 67.9375 
Q 21 68.3125 21.390625 68.3125 
L 55.90625 68.3125 
Q 60.640625 68.3125 65.078125 66.625 
Q 69.53125 64.9375 72.359375 61.46875 
Q 75.203125 58.015625 75.203125 53.078125 
Q 75.203125 46.734375 70.734375 41.75 
Q 66.265625 36.765625 59.59375 33.984375 
Q 52.9375 31.203125 46.6875 31.203125 
L 30.421875 31.203125 
L 24.3125 6.5 
Q 24.125 5.515625 24.125 5.078125 
Q 24.125 4.6875 24.234375 4.421875 
Q 24.359375 4.15625 24.578125 4.078125 
Q 24.8125 4 25.296875 3.90625 
Q 27.203125 3.515625 32.515625 3.515625 
Q 33.5 3.515625 33.5 2.203125 
Q 33.15625 0.78125 32.953125 0.390625 
Q 32.765625 0 31.78125 0 
z
M 30.90625 34.1875 
L 44.921875 34.1875 
Q 54.640625 34.1875 59.71875 39.40625 
Q 62.3125 42 63.9375 46.875 
Q 65.578125 51.765625 65.578125 55.71875 
Q 65.578125 60.640625 61.8125 62.71875 
Q 58.0625 64.796875 52.484375 64.796875 
L 42.921875 64.796875 
Q 40.1875 64.796875 39.296875 64.328125 
Q 38.421875 63.875 37.703125 61.375 
z
" id="Cmmi10-50"/>
     </defs>
     <g style="fill:#262626;" transform="translate(372.2 59.103125)scale(0.1 -0.1)">
      <use transform="translate(0.0 0.6875)" xlink:href="#Cmmi10-50"/>
     </g>
    </g>
    <g id="patch_49">
     <path d="M 344.2 73.248438 
L 364.2 73.248438 
L 364.2 66.248438 
L 344.2 66.248438 
z
" style="fill:#c44e52;opacity:0.7;stroke:#000000;stroke-linejoin:miter;stroke-width:0.3;"/>
    </g>
    <g id="text_17">
     <!-- $S$ -->
     <defs>
      <path d="M 6.109375 -2.203125 
Q 5.8125 -2.203125 5.5625 -1.859375 
Q 5.328125 -1.515625 5.328125 -1.21875 
L 11.078125 22.125 
Q 11.28125 22.703125 11.921875 22.703125 
L 13.09375 22.703125 
Q 13.484375 22.703125 13.703125 22.40625 
Q 13.921875 22.125 13.921875 21.6875 
Q 13.09375 18.265625 13.09375 15.578125 
Q 13.09375 8.34375 18.0625 4.828125 
Q 23.046875 1.3125 30.609375 1.3125 
Q 33.890625 1.3125 37.0625 2.921875 
Q 40.234375 4.546875 42.59375 7.125 
Q 44.96875 9.71875 46.375 12.90625 
Q 47.796875 16.109375 47.796875 19.390625 
Q 47.796875 22.90625 45.9375 25.65625 
Q 44.09375 28.421875 40.828125 29.203125 
L 28.609375 32.421875 
Q 23.6875 33.734375 20.75 37.71875 
Q 17.828125 41.703125 17.828125 46.6875 
Q 17.828125 52.6875 21.390625 58.25 
Q 24.953125 63.8125 30.6875 67.15625 
Q 36.421875 70.515625 42.390625 70.515625 
Q 46.96875 70.515625 50.796875 68.828125 
Q 54.640625 67.140625 56.6875 63.484375 
L 62.40625 70.21875 
Q 62.984375 70.515625 63.09375 70.515625 
L 63.71875 70.515625 
Q 64.109375 70.515625 64.34375 70.171875 
Q 64.59375 69.828125 64.59375 69.484375 
L 58.796875 46.296875 
Q 58.640625 45.609375 58.015625 45.609375 
L 56.78125 45.609375 
Q 55.90625 45.609375 55.90625 46.6875 
Q 56.390625 49.859375 56.390625 52.203125 
Q 56.390625 56.84375 54.796875 60.28125 
Q 53.21875 63.71875 50.015625 65.5 
Q 46.828125 67.28125 42.09375 67.28125 
Q 38.09375 67.28125 34.125 64.984375 
Q 30.171875 62.703125 27.734375 58.890625 
Q 25.296875 55.078125 25.296875 50.984375 
Q 25.296875 47.75 27.171875 45.265625 
Q 29.046875 42.78125 32.171875 41.890625 
L 44.390625 38.71875 
Q 47.703125 37.84375 50.171875 35.625 
Q 52.640625 33.40625 53.90625 30.34375 
Q 55.171875 27.296875 55.171875 23.6875 
Q 55.171875 18.953125 53.171875 14.328125 
Q 51.171875 9.71875 47.578125 5.90625 
Q 44 2.09375 39.453125 -0.046875 
Q 34.90625 -2.203125 30.171875 -2.203125 
Q 18.265625 -2.203125 13.09375 4.78125 
L 7.515625 -1.90625 
Q 6.9375 -2.203125 6.78125 -2.203125 
z
" id="Cmmi10-53"/>
     </defs>
     <g style="fill:#262626;" transform="translate(372.2 73.2484375)scale(0.1 -0.1)">
      <use transform="translate(0.0 0.484375)" xlink:href="#Cmmi10-53"/>
     </g>
    </g>
    <g id="patch_50">
     <path d="M 344.2 87.39375 
L 364.2 87.39375 
L 364.2 80.39375 
L 344.2 80.39375 
z
" style="fill:#8172b2;opacity:0.5;stroke:#000000;stroke-linejoin:miter;stroke-width:0.3;"/>
    </g>
    <g id="text_18">
     <!-- $T$ -->
     <defs>
      <path d="M 4.59375 1.3125 
Q 4.640625 1.5625 4.8125 2.1875 
Q 4.984375 2.828125 5.25 3.171875 
Q 5.515625 3.515625 6 3.515625 
Q 14.59375 3.515625 17.390625 4 
Q 20.0625 4.6875 20.609375 6.890625 
L 34.28125 61.8125 
Q 34.71875 63.03125 34.71875 64.015625 
Q 34.71875 64.796875 31.203125 64.796875 
L 25.390625 64.796875 
Q 18.703125 64.796875 15.0625 62.734375 
Q 11.421875 60.6875 9.71875 57.3125 
Q 8.015625 53.953125 5.328125 46.296875 
Q 4.984375 45.40625 4.296875 45.40625 
L 3.421875 45.40625 
Q 2.390625 45.40625 2.390625 46.6875 
L 9.515625 67.390625 
Q 9.71875 68.3125 10.5 68.3125 
L 69.578125 68.3125 
Q 70.609375 68.3125 70.609375 67 
L 67.28125 46.296875 
Q 67.28125 46 66.9375 45.703125 
Q 66.609375 45.40625 66.3125 45.40625 
L 65.375 45.40625 
Q 64.40625 45.40625 64.40625 46.6875 
Q 65.484375 53.765625 65.484375 56.6875 
Q 65.484375 60.203125 64.015625 62 
Q 62.546875 63.8125 60.203125 64.296875 
Q 57.859375 64.796875 54.109375 64.796875 
L 48.1875 64.796875 
Q 45.515625 64.796875 44.578125 64.296875 
Q 43.65625 63.8125 43.015625 61.375 
L 29.296875 6.5 
Q 29.25 6.296875 29.21875 6.09375 
Q 29.203125 5.90625 29.109375 5.609375 
Q 29.109375 4.34375 30.609375 4 
Q 33.203125 3.515625 41.703125 3.515625 
Q 42.671875 3.515625 42.671875 2.203125 
Q 42.328125 0.78125 42.125 0.390625 
Q 41.9375 0 41.015625 0 
L 5.609375 0 
Q 4.59375 0 4.59375 1.3125 
" id="Cmmi10-54"/>
     </defs>
     <g style="fill:#262626;" transform="translate(372.2 87.39375)scale(0.1 -0.1)">
      <use transform="translate(0.0 0.6875)" xlink:href="#Cmmi10-54"/>
     </g>
    </g>
   </g>
  </g>
 </g>
 <defs>
  <clipPath id="p9c7b71be26">
   <rect height="223.2" width="334.8" x="54.0" y="28.8"/>
  </clipPath>
 </defs>
</svg>
