<?xml version="1.0" encoding="utf-8" standalone="no"?>
<!DOCTYPE svg PUBLIC "-//W3C//DTD SVG 1.1//EN"
  "http://www.w3.org/Graphics/SVG/1.1/DTD/svg11.dtd">
<!-- Created with matplotlib (http://matplotlib.org/) -->
<svg height="432pt" version="1.1" viewBox="0 0 864 432" width="864pt" xmlns="http://www.w3.org/2000/svg" xmlns:xlink="http://www.w3.org/1999/xlink">
 <defs>
  <style type="text/css">
*{stroke-linecap:butt;stroke-linejoin:round;stroke-miterlimit:100000;}
  </style>
 </defs>
 <g id="figure_1">
  <g id="patch_1">
   <path d="M 0 432 
L 864 432 
L 864 0 
L 0 0 
z
" style="fill:#ffffff;"/>
  </g>
  <g id="axes_1">
   <g id="patch_2">
    <path d="M 108 378 
L 777.6 378 
L 777.6 43.2 
L 108 43.2 
z
" style="fill:#ffffff;"/>
   </g>
   <g id="PolyCollection_1">
    <defs>
     <path d="M 316.608124 -54 
L 234.191876 -54 
L 233.827232 -57.381818 
L 233.61462 -60.763636 
L 233.55 -64.145455 
L 233.627168 -67.527273 
L 233.837978 -70.909091 
L 234.172621 -74.290909 
L 234.619939 -77.672727 
L 235.167767 -81.054545 
L 235.803285 -84.436364 
L 236.513373 -87.818182 
L 237.284952 -91.2 
L 238.1053 -94.581818 
L 238.962326 -97.963636 
L 239.84481 -101.345455 
L 240.742586 -104.727273 
L 241.646671 -108.109091 
L 242.549341 -111.490909 
L 243.444155 -114.872727 
L 244.325929 -118.254545 
L 245.190663 -121.636364 
L 246.03544 -125.018182 
L 246.85829 -128.4 
L 247.658043 -131.781818 
L 248.434171 -135.163636 
L 249.186628 -138.545455 
L 249.915705 -141.927273 
L 250.621893 -145.309091 
L 251.305776 -148.690909 
L 251.967937 -152.072727 
L 252.608903 -155.454545 
L 253.229102 -158.836364 
L 253.828855 -162.218182 
L 254.408387 -165.6 
L 254.967851 -168.981818 
L 255.507371 -172.363636 
L 256.027084 -175.745455 
L 256.527194 -179.127273 
L 257.008013 -182.509091 
L 257.470004 -185.890909 
L 257.913804 -189.272727 
L 258.340243 -192.654545 
L 258.750342 -196.036364 
L 259.145299 -199.418182 
L 259.526462 -202.8 
L 259.89529 -206.181818 
L 260.253302 -209.563636 
L 260.602029 -212.945455 
L 260.94295 -216.327273 
L 261.277443 -219.709091 
L 261.606736 -223.090909 
L 261.931858 -226.472727 
L 262.253615 -229.854545 
L 262.572566 -233.236364 
L 262.88902 -236.618182 
L 263.203039 -240 
L 263.514458 -243.381818 
L 263.822914 -246.763636 
L 264.127888 -250.145455 
L 264.428744 -253.527273 
L 264.724781 -256.909091 
L 265.015282 -260.290909 
L 265.299557 -263.672727 
L 265.576991 -267.054545 
L 265.847071 -270.436364 
L 266.109421 -273.818182 
L 266.363812 -277.2 
L 266.610173 -280.581818 
L 266.84859 -283.963636 
L 267.079287 -287.345455 
L 267.302617 -290.727273 
L 267.519027 -294.109091 
L 267.729038 -297.490909 
L 267.933205 -300.872727 
L 268.132092 -304.254545 
L 268.326241 -307.636364 
L 268.516147 -311.018182 
L 268.702237 -314.4 
L 268.884856 -317.781818 
L 269.064262 -321.163636 
L 269.240621 -324.545455 
L 269.414016 -327.927273 
L 269.584458 -331.309091 
L 269.751902 -334.690909 
L 269.916262 -338.072727 
L 270.07744 -341.454545 
L 270.235338 -344.836364 
L 270.389888 -348.218182 
L 270.541062 -351.6 
L 270.688887 -354.981818 
L 270.833462 -358.363636 
L 270.974954 -361.745455 
L 271.113602 -365.127273 
L 271.249713 -368.509091 
L 271.383648 -371.890909 
L 271.515812 -375.272727 
L 271.646636 -378.654545 
L 271.776554 -382.036364 
L 271.905989 -385.418182 
L 272.035328 -388.8 
L 278.764672 -388.8 
L 278.764672 -388.8 
L 278.894011 -385.418182 
L 279.023446 -382.036364 
L 279.153364 -378.654545 
L 279.284188 -375.272727 
L 279.416352 -371.890909 
L 279.550287 -368.509091 
L 279.686398 -365.127273 
L 279.825046 -361.745455 
L 279.966538 -358.363636 
L 280.111113 -354.981818 
L 280.258938 -351.6 
L 280.410112 -348.218182 
L 280.564662 -344.836364 
L 280.72256 -341.454545 
L 280.883738 -338.072727 
L 281.048098 -334.690909 
L 281.215542 -331.309091 
L 281.385984 -327.927273 
L 281.559379 -324.545455 
L 281.735738 -321.163636 
L 281.915144 -317.781818 
L 282.097763 -314.4 
L 282.283853 -311.018182 
L 282.473759 -307.636364 
L 282.667908 -304.254545 
L 282.866795 -300.872727 
L 283.070962 -297.490909 
L 283.280973 -294.109091 
L 283.497383 -290.727273 
L 283.720713 -287.345455 
L 283.95141 -283.963636 
L 284.189827 -280.581818 
L 284.436188 -277.2 
L 284.690579 -273.818182 
L 284.952929 -270.436364 
L 285.223009 -267.054545 
L 285.500443 -263.672727 
L 285.784718 -260.290909 
L 286.075219 -256.909091 
L 286.371256 -253.527273 
L 286.672112 -250.145455 
L 286.977086 -246.763636 
L 287.285542 -243.381818 
L 287.596961 -240 
L 287.91098 -236.618182 
L 288.227434 -233.236364 
L 288.546385 -229.854545 
L 288.868142 -226.472727 
L 289.193264 -223.090909 
L 289.522557 -219.709091 
L 289.85705 -216.327273 
L 290.197971 -212.945455 
L 290.546698 -209.563636 
L 290.90471 -206.181818 
L 291.273538 -202.8 
L 291.654701 -199.418182 
L 292.049658 -196.036364 
L 292.459757 -192.654545 
L 292.886196 -189.272727 
L 293.329996 -185.890909 
L 293.791987 -182.509091 
L 294.272806 -179.127273 
L 294.772916 -175.745455 
L 295.292629 -172.363636 
L 295.832149 -168.981818 
L 296.391613 -165.6 
L 296.971145 -162.218182 
L 297.570898 -158.836364 
L 298.191097 -155.454545 
L 298.832063 -152.072727 
L 299.494224 -148.690909 
L 300.178107 -145.309091 
L 300.884295 -141.927273 
L 301.613372 -138.545455 
L 302.365829 -135.163636 
L 303.141957 -131.781818 
L 303.94171 -128.4 
L 304.76456 -125.018182 
L 305.609337 -121.636364 
L 306.474071 -118.254545 
L 307.355845 -114.872727 
L 308.250659 -111.490909 
L 309.153329 -108.109091 
L 310.057414 -104.727273 
L 310.95519 -101.345455 
L 311.837674 -97.963636 
L 312.6947 -94.581818 
L 313.515048 -91.2 
L 314.286627 -87.818182 
L 314.996715 -84.436364 
L 315.632233 -81.054545 
L 316.180061 -77.672727 
L 316.627379 -74.290909 
L 316.962022 -70.909091 
L 317.172832 -67.527273 
L 317.25 -64.145455 
L 317.18538 -60.763636 
L 316.972768 -57.381818 
L 316.608124 -54 
z
" id="m97b72952b4" style="stroke:#000000;stroke-opacity:0.3;"/>
    </defs>
    <g clip-path="url(#pe8c06c2379)">
     <use style="fill:#bfbf00;fill-opacity:0.3;stroke:#000000;stroke-opacity:0.3;" x="0.0" xlink:href="#m97b72952b4" y="432.0"/>
    </g>
   </g>
   <g id="PolyCollection_2">
    <defs>
     <path d="M 483.496702 -54 
L 402.103298 -54 
L 401.659182 -57.381818 
L 401.323174 -60.763636 
L 401.094436 -64.145455 
L 400.971031 -67.527273 
L 400.95 -70.909091 
L 401.027455 -74.290909 
L 401.19869 -77.672727 
L 401.458299 -81.054545 
L 401.800306 -84.436364 
L 402.218298 -87.818182 
L 402.705557 -91.2 
L 403.255193 -94.581818 
L 403.860262 -97.963636 
L 404.513884 -101.345455 
L 405.209338 -104.727273 
L 405.940156 -108.109091 
L 406.700189 -111.490909 
L 407.483667 -114.872727 
L 408.285235 -118.254545 
L 409.099978 -121.636364 
L 409.923433 -125.018182 
L 410.751584 -128.4 
L 411.580847 -131.781818 
L 412.408047 -135.163636 
L 413.230388 -138.545455 
L 414.045418 -141.927273 
L 414.850987 -145.309091 
L 415.645214 -148.690909 
L 416.426445 -152.072727 
L 417.193221 -155.454545 
L 417.944242 -158.836364 
L 418.678345 -162.218182 
L 419.394476 -165.6 
L 420.091679 -168.981818 
L 420.769078 -172.363636 
L 421.425874 -175.745455 
L 422.06134 -179.127273 
L 422.674818 -182.509091 
L 423.265727 -185.890909 
L 423.833564 -189.272727 
L 424.377911 -192.654545 
L 424.898438 -196.036364 
L 425.394915 -199.418182 
L 425.86721 -202.8 
L 426.315297 -206.181818 
L 426.73926 -209.563636 
L 427.139289 -212.945455 
L 427.515685 -216.327273 
L 427.868857 -219.709091 
L 428.199316 -223.090909 
L 428.507676 -226.472727 
L 428.794646 -229.854545 
L 429.061024 -233.236364 
L 429.307693 -236.618182 
L 429.535614 -240 
L 429.745818 -243.381818 
L 429.939397 -246.763636 
L 430.117502 -250.145455 
L 430.281328 -253.527273 
L 430.432112 -256.909091 
L 430.571118 -260.290909 
L 430.699631 -263.672727 
L 430.818949 -267.054545 
L 430.930365 -270.436364 
L 431.035166 -273.818182 
L 431.134611 -277.2 
L 431.229929 -280.581818 
L 431.322301 -283.963636 
L 431.412852 -287.345455 
L 431.502643 -290.727273 
L 431.592655 -294.109091 
L 431.683787 -297.490909 
L 431.776849 -300.872727 
L 431.872555 -304.254545 
L 431.971526 -307.636364 
L 432.074284 -311.018182 
L 432.181259 -314.4 
L 432.292792 -317.781818 
L 432.40914 -321.163636 
L 432.530488 -324.545455 
L 432.656957 -327.927273 
L 432.788614 -331.309091 
L 432.925483 -334.690909 
L 433.06756 -338.072727 
L 433.214817 -341.454545 
L 433.367221 -344.836364 
L 433.524735 -348.218182 
L 433.687326 -351.6 
L 433.854975 -354.981818 
L 434.027671 -358.363636 
L 434.205418 -361.745455 
L 434.388231 -365.127273 
L 434.576129 -368.509091 
L 434.769129 -371.890909 
L 434.967244 -375.272727 
L 435.170464 -378.654545 
L 435.378755 -382.036364 
L 435.592045 -385.418182 
L 435.810212 -388.8 
L 449.789788 -388.8 
L 449.789788 -388.8 
L 450.007955 -385.418182 
L 450.221245 -382.036364 
L 450.429536 -378.654545 
L 450.632756 -375.272727 
L 450.830871 -371.890909 
L 451.023871 -368.509091 
L 451.211769 -365.127273 
L 451.394582 -361.745455 
L 451.572329 -358.363636 
L 451.745025 -354.981818 
L 451.912674 -351.6 
L 452.075265 -348.218182 
L 452.232779 -344.836364 
L 452.385183 -341.454545 
L 452.53244 -338.072727 
L 452.674517 -334.690909 
L 452.811386 -331.309091 
L 452.943043 -327.927273 
L 453.069512 -324.545455 
L 453.19086 -321.163636 
L 453.307208 -317.781818 
L 453.418741 -314.4 
L 453.525716 -311.018182 
L 453.628474 -307.636364 
L 453.727445 -304.254545 
L 453.823151 -300.872727 
L 453.916213 -297.490909 
L 454.007345 -294.109091 
L 454.097357 -290.727273 
L 454.187148 -287.345455 
L 454.277699 -283.963636 
L 454.370071 -280.581818 
L 454.465389 -277.2 
L 454.564834 -273.818182 
L 454.669635 -270.436364 
L 454.781051 -267.054545 
L 454.900369 -263.672727 
L 455.028882 -260.290909 
L 455.167888 -256.909091 
L 455.318672 -253.527273 
L 455.482498 -250.145455 
L 455.660603 -246.763636 
L 455.854182 -243.381818 
L 456.064386 -240 
L 456.292307 -236.618182 
L 456.538976 -233.236364 
L 456.805354 -229.854545 
L 457.092324 -226.472727 
L 457.400684 -223.090909 
L 457.731143 -219.709091 
L 458.084315 -216.327273 
L 458.460711 -212.945455 
L 458.86074 -209.563636 
L 459.284703 -206.181818 
L 459.73279 -202.8 
L 460.205085 -199.418182 
L 460.701562 -196.036364 
L 461.222089 -192.654545 
L 461.766436 -189.272727 
L 462.334273 -185.890909 
L 462.925182 -182.509091 
L 463.53866 -179.127273 
L 464.174126 -175.745455 
L 464.830922 -172.363636 
L 465.508321 -168.981818 
L 466.205524 -165.6 
L 466.921655 -162.218182 
L 467.655758 -158.836364 
L 468.406779 -155.454545 
L 469.173555 -152.072727 
L 469.954786 -148.690909 
L 470.749013 -145.309091 
L 471.554582 -141.927273 
L 472.369612 -138.545455 
L 473.191953 -135.163636 
L 474.019153 -131.781818 
L 474.848416 -128.4 
L 475.676567 -125.018182 
L 476.500022 -121.636364 
L 477.314765 -118.254545 
L 478.116333 -114.872727 
L 478.899811 -111.490909 
L 479.659844 -108.109091 
L 480.390662 -104.727273 
L 481.086116 -101.345455 
L 481.739738 -97.963636 
L 482.344807 -94.581818 
L 482.894443 -91.2 
L 483.381702 -87.818182 
L 483.799694 -84.436364 
L 484.141701 -81.054545 
L 484.40131 -77.672727 
L 484.572545 -74.290909 
L 484.65 -70.909091 
L 484.628969 -67.527273 
L 484.505564 -64.145455 
L 484.276826 -60.763636 
L 483.940818 -57.381818 
L 483.496702 -54 
z
" id="m26399e6f9e" style="stroke:#000000;stroke-opacity:0.3;"/>
    </defs>
    <g clip-path="url(#pe8c06c2379)">
     <use style="fill:#bfbf00;fill-opacity:0.3;stroke:#000000;stroke-opacity:0.3;" x="0.0" xlink:href="#m26399e6f9e" y="432.0"/>
    </g>
   </g>
   <g id="PolyCollection_3">
    <defs>
     <path d="M 651.967186 -54 
L 568.432814 -54 
L 568.35 -57.381818 
L 568.418658 -60.763636 
L 568.635473 -64.145455 
L 568.995236 -67.527273 
L 569.490944 -70.909091 
L 570.113932 -74.290909 
L 570.854043 -77.672727 
L 571.699816 -81.054545 
L 572.6387 -84.436364 
L 573.657286 -87.818182 
L 574.74154 -91.2 
L 575.877051 -94.581818 
L 577.04927 -97.963636 
L 578.243742 -101.345455 
L 579.446334 -104.727273 
L 580.643437 -108.109091 
L 581.822156 -111.490909 
L 582.970474 -114.872727 
L 584.077398 -118.254545 
L 585.133069 -121.636364 
L 586.12886 -125.018182 
L 587.057433 -128.4 
L 587.912792 -131.781818 
L 588.690288 -135.163636 
L 589.386624 -138.545455 
L 589.999828 -141.927273 
L 590.529209 -145.309091 
L 590.975302 -148.690909 
L 591.339795 -152.072727 
L 591.625446 -155.454545 
L 591.835989 -158.836364 
L 591.976031 -162.218182 
L 592.050949 -165.6 
L 592.066771 -168.981818 
L 592.030063 -172.363636 
L 591.947807 -175.745455 
L 591.827287 -179.127273 
L 591.675963 -182.509091 
L 591.501358 -185.890909 
L 591.31094 -189.272727 
L 591.112017 -192.654545 
L 590.911627 -196.036364 
L 590.716446 -199.418182 
L 590.532699 -202.8 
L 590.366081 -206.181818 
L 590.221692 -209.563636 
L 590.103984 -212.945455 
L 590.01672 -216.327273 
L 589.962948 -219.709091 
L 589.944992 -223.090909 
L 589.964454 -226.472727 
L 590.022229 -229.854545 
L 590.118541 -233.236364 
L 590.252982 -236.618182 
L 590.424568 -240 
L 590.631802 -243.381818 
L 590.872744 -246.763636 
L 591.145085 -250.145455 
L 591.446231 -253.527273 
L 591.773373 -256.909091 
L 592.12357 -260.290909 
L 592.493819 -263.672727 
L 592.881126 -267.054545 
L 593.282562 -270.436364 
L 593.695317 -273.818182 
L 594.116743 -277.2 
L 594.544388 -280.581818 
L 594.976016 -283.963636 
L 595.409624 -287.345455 
L 595.843448 -290.727273 
L 596.275956 -294.109091 
L 596.705841 -297.490909 
L 597.132006 -300.872727 
L 597.553546 -304.254545 
L 597.96972 -307.636364 
L 598.379935 -311.018182 
L 598.783717 -314.4 
L 599.180691 -317.781818 
L 599.570556 -321.163636 
L 599.953075 -324.545455 
L 600.328049 -327.927273 
L 600.695313 -331.309091 
L 601.054726 -334.690909 
L 601.406163 -338.072727 
L 601.749513 -341.454545 
L 602.084682 -344.836364 
L 602.41159 -348.218182 
L 602.730177 -351.6 
L 603.040408 -354.981818 
L 603.342271 -358.363636 
L 603.635787 -361.745455 
L 603.921008 -365.127273 
L 604.198017 -368.509091 
L 604.466934 -371.890909 
L 604.727907 -375.272727 
L 604.981112 -378.654545 
L 605.226751 -382.036364 
L 605.465039 -385.418182 
L 605.696205 -388.8 
L 614.703795 -388.8 
L 614.703795 -388.8 
L 614.934961 -385.418182 
L 615.173249 -382.036364 
L 615.418888 -378.654545 
L 615.672093 -375.272727 
L 615.933066 -371.890909 
L 616.201983 -368.509091 
L 616.478992 -365.127273 
L 616.764213 -361.745455 
L 617.057729 -358.363636 
L 617.359592 -354.981818 
L 617.669823 -351.6 
L 617.98841 -348.218182 
L 618.315318 -344.836364 
L 618.650487 -341.454545 
L 618.993837 -338.072727 
L 619.345274 -334.690909 
L 619.704687 -331.309091 
L 620.071951 -327.927273 
L 620.446925 -324.545455 
L 620.829444 -321.163636 
L 621.219309 -317.781818 
L 621.616283 -314.4 
L 622.020065 -311.018182 
L 622.43028 -307.636364 
L 622.846454 -304.254545 
L 623.267994 -300.872727 
L 623.694159 -297.490909 
L 624.124044 -294.109091 
L 624.556552 -290.727273 
L 624.990376 -287.345455 
L 625.423984 -283.963636 
L 625.855612 -280.581818 
L 626.283257 -277.2 
L 626.704683 -273.818182 
L 627.117438 -270.436364 
L 627.518874 -267.054545 
L 627.906181 -263.672727 
L 628.27643 -260.290909 
L 628.626627 -256.909091 
L 628.953769 -253.527273 
L 629.254915 -250.145455 
L 629.527256 -246.763636 
L 629.768198 -243.381818 
L 629.975432 -240 
L 630.147018 -236.618182 
L 630.281459 -233.236364 
L 630.377771 -229.854545 
L 630.435546 -226.472727 
L 630.455008 -223.090909 
L 630.437052 -219.709091 
L 630.38328 -216.327273 
L 630.296016 -212.945455 
L 630.178308 -209.563636 
L 630.033919 -206.181818 
L 629.867301 -202.8 
L 629.683554 -199.418182 
L 629.488373 -196.036364 
L 629.287983 -192.654545 
L 629.08906 -189.272727 
L 628.898642 -185.890909 
L 628.724037 -182.509091 
L 628.572713 -179.127273 
L 628.452193 -175.745455 
L 628.369937 -172.363636 
L 628.333229 -168.981818 
L 628.349051 -165.6 
L 628.423969 -162.218182 
L 628.564011 -158.836364 
L 628.774554 -155.454545 
L 629.060205 -152.072727 
L 629.424698 -148.690909 
L 629.870791 -145.309091 
L 630.400172 -141.927273 
L 631.013376 -138.545455 
L 631.709712 -135.163636 
L 632.487208 -131.781818 
L 633.342567 -128.4 
L 634.27114 -125.018182 
L 635.266931 -121.636364 
L 636.322602 -118.254545 
L 637.429526 -114.872727 
L 638.577844 -111.490909 
L 639.756563 -108.109091 
L 640.953666 -104.727273 
L 642.156258 -101.345455 
L 643.35073 -97.963636 
L 644.522949 -94.581818 
L 645.65846 -91.2 
L 646.742714 -87.818182 
L 647.7613 -84.436364 
L 648.700184 -81.054545 
L 649.545957 -77.672727 
L 650.286068 -74.290909 
L 650.909056 -70.909091 
L 651.404764 -67.527273 
L 651.764527 -64.145455 
L 651.981342 -60.763636 
L 652.05 -57.381818 
L 651.967186 -54 
z
" id="m2c45be1a95" style="stroke:#000000;stroke-opacity:0.3;"/>
    </defs>
    <g clip-path="url(#pe8c06c2379)">
     <use style="fill:#bfbf00;fill-opacity:0.3;stroke:#000000;stroke-opacity:0.3;" x="0.0" xlink:href="#m2c45be1a95" y="432.0"/>
    </g>
   </g>
   <g id="LineCollection_1">
    <path clip-path="url(#pe8c06c2379)" d="M 254.475 378 
L 296.325 378 
" style="fill:none;stroke:#ff0000;"/>
    <path clip-path="url(#pe8c06c2379)" d="M 421.875 336.15 
L 463.725 336.15 
" style="fill:none;stroke:#ff0000;"/>
    <path clip-path="url(#pe8c06c2379)" d="M 589.275 378 
L 631.125 378 
" style="fill:none;stroke:#ff0000;"/>
   </g>
   <g id="patch_3">
    <path d="M 777.6 378 
L 777.6 43.2 
" style="fill:none;stroke:#000000;stroke-linecap:square;stroke-linejoin:miter;"/>
   </g>
   <g id="patch_4">
    <path d="M 108 43.2 
L 777.6 43.2 
" style="fill:none;stroke:#000000;stroke-linecap:square;stroke-linejoin:miter;"/>
   </g>
   <g id="patch_5">
    <path d="M 108 378 
L 777.6 378 
" style="fill:none;stroke:#000000;stroke-linecap:square;stroke-linejoin:miter;"/>
   </g>
   <g id="patch_6">
    <path d="M 108 378 
L 108 43.2 
" style="fill:none;stroke:#000000;stroke-linecap:square;stroke-linejoin:miter;"/>
   </g>
   <g id="matplotlib.axis_1">
    <g id="xtick_1">
     <g id="line2d_1">
      <defs>
       <path d="M 0 0 
L 0 -4 
" id="mb32eec7afc" style="stroke:#000000;stroke-width:0.5;"/>
      </defs>
      <g>
       <use style="stroke:#000000;stroke-width:0.5;" x="275.4" xlink:href="#mb32eec7afc" y="378.0"/>
      </g>
     </g>
     <g id="line2d_2">
      <defs>
       <path d="M 0 0 
L 0 4 
" id="mbd75e62a02" style="stroke:#000000;stroke-width:0.5;"/>
      </defs>
      <g>
       <use style="stroke:#000000;stroke-width:0.5;" x="275.4" xlink:href="#mbd75e62a02" y="43.2"/>
      </g>
     </g>
     <g id="text_1">
      <!-- Defector -->
      <defs>
       <path d="M 19.671875 64.796875 
L 19.671875 8.109375 
L 31.59375 8.109375 
Q 46.6875 8.109375 53.6875 14.9375 
Q 60.6875 21.78125 60.6875 36.53125 
Q 60.6875 51.171875 53.6875 57.984375 
Q 46.6875 64.796875 31.59375 64.796875 
z
M 9.8125 72.90625 
L 30.078125 72.90625 
Q 51.265625 72.90625 61.171875 64.09375 
Q 71.09375 55.28125 71.09375 36.53125 
Q 71.09375 17.671875 61.125 8.828125 
Q 51.171875 0 30.078125 0 
L 9.8125 0 
z
" id="BitstreamVeraSans-Roman-44"/>
       <path d="M 18.3125 70.21875 
L 18.3125 54.6875 
L 36.8125 54.6875 
L 36.8125 47.703125 
L 18.3125 47.703125 
L 18.3125 18.015625 
Q 18.3125 11.328125 20.140625 9.421875 
Q 21.96875 7.515625 27.59375 7.515625 
L 36.8125 7.515625 
L 36.8125 0 
L 27.59375 0 
Q 17.1875 0 13.234375 3.875 
Q 9.28125 7.765625 9.28125 18.015625 
L 9.28125 47.703125 
L 2.6875 47.703125 
L 2.6875 54.6875 
L 9.28125 54.6875 
L 9.28125 70.21875 
z
" id="BitstreamVeraSans-Roman-74"/>
       <path d="M 56.203125 29.59375 
L 56.203125 25.203125 
L 14.890625 25.203125 
Q 15.484375 15.921875 20.484375 11.0625 
Q 25.484375 6.203125 34.421875 6.203125 
Q 39.59375 6.203125 44.453125 7.46875 
Q 49.3125 8.734375 54.109375 11.28125 
L 54.109375 2.78125 
Q 49.265625 0.734375 44.1875 -0.34375 
Q 39.109375 -1.421875 33.890625 -1.421875 
Q 20.796875 -1.421875 13.15625 6.1875 
Q 5.515625 13.8125 5.515625 26.8125 
Q 5.515625 40.234375 12.765625 48.109375 
Q 20.015625 56 32.328125 56 
Q 43.359375 56 49.78125 48.890625 
Q 56.203125 41.796875 56.203125 29.59375 
M 47.21875 32.234375 
Q 47.125 39.59375 43.09375 43.984375 
Q 39.0625 48.390625 32.421875 48.390625 
Q 24.90625 48.390625 20.390625 44.140625 
Q 15.875 39.890625 15.1875 32.171875 
z
" id="BitstreamVeraSans-Roman-65"/>
       <path d="M 37.109375 75.984375 
L 37.109375 68.5 
L 28.515625 68.5 
Q 23.6875 68.5 21.796875 66.546875 
Q 19.921875 64.59375 19.921875 59.515625 
L 19.921875 54.6875 
L 34.71875 54.6875 
L 34.71875 47.703125 
L 19.921875 47.703125 
L 19.921875 0 
L 10.890625 0 
L 10.890625 47.703125 
L 2.296875 47.703125 
L 2.296875 54.6875 
L 10.890625 54.6875 
L 10.890625 58.5 
Q 10.890625 67.625 15.140625 71.796875 
Q 19.390625 75.984375 28.609375 75.984375 
z
" id="BitstreamVeraSans-Roman-66"/>
       <path d="M 30.609375 48.390625 
Q 23.390625 48.390625 19.1875 42.75 
Q 14.984375 37.109375 14.984375 27.296875 
Q 14.984375 17.484375 19.15625 11.84375 
Q 23.34375 6.203125 30.609375 6.203125 
Q 37.796875 6.203125 41.984375 11.859375 
Q 46.1875 17.53125 46.1875 27.296875 
Q 46.1875 37.015625 41.984375 42.703125 
Q 37.796875 48.390625 30.609375 48.390625 
M 30.609375 56 
Q 42.328125 56 49.015625 48.375 
Q 55.71875 40.765625 55.71875 27.296875 
Q 55.71875 13.875 49.015625 6.21875 
Q 42.328125 -1.421875 30.609375 -1.421875 
Q 18.84375 -1.421875 12.171875 6.21875 
Q 5.515625 13.875 5.515625 27.296875 
Q 5.515625 40.765625 12.171875 48.375 
Q 18.84375 56 30.609375 56 
" id="BitstreamVeraSans-Roman-6f"/>
       <path d="M 48.78125 52.59375 
L 48.78125 44.1875 
Q 44.96875 46.296875 41.140625 47.34375 
Q 37.3125 48.390625 33.40625 48.390625 
Q 24.65625 48.390625 19.8125 42.84375 
Q 14.984375 37.3125 14.984375 27.296875 
Q 14.984375 17.28125 19.8125 11.734375 
Q 24.65625 6.203125 33.40625 6.203125 
Q 37.3125 6.203125 41.140625 7.25 
Q 44.96875 8.296875 48.78125 10.40625 
L 48.78125 2.09375 
Q 45.015625 0.34375 40.984375 -0.53125 
Q 36.96875 -1.421875 32.421875 -1.421875 
Q 20.0625 -1.421875 12.78125 6.34375 
Q 5.515625 14.109375 5.515625 27.296875 
Q 5.515625 40.671875 12.859375 48.328125 
Q 20.21875 56 33.015625 56 
Q 37.15625 56 41.109375 55.140625 
Q 45.0625 54.296875 48.78125 52.59375 
" id="BitstreamVeraSans-Roman-63"/>
       <path d="M 41.109375 46.296875 
Q 39.59375 47.171875 37.8125 47.578125 
Q 36.03125 48 33.890625 48 
Q 26.265625 48 22.1875 43.046875 
Q 18.109375 38.09375 18.109375 28.8125 
L 18.109375 0 
L 9.078125 0 
L 9.078125 54.6875 
L 18.109375 54.6875 
L 18.109375 46.1875 
Q 20.953125 51.171875 25.484375 53.578125 
Q 30.03125 56 36.53125 56 
Q 37.453125 56 38.578125 55.875 
Q 39.703125 55.765625 41.0625 55.515625 
z
" id="BitstreamVeraSans-Roman-72"/>
      </defs>
      <g transform="translate(277.6075 416.54)rotate(-90.0)scale(0.08 -0.08)">
       <use xlink:href="#BitstreamVeraSans-Roman-44"/>
       <use x="77.001953125" xlink:href="#BitstreamVeraSans-Roman-65"/>
       <use x="138.525390625" xlink:href="#BitstreamVeraSans-Roman-66"/>
       <use x="173.73046875" xlink:href="#BitstreamVeraSans-Roman-65"/>
       <use x="235.25390625" xlink:href="#BitstreamVeraSans-Roman-63"/>
       <use x="290.234375" xlink:href="#BitstreamVeraSans-Roman-74"/>
       <use x="329.443359375" xlink:href="#BitstreamVeraSans-Roman-6f"/>
       <use x="390.625" xlink:href="#BitstreamVeraSans-Roman-72"/>
      </g>
     </g>
    </g>
    <g id="xtick_2">
     <g id="line2d_3">
      <g>
       <use style="stroke:#000000;stroke-width:0.5;" x="442.8" xlink:href="#mb32eec7afc" y="378.0"/>
      </g>
     </g>
     <g id="line2d_4">
      <g>
       <use style="stroke:#000000;stroke-width:0.5;" x="442.8" xlink:href="#mbd75e62a02" y="43.2"/>
      </g>
     </g>
     <g id="text_2">
      <!-- Tit For Tat -->
      <defs>
       <path d="M -0.296875 72.90625 
L 61.375 72.90625 
L 61.375 64.59375 
L 35.5 64.59375 
L 35.5 0 
L 25.59375 0 
L 25.59375 64.59375 
L -0.296875 64.59375 
z
" id="BitstreamVeraSans-Roman-54"/>
       <path id="BitstreamVeraSans-Roman-20"/>
       <path d="M 9.421875 54.6875 
L 18.40625 54.6875 
L 18.40625 0 
L 9.421875 0 
z
M 9.421875 75.984375 
L 18.40625 75.984375 
L 18.40625 64.59375 
L 9.421875 64.59375 
z
" id="BitstreamVeraSans-Roman-69"/>
       <path d="M 9.8125 72.90625 
L 51.703125 72.90625 
L 51.703125 64.59375 
L 19.671875 64.59375 
L 19.671875 43.109375 
L 48.578125 43.109375 
L 48.578125 34.8125 
L 19.671875 34.8125 
L 19.671875 0 
L 9.8125 0 
z
" id="BitstreamVeraSans-Roman-46"/>
       <path d="M 34.28125 27.484375 
Q 23.390625 27.484375 19.1875 25 
Q 14.984375 22.515625 14.984375 16.5 
Q 14.984375 11.71875 18.140625 8.90625 
Q 21.296875 6.109375 26.703125 6.109375 
Q 34.1875 6.109375 38.703125 11.40625 
Q 43.21875 16.703125 43.21875 25.484375 
L 43.21875 27.484375 
z
M 52.203125 31.203125 
L 52.203125 0 
L 43.21875 0 
L 43.21875 8.296875 
Q 40.140625 3.328125 35.546875 0.953125 
Q 30.953125 -1.421875 24.3125 -1.421875 
Q 15.921875 -1.421875 10.953125 3.296875 
Q 6 8.015625 6 15.921875 
Q 6 25.140625 12.171875 29.828125 
Q 18.359375 34.515625 30.609375 34.515625 
L 43.21875 34.515625 
L 43.21875 35.40625 
Q 43.21875 41.609375 39.140625 45 
Q 35.0625 48.390625 27.6875 48.390625 
Q 23 48.390625 18.546875 47.265625 
Q 14.109375 46.140625 10.015625 43.890625 
L 10.015625 52.203125 
Q 14.9375 54.109375 19.578125 55.046875 
Q 24.21875 56 28.609375 56 
Q 40.484375 56 46.34375 49.84375 
Q 52.203125 43.703125 52.203125 31.203125 
" id="BitstreamVeraSans-Roman-61"/>
      </defs>
      <g transform="translate(445.0075 423.0125)rotate(-90.0)scale(0.08 -0.08)">
       <use xlink:href="#BitstreamVeraSans-Roman-54"/>
       <use x="61.037109375" xlink:href="#BitstreamVeraSans-Roman-69"/>
       <use x="88.8203125" xlink:href="#BitstreamVeraSans-Roman-74"/>
       <use x="128.029296875" xlink:href="#BitstreamVeraSans-Roman-20"/>
       <use x="159.81640625" xlink:href="#BitstreamVeraSans-Roman-46"/>
       <use x="217.2890625" xlink:href="#BitstreamVeraSans-Roman-6f"/>
       <use x="278.470703125" xlink:href="#BitstreamVeraSans-Roman-72"/>
       <use x="319.583984375" xlink:href="#BitstreamVeraSans-Roman-20"/>
       <use x="351.37109375" xlink:href="#BitstreamVeraSans-Roman-54"/>
       <use x="412.205078125" xlink:href="#BitstreamVeraSans-Roman-61"/>
       <use x="473.484375" xlink:href="#BitstreamVeraSans-Roman-74"/>
      </g>
     </g>
    </g>
    <g id="xtick_3">
     <g id="line2d_5">
      <g>
       <use style="stroke:#000000;stroke-width:0.5;" x="610.2" xlink:href="#mb32eec7afc" y="378.0"/>
      </g>
     </g>
     <g id="line2d_6">
      <g>
       <use style="stroke:#000000;stroke-width:0.5;" x="610.2" xlink:href="#mbd75e62a02" y="43.2"/>
      </g>
     </g>
     <g id="text_3">
      <!-- Grudger -->
      <defs>
       <path d="M 45.40625 27.984375 
Q 45.40625 37.75 41.375 43.109375 
Q 37.359375 48.484375 30.078125 48.484375 
Q 22.859375 48.484375 18.828125 43.109375 
Q 14.796875 37.75 14.796875 27.984375 
Q 14.796875 18.265625 18.828125 12.890625 
Q 22.859375 7.515625 30.078125 7.515625 
Q 37.359375 7.515625 41.375 12.890625 
Q 45.40625 18.265625 45.40625 27.984375 
M 54.390625 6.78125 
Q 54.390625 -7.171875 48.1875 -13.984375 
Q 42 -20.796875 29.203125 -20.796875 
Q 24.46875 -20.796875 20.265625 -20.09375 
Q 16.0625 -19.390625 12.109375 -17.921875 
L 12.109375 -9.1875 
Q 16.0625 -11.328125 19.921875 -12.34375 
Q 23.78125 -13.375 27.78125 -13.375 
Q 36.625 -13.375 41.015625 -8.765625 
Q 45.40625 -4.15625 45.40625 5.171875 
L 45.40625 9.625 
Q 42.625 4.78125 38.28125 2.390625 
Q 33.9375 0 27.875 0 
Q 17.828125 0 11.671875 7.65625 
Q 5.515625 15.328125 5.515625 27.984375 
Q 5.515625 40.671875 11.671875 48.328125 
Q 17.828125 56 27.875 56 
Q 33.9375 56 38.28125 53.609375 
Q 42.625 51.21875 45.40625 46.390625 
L 45.40625 54.6875 
L 54.390625 54.6875 
z
" id="BitstreamVeraSans-Roman-67"/>
       <path d="M 45.40625 46.390625 
L 45.40625 75.984375 
L 54.390625 75.984375 
L 54.390625 0 
L 45.40625 0 
L 45.40625 8.203125 
Q 42.578125 3.328125 38.25 0.953125 
Q 33.9375 -1.421875 27.875 -1.421875 
Q 17.96875 -1.421875 11.734375 6.484375 
Q 5.515625 14.40625 5.515625 27.296875 
Q 5.515625 40.1875 11.734375 48.09375 
Q 17.96875 56 27.875 56 
Q 33.9375 56 38.25 53.625 
Q 42.578125 51.265625 45.40625 46.390625 
M 14.796875 27.296875 
Q 14.796875 17.390625 18.875 11.75 
Q 22.953125 6.109375 30.078125 6.109375 
Q 37.203125 6.109375 41.296875 11.75 
Q 45.40625 17.390625 45.40625 27.296875 
Q 45.40625 37.203125 41.296875 42.84375 
Q 37.203125 48.484375 30.078125 48.484375 
Q 22.953125 48.484375 18.875 42.84375 
Q 14.796875 37.203125 14.796875 27.296875 
" id="BitstreamVeraSans-Roman-64"/>
       <path d="M 59.515625 10.40625 
L 59.515625 29.984375 
L 43.40625 29.984375 
L 43.40625 38.09375 
L 69.28125 38.09375 
L 69.28125 6.78125 
Q 63.578125 2.734375 56.6875 0.65625 
Q 49.8125 -1.421875 42 -1.421875 
Q 24.90625 -1.421875 15.25 8.5625 
Q 5.609375 18.5625 5.609375 36.375 
Q 5.609375 54.25 15.25 64.234375 
Q 24.90625 74.21875 42 74.21875 
Q 49.125 74.21875 55.546875 72.453125 
Q 61.96875 70.703125 67.390625 67.28125 
L 67.390625 56.78125 
Q 61.921875 61.421875 55.765625 63.765625 
Q 49.609375 66.109375 42.828125 66.109375 
Q 29.4375 66.109375 22.71875 58.640625 
Q 16.015625 51.171875 16.015625 36.375 
Q 16.015625 21.625 22.71875 14.15625 
Q 29.4375 6.6875 42.828125 6.6875 
Q 48.046875 6.6875 52.140625 7.59375 
Q 56.25 8.5 59.515625 10.40625 
" id="BitstreamVeraSans-Roman-47"/>
       <path d="M 8.5 21.578125 
L 8.5 54.6875 
L 17.484375 54.6875 
L 17.484375 21.921875 
Q 17.484375 14.15625 20.5 10.265625 
Q 23.53125 6.390625 29.59375 6.390625 
Q 36.859375 6.390625 41.078125 11.03125 
Q 45.3125 15.671875 45.3125 23.6875 
L 45.3125 54.6875 
L 54.296875 54.6875 
L 54.296875 0 
L 45.3125 0 
L 45.3125 8.40625 
Q 42.046875 3.421875 37.71875 1 
Q 33.40625 -1.421875 27.6875 -1.421875 
Q 18.265625 -1.421875 13.375 4.4375 
Q 8.5 10.296875 8.5 21.578125 
" id="BitstreamVeraSans-Roman-75"/>
      </defs>
      <g transform="translate(612.4075 414.92625)rotate(-90.0)scale(0.08 -0.08)">
       <use xlink:href="#BitstreamVeraSans-Roman-47"/>
       <use x="77.490234375" xlink:href="#BitstreamVeraSans-Roman-72"/>
       <use x="118.603515625" xlink:href="#BitstreamVeraSans-Roman-75"/>
       <use x="181.982421875" xlink:href="#BitstreamVeraSans-Roman-64"/>
       <use x="245.458984375" xlink:href="#BitstreamVeraSans-Roman-67"/>
       <use x="308.935546875" xlink:href="#BitstreamVeraSans-Roman-65"/>
       <use x="370.458984375" xlink:href="#BitstreamVeraSans-Roman-72"/>
      </g>
     </g>
    </g>
   </g>
   <g id="matplotlib.axis_2">
    <g id="ytick_1">
     <g id="line2d_7">
      <defs>
       <path d="M 0 0 
L 4 0 
" id="m58faa542cc" style="stroke:#000000;stroke-width:0.5;"/>
      </defs>
      <g>
       <use style="stroke:#000000;stroke-width:0.5;" x="108.0" xlink:href="#m58faa542cc" y="378.0"/>
      </g>
     </g>
     <g id="line2d_8">
      <defs>
       <path d="M 0 0 
L -4 0 
" id="m90d1e1910b" style="stroke:#000000;stroke-width:0.5;"/>
      </defs>
      <g>
       <use style="stroke:#000000;stroke-width:0.5;" x="777.6" xlink:href="#m90d1e1910b" y="378.0"/>
      </g>
     </g>
     <g id="text_4">
      <!-- 1.0 -->
      <defs>
       <path d="M 31.78125 66.40625 
Q 24.171875 66.40625 20.328125 58.90625 
Q 16.5 51.421875 16.5 36.375 
Q 16.5 21.390625 20.328125 13.890625 
Q 24.171875 6.390625 31.78125 6.390625 
Q 39.453125 6.390625 43.28125 13.890625 
Q 47.125 21.390625 47.125 36.375 
Q 47.125 51.421875 43.28125 58.90625 
Q 39.453125 66.40625 31.78125 66.40625 
M 31.78125 74.21875 
Q 44.046875 74.21875 50.515625 64.515625 
Q 56.984375 54.828125 56.984375 36.375 
Q 56.984375 17.96875 50.515625 8.265625 
Q 44.046875 -1.421875 31.78125 -1.421875 
Q 19.53125 -1.421875 13.0625 8.265625 
Q 6.59375 17.96875 6.59375 36.375 
Q 6.59375 54.828125 13.0625 64.515625 
Q 19.53125 74.21875 31.78125 74.21875 
" id="BitstreamVeraSans-Roman-30"/>
       <path d="M 12.40625 8.296875 
L 28.515625 8.296875 
L 28.515625 63.921875 
L 10.984375 60.40625 
L 10.984375 69.390625 
L 28.421875 72.90625 
L 38.28125 72.90625 
L 38.28125 8.296875 
L 54.390625 8.296875 
L 54.390625 0 
L 12.40625 0 
z
" id="BitstreamVeraSans-Roman-31"/>
       <path d="M 10.6875 12.40625 
L 21 12.40625 
L 21 0 
L 10.6875 0 
z
" id="BitstreamVeraSans-Roman-2e"/>
      </defs>
      <g transform="translate(91.2775 380.2075)scale(0.08 -0.08)">
       <use xlink:href="#BitstreamVeraSans-Roman-31"/>
       <use x="63.623046875" xlink:href="#BitstreamVeraSans-Roman-2e"/>
       <use x="95.41015625" xlink:href="#BitstreamVeraSans-Roman-30"/>
      </g>
     </g>
    </g>
    <g id="ytick_2">
     <g id="line2d_9">
      <g>
       <use style="stroke:#000000;stroke-width:0.5;" x="108.0" xlink:href="#m58faa542cc" y="336.15"/>
      </g>
     </g>
     <g id="line2d_10">
      <g>
       <use style="stroke:#000000;stroke-width:0.5;" x="777.6" xlink:href="#m90d1e1910b" y="336.15"/>
      </g>
     </g>
     <g id="text_5">
      <!-- 1.5 -->
      <defs>
       <path d="M 10.796875 72.90625 
L 49.515625 72.90625 
L 49.515625 64.59375 
L 19.828125 64.59375 
L 19.828125 46.734375 
Q 21.96875 47.46875 24.109375 47.828125 
Q 26.265625 48.1875 28.421875 48.1875 
Q 40.625 48.1875 47.75 41.5 
Q 54.890625 34.8125 54.890625 23.390625 
Q 54.890625 11.625 47.5625 5.09375 
Q 40.234375 -1.421875 26.90625 -1.421875 
Q 22.3125 -1.421875 17.546875 -0.640625 
Q 12.796875 0.140625 7.71875 1.703125 
L 7.71875 11.625 
Q 12.109375 9.234375 16.796875 8.0625 
Q 21.484375 6.890625 26.703125 6.890625 
Q 35.15625 6.890625 40.078125 11.328125 
Q 45.015625 15.765625 45.015625 23.390625 
Q 45.015625 31 40.078125 35.4375 
Q 35.15625 39.890625 26.703125 39.890625 
Q 22.75 39.890625 18.8125 39.015625 
Q 14.890625 38.140625 10.796875 36.28125 
z
" id="BitstreamVeraSans-Roman-35"/>
      </defs>
      <g transform="translate(91.2775 338.3575)scale(0.08 -0.08)">
       <use xlink:href="#BitstreamVeraSans-Roman-31"/>
       <use x="63.623046875" xlink:href="#BitstreamVeraSans-Roman-2e"/>
       <use x="95.41015625" xlink:href="#BitstreamVeraSans-Roman-35"/>
      </g>
     </g>
    </g>
    <g id="ytick_3">
     <g id="line2d_11">
      <g>
       <use style="stroke:#000000;stroke-width:0.5;" x="108.0" xlink:href="#m58faa542cc" y="294.3"/>
      </g>
     </g>
     <g id="line2d_12">
      <g>
       <use style="stroke:#000000;stroke-width:0.5;" x="777.6" xlink:href="#m90d1e1910b" y="294.3"/>
      </g>
     </g>
     <g id="text_6">
      <!-- 2.0 -->
      <defs>
       <path d="M 19.1875 8.296875 
L 53.609375 8.296875 
L 53.609375 0 
L 7.328125 0 
L 7.328125 8.296875 
Q 12.9375 14.109375 22.625 23.890625 
Q 32.328125 33.6875 34.8125 36.53125 
Q 39.546875 41.84375 41.421875 45.53125 
Q 43.3125 49.21875 43.3125 52.78125 
Q 43.3125 58.59375 39.234375 62.25 
Q 35.15625 65.921875 28.609375 65.921875 
Q 23.96875 65.921875 18.8125 64.3125 
Q 13.671875 62.703125 7.8125 59.421875 
L 7.8125 69.390625 
Q 13.765625 71.78125 18.9375 73 
Q 24.125 74.21875 28.421875 74.21875 
Q 39.75 74.21875 46.484375 68.546875 
Q 53.21875 62.890625 53.21875 53.421875 
Q 53.21875 48.921875 51.53125 44.890625 
Q 49.859375 40.875 45.40625 35.40625 
Q 44.1875 33.984375 37.640625 27.21875 
Q 31.109375 20.453125 19.1875 8.296875 
" id="BitstreamVeraSans-Roman-32"/>
      </defs>
      <g transform="translate(91.2775 296.5075)scale(0.08 -0.08)">
       <use xlink:href="#BitstreamVeraSans-Roman-32"/>
       <use x="63.623046875" xlink:href="#BitstreamVeraSans-Roman-2e"/>
       <use x="95.41015625" xlink:href="#BitstreamVeraSans-Roman-30"/>
      </g>
     </g>
    </g>
    <g id="ytick_4">
     <g id="line2d_13">
      <g>
       <use style="stroke:#000000;stroke-width:0.5;" x="108.0" xlink:href="#m58faa542cc" y="252.45"/>
      </g>
     </g>
     <g id="line2d_14">
      <g>
       <use style="stroke:#000000;stroke-width:0.5;" x="777.6" xlink:href="#m90d1e1910b" y="252.45"/>
      </g>
     </g>
     <g id="text_7">
      <!-- 2.5 -->
      <g transform="translate(91.2775 254.6575)scale(0.08 -0.08)">
       <use xlink:href="#BitstreamVeraSans-Roman-32"/>
       <use x="63.623046875" xlink:href="#BitstreamVeraSans-Roman-2e"/>
       <use x="95.41015625" xlink:href="#BitstreamVeraSans-Roman-35"/>
      </g>
     </g>
    </g>
    <g id="ytick_5">
     <g id="line2d_15">
      <g>
       <use style="stroke:#000000;stroke-width:0.5;" x="108.0" xlink:href="#m58faa542cc" y="210.6"/>
      </g>
     </g>
     <g id="line2d_16">
      <g>
       <use style="stroke:#000000;stroke-width:0.5;" x="777.6" xlink:href="#m90d1e1910b" y="210.6"/>
      </g>
     </g>
     <g id="text_8">
      <!-- 3.0 -->
      <defs>
       <path d="M 40.578125 39.3125 
Q 47.65625 37.796875 51.625 33 
Q 55.609375 28.21875 55.609375 21.1875 
Q 55.609375 10.40625 48.1875 4.484375 
Q 40.765625 -1.421875 27.09375 -1.421875 
Q 22.515625 -1.421875 17.65625 -0.515625 
Q 12.796875 0.390625 7.625 2.203125 
L 7.625 11.71875 
Q 11.71875 9.328125 16.59375 8.109375 
Q 21.484375 6.890625 26.8125 6.890625 
Q 36.078125 6.890625 40.9375 10.546875 
Q 45.796875 14.203125 45.796875 21.1875 
Q 45.796875 27.640625 41.28125 31.265625 
Q 36.765625 34.90625 28.71875 34.90625 
L 20.21875 34.90625 
L 20.21875 43.015625 
L 29.109375 43.015625 
Q 36.375 43.015625 40.234375 45.921875 
Q 44.09375 48.828125 44.09375 54.296875 
Q 44.09375 59.90625 40.109375 62.90625 
Q 36.140625 65.921875 28.71875 65.921875 
Q 24.65625 65.921875 20.015625 65.03125 
Q 15.375 64.15625 9.8125 62.3125 
L 9.8125 71.09375 
Q 15.4375 72.65625 20.34375 73.4375 
Q 25.25 74.21875 29.59375 74.21875 
Q 40.828125 74.21875 47.359375 69.109375 
Q 53.90625 64.015625 53.90625 55.328125 
Q 53.90625 49.265625 50.4375 45.09375 
Q 46.96875 40.921875 40.578125 39.3125 
" id="BitstreamVeraSans-Roman-33"/>
      </defs>
      <g transform="translate(91.2775 212.8075)scale(0.08 -0.08)">
       <use xlink:href="#BitstreamVeraSans-Roman-33"/>
       <use x="63.623046875" xlink:href="#BitstreamVeraSans-Roman-2e"/>
       <use x="95.41015625" xlink:href="#BitstreamVeraSans-Roman-30"/>
      </g>
     </g>
    </g>
    <g id="ytick_6">
     <g id="line2d_17">
      <g>
       <use style="stroke:#000000;stroke-width:0.5;" x="108.0" xlink:href="#m58faa542cc" y="168.75"/>
      </g>
     </g>
     <g id="line2d_18">
      <g>
       <use style="stroke:#000000;stroke-width:0.5;" x="777.6" xlink:href="#m90d1e1910b" y="168.75"/>
      </g>
     </g>
     <g id="text_9">
      <!-- 3.5 -->
      <g transform="translate(91.2775 170.9575)scale(0.08 -0.08)">
       <use xlink:href="#BitstreamVeraSans-Roman-33"/>
       <use x="63.623046875" xlink:href="#BitstreamVeraSans-Roman-2e"/>
       <use x="95.41015625" xlink:href="#BitstreamVeraSans-Roman-35"/>
      </g>
     </g>
    </g>
    <g id="ytick_7">
     <g id="line2d_19">
      <g>
       <use style="stroke:#000000;stroke-width:0.5;" x="108.0" xlink:href="#m58faa542cc" y="126.9"/>
      </g>
     </g>
     <g id="line2d_20">
      <g>
       <use style="stroke:#000000;stroke-width:0.5;" x="777.6" xlink:href="#m90d1e1910b" y="126.9"/>
      </g>
     </g>
     <g id="text_10">
      <!-- 4.0 -->
      <defs>
       <path d="M 37.796875 64.3125 
L 12.890625 25.390625 
L 37.796875 25.390625 
z
M 35.203125 72.90625 
L 47.609375 72.90625 
L 47.609375 25.390625 
L 58.015625 25.390625 
L 58.015625 17.1875 
L 47.609375 17.1875 
L 47.609375 0 
L 37.796875 0 
L 37.796875 17.1875 
L 4.890625 17.1875 
L 4.890625 26.703125 
z
" id="BitstreamVeraSans-Roman-34"/>
      </defs>
      <g transform="translate(91.2775 129.1075)scale(0.08 -0.08)">
       <use xlink:href="#BitstreamVeraSans-Roman-34"/>
       <use x="63.623046875" xlink:href="#BitstreamVeraSans-Roman-2e"/>
       <use x="95.41015625" xlink:href="#BitstreamVeraSans-Roman-30"/>
      </g>
     </g>
    </g>
    <g id="ytick_8">
     <g id="line2d_21">
      <g>
       <use style="stroke:#000000;stroke-width:0.5;" x="108.0" xlink:href="#m58faa542cc" y="85.05"/>
      </g>
     </g>
     <g id="line2d_22">
      <g>
       <use style="stroke:#000000;stroke-width:0.5;" x="777.6" xlink:href="#m90d1e1910b" y="85.05"/>
      </g>
     </g>
     <g id="text_11">
      <!-- 4.5 -->
      <g transform="translate(91.2775 87.2575)scale(0.08 -0.08)">
       <use xlink:href="#BitstreamVeraSans-Roman-34"/>
       <use x="63.623046875" xlink:href="#BitstreamVeraSans-Roman-2e"/>
       <use x="95.41015625" xlink:href="#BitstreamVeraSans-Roman-35"/>
      </g>
     </g>
    </g>
    <g id="ytick_9">
     <g id="line2d_23">
      <g>
       <use style="stroke:#000000;stroke-width:0.5;" x="108.0" xlink:href="#m58faa542cc" y="43.2"/>
      </g>
     </g>
     <g id="line2d_24">
      <g>
       <use style="stroke:#000000;stroke-width:0.5;" x="777.6" xlink:href="#m90d1e1910b" y="43.2"/>
      </g>
     </g>
     <g id="text_12">
      <!-- 5.0 -->
      <g transform="translate(91.2775 45.4075)scale(0.08 -0.08)">
       <use xlink:href="#BitstreamVeraSans-Roman-35"/>
       <use x="63.623046875" xlink:href="#BitstreamVeraSans-Roman-2e"/>
       <use x="95.41015625" xlink:href="#BitstreamVeraSans-Roman-30"/>
      </g>
     </g>
    </g>
   </g>
  </g>
 </g>
 <defs>
  <clipPath id="pe8c06c2379">
   <rect height="334.8" width="669.6" x="108.0" y="43.2"/>
  </clipPath>
 </defs>
</svg>
