<?xml version="1.0" encoding="utf-8" standalone="no"?>
<!DOCTYPE svg PUBLIC "-//W3C//DTD SVG 1.1//EN"
  "http://www.w3.org/Graphics/SVG/1.1/DTD/svg11.dtd">
<!-- Created with matplotlib (http://matplotlib.org/) -->
<svg height="432pt" version="1.1" viewBox="0 0 864 432" width="864pt" xmlns="http://www.w3.org/2000/svg" xmlns:xlink="http://www.w3.org/1999/xlink">
 <defs>
  <style type="text/css">
*{stroke-linecap:butt;stroke-linejoin:round;stroke-miterlimit:100000;}
  </style>
 </defs>
 <g id="figure_1">
  <g id="patch_1">
   <path d="M 0 432 
L 864 432 
L 864 0 
L 0 0 
z
" style="fill:#ffffff;"/>
  </g>
  <g id="axes_1">
   <g id="patch_2">
    <path d="M 108 378 
L 777.6 378 
L 777.6 43.2 
L 108 43.2 
z
" style="fill:#ffffff;"/>
   </g>
   <g id="PolyCollection_1">
    <defs>
     <path d="M 289.520466 -108.205714 
L 261.279534 -108.205714 
L 260.770222 -111.04 
L 260.249885 -113.874286 
L 259.718105 -116.708571 
L 259.174476 -119.542857 
L 258.618617 -122.377143 
L 258.050177 -125.211429 
L 257.468857 -128.045714 
L 256.874416 -130.88 
L 256.266685 -133.714286 
L 255.645583 -136.548571 
L 255.011126 -139.382857 
L 254.363437 -142.217143 
L 253.702762 -145.051429 
L 253.029474 -147.885714 
L 252.344087 -150.72 
L 251.647258 -153.554286 
L 250.939796 -156.388571 
L 250.222666 -159.222857 
L 249.49699 -162.057143 
L 248.764048 -164.891429 
L 248.025279 -167.725714 
L 247.282272 -170.56 
L 246.536768 -173.394286 
L 245.790649 -176.228571 
L 245.045928 -179.062857 
L 244.30474 -181.897143 
L 243.569331 -184.731429 
L 242.84204 -187.565714 
L 242.125283 -190.4 
L 241.421539 -193.234286 
L 240.73333 -196.068571 
L 240.063199 -198.902857 
L 239.41369 -201.737143 
L 238.787328 -204.571429 
L 238.186594 -207.405714 
L 237.613903 -210.24 
L 237.071583 -213.074286 
L 236.561849 -215.908571 
L 236.086783 -218.742857 
L 235.648311 -221.577143 
L 235.24818 -224.411429 
L 234.887943 -227.245714 
L 234.568934 -230.08 
L 234.292255 -232.914286 
L 234.058758 -235.748571 
L 233.869035 -238.582857 
L 233.723405 -241.417143 
L 233.621904 -244.251429 
L 233.564282 -247.085714 
L 233.55 -249.92 
L 233.578229 -252.754286 
L 233.647854 -255.588571 
L 233.757482 -258.422857 
L 233.905449 -261.257143 
L 234.089837 -264.091429 
L 234.308488 -266.925714 
L 234.559025 -269.76 
L 234.838875 -272.594286 
L 235.145292 -275.428571 
L 235.475391 -278.262857 
L 235.826172 -281.097143 
L 236.194557 -283.931429 
L 236.577422 -286.765714 
L 236.971633 -289.6 
L 237.374082 -292.434286 
L 237.781725 -295.268571 
L 238.191613 -298.102857 
L 238.600934 -300.937143 
L 239.00704 -303.771429 
L 239.407488 -306.605714 
L 239.800059 -309.44 
L 240.182795 -312.274286 
L 240.554016 -315.108571 
L 240.912344 -317.942857 
L 241.256719 -320.777143 
L 241.58641 -323.611429 
L 241.901021 -326.445714 
L 242.200496 -329.28 
L 242.485118 -332.114286 
L 242.755498 -334.948571 
L 243.012567 -337.782857 
L 243.25756 -340.617143 
L 243.491991 -343.451429 
L 243.717635 -346.285714 
L 243.936491 -349.12 
L 244.150761 -351.954286 
L 244.362805 -354.788571 
L 244.575111 -357.622857 
L 244.790253 -360.457143 
L 245.010854 -363.291429 
L 245.239545 -366.125714 
L 245.478921 -368.96 
L 245.731508 -371.794286 
L 245.999723 -374.628571 
L 246.285835 -377.462857 
L 246.591935 -380.297143 
L 246.919906 -383.131429 
L 247.271392 -385.965714 
L 247.647779 -388.8 
L 303.152221 -388.8 
L 303.152221 -388.8 
L 303.528608 -385.965714 
L 303.880094 -383.131429 
L 304.208065 -380.297143 
L 304.514165 -377.462857 
L 304.800277 -374.628571 
L 305.068492 -371.794286 
L 305.321079 -368.96 
L 305.560455 -366.125714 
L 305.789146 -363.291429 
L 306.009747 -360.457143 
L 306.224889 -357.622857 
L 306.437195 -354.788571 
L 306.649239 -351.954286 
L 306.863509 -349.12 
L 307.082365 -346.285714 
L 307.308009 -343.451429 
L 307.54244 -340.617143 
L 307.787433 -337.782857 
L 308.044502 -334.948571 
L 308.314882 -332.114286 
L 308.599504 -329.28 
L 308.898979 -326.445714 
L 309.21359 -323.611429 
L 309.543281 -320.777143 
L 309.887656 -317.942857 
L 310.245984 -315.108571 
L 310.617205 -312.274286 
L 310.999941 -309.44 
L 311.392512 -306.605714 
L 311.79296 -303.771429 
L 312.199066 -300.937143 
L 312.608387 -298.102857 
L 313.018275 -295.268571 
L 313.425918 -292.434286 
L 313.828367 -289.6 
L 314.222578 -286.765714 
L 314.605443 -283.931429 
L 314.973828 -281.097143 
L 315.324609 -278.262857 
L 315.654708 -275.428571 
L 315.961125 -272.594286 
L 316.240975 -269.76 
L 316.491512 -266.925714 
L 316.710163 -264.091429 
L 316.894551 -261.257143 
L 317.042518 -258.422857 
L 317.152146 -255.588571 
L 317.221771 -252.754286 
L 317.25 -249.92 
L 317.235718 -247.085714 
L 317.178096 -244.251429 
L 317.076595 -241.417143 
L 316.930965 -238.582857 
L 316.741242 -235.748571 
L 316.507745 -232.914286 
L 316.231066 -230.08 
L 315.912057 -227.245714 
L 315.55182 -224.411429 
L 315.151689 -221.577143 
L 314.713217 -218.742857 
L 314.238151 -215.908571 
L 313.728417 -213.074286 
L 313.186097 -210.24 
L 312.613406 -207.405714 
L 312.012672 -204.571429 
L 311.38631 -201.737143 
L 310.736801 -198.902857 
L 310.06667 -196.068571 
L 309.378461 -193.234286 
L 308.674717 -190.4 
L 307.95796 -187.565714 
L 307.230669 -184.731429 
L 306.49526 -181.897143 
L 305.754072 -179.062857 
L 305.009351 -176.228571 
L 304.263232 -173.394286 
L 303.517728 -170.56 
L 302.774721 -167.725714 
L 302.035952 -164.891429 
L 301.30301 -162.057143 
L 300.577334 -159.222857 
L 299.860204 -156.388571 
L 299.152742 -153.554286 
L 298.455913 -150.72 
L 297.770526 -147.885714 
L 297.097238 -145.051429 
L 296.436563 -142.217143 
L 295.788874 -139.382857 
L 295.154417 -136.548571 
L 294.533315 -133.714286 
L 293.925584 -130.88 
L 293.331143 -128.045714 
L 292.749823 -125.211429 
L 292.181383 -122.377143 
L 291.625524 -119.542857 
L 291.081895 -116.708571 
L 290.550115 -113.874286 
L 290.029778 -111.04 
L 289.520466 -108.205714 
z
" id="mbcd3f97d28" style="stroke:#000000;stroke-opacity:0.3;"/>
    </defs>
    <g clip-path="url(#p89868b5d2f)">
     <use style="fill:#bfbf00;fill-opacity:0.3;stroke:#000000;stroke-opacity:0.3;" x="0.0" xlink:href="#mbcd3f97d28" y="432.0"/>
    </g>
   </g>
   <g id="PolyCollection_2">
    <defs>
     <path d="M 484.501325 -54 
L 401.098675 -54 
L 400.998617 -54.386494 
L 400.95 -54.772987 
L 400.951755 -55.159481 
L 401.00252 -55.545974 
L 401.100648 -55.932468 
L 401.244214 -56.318961 
L 401.431036 -56.705455 
L 401.658684 -57.091948 
L 401.9245 -57.478442 
L 402.225619 -57.864935 
L 402.558987 -58.251429 
L 402.921388 -58.637922 
L 403.309467 -59.024416 
L 403.719754 -59.410909 
L 404.148692 -59.797403 
L 404.592665 -60.183896 
L 405.048023 -60.57039 
L 405.511111 -60.956883 
L 405.978299 -61.343377 
L 406.446006 -61.72987 
L 406.910725 -62.116364 
L 407.369057 -62.502857 
L 407.817726 -62.889351 
L 408.253608 -63.275844 
L 408.673754 -63.662338 
L 409.075406 -64.048831 
L 409.456018 -64.435325 
L 409.813273 -64.821818 
L 410.145096 -65.208312 
L 410.449669 -65.594805 
L 410.725437 -65.981299 
L 410.971118 -66.367792 
L 411.185709 -66.754286 
L 411.368485 -67.140779 
L 411.519005 -67.527273 
L 411.637107 -67.913766 
L 411.722904 -68.30026 
L 411.776778 -68.686753 
L 411.799372 -69.073247 
L 411.791582 -69.45974 
L 411.754539 -69.846234 
L 411.689601 -70.232727 
L 411.598337 -70.619221 
L 411.482506 -71.005714 
L 411.344045 -71.392208 
L 411.185047 -71.778701 
L 411.007742 -72.165195 
L 410.814476 -72.551688 
L 410.607695 -72.938182 
L 410.389918 -73.324675 
L 410.16372 -73.711169 
L 409.931711 -74.097662 
L 409.696518 -74.484156 
L 409.460759 -74.870649 
L 409.227031 -75.257143 
L 408.997888 -75.643636 
L 408.775825 -76.03013 
L 408.563263 -76.416623 
L 408.362529 -76.803117 
L 408.175849 -77.18961 
L 408.005333 -77.576104 
L 407.85296 -77.962597 
L 407.720576 -78.349091 
L 407.609879 -78.735584 
L 407.522415 -79.122078 
L 407.459574 -79.508571 
L 407.422584 -79.895065 
L 407.41251 -80.281558 
L 407.430251 -80.668052 
L 407.476542 -81.054545 
L 407.551955 -81.441039 
L 407.656901 -81.827532 
L 407.791633 -82.214026 
L 407.956253 -82.600519 
L 408.150713 -82.987013 
L 408.374825 -83.373506 
L 408.628268 -83.76 
L 408.910591 -84.146494 
L 409.221226 -84.532987 
L 409.559492 -84.919481 
L 409.924608 -85.305974 
L 410.315697 -85.692468 
L 410.731797 -86.078961 
L 411.171871 -86.465455 
L 411.634813 -86.851948 
L 412.119457 -87.238442 
L 412.624588 -87.624935 
L 413.148949 -88.011429 
L 413.691246 -88.397922 
L 414.250158 -88.784416 
L 414.824346 -89.170909 
L 415.412456 -89.557403 
L 416.013127 -89.943896 
L 416.624998 -90.33039 
L 417.246712 -90.716883 
L 417.876922 -91.103377 
L 418.514295 -91.48987 
L 419.157518 -91.876364 
L 419.805298 -92.262857 
L 465.794702 -92.262857 
L 465.794702 -92.262857 
L 466.442482 -91.876364 
L 467.085705 -91.48987 
L 467.723078 -91.103377 
L 468.353288 -90.716883 
L 468.975002 -90.33039 
L 469.586873 -89.943896 
L 470.187544 -89.557403 
L 470.775654 -89.170909 
L 471.349842 -88.784416 
L 471.908754 -88.397922 
L 472.451051 -88.011429 
L 472.975412 -87.624935 
L 473.480543 -87.238442 
L 473.965187 -86.851948 
L 474.428129 -86.465455 
L 474.868203 -86.078961 
L 475.284303 -85.692468 
L 475.675392 -85.305974 
L 476.040508 -84.919481 
L 476.378774 -84.532987 
L 476.689409 -84.146494 
L 476.971732 -83.76 
L 477.225175 -83.373506 
L 477.449287 -82.987013 
L 477.643747 -82.600519 
L 477.808367 -82.214026 
L 477.943099 -81.827532 
L 478.048045 -81.441039 
L 478.123458 -81.054545 
L 478.169749 -80.668052 
L 478.18749 -80.281558 
L 478.177416 -79.895065 
L 478.140426 -79.508571 
L 478.077585 -79.122078 
L 477.990121 -78.735584 
L 477.879424 -78.349091 
L 477.74704 -77.962597 
L 477.594667 -77.576104 
L 477.424151 -77.18961 
L 477.237471 -76.803117 
L 477.036737 -76.416623 
L 476.824175 -76.03013 
L 476.602112 -75.643636 
L 476.372969 -75.257143 
L 476.139241 -74.870649 
L 475.903482 -74.484156 
L 475.668289 -74.097662 
L 475.43628 -73.711169 
L 475.210082 -73.324675 
L 474.992305 -72.938182 
L 474.785524 -72.551688 
L 474.592258 -72.165195 
L 474.414953 -71.778701 
L 474.255955 -71.392208 
L 474.117494 -71.005714 
L 474.001663 -70.619221 
L 473.910399 -70.232727 
L 473.845461 -69.846234 
L 473.808418 -69.45974 
L 473.800628 -69.073247 
L 473.823222 -68.686753 
L 473.877096 -68.30026 
L 473.962893 -67.913766 
L 474.080995 -67.527273 
L 474.231515 -67.140779 
L 474.414291 -66.754286 
L 474.628882 -66.367792 
L 474.874563 -65.981299 
L 475.150331 -65.594805 
L 475.454904 -65.208312 
L 475.786727 -64.821818 
L 476.143982 -64.435325 
L 476.524594 -64.048831 
L 476.926246 -63.662338 
L 477.346392 -63.275844 
L 477.782274 -62.889351 
L 478.230943 -62.502857 
L 478.689275 -62.116364 
L 479.153994 -61.72987 
L 479.621701 -61.343377 
L 480.088889 -60.956883 
L 480.551977 -60.57039 
L 481.007335 -60.183896 
L 481.451308 -59.797403 
L 481.880246 -59.410909 
L 482.290533 -59.024416 
L 482.678612 -58.637922 
L 483.041013 -58.251429 
L 483.374381 -57.864935 
L 483.6755 -57.478442 
L 483.941316 -57.091948 
L 484.168964 -56.705455 
L 484.355786 -56.318961 
L 484.499352 -55.932468 
L 484.59748 -55.545974 
L 484.648245 -55.159481 
L 484.65 -54.772987 
L 484.601383 -54.386494 
L 484.501325 -54 
z
" id="m7d4e28db7f" style="stroke:#000000;stroke-opacity:0.3;"/>
    </defs>
    <g clip-path="url(#p89868b5d2f)">
     <use style="fill:#bfbf00;fill-opacity:0.3;stroke:#000000;stroke-opacity:0.3;" x="0.0" xlink:href="#m7d4e28db7f" y="432.0"/>
    </g>
   </g>
   <g id="PolyCollection_3">
    <defs>
     <path d="M 651.946746 -54 
L 568.453254 -54 
L 568.379187 -54.362338 
L 568.35 -54.724675 
L 568.364953 -55.087013 
L 568.423092 -55.449351 
L 568.523257 -55.811688 
L 568.664087 -56.174026 
L 568.844025 -56.536364 
L 569.061331 -56.898701 
L 569.314089 -57.261039 
L 569.600216 -57.623377 
L 569.91748 -57.985714 
L 570.263507 -58.348052 
L 570.635801 -58.71039 
L 571.031753 -59.072727 
L 571.448661 -59.435065 
L 571.883746 -59.797403 
L 572.334164 -60.15974 
L 572.797031 -60.522078 
L 573.26943 -60.884416 
L 573.748438 -61.246753 
L 574.231138 -61.609091 
L 574.714637 -61.971429 
L 575.196081 -62.333766 
L 575.672675 -62.696104 
L 576.141696 -63.058442 
L 576.60051 -63.420779 
L 577.046584 -63.783117 
L 577.477503 -64.145455 
L 577.890977 -64.507792 
L 578.284862 -64.87013 
L 578.657161 -65.232468 
L 579.00604 -65.594805 
L 579.329833 -65.957143 
L 579.627054 -66.319481 
L 579.896397 -66.681818 
L 580.136745 -67.044156 
L 580.347174 -67.406494 
L 580.526952 -67.768831 
L 580.675544 -68.131169 
L 580.792612 -68.493506 
L 580.878012 -68.855844 
L 580.931792 -69.218182 
L 580.954191 -69.580519 
L 580.945633 -69.942857 
L 580.906721 -70.305195 
L 580.838236 -70.667532 
L 580.741123 -71.02987 
L 580.616488 -71.392208 
L 580.465588 -71.754545 
L 580.289821 -72.116883 
L 580.09072 -72.479221 
L 579.869938 -72.841558 
L 579.629241 -73.203896 
L 579.370496 -73.566234 
L 579.095657 -73.928571 
L 578.806758 -74.290909 
L 578.5059 -74.653247 
L 578.195235 -75.015584 
L 577.876962 -75.377922 
L 577.553309 -75.74026 
L 577.226521 -76.102597 
L 576.898856 -76.464935 
L 576.572563 -76.827273 
L 576.249882 -77.18961 
L 575.933022 -77.551948 
L 575.624161 -77.914286 
L 575.32543 -78.276623 
L 575.038905 -78.638961 
L 574.766595 -79.001299 
L 574.510441 -79.363636 
L 574.272299 -79.725974 
L 574.053939 -80.088312 
L 573.857034 -80.450649 
L 573.683154 -80.812987 
L 573.533765 -81.175325 
L 573.410215 -81.537662 
L 573.313739 -81.9 
L 573.245447 -82.262338 
L 573.206325 -82.624675 
L 573.197234 -82.987013 
L 573.218902 -83.349351 
L 573.271927 -83.711688 
L 573.356776 -84.074026 
L 573.473783 -84.436364 
L 573.623151 -84.798701 
L 573.804953 -85.161039 
L 574.019133 -85.523377 
L 574.265507 -85.885714 
L 574.543769 -86.248052 
L 574.853491 -86.61039 
L 575.194131 -86.972727 
L 575.565031 -87.335065 
L 575.965428 -87.697403 
L 576.394455 -88.05974 
L 576.851149 -88.422078 
L 577.334455 -88.784416 
L 577.843234 -89.146753 
L 578.376269 -89.509091 
L 578.932272 -89.871429 
L 641.467728 -89.871429 
L 641.467728 -89.871429 
L 642.023731 -89.509091 
L 642.556766 -89.146753 
L 643.065545 -88.784416 
L 643.548851 -88.422078 
L 644.005545 -88.05974 
L 644.434572 -87.697403 
L 644.834969 -87.335065 
L 645.205869 -86.972727 
L 645.546509 -86.61039 
L 645.856231 -86.248052 
L 646.134493 -85.885714 
L 646.380867 -85.523377 
L 646.595047 -85.161039 
L 646.776849 -84.798701 
L 646.926217 -84.436364 
L 647.043224 -84.074026 
L 647.128073 -83.711688 
L 647.181098 -83.349351 
L 647.202766 -82.987013 
L 647.193675 -82.624675 
L 647.154553 -82.262338 
L 647.086261 -81.9 
L 646.989785 -81.537662 
L 646.866235 -81.175325 
L 646.716846 -80.812987 
L 646.542966 -80.450649 
L 646.346061 -80.088312 
L 646.127701 -79.725974 
L 645.889559 -79.363636 
L 645.633405 -79.001299 
L 645.361095 -78.638961 
L 645.07457 -78.276623 
L 644.775839 -77.914286 
L 644.466978 -77.551948 
L 644.150118 -77.18961 
L 643.827437 -76.827273 
L 643.501144 -76.464935 
L 643.173479 -76.102597 
L 642.846691 -75.74026 
L 642.523038 -75.377922 
L 642.204765 -75.015584 
L 641.8941 -74.653247 
L 641.593242 -74.290909 
L 641.304343 -73.928571 
L 641.029504 -73.566234 
L 640.770759 -73.203896 
L 640.530062 -72.841558 
L 640.30928 -72.479221 
L 640.110179 -72.116883 
L 639.934412 -71.754545 
L 639.783512 -71.392208 
L 639.658877 -71.02987 
L 639.561764 -70.667532 
L 639.493279 -70.305195 
L 639.454367 -69.942857 
L 639.445809 -69.580519 
L 639.468208 -69.218182 
L 639.521988 -68.855844 
L 639.607388 -68.493506 
L 639.724456 -68.131169 
L 639.873048 -67.768831 
L 640.052826 -67.406494 
L 640.263255 -67.044156 
L 640.503603 -66.681818 
L 640.772946 -66.319481 
L 641.070167 -65.957143 
L 641.39396 -65.594805 
L 641.742839 -65.232468 
L 642.115138 -64.87013 
L 642.509023 -64.507792 
L 642.922497 -64.145455 
L 643.353416 -63.783117 
L 643.79949 -63.420779 
L 644.258304 -63.058442 
L 644.727325 -62.696104 
L 645.203919 -62.333766 
L 645.685363 -61.971429 
L 646.168862 -61.609091 
L 646.651562 -61.246753 
L 647.13057 -60.884416 
L 647.602969 -60.522078 
L 648.065836 -60.15974 
L 648.516254 -59.797403 
L 648.951339 -59.435065 
L 649.368247 -59.072727 
L 649.764199 -58.71039 
L 650.136493 -58.348052 
L 650.48252 -57.985714 
L 650.799784 -57.623377 
L 651.085911 -57.261039 
L 651.338669 -56.898701 
L 651.555975 -56.536364 
L 651.735913 -56.174026 
L 651.876743 -55.811688 
L 651.976908 -55.449351 
L 652.035047 -55.087013 
L 652.05 -54.724675 
L 652.020813 -54.362338 
L 651.946746 -54 
z
" id="mfeb666ecd0" style="stroke:#000000;stroke-opacity:0.3;"/>
    </defs>
    <g clip-path="url(#p89868b5d2f)">
     <use style="fill:#bfbf00;fill-opacity:0.3;stroke:#000000;stroke-opacity:0.3;" x="0.0" xlink:href="#mfeb666ecd0" y="432.0"/>
    </g>
   </g>
   <g id="LineCollection_1">
    <path clip-path="url(#p89868b5d2f)" d="M 254.475 170.742857 
L 296.325 170.742857 
" style="fill:none;stroke:#ff0000;"/>
    <path clip-path="url(#p89868b5d2f)" d="M 421.875 366.042857 
L 463.725 366.042857 
" style="fill:none;stroke:#ff0000;"/>
    <path clip-path="url(#p89868b5d2f)" d="M 589.275 366.042857 
L 631.125 366.042857 
" style="fill:none;stroke:#ff0000;"/>
   </g>
   <g id="patch_3">
    <path d="M 777.6 378 
L 777.6 43.2 
" style="fill:none;stroke:#000000;stroke-linecap:square;stroke-linejoin:miter;"/>
   </g>
   <g id="patch_4">
    <path d="M 108 43.2 
L 777.6 43.2 
" style="fill:none;stroke:#000000;stroke-linecap:square;stroke-linejoin:miter;"/>
   </g>
   <g id="patch_5">
    <path d="M 108 378 
L 777.6 378 
" style="fill:none;stroke:#000000;stroke-linecap:square;stroke-linejoin:miter;"/>
   </g>
   <g id="patch_6">
    <path d="M 108 378 
L 108 43.2 
" style="fill:none;stroke:#000000;stroke-linecap:square;stroke-linejoin:miter;"/>
   </g>
   <g id="matplotlib.axis_1">
    <g id="xtick_1">
     <g id="line2d_1">
      <defs>
       <path d="M 0 0 
L 0 -4 
" id="m288cfce9b6" style="stroke:#000000;stroke-width:0.5;"/>
      </defs>
      <g>
       <use style="stroke:#000000;stroke-width:0.5;" x="275.4" xlink:href="#m288cfce9b6" y="378.0"/>
      </g>
     </g>
     <g id="line2d_2">
      <defs>
       <path d="M 0 0 
L 0 4 
" id="m1a9ac20f06" style="stroke:#000000;stroke-width:0.5;"/>
      </defs>
      <g>
       <use style="stroke:#000000;stroke-width:0.5;" x="275.4" xlink:href="#m1a9ac20f06" y="43.2"/>
      </g>
     </g>
     <g id="text_1">
      <!-- Defector -->
      <defs>
       <path d="M 19.671875 64.796875 
L 19.671875 8.109375 
L 31.59375 8.109375 
Q 46.6875 8.109375 53.6875 14.9375 
Q 60.6875 21.78125 60.6875 36.53125 
Q 60.6875 51.171875 53.6875 57.984375 
Q 46.6875 64.796875 31.59375 64.796875 
z
M 9.8125 72.90625 
L 30.078125 72.90625 
Q 51.265625 72.90625 61.171875 64.09375 
Q 71.09375 55.28125 71.09375 36.53125 
Q 71.09375 17.671875 61.125 8.828125 
Q 51.171875 0 30.078125 0 
L 9.8125 0 
z
" id="BitstreamVeraSans-Roman-44"/>
       <path d="M 18.3125 70.21875 
L 18.3125 54.6875 
L 36.8125 54.6875 
L 36.8125 47.703125 
L 18.3125 47.703125 
L 18.3125 18.015625 
Q 18.3125 11.328125 20.140625 9.421875 
Q 21.96875 7.515625 27.59375 7.515625 
L 36.8125 7.515625 
L 36.8125 0 
L 27.59375 0 
Q 17.1875 0 13.234375 3.875 
Q 9.28125 7.765625 9.28125 18.015625 
L 9.28125 47.703125 
L 2.6875 47.703125 
L 2.6875 54.6875 
L 9.28125 54.6875 
L 9.28125 70.21875 
z
" id="BitstreamVeraSans-Roman-74"/>
       <path d="M 56.203125 29.59375 
L 56.203125 25.203125 
L 14.890625 25.203125 
Q 15.484375 15.921875 20.484375 11.0625 
Q 25.484375 6.203125 34.421875 6.203125 
Q 39.59375 6.203125 44.453125 7.46875 
Q 49.3125 8.734375 54.109375 11.28125 
L 54.109375 2.78125 
Q 49.265625 0.734375 44.1875 -0.34375 
Q 39.109375 -1.421875 33.890625 -1.421875 
Q 20.796875 -1.421875 13.15625 6.1875 
Q 5.515625 13.8125 5.515625 26.8125 
Q 5.515625 40.234375 12.765625 48.109375 
Q 20.015625 56 32.328125 56 
Q 43.359375 56 49.78125 48.890625 
Q 56.203125 41.796875 56.203125 29.59375 
M 47.21875 32.234375 
Q 47.125 39.59375 43.09375 43.984375 
Q 39.0625 48.390625 32.421875 48.390625 
Q 24.90625 48.390625 20.390625 44.140625 
Q 15.875 39.890625 15.1875 32.171875 
z
" id="BitstreamVeraSans-Roman-65"/>
       <path d="M 37.109375 75.984375 
L 37.109375 68.5 
L 28.515625 68.5 
Q 23.6875 68.5 21.796875 66.546875 
Q 19.921875 64.59375 19.921875 59.515625 
L 19.921875 54.6875 
L 34.71875 54.6875 
L 34.71875 47.703125 
L 19.921875 47.703125 
L 19.921875 0 
L 10.890625 0 
L 10.890625 47.703125 
L 2.296875 47.703125 
L 2.296875 54.6875 
L 10.890625 54.6875 
L 10.890625 58.5 
Q 10.890625 67.625 15.140625 71.796875 
Q 19.390625 75.984375 28.609375 75.984375 
z
" id="BitstreamVeraSans-Roman-66"/>
       <path d="M 30.609375 48.390625 
Q 23.390625 48.390625 19.1875 42.75 
Q 14.984375 37.109375 14.984375 27.296875 
Q 14.984375 17.484375 19.15625 11.84375 
Q 23.34375 6.203125 30.609375 6.203125 
Q 37.796875 6.203125 41.984375 11.859375 
Q 46.1875 17.53125 46.1875 27.296875 
Q 46.1875 37.015625 41.984375 42.703125 
Q 37.796875 48.390625 30.609375 48.390625 
M 30.609375 56 
Q 42.328125 56 49.015625 48.375 
Q 55.71875 40.765625 55.71875 27.296875 
Q 55.71875 13.875 49.015625 6.21875 
Q 42.328125 -1.421875 30.609375 -1.421875 
Q 18.84375 -1.421875 12.171875 6.21875 
Q 5.515625 13.875 5.515625 27.296875 
Q 5.515625 40.765625 12.171875 48.375 
Q 18.84375 56 30.609375 56 
" id="BitstreamVeraSans-Roman-6f"/>
       <path d="M 48.78125 52.59375 
L 48.78125 44.1875 
Q 44.96875 46.296875 41.140625 47.34375 
Q 37.3125 48.390625 33.40625 48.390625 
Q 24.65625 48.390625 19.8125 42.84375 
Q 14.984375 37.3125 14.984375 27.296875 
Q 14.984375 17.28125 19.8125 11.734375 
Q 24.65625 6.203125 33.40625 6.203125 
Q 37.3125 6.203125 41.140625 7.25 
Q 44.96875 8.296875 48.78125 10.40625 
L 48.78125 2.09375 
Q 45.015625 0.34375 40.984375 -0.53125 
Q 36.96875 -1.421875 32.421875 -1.421875 
Q 20.0625 -1.421875 12.78125 6.34375 
Q 5.515625 14.109375 5.515625 27.296875 
Q 5.515625 40.671875 12.859375 48.328125 
Q 20.21875 56 33.015625 56 
Q 37.15625 56 41.109375 55.140625 
Q 45.0625 54.296875 48.78125 52.59375 
" id="BitstreamVeraSans-Roman-63"/>
       <path d="M 41.109375 46.296875 
Q 39.59375 47.171875 37.8125 47.578125 
Q 36.03125 48 33.890625 48 
Q 26.265625 48 22.1875 43.046875 
Q 18.109375 38.09375 18.109375 28.8125 
L 18.109375 0 
L 9.078125 0 
L 9.078125 54.6875 
L 18.109375 54.6875 
L 18.109375 46.1875 
Q 20.953125 51.171875 25.484375 53.578125 
Q 30.03125 56 36.53125 56 
Q 37.453125 56 38.578125 55.875 
Q 39.703125 55.765625 41.0625 55.515625 
z
" id="BitstreamVeraSans-Roman-72"/>
      </defs>
      <g transform="translate(277.6075 416.54)rotate(-90.0)scale(0.08 -0.08)">
       <use xlink:href="#BitstreamVeraSans-Roman-44"/>
       <use x="77.001953125" xlink:href="#BitstreamVeraSans-Roman-65"/>
       <use x="138.525390625" xlink:href="#BitstreamVeraSans-Roman-66"/>
       <use x="173.73046875" xlink:href="#BitstreamVeraSans-Roman-65"/>
       <use x="235.25390625" xlink:href="#BitstreamVeraSans-Roman-63"/>
       <use x="290.234375" xlink:href="#BitstreamVeraSans-Roman-74"/>
       <use x="329.443359375" xlink:href="#BitstreamVeraSans-Roman-6f"/>
       <use x="390.625" xlink:href="#BitstreamVeraSans-Roman-72"/>
      </g>
     </g>
    </g>
    <g id="xtick_2">
     <g id="line2d_3">
      <g>
       <use style="stroke:#000000;stroke-width:0.5;" x="442.8" xlink:href="#m288cfce9b6" y="378.0"/>
      </g>
     </g>
     <g id="line2d_4">
      <g>
       <use style="stroke:#000000;stroke-width:0.5;" x="442.8" xlink:href="#m1a9ac20f06" y="43.2"/>
      </g>
     </g>
     <g id="text_2">
      <!-- Tit For Tat -->
      <defs>
       <path d="M -0.296875 72.90625 
L 61.375 72.90625 
L 61.375 64.59375 
L 35.5 64.59375 
L 35.5 0 
L 25.59375 0 
L 25.59375 64.59375 
L -0.296875 64.59375 
z
" id="BitstreamVeraSans-Roman-54"/>
       <path id="BitstreamVeraSans-Roman-20"/>
       <path d="M 9.421875 54.6875 
L 18.40625 54.6875 
L 18.40625 0 
L 9.421875 0 
z
M 9.421875 75.984375 
L 18.40625 75.984375 
L 18.40625 64.59375 
L 9.421875 64.59375 
z
" id="BitstreamVeraSans-Roman-69"/>
       <path d="M 9.8125 72.90625 
L 51.703125 72.90625 
L 51.703125 64.59375 
L 19.671875 64.59375 
L 19.671875 43.109375 
L 48.578125 43.109375 
L 48.578125 34.8125 
L 19.671875 34.8125 
L 19.671875 0 
L 9.8125 0 
z
" id="BitstreamVeraSans-Roman-46"/>
       <path d="M 34.28125 27.484375 
Q 23.390625 27.484375 19.1875 25 
Q 14.984375 22.515625 14.984375 16.5 
Q 14.984375 11.71875 18.140625 8.90625 
Q 21.296875 6.109375 26.703125 6.109375 
Q 34.1875 6.109375 38.703125 11.40625 
Q 43.21875 16.703125 43.21875 25.484375 
L 43.21875 27.484375 
z
M 52.203125 31.203125 
L 52.203125 0 
L 43.21875 0 
L 43.21875 8.296875 
Q 40.140625 3.328125 35.546875 0.953125 
Q 30.953125 -1.421875 24.3125 -1.421875 
Q 15.921875 -1.421875 10.953125 3.296875 
Q 6 8.015625 6 15.921875 
Q 6 25.140625 12.171875 29.828125 
Q 18.359375 34.515625 30.609375 34.515625 
L 43.21875 34.515625 
L 43.21875 35.40625 
Q 43.21875 41.609375 39.140625 45 
Q 35.0625 48.390625 27.6875 48.390625 
Q 23 48.390625 18.546875 47.265625 
Q 14.109375 46.140625 10.015625 43.890625 
L 10.015625 52.203125 
Q 14.9375 54.109375 19.578125 55.046875 
Q 24.21875 56 28.609375 56 
Q 40.484375 56 46.34375 49.84375 
Q 52.203125 43.703125 52.203125 31.203125 
" id="BitstreamVeraSans-Roman-61"/>
      </defs>
      <g transform="translate(445.0075 423.0125)rotate(-90.0)scale(0.08 -0.08)">
       <use xlink:href="#BitstreamVeraSans-Roman-54"/>
       <use x="61.037109375" xlink:href="#BitstreamVeraSans-Roman-69"/>
       <use x="88.8203125" xlink:href="#BitstreamVeraSans-Roman-74"/>
       <use x="128.029296875" xlink:href="#BitstreamVeraSans-Roman-20"/>
       <use x="159.81640625" xlink:href="#BitstreamVeraSans-Roman-46"/>
       <use x="217.2890625" xlink:href="#BitstreamVeraSans-Roman-6f"/>
       <use x="278.470703125" xlink:href="#BitstreamVeraSans-Roman-72"/>
       <use x="319.583984375" xlink:href="#BitstreamVeraSans-Roman-20"/>
       <use x="351.37109375" xlink:href="#BitstreamVeraSans-Roman-54"/>
       <use x="412.205078125" xlink:href="#BitstreamVeraSans-Roman-61"/>
       <use x="473.484375" xlink:href="#BitstreamVeraSans-Roman-74"/>
      </g>
     </g>
    </g>
    <g id="xtick_3">
     <g id="line2d_5">
      <g>
       <use style="stroke:#000000;stroke-width:0.5;" x="610.2" xlink:href="#m288cfce9b6" y="378.0"/>
      </g>
     </g>
     <g id="line2d_6">
      <g>
       <use style="stroke:#000000;stroke-width:0.5;" x="610.2" xlink:href="#m1a9ac20f06" y="43.2"/>
      </g>
     </g>
     <g id="text_3">
      <!-- Grudger -->
      <defs>
       <path d="M 45.40625 27.984375 
Q 45.40625 37.75 41.375 43.109375 
Q 37.359375 48.484375 30.078125 48.484375 
Q 22.859375 48.484375 18.828125 43.109375 
Q 14.796875 37.75 14.796875 27.984375 
Q 14.796875 18.265625 18.828125 12.890625 
Q 22.859375 7.515625 30.078125 7.515625 
Q 37.359375 7.515625 41.375 12.890625 
Q 45.40625 18.265625 45.40625 27.984375 
M 54.390625 6.78125 
Q 54.390625 -7.171875 48.1875 -13.984375 
Q 42 -20.796875 29.203125 -20.796875 
Q 24.46875 -20.796875 20.265625 -20.09375 
Q 16.0625 -19.390625 12.109375 -17.921875 
L 12.109375 -9.1875 
Q 16.0625 -11.328125 19.921875 -12.34375 
Q 23.78125 -13.375 27.78125 -13.375 
Q 36.625 -13.375 41.015625 -8.765625 
Q 45.40625 -4.15625 45.40625 5.171875 
L 45.40625 9.625 
Q 42.625 4.78125 38.28125 2.390625 
Q 33.9375 0 27.875 0 
Q 17.828125 0 11.671875 7.65625 
Q 5.515625 15.328125 5.515625 27.984375 
Q 5.515625 40.671875 11.671875 48.328125 
Q 17.828125 56 27.875 56 
Q 33.9375 56 38.28125 53.609375 
Q 42.625 51.21875 45.40625 46.390625 
L 45.40625 54.6875 
L 54.390625 54.6875 
z
" id="BitstreamVeraSans-Roman-67"/>
       <path d="M 45.40625 46.390625 
L 45.40625 75.984375 
L 54.390625 75.984375 
L 54.390625 0 
L 45.40625 0 
L 45.40625 8.203125 
Q 42.578125 3.328125 38.25 0.953125 
Q 33.9375 -1.421875 27.875 -1.421875 
Q 17.96875 -1.421875 11.734375 6.484375 
Q 5.515625 14.40625 5.515625 27.296875 
Q 5.515625 40.1875 11.734375 48.09375 
Q 17.96875 56 27.875 56 
Q 33.9375 56 38.25 53.625 
Q 42.578125 51.265625 45.40625 46.390625 
M 14.796875 27.296875 
Q 14.796875 17.390625 18.875 11.75 
Q 22.953125 6.109375 30.078125 6.109375 
Q 37.203125 6.109375 41.296875 11.75 
Q 45.40625 17.390625 45.40625 27.296875 
Q 45.40625 37.203125 41.296875 42.84375 
Q 37.203125 48.484375 30.078125 48.484375 
Q 22.953125 48.484375 18.875 42.84375 
Q 14.796875 37.203125 14.796875 27.296875 
" id="BitstreamVeraSans-Roman-64"/>
       <path d="M 59.515625 10.40625 
L 59.515625 29.984375 
L 43.40625 29.984375 
L 43.40625 38.09375 
L 69.28125 38.09375 
L 69.28125 6.78125 
Q 63.578125 2.734375 56.6875 0.65625 
Q 49.8125 -1.421875 42 -1.421875 
Q 24.90625 -1.421875 15.25 8.5625 
Q 5.609375 18.5625 5.609375 36.375 
Q 5.609375 54.25 15.25 64.234375 
Q 24.90625 74.21875 42 74.21875 
Q 49.125 74.21875 55.546875 72.453125 
Q 61.96875 70.703125 67.390625 67.28125 
L 67.390625 56.78125 
Q 61.921875 61.421875 55.765625 63.765625 
Q 49.609375 66.109375 42.828125 66.109375 
Q 29.4375 66.109375 22.71875 58.640625 
Q 16.015625 51.171875 16.015625 36.375 
Q 16.015625 21.625 22.71875 14.15625 
Q 29.4375 6.6875 42.828125 6.6875 
Q 48.046875 6.6875 52.140625 7.59375 
Q 56.25 8.5 59.515625 10.40625 
" id="BitstreamVeraSans-Roman-47"/>
       <path d="M 8.5 21.578125 
L 8.5 54.6875 
L 17.484375 54.6875 
L 17.484375 21.921875 
Q 17.484375 14.15625 20.5 10.265625 
Q 23.53125 6.390625 29.59375 6.390625 
Q 36.859375 6.390625 41.078125 11.03125 
Q 45.3125 15.671875 45.3125 23.6875 
L 45.3125 54.6875 
L 54.296875 54.6875 
L 54.296875 0 
L 45.3125 0 
L 45.3125 8.40625 
Q 42.046875 3.421875 37.71875 1 
Q 33.40625 -1.421875 27.6875 -1.421875 
Q 18.265625 -1.421875 13.375 4.4375 
Q 8.5 10.296875 8.5 21.578125 
" id="BitstreamVeraSans-Roman-75"/>
      </defs>
      <g transform="translate(612.4075 414.92625)rotate(-90.0)scale(0.08 -0.08)">
       <use xlink:href="#BitstreamVeraSans-Roman-47"/>
       <use x="77.490234375" xlink:href="#BitstreamVeraSans-Roman-72"/>
       <use x="118.603515625" xlink:href="#BitstreamVeraSans-Roman-75"/>
       <use x="181.982421875" xlink:href="#BitstreamVeraSans-Roman-64"/>
       <use x="245.458984375" xlink:href="#BitstreamVeraSans-Roman-67"/>
       <use x="308.935546875" xlink:href="#BitstreamVeraSans-Roman-65"/>
       <use x="370.458984375" xlink:href="#BitstreamVeraSans-Roman-72"/>
      </g>
     </g>
    </g>
   </g>
   <g id="matplotlib.axis_2">
    <g id="ytick_1">
     <g id="line2d_7">
      <defs>
       <path d="M 0 0 
L 4 0 
" id="md5239eab58" style="stroke:#000000;stroke-width:0.5;"/>
      </defs>
      <g>
       <use style="stroke:#000000;stroke-width:0.5;" x="108.0" xlink:href="#md5239eab58" y="378.0"/>
      </g>
     </g>
     <g id="line2d_8">
      <defs>
       <path d="M 0 0 
L -4 0 
" id="m1136391713" style="stroke:#000000;stroke-width:0.5;"/>
      </defs>
      <g>
       <use style="stroke:#000000;stroke-width:0.5;" x="777.6" xlink:href="#m1136391713" y="378.0"/>
      </g>
     </g>
     <g id="text_4">
      <!-- 1.5 -->
      <defs>
       <path d="M 10.796875 72.90625 
L 49.515625 72.90625 
L 49.515625 64.59375 
L 19.828125 64.59375 
L 19.828125 46.734375 
Q 21.96875 47.46875 24.109375 47.828125 
Q 26.265625 48.1875 28.421875 48.1875 
Q 40.625 48.1875 47.75 41.5 
Q 54.890625 34.8125 54.890625 23.390625 
Q 54.890625 11.625 47.5625 5.09375 
Q 40.234375 -1.421875 26.90625 -1.421875 
Q 22.3125 -1.421875 17.546875 -0.640625 
Q 12.796875 0.140625 7.71875 1.703125 
L 7.71875 11.625 
Q 12.109375 9.234375 16.796875 8.0625 
Q 21.484375 6.890625 26.703125 6.890625 
Q 35.15625 6.890625 40.078125 11.328125 
Q 45.015625 15.765625 45.015625 23.390625 
Q 45.015625 31 40.078125 35.4375 
Q 35.15625 39.890625 26.703125 39.890625 
Q 22.75 39.890625 18.8125 39.015625 
Q 14.890625 38.140625 10.796875 36.28125 
z
" id="BitstreamVeraSans-Roman-35"/>
       <path d="M 12.40625 8.296875 
L 28.515625 8.296875 
L 28.515625 63.921875 
L 10.984375 60.40625 
L 10.984375 69.390625 
L 28.421875 72.90625 
L 38.28125 72.90625 
L 38.28125 8.296875 
L 54.390625 8.296875 
L 54.390625 0 
L 12.40625 0 
z
" id="BitstreamVeraSans-Roman-31"/>
       <path d="M 10.6875 12.40625 
L 21 12.40625 
L 21 0 
L 10.6875 0 
z
" id="BitstreamVeraSans-Roman-2e"/>
      </defs>
      <g transform="translate(91.2775 380.2075)scale(0.08 -0.08)">
       <use xlink:href="#BitstreamVeraSans-Roman-31"/>
       <use x="63.623046875" xlink:href="#BitstreamVeraSans-Roman-2e"/>
       <use x="95.41015625" xlink:href="#BitstreamVeraSans-Roman-35"/>
      </g>
     </g>
    </g>
    <g id="ytick_2">
     <g id="line2d_9">
      <g>
       <use style="stroke:#000000;stroke-width:0.5;" x="108.0" xlink:href="#md5239eab58" y="330.171428571"/>
      </g>
     </g>
     <g id="line2d_10">
      <g>
       <use style="stroke:#000000;stroke-width:0.5;" x="777.6" xlink:href="#m1136391713" y="330.171428571"/>
      </g>
     </g>
     <g id="text_5">
      <!-- 2.0 -->
      <defs>
       <path d="M 31.78125 66.40625 
Q 24.171875 66.40625 20.328125 58.90625 
Q 16.5 51.421875 16.5 36.375 
Q 16.5 21.390625 20.328125 13.890625 
Q 24.171875 6.390625 31.78125 6.390625 
Q 39.453125 6.390625 43.28125 13.890625 
Q 47.125 21.390625 47.125 36.375 
Q 47.125 51.421875 43.28125 58.90625 
Q 39.453125 66.40625 31.78125 66.40625 
M 31.78125 74.21875 
Q 44.046875 74.21875 50.515625 64.515625 
Q 56.984375 54.828125 56.984375 36.375 
Q 56.984375 17.96875 50.515625 8.265625 
Q 44.046875 -1.421875 31.78125 -1.421875 
Q 19.53125 -1.421875 13.0625 8.265625 
Q 6.59375 17.96875 6.59375 36.375 
Q 6.59375 54.828125 13.0625 64.515625 
Q 19.53125 74.21875 31.78125 74.21875 
" id="BitstreamVeraSans-Roman-30"/>
       <path d="M 19.1875 8.296875 
L 53.609375 8.296875 
L 53.609375 0 
L 7.328125 0 
L 7.328125 8.296875 
Q 12.9375 14.109375 22.625 23.890625 
Q 32.328125 33.6875 34.8125 36.53125 
Q 39.546875 41.84375 41.421875 45.53125 
Q 43.3125 49.21875 43.3125 52.78125 
Q 43.3125 58.59375 39.234375 62.25 
Q 35.15625 65.921875 28.609375 65.921875 
Q 23.96875 65.921875 18.8125 64.3125 
Q 13.671875 62.703125 7.8125 59.421875 
L 7.8125 69.390625 
Q 13.765625 71.78125 18.9375 73 
Q 24.125 74.21875 28.421875 74.21875 
Q 39.75 74.21875 46.484375 68.546875 
Q 53.21875 62.890625 53.21875 53.421875 
Q 53.21875 48.921875 51.53125 44.890625 
Q 49.859375 40.875 45.40625 35.40625 
Q 44.1875 33.984375 37.640625 27.21875 
Q 31.109375 20.453125 19.1875 8.296875 
" id="BitstreamVeraSans-Roman-32"/>
      </defs>
      <g transform="translate(91.2775 332.378928571)scale(0.08 -0.08)">
       <use xlink:href="#BitstreamVeraSans-Roman-32"/>
       <use x="63.623046875" xlink:href="#BitstreamVeraSans-Roman-2e"/>
       <use x="95.41015625" xlink:href="#BitstreamVeraSans-Roman-30"/>
      </g>
     </g>
    </g>
    <g id="ytick_3">
     <g id="line2d_11">
      <g>
       <use style="stroke:#000000;stroke-width:0.5;" x="108.0" xlink:href="#md5239eab58" y="282.342857143"/>
      </g>
     </g>
     <g id="line2d_12">
      <g>
       <use style="stroke:#000000;stroke-width:0.5;" x="777.6" xlink:href="#m1136391713" y="282.342857143"/>
      </g>
     </g>
     <g id="text_6">
      <!-- 2.5 -->
      <g transform="translate(91.2775 284.550357143)scale(0.08 -0.08)">
       <use xlink:href="#BitstreamVeraSans-Roman-32"/>
       <use x="63.623046875" xlink:href="#BitstreamVeraSans-Roman-2e"/>
       <use x="95.41015625" xlink:href="#BitstreamVeraSans-Roman-35"/>
      </g>
     </g>
    </g>
    <g id="ytick_4">
     <g id="line2d_13">
      <g>
       <use style="stroke:#000000;stroke-width:0.5;" x="108.0" xlink:href="#md5239eab58" y="234.514285714"/>
      </g>
     </g>
     <g id="line2d_14">
      <g>
       <use style="stroke:#000000;stroke-width:0.5;" x="777.6" xlink:href="#m1136391713" y="234.514285714"/>
      </g>
     </g>
     <g id="text_7">
      <!-- 3.0 -->
      <defs>
       <path d="M 40.578125 39.3125 
Q 47.65625 37.796875 51.625 33 
Q 55.609375 28.21875 55.609375 21.1875 
Q 55.609375 10.40625 48.1875 4.484375 
Q 40.765625 -1.421875 27.09375 -1.421875 
Q 22.515625 -1.421875 17.65625 -0.515625 
Q 12.796875 0.390625 7.625 2.203125 
L 7.625 11.71875 
Q 11.71875 9.328125 16.59375 8.109375 
Q 21.484375 6.890625 26.8125 6.890625 
Q 36.078125 6.890625 40.9375 10.546875 
Q 45.796875 14.203125 45.796875 21.1875 
Q 45.796875 27.640625 41.28125 31.265625 
Q 36.765625 34.90625 28.71875 34.90625 
L 20.21875 34.90625 
L 20.21875 43.015625 
L 29.109375 43.015625 
Q 36.375 43.015625 40.234375 45.921875 
Q 44.09375 48.828125 44.09375 54.296875 
Q 44.09375 59.90625 40.109375 62.90625 
Q 36.140625 65.921875 28.71875 65.921875 
Q 24.65625 65.921875 20.015625 65.03125 
Q 15.375 64.15625 9.8125 62.3125 
L 9.8125 71.09375 
Q 15.4375 72.65625 20.34375 73.4375 
Q 25.25 74.21875 29.59375 74.21875 
Q 40.828125 74.21875 47.359375 69.109375 
Q 53.90625 64.015625 53.90625 55.328125 
Q 53.90625 49.265625 50.4375 45.09375 
Q 46.96875 40.921875 40.578125 39.3125 
" id="BitstreamVeraSans-Roman-33"/>
      </defs>
      <g transform="translate(91.2775 236.721785714)scale(0.08 -0.08)">
       <use xlink:href="#BitstreamVeraSans-Roman-33"/>
       <use x="63.623046875" xlink:href="#BitstreamVeraSans-Roman-2e"/>
       <use x="95.41015625" xlink:href="#BitstreamVeraSans-Roman-30"/>
      </g>
     </g>
    </g>
    <g id="ytick_5">
     <g id="line2d_15">
      <g>
       <use style="stroke:#000000;stroke-width:0.5;" x="108.0" xlink:href="#md5239eab58" y="186.685714286"/>
      </g>
     </g>
     <g id="line2d_16">
      <g>
       <use style="stroke:#000000;stroke-width:0.5;" x="777.6" xlink:href="#m1136391713" y="186.685714286"/>
      </g>
     </g>
     <g id="text_8">
      <!-- 3.5 -->
      <g transform="translate(91.2775 188.893214286)scale(0.08 -0.08)">
       <use xlink:href="#BitstreamVeraSans-Roman-33"/>
       <use x="63.623046875" xlink:href="#BitstreamVeraSans-Roman-2e"/>
       <use x="95.41015625" xlink:href="#BitstreamVeraSans-Roman-35"/>
      </g>
     </g>
    </g>
    <g id="ytick_6">
     <g id="line2d_17">
      <g>
       <use style="stroke:#000000;stroke-width:0.5;" x="108.0" xlink:href="#md5239eab58" y="138.857142857"/>
      </g>
     </g>
     <g id="line2d_18">
      <g>
       <use style="stroke:#000000;stroke-width:0.5;" x="777.6" xlink:href="#m1136391713" y="138.857142857"/>
      </g>
     </g>
     <g id="text_9">
      <!-- 4.0 -->
      <defs>
       <path d="M 37.796875 64.3125 
L 12.890625 25.390625 
L 37.796875 25.390625 
z
M 35.203125 72.90625 
L 47.609375 72.90625 
L 47.609375 25.390625 
L 58.015625 25.390625 
L 58.015625 17.1875 
L 47.609375 17.1875 
L 47.609375 0 
L 37.796875 0 
L 37.796875 17.1875 
L 4.890625 17.1875 
L 4.890625 26.703125 
z
" id="BitstreamVeraSans-Roman-34"/>
      </defs>
      <g transform="translate(91.2775 141.064642857)scale(0.08 -0.08)">
       <use xlink:href="#BitstreamVeraSans-Roman-34"/>
       <use x="63.623046875" xlink:href="#BitstreamVeraSans-Roman-2e"/>
       <use x="95.41015625" xlink:href="#BitstreamVeraSans-Roman-30"/>
      </g>
     </g>
    </g>
    <g id="ytick_7">
     <g id="line2d_19">
      <g>
       <use style="stroke:#000000;stroke-width:0.5;" x="108.0" xlink:href="#md5239eab58" y="91.0285714286"/>
      </g>
     </g>
     <g id="line2d_20">
      <g>
       <use style="stroke:#000000;stroke-width:0.5;" x="777.6" xlink:href="#m1136391713" y="91.0285714286"/>
      </g>
     </g>
     <g id="text_10">
      <!-- 4.5 -->
      <g transform="translate(91.2775 93.2360714286)scale(0.08 -0.08)">
       <use xlink:href="#BitstreamVeraSans-Roman-34"/>
       <use x="63.623046875" xlink:href="#BitstreamVeraSans-Roman-2e"/>
       <use x="95.41015625" xlink:href="#BitstreamVeraSans-Roman-35"/>
      </g>
     </g>
    </g>
    <g id="ytick_8">
     <g id="line2d_21">
      <g>
       <use style="stroke:#000000;stroke-width:0.5;" x="108.0" xlink:href="#md5239eab58" y="43.2"/>
      </g>
     </g>
     <g id="line2d_22">
      <g>
       <use style="stroke:#000000;stroke-width:0.5;" x="777.6" xlink:href="#m1136391713" y="43.2"/>
      </g>
     </g>
     <g id="text_11">
      <!-- 5.0 -->
      <g transform="translate(91.2775 45.4075)scale(0.08 -0.08)">
       <use xlink:href="#BitstreamVeraSans-Roman-35"/>
       <use x="63.623046875" xlink:href="#BitstreamVeraSans-Roman-2e"/>
       <use x="95.41015625" xlink:href="#BitstreamVeraSans-Roman-30"/>
      </g>
     </g>
    </g>
   </g>
  </g>
 </g>
 <defs>
  <clipPath id="p89868b5d2f">
   <rect height="334.8" width="669.6" x="108.0" y="43.2"/>
  </clipPath>
 </defs>
</svg>
