<?xml version="1.0" encoding="utf-8" standalone="no"?>
<!DOCTYPE svg PUBLIC "-//W3C//DTD SVG 1.1//EN"
  "http://www.w3.org/Graphics/SVG/1.1/DTD/svg11.dtd">
<!-- Created with matplotlib (http://matplotlib.org/) -->
<svg height="432pt" version="1.1" viewBox="0 0 864 432" width="864pt" xmlns="http://www.w3.org/2000/svg" xmlns:xlink="http://www.w3.org/1999/xlink">
 <defs>
  <style type="text/css">
*{stroke-linecap:butt;stroke-linejoin:round;stroke-miterlimit:100000;}
  </style>
 </defs>
 <g id="figure_1">
  <g id="patch_1">
   <path d="M 0 432 
L 864 432 
L 864 0 
L 0 0 
z
" style="fill:#ffffff;"/>
  </g>
  <g id="axes_1">
   <g id="patch_2">
    <path d="M 108 378 
L 777.6 378 
L 777.6 43.2 
L 108 43.2 
z
" style="fill:#ffffff;"/>
   </g>
   <g id="PolyCollection_1">
    <defs>
     <path d="M 283.494159 -388.346341 
L 267.305841 -388.346341 
L 267.176745 -388.350463 
L 267.052888 -388.354584 
L 266.933257 -388.358705 
L 266.816698 -388.362826 
L 266.701928 -388.366947 
L 266.587548 -388.371068 
L 266.472057 -388.375189 
L 266.353873 -388.37931 
L 266.231344 -388.383431 
L 266.102775 -388.387552 
L 265.966445 -388.391673 
L 265.820627 -388.395794 
L 265.663613 -388.399915 
L 265.49373 -388.404036 
L 265.309367 -388.408157 
L 265.108989 -388.412278 
L 264.891162 -388.416399 
L 264.654564 -388.42052 
L 264.398006 -388.424641 
L 264.120443 -388.428762 
L 263.820988 -388.432883 
L 263.498919 -388.437004 
L 263.153689 -388.441125 
L 262.78493 -388.445246 
L 262.392453 -388.449368 
L 261.976252 -388.453489 
L 261.536498 -388.45761 
L 261.073536 -388.461731 
L 260.587879 -388.465852 
L 260.080197 -388.469973 
L 259.551306 -388.474094 
L 259.00216 -388.478215 
L 258.433834 -388.482336 
L 257.847509 -388.486457 
L 257.24446 -388.490578 
L 256.626038 -388.494699 
L 255.993656 -388.49882 
L 255.348771 -388.502941 
L 254.692871 -388.507062 
L 254.027458 -388.511183 
L 253.354037 -388.515304 
L 252.6741 -388.519425 
L 251.989117 -388.523546 
L 251.300526 -388.527667 
L 250.60972 -388.531788 
L 249.918047 -388.535909 
L 249.226798 -388.54003 
L 248.537209 -388.544152 
L 247.850456 -388.548273 
L 247.167656 -388.552394 
L 246.48987 -388.556515 
L 245.818105 -388.560636 
L 245.153321 -388.564757 
L 244.496436 -388.568878 
L 243.848334 -388.572999 
L 243.209877 -388.57712 
L 242.58191 -388.581241 
L 241.965279 -388.585362 
L 241.360832 -388.589483 
L 240.769442 -388.593604 
L 240.192011 -388.597725 
L 239.629482 -388.601846 
L 239.082853 -388.605967 
L 238.553183 -388.610088 
L 238.041603 -388.614209 
L 237.549322 -388.61833 
L 237.077636 -388.622451 
L 236.627924 -388.626572 
L 236.201658 -388.630693 
L 235.800398 -388.634814 
L 235.42579 -388.638935 
L 235.079559 -388.643057 
L 234.763503 -388.647178 
L 234.479482 -388.651299 
L 234.229402 -388.65542 
L 234.015201 -388.659541 
L 233.838832 -388.663662 
L 233.70224 -388.667783 
L 233.607342 -388.671904 
L 233.556 -388.676025 
L 233.55 -388.680146 
L 233.591022 -388.684267 
L 233.680617 -388.688388 
L 233.820176 -388.692509 
L 234.01091 -388.69663 
L 234.253817 -388.700751 
L 234.549666 -388.704872 
L 234.89897 -388.708993 
L 235.301968 -388.713114 
L 235.758609 -388.717235 
L 236.268535 -388.721356 
L 236.831077 -388.725477 
L 237.44524 -388.729598 
L 238.109708 -388.733719 
L 238.82284 -388.737841 
L 239.58268 -388.741962 
L 240.386964 -388.746083 
L 241.233132 -388.750204 
L 242.118351 -388.754325 
L 308.681649 -388.754325 
L 308.681649 -388.754325 
L 309.566868 -388.750204 
L 310.413036 -388.746083 
L 311.21732 -388.741962 
L 311.97716 -388.737841 
L 312.690292 -388.733719 
L 313.35476 -388.729598 
L 313.968923 -388.725477 
L 314.531465 -388.721356 
L 315.041391 -388.717235 
L 315.498032 -388.713114 
L 315.90103 -388.708993 
L 316.250334 -388.704872 
L 316.546183 -388.700751 
L 316.78909 -388.69663 
L 316.979824 -388.692509 
L 317.119383 -388.688388 
L 317.208978 -388.684267 
L 317.25 -388.680146 
L 317.244 -388.676025 
L 317.192658 -388.671904 
L 317.09776 -388.667783 
L 316.961168 -388.663662 
L 316.784799 -388.659541 
L 316.570598 -388.65542 
L 316.320518 -388.651299 
L 316.036497 -388.647178 
L 315.720441 -388.643057 
L 315.37421 -388.638935 
L 314.999602 -388.634814 
L 314.598342 -388.630693 
L 314.172076 -388.626572 
L 313.722364 -388.622451 
L 313.250678 -388.61833 
L 312.758397 -388.614209 
L 312.246817 -388.610088 
L 311.717147 -388.605967 
L 311.170518 -388.601846 
L 310.607989 -388.597725 
L 310.030558 -388.593604 
L 309.439168 -388.589483 
L 308.834721 -388.585362 
L 308.21809 -388.581241 
L 307.590123 -388.57712 
L 306.951666 -388.572999 
L 306.303564 -388.568878 
L 305.646679 -388.564757 
L 304.981895 -388.560636 
L 304.31013 -388.556515 
L 303.632344 -388.552394 
L 302.949544 -388.548273 
L 302.262791 -388.544152 
L 301.573202 -388.54003 
L 300.881953 -388.535909 
L 300.19028 -388.531788 
L 299.499474 -388.527667 
L 298.810883 -388.523546 
L 298.1259 -388.519425 
L 297.445963 -388.515304 
L 296.772542 -388.511183 
L 296.107129 -388.507062 
L 295.451229 -388.502941 
L 294.806344 -388.49882 
L 294.173962 -388.494699 
L 293.55554 -388.490578 
L 292.952491 -388.486457 
L 292.366166 -388.482336 
L 291.79784 -388.478215 
L 291.248694 -388.474094 
L 290.719803 -388.469973 
L 290.212121 -388.465852 
L 289.726464 -388.461731 
L 289.263502 -388.45761 
L 288.823748 -388.453489 
L 288.407547 -388.449368 
L 288.01507 -388.445246 
L 287.646311 -388.441125 
L 287.301081 -388.437004 
L 286.979012 -388.432883 
L 286.679557 -388.428762 
L 286.401994 -388.424641 
L 286.145436 -388.42052 
L 285.908838 -388.416399 
L 285.691011 -388.412278 
L 285.490633 -388.408157 
L 285.30627 -388.404036 
L 285.136387 -388.399915 
L 284.979373 -388.395794 
L 284.833555 -388.391673 
L 284.697225 -388.387552 
L 284.568656 -388.383431 
L 284.446127 -388.37931 
L 284.327943 -388.375189 
L 284.212452 -388.371068 
L 284.098072 -388.366947 
L 283.983302 -388.362826 
L 283.866743 -388.358705 
L 283.747112 -388.354584 
L 283.623255 -388.350463 
L 283.494159 -388.346341 
z
" id="m485aa54096" style="stroke:#000000;stroke-opacity:0.3;"/>
    </defs>
    <g clip-path="url(#p3e976ec4dc)">
     <use style="fill:#bfbf00;fill-opacity:0.3;stroke:#000000;stroke-opacity:0.3;" x="0.0" xlink:href="#m485aa54096" y="432.0"/>
    </g>
   </g>
   <g id="PolyCollection_2">
    <defs>
     <path d="M 452.716776 -387.991304 
L 432.883224 -387.991304 
L 432.714211 -387.99832 
L 432.558031 -388.005335 
L 432.415106 -388.01235 
L 432.285773 -388.019365 
L 432.170271 -388.02638 
L 432.068739 -388.033396 
L 431.981215 -388.040411 
L 431.907625 -388.047426 
L 431.84779 -388.054441 
L 431.801413 -388.061457 
L 431.768088 -388.068472 
L 431.747292 -388.075487 
L 431.738389 -388.082502 
L 431.740628 -388.089518 
L 431.75315 -388.096533 
L 431.774984 -388.103548 
L 431.805057 -388.110563 
L 431.842192 -388.117578 
L 431.885117 -388.124594 
L 431.93247 -388.131609 
L 431.982801 -388.138624 
L 432.034587 -388.145639 
L 432.08623 -388.152655 
L 432.136073 -388.15967 
L 432.182402 -388.166685 
L 432.22346 -388.1737 
L 432.257453 -388.180715 
L 432.282558 -388.187731 
L 432.29694 -388.194746 
L 432.298752 -388.201761 
L 432.286153 -388.208776 
L 432.257315 -388.215792 
L 432.210436 -388.222807 
L 432.143744 -388.229822 
L 432.055516 -388.236837 
L 431.944083 -388.243852 
L 431.807843 -388.250868 
L 431.645269 -388.257883 
L 431.45492 -388.264898 
L 431.235455 -388.271913 
L 430.985637 -388.278929 
L 430.704346 -388.285944 
L 430.390591 -388.292959 
L 430.043515 -388.299974 
L 429.662407 -388.30699 
L 429.24671 -388.314005 
L 428.796031 -388.32102 
L 428.31015 -388.328035 
L 427.789025 -388.33505 
L 427.232802 -388.342066 
L 426.641822 -388.349081 
L 426.016627 -388.356096 
L 425.357967 -388.363111 
L 424.666804 -388.370127 
L 423.944314 -388.377142 
L 423.191897 -388.384157 
L 422.411172 -388.391172 
L 421.603982 -388.398187 
L 420.772392 -388.405203 
L 419.918689 -388.412218 
L 419.045376 -388.419233 
L 418.155171 -388.426248 
L 417.250994 -388.433264 
L 416.335965 -388.440279 
L 415.41339 -388.447294 
L 414.486747 -388.454309 
L 413.559676 -388.461324 
L 412.635957 -388.46834 
L 411.719497 -388.475355 
L 410.814305 -388.48237 
L 409.924469 -388.489385 
L 409.054137 -388.496401 
L 408.207487 -388.503416 
L 407.388701 -388.510431 
L 406.601935 -388.517446 
L 405.851294 -388.524462 
L 405.140796 -388.531477 
L 404.474345 -388.538492 
L 403.8557 -388.545507 
L 403.288445 -388.552522 
L 402.775958 -388.559538 
L 402.321382 -388.566553 
L 401.927599 -388.573568 
L 401.597202 -388.580583 
L 401.332473 -388.587599 
L 401.135361 -388.594614 
L 401.007461 -388.601629 
L 400.95 -388.608644 
L 400.963823 -388.615659 
L 401.049385 -388.622675 
L 401.206741 -388.62969 
L 401.435546 -388.636705 
L 401.735057 -388.64372 
L 402.104136 -388.650736 
L 402.541259 -388.657751 
L 403.044528 -388.664766 
L 403.611686 -388.671781 
L 404.240136 -388.678797 
L 404.926966 -388.685812 
L 480.673034 -388.685812 
L 480.673034 -388.685812 
L 481.359864 -388.678797 
L 481.988314 -388.671781 
L 482.555472 -388.664766 
L 483.058741 -388.657751 
L 483.495864 -388.650736 
L 483.864943 -388.64372 
L 484.164454 -388.636705 
L 484.393259 -388.62969 
L 484.550615 -388.622675 
L 484.636177 -388.615659 
L 484.65 -388.608644 
L 484.592539 -388.601629 
L 484.464639 -388.594614 
L 484.267527 -388.587599 
L 484.002798 -388.580583 
L 483.672401 -388.573568 
L 483.278618 -388.566553 
L 482.824042 -388.559538 
L 482.311555 -388.552522 
L 481.7443 -388.545507 
L 481.125655 -388.538492 
L 480.459204 -388.531477 
L 479.748706 -388.524462 
L 478.998065 -388.517446 
L 478.211299 -388.510431 
L 477.392513 -388.503416 
L 476.545863 -388.496401 
L 475.675531 -388.489385 
L 474.785695 -388.48237 
L 473.880503 -388.475355 
L 472.964043 -388.46834 
L 472.040324 -388.461324 
L 471.113253 -388.454309 
L 470.18661 -388.447294 
L 469.264035 -388.440279 
L 468.349006 -388.433264 
L 467.444829 -388.426248 
L 466.554624 -388.419233 
L 465.681311 -388.412218 
L 464.827608 -388.405203 
L 463.996018 -388.398187 
L 463.188828 -388.391172 
L 462.408103 -388.384157 
L 461.655686 -388.377142 
L 460.933196 -388.370127 
L 460.242033 -388.363111 
L 459.583373 -388.356096 
L 458.958178 -388.349081 
L 458.367198 -388.342066 
L 457.810975 -388.33505 
L 457.28985 -388.328035 
L 456.803969 -388.32102 
L 456.35329 -388.314005 
L 455.937593 -388.30699 
L 455.556485 -388.299974 
L 455.209409 -388.292959 
L 454.895654 -388.285944 
L 454.614363 -388.278929 
L 454.364545 -388.271913 
L 454.14508 -388.264898 
L 453.954731 -388.257883 
L 453.792157 -388.250868 
L 453.655917 -388.243852 
L 453.544484 -388.236837 
L 453.456256 -388.229822 
L 453.389564 -388.222807 
L 453.342685 -388.215792 
L 453.313847 -388.208776 
L 453.301248 -388.201761 
L 453.30306 -388.194746 
L 453.317442 -388.187731 
L 453.342547 -388.180715 
L 453.37654 -388.1737 
L 453.417598 -388.166685 
L 453.463927 -388.15967 
L 453.51377 -388.152655 
L 453.565413 -388.145639 
L 453.617199 -388.138624 
L 453.66753 -388.131609 
L 453.714883 -388.124594 
L 453.757808 -388.117578 
L 453.794943 -388.110563 
L 453.825016 -388.103548 
L 453.84685 -388.096533 
L 453.859372 -388.089518 
L 453.861611 -388.082502 
L 453.852708 -388.075487 
L 453.831912 -388.068472 
L 453.798587 -388.061457 
L 453.75221 -388.054441 
L 453.692375 -388.047426 
L 453.618785 -388.040411 
L 453.531261 -388.033396 
L 453.429729 -388.02638 
L 453.314227 -388.019365 
L 453.184894 -388.01235 
L 453.041969 -388.005335 
L 452.885789 -387.99832 
L 452.716776 -387.991304 
z
" id="m20738a66f7" style="stroke:#000000;stroke-opacity:0.3;"/>
    </defs>
    <g clip-path="url(#p3e976ec4dc)">
     <use style="fill:#bfbf00;fill-opacity:0.3;stroke:#000000;stroke-opacity:0.3;" x="0.0" xlink:href="#m20738a66f7" y="432.0"/>
    </g>
   </g>
   <g id="PolyCollection_3">
    <defs>
     <path d="M 645.08975 -54.795888 
L 575.31025 -54.795888 
L 574.362148 -54.838853 
L 573.468016 -54.881818 
L 572.632827 -54.924783 
L 571.861253 -54.967748 
L 571.157627 -55.010713 
L 570.525889 -55.053678 
L 569.969557 -55.096643 
L 569.491681 -55.139608 
L 569.09482 -55.182572 
L 568.781008 -55.225537 
L 568.551739 -55.268502 
L 568.407947 -55.311467 
L 568.35 -55.354432 
L 568.377694 -55.397397 
L 568.490256 -55.440362 
L 568.686353 -55.483327 
L 568.964106 -55.526292 
L 569.32111 -55.569257 
L 569.754461 -55.612222 
L 570.260783 -55.655187 
L 570.836268 -55.698152 
L 571.476712 -55.741117 
L 572.177561 -55.784082 
L 572.933955 -55.827047 
L 573.740778 -55.870011 
L 574.592707 -55.912976 
L 575.484269 -55.955941 
L 576.409887 -55.998906 
L 577.363936 -56.041871 
L 578.340797 -56.084836 
L 579.334902 -56.127801 
L 580.340786 -56.170766 
L 581.353133 -56.213731 
L 582.366817 -56.256696 
L 583.376942 -56.299661 
L 584.37888 -56.342626 
L 585.368299 -56.385591 
L 586.34119 -56.428556 
L 587.293891 -56.471521 
L 588.223102 -56.514486 
L 589.1259 -56.55745 
L 589.999741 -56.600415 
L 590.842467 -56.64338 
L 591.652302 -56.686345 
L 592.427845 -56.72931 
L 593.168059 -56.772275 
L 593.872255 -56.81524 
L 594.540076 -56.858205 
L 595.171471 -56.90117 
L 595.766677 -56.944135 
L 596.326186 -56.9871 
L 596.850722 -57.030065 
L 597.34121 -57.07303 
L 597.798749 -57.115995 
L 598.224577 -57.15896 
L 598.620048 -57.201924 
L 598.9866 -57.244889 
L 599.32573 -57.287854 
L 599.638968 -57.330819 
L 599.927855 -57.373784 
L 600.19392 -57.416749 
L 600.438666 -57.459714 
L 600.66355 -57.502679 
L 600.869973 -57.545644 
L 601.059271 -57.588609 
L 601.232707 -57.631574 
L 601.391466 -57.674539 
L 601.536655 -57.717504 
L 601.669304 -57.760469 
L 601.790368 -57.803434 
L 601.900731 -57.846399 
L 602.001216 -57.889363 
L 602.09259 -57.932328 
L 602.175574 -57.975293 
L 602.250851 -58.018258 
L 602.319076 -58.061223 
L 602.380886 -58.104188 
L 602.436907 -58.147153 
L 602.487765 -58.190118 
L 602.53409 -58.233083 
L 602.576525 -58.276048 
L 602.615728 -58.319013 
L 602.652376 -58.361978 
L 602.687166 -58.404943 
L 602.720816 -58.447908 
L 602.754062 -58.490873 
L 602.787654 -58.533838 
L 602.822354 -58.576802 
L 602.858927 -58.619767 
L 602.898133 -58.662732 
L 602.940724 -58.705697 
L 602.98743 -58.748662 
L 603.038951 -58.791627 
L 603.095948 -58.834592 
L 603.159034 -58.877557 
L 603.228764 -58.920522 
L 603.305628 -58.963487 
L 603.390041 -59.006452 
L 603.482338 -59.049417 
L 616.917662 -59.049417 
L 616.917662 -59.049417 
L 617.009959 -59.006452 
L 617.094372 -58.963487 
L 617.171236 -58.920522 
L 617.240966 -58.877557 
L 617.304052 -58.834592 
L 617.361049 -58.791627 
L 617.41257 -58.748662 
L 617.459276 -58.705697 
L 617.501867 -58.662732 
L 617.541073 -58.619767 
L 617.577646 -58.576802 
L 617.612346 -58.533838 
L 617.645938 -58.490873 
L 617.679184 -58.447908 
L 617.712834 -58.404943 
L 617.747624 -58.361978 
L 617.784272 -58.319013 
L 617.823475 -58.276048 
L 617.86591 -58.233083 
L 617.912235 -58.190118 
L 617.963093 -58.147153 
L 618.019114 -58.104188 
L 618.080924 -58.061223 
L 618.149149 -58.018258 
L 618.224426 -57.975293 
L 618.30741 -57.932328 
L 618.398784 -57.889363 
L 618.499269 -57.846399 
L 618.609632 -57.803434 
L 618.730696 -57.760469 
L 618.863345 -57.717504 
L 619.008534 -57.674539 
L 619.167293 -57.631574 
L 619.340729 -57.588609 
L 619.530027 -57.545644 
L 619.73645 -57.502679 
L 619.961334 -57.459714 
L 620.20608 -57.416749 
L 620.472145 -57.373784 
L 620.761032 -57.330819 
L 621.07427 -57.287854 
L 621.4134 -57.244889 
L 621.779952 -57.201924 
L 622.175423 -57.15896 
L 622.601251 -57.115995 
L 623.05879 -57.07303 
L 623.549278 -57.030065 
L 624.073814 -56.9871 
L 624.633323 -56.944135 
L 625.228529 -56.90117 
L 625.859924 -56.858205 
L 626.527745 -56.81524 
L 627.231941 -56.772275 
L 627.972155 -56.72931 
L 628.747698 -56.686345 
L 629.557533 -56.64338 
L 630.400259 -56.600415 
L 631.2741 -56.55745 
L 632.176898 -56.514486 
L 633.106109 -56.471521 
L 634.05881 -56.428556 
L 635.031701 -56.385591 
L 636.02112 -56.342626 
L 637.023058 -56.299661 
L 638.033183 -56.256696 
L 639.046867 -56.213731 
L 640.059214 -56.170766 
L 641.065098 -56.127801 
L 642.059203 -56.084836 
L 643.036064 -56.041871 
L 643.990113 -55.998906 
L 644.915731 -55.955941 
L 645.807293 -55.912976 
L 646.659222 -55.870011 
L 647.466045 -55.827047 
L 648.222439 -55.784082 
L 648.923288 -55.741117 
L 649.563732 -55.698152 
L 650.139217 -55.655187 
L 650.645539 -55.612222 
L 651.07889 -55.569257 
L 651.435894 -55.526292 
L 651.713647 -55.483327 
L 651.909744 -55.440362 
L 652.022306 -55.397397 
L 652.05 -55.354432 
L 651.992053 -55.311467 
L 651.848261 -55.268502 
L 651.618992 -55.225537 
L 651.30518 -55.182572 
L 650.908319 -55.139608 
L 650.430443 -55.096643 
L 649.874111 -55.053678 
L 649.242373 -55.010713 
L 648.538747 -54.967748 
L 647.767173 -54.924783 
L 646.931984 -54.881818 
L 646.037852 -54.838853 
L 645.08975 -54.795888 
z
" id="m11c1890a9c" style="stroke:#000000;stroke-opacity:0.3;"/>
    </defs>
    <g clip-path="url(#p3e976ec4dc)">
     <use style="fill:#bfbf00;fill-opacity:0.3;stroke:#000000;stroke-opacity:0.3;" x="0.0" xlink:href="#m11c1890a9c" y="432.0"/>
    </g>
   </g>
   <g id="LineCollection_1">
    <path clip-path="url(#p3e976ec4dc)" d="M 254.475 43.351552 
L 296.325 43.351552 
" style="fill:none;stroke:#ff0000;"/>
    <path clip-path="url(#p3e976ec4dc)" d="M 421.875 43.40034 
L 463.725 43.40034 
" style="fill:none;stroke:#ff0000;"/>
    <path clip-path="url(#p3e976ec4dc)" d="M 589.275 376.519282 
L 631.125 376.519282 
" style="fill:none;stroke:#ff0000;"/>
   </g>
   <g id="patch_3">
    <path d="M 777.6 378 
L 777.6 43.2 
" style="fill:none;stroke:#000000;stroke-linecap:square;stroke-linejoin:miter;"/>
   </g>
   <g id="patch_4">
    <path d="M 108 43.2 
L 777.6 43.2 
" style="fill:none;stroke:#000000;stroke-linecap:square;stroke-linejoin:miter;"/>
   </g>
   <g id="patch_5">
    <path d="M 108 378 
L 777.6 378 
" style="fill:none;stroke:#000000;stroke-linecap:square;stroke-linejoin:miter;"/>
   </g>
   <g id="patch_6">
    <path d="M 108 378 
L 108 43.2 
" style="fill:none;stroke:#000000;stroke-linecap:square;stroke-linejoin:miter;"/>
   </g>
   <g id="matplotlib.axis_1">
    <g id="xtick_1">
     <g id="line2d_1">
      <defs>
       <path d="M 0 0 
L 0 -4 
" id="m739bbdcb30" style="stroke:#000000;stroke-width:0.5;"/>
      </defs>
      <g>
       <use style="stroke:#000000;stroke-width:0.5;" x="275.4" xlink:href="#m739bbdcb30" y="378.0"/>
      </g>
     </g>
     <g id="line2d_2">
      <defs>
       <path d="M 0 0 
L 0 4 
" id="m8f9c888f5e" style="stroke:#000000;stroke-width:0.5;"/>
      </defs>
      <g>
       <use style="stroke:#000000;stroke-width:0.5;" x="275.4" xlink:href="#m8f9c888f5e" y="43.2"/>
      </g>
     </g>
     <g id="text_1">
      <!-- Grudger -->
      <defs>
       <path d="M 56.203125 29.59375 
L 56.203125 25.203125 
L 14.890625 25.203125 
Q 15.484375 15.921875 20.484375 11.0625 
Q 25.484375 6.203125 34.421875 6.203125 
Q 39.59375 6.203125 44.453125 7.46875 
Q 49.3125 8.734375 54.109375 11.28125 
L 54.109375 2.78125 
Q 49.265625 0.734375 44.1875 -0.34375 
Q 39.109375 -1.421875 33.890625 -1.421875 
Q 20.796875 -1.421875 13.15625 6.1875 
Q 5.515625 13.8125 5.515625 26.8125 
Q 5.515625 40.234375 12.765625 48.109375 
Q 20.015625 56 32.328125 56 
Q 43.359375 56 49.78125 48.890625 
Q 56.203125 41.796875 56.203125 29.59375 
M 47.21875 32.234375 
Q 47.125 39.59375 43.09375 43.984375 
Q 39.0625 48.390625 32.421875 48.390625 
Q 24.90625 48.390625 20.390625 44.140625 
Q 15.875 39.890625 15.1875 32.171875 
z
" id="BitstreamVeraSans-Roman-65"/>
       <path d="M 59.515625 10.40625 
L 59.515625 29.984375 
L 43.40625 29.984375 
L 43.40625 38.09375 
L 69.28125 38.09375 
L 69.28125 6.78125 
Q 63.578125 2.734375 56.6875 0.65625 
Q 49.8125 -1.421875 42 -1.421875 
Q 24.90625 -1.421875 15.25 8.5625 
Q 5.609375 18.5625 5.609375 36.375 
Q 5.609375 54.25 15.25 64.234375 
Q 24.90625 74.21875 42 74.21875 
Q 49.125 74.21875 55.546875 72.453125 
Q 61.96875 70.703125 67.390625 67.28125 
L 67.390625 56.78125 
Q 61.921875 61.421875 55.765625 63.765625 
Q 49.609375 66.109375 42.828125 66.109375 
Q 29.4375 66.109375 22.71875 58.640625 
Q 16.015625 51.171875 16.015625 36.375 
Q 16.015625 21.625 22.71875 14.15625 
Q 29.4375 6.6875 42.828125 6.6875 
Q 48.046875 6.6875 52.140625 7.59375 
Q 56.25 8.5 59.515625 10.40625 
" id="BitstreamVeraSans-Roman-47"/>
       <path d="M 45.40625 46.390625 
L 45.40625 75.984375 
L 54.390625 75.984375 
L 54.390625 0 
L 45.40625 0 
L 45.40625 8.203125 
Q 42.578125 3.328125 38.25 0.953125 
Q 33.9375 -1.421875 27.875 -1.421875 
Q 17.96875 -1.421875 11.734375 6.484375 
Q 5.515625 14.40625 5.515625 27.296875 
Q 5.515625 40.1875 11.734375 48.09375 
Q 17.96875 56 27.875 56 
Q 33.9375 56 38.25 53.625 
Q 42.578125 51.265625 45.40625 46.390625 
M 14.796875 27.296875 
Q 14.796875 17.390625 18.875 11.75 
Q 22.953125 6.109375 30.078125 6.109375 
Q 37.203125 6.109375 41.296875 11.75 
Q 45.40625 17.390625 45.40625 27.296875 
Q 45.40625 37.203125 41.296875 42.84375 
Q 37.203125 48.484375 30.078125 48.484375 
Q 22.953125 48.484375 18.875 42.84375 
Q 14.796875 37.203125 14.796875 27.296875 
" id="BitstreamVeraSans-Roman-64"/>
       <path d="M 45.40625 27.984375 
Q 45.40625 37.75 41.375 43.109375 
Q 37.359375 48.484375 30.078125 48.484375 
Q 22.859375 48.484375 18.828125 43.109375 
Q 14.796875 37.75 14.796875 27.984375 
Q 14.796875 18.265625 18.828125 12.890625 
Q 22.859375 7.515625 30.078125 7.515625 
Q 37.359375 7.515625 41.375 12.890625 
Q 45.40625 18.265625 45.40625 27.984375 
M 54.390625 6.78125 
Q 54.390625 -7.171875 48.1875 -13.984375 
Q 42 -20.796875 29.203125 -20.796875 
Q 24.46875 -20.796875 20.265625 -20.09375 
Q 16.0625 -19.390625 12.109375 -17.921875 
L 12.109375 -9.1875 
Q 16.0625 -11.328125 19.921875 -12.34375 
Q 23.78125 -13.375 27.78125 -13.375 
Q 36.625 -13.375 41.015625 -8.765625 
Q 45.40625 -4.15625 45.40625 5.171875 
L 45.40625 9.625 
Q 42.625 4.78125 38.28125 2.390625 
Q 33.9375 0 27.875 0 
Q 17.828125 0 11.671875 7.65625 
Q 5.515625 15.328125 5.515625 27.984375 
Q 5.515625 40.671875 11.671875 48.328125 
Q 17.828125 56 27.875 56 
Q 33.9375 56 38.28125 53.609375 
Q 42.625 51.21875 45.40625 46.390625 
L 45.40625 54.6875 
L 54.390625 54.6875 
z
" id="BitstreamVeraSans-Roman-67"/>
       <path d="M 41.109375 46.296875 
Q 39.59375 47.171875 37.8125 47.578125 
Q 36.03125 48 33.890625 48 
Q 26.265625 48 22.1875 43.046875 
Q 18.109375 38.09375 18.109375 28.8125 
L 18.109375 0 
L 9.078125 0 
L 9.078125 54.6875 
L 18.109375 54.6875 
L 18.109375 46.1875 
Q 20.953125 51.171875 25.484375 53.578125 
Q 30.03125 56 36.53125 56 
Q 37.453125 56 38.578125 55.875 
Q 39.703125 55.765625 41.0625 55.515625 
z
" id="BitstreamVeraSans-Roman-72"/>
       <path d="M 8.5 21.578125 
L 8.5 54.6875 
L 17.484375 54.6875 
L 17.484375 21.921875 
Q 17.484375 14.15625 20.5 10.265625 
Q 23.53125 6.390625 29.59375 6.390625 
Q 36.859375 6.390625 41.078125 11.03125 
Q 45.3125 15.671875 45.3125 23.6875 
L 45.3125 54.6875 
L 54.296875 54.6875 
L 54.296875 0 
L 45.3125 0 
L 45.3125 8.40625 
Q 42.046875 3.421875 37.71875 1 
Q 33.40625 -1.421875 27.6875 -1.421875 
Q 18.265625 -1.421875 13.375 4.4375 
Q 8.5 10.296875 8.5 21.578125 
" id="BitstreamVeraSans-Roman-75"/>
      </defs>
      <g transform="translate(277.6075 414.92625)rotate(-90.0)scale(0.08 -0.08)">
       <use xlink:href="#BitstreamVeraSans-Roman-47"/>
       <use x="77.490234375" xlink:href="#BitstreamVeraSans-Roman-72"/>
       <use x="118.603515625" xlink:href="#BitstreamVeraSans-Roman-75"/>
       <use x="181.982421875" xlink:href="#BitstreamVeraSans-Roman-64"/>
       <use x="245.458984375" xlink:href="#BitstreamVeraSans-Roman-67"/>
       <use x="308.935546875" xlink:href="#BitstreamVeraSans-Roman-65"/>
       <use x="370.458984375" xlink:href="#BitstreamVeraSans-Roman-72"/>
      </g>
     </g>
    </g>
    <g id="xtick_2">
     <g id="line2d_3">
      <g>
       <use style="stroke:#000000;stroke-width:0.5;" x="442.8" xlink:href="#m739bbdcb30" y="378.0"/>
      </g>
     </g>
     <g id="line2d_4">
      <g>
       <use style="stroke:#000000;stroke-width:0.5;" x="442.8" xlink:href="#m8f9c888f5e" y="43.2"/>
      </g>
     </g>
     <g id="text_2">
      <!-- Tit For Tat -->
      <defs>
       <path d="M 34.28125 27.484375 
Q 23.390625 27.484375 19.1875 25 
Q 14.984375 22.515625 14.984375 16.5 
Q 14.984375 11.71875 18.140625 8.90625 
Q 21.296875 6.109375 26.703125 6.109375 
Q 34.1875 6.109375 38.703125 11.40625 
Q 43.21875 16.703125 43.21875 25.484375 
L 43.21875 27.484375 
z
M 52.203125 31.203125 
L 52.203125 0 
L 43.21875 0 
L 43.21875 8.296875 
Q 40.140625 3.328125 35.546875 0.953125 
Q 30.953125 -1.421875 24.3125 -1.421875 
Q 15.921875 -1.421875 10.953125 3.296875 
Q 6 8.015625 6 15.921875 
Q 6 25.140625 12.171875 29.828125 
Q 18.359375 34.515625 30.609375 34.515625 
L 43.21875 34.515625 
L 43.21875 35.40625 
Q 43.21875 41.609375 39.140625 45 
Q 35.0625 48.390625 27.6875 48.390625 
Q 23 48.390625 18.546875 47.265625 
Q 14.109375 46.140625 10.015625 43.890625 
L 10.015625 52.203125 
Q 14.9375 54.109375 19.578125 55.046875 
Q 24.21875 56 28.609375 56 
Q 40.484375 56 46.34375 49.84375 
Q 52.203125 43.703125 52.203125 31.203125 
" id="BitstreamVeraSans-Roman-61"/>
       <path d="M -0.296875 72.90625 
L 61.375 72.90625 
L 61.375 64.59375 
L 35.5 64.59375 
L 35.5 0 
L 25.59375 0 
L 25.59375 64.59375 
L -0.296875 64.59375 
z
" id="BitstreamVeraSans-Roman-54"/>
       <path id="BitstreamVeraSans-Roman-20"/>
       <path d="M 9.421875 54.6875 
L 18.40625 54.6875 
L 18.40625 0 
L 9.421875 0 
z
M 9.421875 75.984375 
L 18.40625 75.984375 
L 18.40625 64.59375 
L 9.421875 64.59375 
z
" id="BitstreamVeraSans-Roman-69"/>
       <path d="M 18.3125 70.21875 
L 18.3125 54.6875 
L 36.8125 54.6875 
L 36.8125 47.703125 
L 18.3125 47.703125 
L 18.3125 18.015625 
Q 18.3125 11.328125 20.140625 9.421875 
Q 21.96875 7.515625 27.59375 7.515625 
L 36.8125 7.515625 
L 36.8125 0 
L 27.59375 0 
Q 17.1875 0 13.234375 3.875 
Q 9.28125 7.765625 9.28125 18.015625 
L 9.28125 47.703125 
L 2.6875 47.703125 
L 2.6875 54.6875 
L 9.28125 54.6875 
L 9.28125 70.21875 
z
" id="BitstreamVeraSans-Roman-74"/>
       <path d="M 30.609375 48.390625 
Q 23.390625 48.390625 19.1875 42.75 
Q 14.984375 37.109375 14.984375 27.296875 
Q 14.984375 17.484375 19.15625 11.84375 
Q 23.34375 6.203125 30.609375 6.203125 
Q 37.796875 6.203125 41.984375 11.859375 
Q 46.1875 17.53125 46.1875 27.296875 
Q 46.1875 37.015625 41.984375 42.703125 
Q 37.796875 48.390625 30.609375 48.390625 
M 30.609375 56 
Q 42.328125 56 49.015625 48.375 
Q 55.71875 40.765625 55.71875 27.296875 
Q 55.71875 13.875 49.015625 6.21875 
Q 42.328125 -1.421875 30.609375 -1.421875 
Q 18.84375 -1.421875 12.171875 6.21875 
Q 5.515625 13.875 5.515625 27.296875 
Q 5.515625 40.765625 12.171875 48.375 
Q 18.84375 56 30.609375 56 
" id="BitstreamVeraSans-Roman-6f"/>
       <path d="M 9.8125 72.90625 
L 51.703125 72.90625 
L 51.703125 64.59375 
L 19.671875 64.59375 
L 19.671875 43.109375 
L 48.578125 43.109375 
L 48.578125 34.8125 
L 19.671875 34.8125 
L 19.671875 0 
L 9.8125 0 
z
" id="BitstreamVeraSans-Roman-46"/>
      </defs>
      <g transform="translate(445.0075 423.0125)rotate(-90.0)scale(0.08 -0.08)">
       <use xlink:href="#BitstreamVeraSans-Roman-54"/>
       <use x="61.037109375" xlink:href="#BitstreamVeraSans-Roman-69"/>
       <use x="88.8203125" xlink:href="#BitstreamVeraSans-Roman-74"/>
       <use x="128.029296875" xlink:href="#BitstreamVeraSans-Roman-20"/>
       <use x="159.81640625" xlink:href="#BitstreamVeraSans-Roman-46"/>
       <use x="217.2890625" xlink:href="#BitstreamVeraSans-Roman-6f"/>
       <use x="278.470703125" xlink:href="#BitstreamVeraSans-Roman-72"/>
       <use x="319.583984375" xlink:href="#BitstreamVeraSans-Roman-20"/>
       <use x="351.37109375" xlink:href="#BitstreamVeraSans-Roman-54"/>
       <use x="412.205078125" xlink:href="#BitstreamVeraSans-Roman-61"/>
       <use x="473.484375" xlink:href="#BitstreamVeraSans-Roman-74"/>
      </g>
     </g>
    </g>
    <g id="xtick_3">
     <g id="line2d_5">
      <g>
       <use style="stroke:#000000;stroke-width:0.5;" x="610.2" xlink:href="#m739bbdcb30" y="378.0"/>
      </g>
     </g>
     <g id="line2d_6">
      <g>
       <use style="stroke:#000000;stroke-width:0.5;" x="610.2" xlink:href="#m8f9c888f5e" y="43.2"/>
      </g>
     </g>
     <g id="text_3">
      <!-- Defector -->
      <defs>
       <path d="M 19.671875 64.796875 
L 19.671875 8.109375 
L 31.59375 8.109375 
Q 46.6875 8.109375 53.6875 14.9375 
Q 60.6875 21.78125 60.6875 36.53125 
Q 60.6875 51.171875 53.6875 57.984375 
Q 46.6875 64.796875 31.59375 64.796875 
z
M 9.8125 72.90625 
L 30.078125 72.90625 
Q 51.265625 72.90625 61.171875 64.09375 
Q 71.09375 55.28125 71.09375 36.53125 
Q 71.09375 17.671875 61.125 8.828125 
Q 51.171875 0 30.078125 0 
L 9.8125 0 
z
" id="BitstreamVeraSans-Roman-44"/>
       <path d="M 48.78125 52.59375 
L 48.78125 44.1875 
Q 44.96875 46.296875 41.140625 47.34375 
Q 37.3125 48.390625 33.40625 48.390625 
Q 24.65625 48.390625 19.8125 42.84375 
Q 14.984375 37.3125 14.984375 27.296875 
Q 14.984375 17.28125 19.8125 11.734375 
Q 24.65625 6.203125 33.40625 6.203125 
Q 37.3125 6.203125 41.140625 7.25 
Q 44.96875 8.296875 48.78125 10.40625 
L 48.78125 2.09375 
Q 45.015625 0.34375 40.984375 -0.53125 
Q 36.96875 -1.421875 32.421875 -1.421875 
Q 20.0625 -1.421875 12.78125 6.34375 
Q 5.515625 14.109375 5.515625 27.296875 
Q 5.515625 40.671875 12.859375 48.328125 
Q 20.21875 56 33.015625 56 
Q 37.15625 56 41.109375 55.140625 
Q 45.0625 54.296875 48.78125 52.59375 
" id="BitstreamVeraSans-Roman-63"/>
       <path d="M 37.109375 75.984375 
L 37.109375 68.5 
L 28.515625 68.5 
Q 23.6875 68.5 21.796875 66.546875 
Q 19.921875 64.59375 19.921875 59.515625 
L 19.921875 54.6875 
L 34.71875 54.6875 
L 34.71875 47.703125 
L 19.921875 47.703125 
L 19.921875 0 
L 10.890625 0 
L 10.890625 47.703125 
L 2.296875 47.703125 
L 2.296875 54.6875 
L 10.890625 54.6875 
L 10.890625 58.5 
Q 10.890625 67.625 15.140625 71.796875 
Q 19.390625 75.984375 28.609375 75.984375 
z
" id="BitstreamVeraSans-Roman-66"/>
      </defs>
      <g transform="translate(612.4075 416.54)rotate(-90.0)scale(0.08 -0.08)">
       <use xlink:href="#BitstreamVeraSans-Roman-44"/>
       <use x="77.001953125" xlink:href="#BitstreamVeraSans-Roman-65"/>
       <use x="138.525390625" xlink:href="#BitstreamVeraSans-Roman-66"/>
       <use x="173.73046875" xlink:href="#BitstreamVeraSans-Roman-65"/>
       <use x="235.25390625" xlink:href="#BitstreamVeraSans-Roman-63"/>
       <use x="290.234375" xlink:href="#BitstreamVeraSans-Roman-74"/>
       <use x="329.443359375" xlink:href="#BitstreamVeraSans-Roman-6f"/>
       <use x="390.625" xlink:href="#BitstreamVeraSans-Roman-72"/>
      </g>
     </g>
    </g>
   </g>
   <g id="matplotlib.axis_2">
    <g id="ytick_1">
     <g id="line2d_7">
      <defs>
       <path d="M 0 0 
L 4 0 
" id="m30e7dd57ef" style="stroke:#000000;stroke-width:0.5;"/>
      </defs>
      <g>
       <use style="stroke:#000000;stroke-width:0.5;" x="108.0" xlink:href="#m30e7dd57ef" y="378.0"/>
      </g>
     </g>
     <g id="line2d_8">
      <defs>
       <path d="M 0 0 
L -4 0 
" id="m6945b723b8" style="stroke:#000000;stroke-width:0.5;"/>
      </defs>
      <g>
       <use style="stroke:#000000;stroke-width:0.5;" x="777.6" xlink:href="#m6945b723b8" y="378.0"/>
      </g>
     </g>
     <g id="text_4">
      <!-- 1.0 -->
      <defs>
       <path d="M 31.78125 66.40625 
Q 24.171875 66.40625 20.328125 58.90625 
Q 16.5 51.421875 16.5 36.375 
Q 16.5 21.390625 20.328125 13.890625 
Q 24.171875 6.390625 31.78125 6.390625 
Q 39.453125 6.390625 43.28125 13.890625 
Q 47.125 21.390625 47.125 36.375 
Q 47.125 51.421875 43.28125 58.90625 
Q 39.453125 66.40625 31.78125 66.40625 
M 31.78125 74.21875 
Q 44.046875 74.21875 50.515625 64.515625 
Q 56.984375 54.828125 56.984375 36.375 
Q 56.984375 17.96875 50.515625 8.265625 
Q 44.046875 -1.421875 31.78125 -1.421875 
Q 19.53125 -1.421875 13.0625 8.265625 
Q 6.59375 17.96875 6.59375 36.375 
Q 6.59375 54.828125 13.0625 64.515625 
Q 19.53125 74.21875 31.78125 74.21875 
" id="BitstreamVeraSans-Roman-30"/>
       <path d="M 12.40625 8.296875 
L 28.515625 8.296875 
L 28.515625 63.921875 
L 10.984375 60.40625 
L 10.984375 69.390625 
L 28.421875 72.90625 
L 38.28125 72.90625 
L 38.28125 8.296875 
L 54.390625 8.296875 
L 54.390625 0 
L 12.40625 0 
z
" id="BitstreamVeraSans-Roman-31"/>
       <path d="M 10.6875 12.40625 
L 21 12.40625 
L 21 0 
L 10.6875 0 
z
" id="BitstreamVeraSans-Roman-2e"/>
      </defs>
      <g transform="translate(91.2775 380.2075)scale(0.08 -0.08)">
       <use xlink:href="#BitstreamVeraSans-Roman-31"/>
       <use x="63.623046875" xlink:href="#BitstreamVeraSans-Roman-2e"/>
       <use x="95.41015625" xlink:href="#BitstreamVeraSans-Roman-30"/>
      </g>
     </g>
    </g>
    <g id="ytick_2">
     <g id="line2d_9">
      <g>
       <use style="stroke:#000000;stroke-width:0.5;" x="108.0" xlink:href="#m30e7dd57ef" y="311.04"/>
      </g>
     </g>
     <g id="line2d_10">
      <g>
       <use style="stroke:#000000;stroke-width:0.5;" x="777.6" xlink:href="#m6945b723b8" y="311.04"/>
      </g>
     </g>
     <g id="text_5">
      <!-- 1.2 -->
      <defs>
       <path d="M 19.1875 8.296875 
L 53.609375 8.296875 
L 53.609375 0 
L 7.328125 0 
L 7.328125 8.296875 
Q 12.9375 14.109375 22.625 23.890625 
Q 32.328125 33.6875 34.8125 36.53125 
Q 39.546875 41.84375 41.421875 45.53125 
Q 43.3125 49.21875 43.3125 52.78125 
Q 43.3125 58.59375 39.234375 62.25 
Q 35.15625 65.921875 28.609375 65.921875 
Q 23.96875 65.921875 18.8125 64.3125 
Q 13.671875 62.703125 7.8125 59.421875 
L 7.8125 69.390625 
Q 13.765625 71.78125 18.9375 73 
Q 24.125 74.21875 28.421875 74.21875 
Q 39.75 74.21875 46.484375 68.546875 
Q 53.21875 62.890625 53.21875 53.421875 
Q 53.21875 48.921875 51.53125 44.890625 
Q 49.859375 40.875 45.40625 35.40625 
Q 44.1875 33.984375 37.640625 27.21875 
Q 31.109375 20.453125 19.1875 8.296875 
" id="BitstreamVeraSans-Roman-32"/>
      </defs>
      <g transform="translate(91.2775 313.2475)scale(0.08 -0.08)">
       <use xlink:href="#BitstreamVeraSans-Roman-31"/>
       <use x="63.623046875" xlink:href="#BitstreamVeraSans-Roman-2e"/>
       <use x="95.41015625" xlink:href="#BitstreamVeraSans-Roman-32"/>
      </g>
     </g>
    </g>
    <g id="ytick_3">
     <g id="line2d_11">
      <g>
       <use style="stroke:#000000;stroke-width:0.5;" x="108.0" xlink:href="#m30e7dd57ef" y="244.08"/>
      </g>
     </g>
     <g id="line2d_12">
      <g>
       <use style="stroke:#000000;stroke-width:0.5;" x="777.6" xlink:href="#m6945b723b8" y="244.08"/>
      </g>
     </g>
     <g id="text_6">
      <!-- 1.4 -->
      <defs>
       <path d="M 37.796875 64.3125 
L 12.890625 25.390625 
L 37.796875 25.390625 
z
M 35.203125 72.90625 
L 47.609375 72.90625 
L 47.609375 25.390625 
L 58.015625 25.390625 
L 58.015625 17.1875 
L 47.609375 17.1875 
L 47.609375 0 
L 37.796875 0 
L 37.796875 17.1875 
L 4.890625 17.1875 
L 4.890625 26.703125 
z
" id="BitstreamVeraSans-Roman-34"/>
      </defs>
      <g transform="translate(91.2775 246.2875)scale(0.08 -0.08)">
       <use xlink:href="#BitstreamVeraSans-Roman-31"/>
       <use x="63.623046875" xlink:href="#BitstreamVeraSans-Roman-2e"/>
       <use x="95.41015625" xlink:href="#BitstreamVeraSans-Roman-34"/>
      </g>
     </g>
    </g>
    <g id="ytick_4">
     <g id="line2d_13">
      <g>
       <use style="stroke:#000000;stroke-width:0.5;" x="108.0" xlink:href="#m30e7dd57ef" y="177.12"/>
      </g>
     </g>
     <g id="line2d_14">
      <g>
       <use style="stroke:#000000;stroke-width:0.5;" x="777.6" xlink:href="#m6945b723b8" y="177.12"/>
      </g>
     </g>
     <g id="text_7">
      <!-- 1.6 -->
      <defs>
       <path d="M 33.015625 40.375 
Q 26.375 40.375 22.484375 35.828125 
Q 18.609375 31.296875 18.609375 23.390625 
Q 18.609375 15.53125 22.484375 10.953125 
Q 26.375 6.390625 33.015625 6.390625 
Q 39.65625 6.390625 43.53125 10.953125 
Q 47.40625 15.53125 47.40625 23.390625 
Q 47.40625 31.296875 43.53125 35.828125 
Q 39.65625 40.375 33.015625 40.375 
M 52.59375 71.296875 
L 52.59375 62.3125 
Q 48.875 64.0625 45.09375 64.984375 
Q 41.3125 65.921875 37.59375 65.921875 
Q 27.828125 65.921875 22.671875 59.328125 
Q 17.53125 52.734375 16.796875 39.40625 
Q 19.671875 43.65625 24.015625 45.921875 
Q 28.375 48.1875 33.59375 48.1875 
Q 44.578125 48.1875 50.953125 41.515625 
Q 57.328125 34.859375 57.328125 23.390625 
Q 57.328125 12.15625 50.6875 5.359375 
Q 44.046875 -1.421875 33.015625 -1.421875 
Q 20.359375 -1.421875 13.671875 8.265625 
Q 6.984375 17.96875 6.984375 36.375 
Q 6.984375 53.65625 15.1875 63.9375 
Q 23.390625 74.21875 37.203125 74.21875 
Q 40.921875 74.21875 44.703125 73.484375 
Q 48.484375 72.75 52.59375 71.296875 
" id="BitstreamVeraSans-Roman-36"/>
      </defs>
      <g transform="translate(91.2775 179.3275)scale(0.08 -0.08)">
       <use xlink:href="#BitstreamVeraSans-Roman-31"/>
       <use x="63.623046875" xlink:href="#BitstreamVeraSans-Roman-2e"/>
       <use x="95.41015625" xlink:href="#BitstreamVeraSans-Roman-36"/>
      </g>
     </g>
    </g>
    <g id="ytick_5">
     <g id="line2d_15">
      <g>
       <use style="stroke:#000000;stroke-width:0.5;" x="108.0" xlink:href="#m30e7dd57ef" y="110.16"/>
      </g>
     </g>
     <g id="line2d_16">
      <g>
       <use style="stroke:#000000;stroke-width:0.5;" x="777.6" xlink:href="#m6945b723b8" y="110.16"/>
      </g>
     </g>
     <g id="text_8">
      <!-- 1.8 -->
      <defs>
       <path d="M 31.78125 34.625 
Q 24.75 34.625 20.71875 30.859375 
Q 16.703125 27.09375 16.703125 20.515625 
Q 16.703125 13.921875 20.71875 10.15625 
Q 24.75 6.390625 31.78125 6.390625 
Q 38.8125 6.390625 42.859375 10.171875 
Q 46.921875 13.96875 46.921875 20.515625 
Q 46.921875 27.09375 42.890625 30.859375 
Q 38.875 34.625 31.78125 34.625 
M 21.921875 38.8125 
Q 15.578125 40.375 12.03125 44.71875 
Q 8.5 49.078125 8.5 55.328125 
Q 8.5 64.0625 14.71875 69.140625 
Q 20.953125 74.21875 31.78125 74.21875 
Q 42.671875 74.21875 48.875 69.140625 
Q 55.078125 64.0625 55.078125 55.328125 
Q 55.078125 49.078125 51.53125 44.71875 
Q 48 40.375 41.703125 38.8125 
Q 48.828125 37.15625 52.796875 32.3125 
Q 56.78125 27.484375 56.78125 20.515625 
Q 56.78125 9.90625 50.3125 4.234375 
Q 43.84375 -1.421875 31.78125 -1.421875 
Q 19.734375 -1.421875 13.25 4.234375 
Q 6.78125 9.90625 6.78125 20.515625 
Q 6.78125 27.484375 10.78125 32.3125 
Q 14.796875 37.15625 21.921875 38.8125 
M 18.3125 54.390625 
Q 18.3125 48.734375 21.84375 45.5625 
Q 25.390625 42.390625 31.78125 42.390625 
Q 38.140625 42.390625 41.71875 45.5625 
Q 45.3125 48.734375 45.3125 54.390625 
Q 45.3125 60.0625 41.71875 63.234375 
Q 38.140625 66.40625 31.78125 66.40625 
Q 25.390625 66.40625 21.84375 63.234375 
Q 18.3125 60.0625 18.3125 54.390625 
" id="BitstreamVeraSans-Roman-38"/>
      </defs>
      <g transform="translate(91.2775 112.3675)scale(0.08 -0.08)">
       <use xlink:href="#BitstreamVeraSans-Roman-31"/>
       <use x="63.623046875" xlink:href="#BitstreamVeraSans-Roman-2e"/>
       <use x="95.41015625" xlink:href="#BitstreamVeraSans-Roman-38"/>
      </g>
     </g>
    </g>
    <g id="ytick_6">
     <g id="line2d_17">
      <g>
       <use style="stroke:#000000;stroke-width:0.5;" x="108.0" xlink:href="#m30e7dd57ef" y="43.2"/>
      </g>
     </g>
     <g id="line2d_18">
      <g>
       <use style="stroke:#000000;stroke-width:0.5;" x="777.6" xlink:href="#m6945b723b8" y="43.2"/>
      </g>
     </g>
     <g id="text_9">
      <!-- 2.0 -->
      <g transform="translate(91.2775 45.4075)scale(0.08 -0.08)">
       <use xlink:href="#BitstreamVeraSans-Roman-32"/>
       <use x="63.623046875" xlink:href="#BitstreamVeraSans-Roman-2e"/>
       <use x="95.41015625" xlink:href="#BitstreamVeraSans-Roman-30"/>
      </g>
     </g>
    </g>
   </g>
  </g>
 </g>
 <defs>
  <clipPath id="p3e976ec4dc">
   <rect height="334.8" width="669.6" x="108.0" y="43.2"/>
  </clipPath>
 </defs>
</svg>
