<?xml version="1.0" encoding="utf-8" standalone="no"?>
<!DOCTYPE svg PUBLIC "-//W3C//DTD SVG 1.1//EN"
  "http://www.w3.org/Graphics/SVG/1.1/DTD/svg11.dtd">
<!-- Created with matplotlib (http://matplotlib.org/) -->
<svg height="288pt" version="1.1" viewBox="0 0 432 288" width="432pt" xmlns="http://www.w3.org/2000/svg" xmlns:xlink="http://www.w3.org/1999/xlink">
 <defs>
  <style type="text/css">
*{stroke-linecap:butt;stroke-linejoin:round;stroke-miterlimit:100000;}
  </style>
 </defs>
 <g id="figure_1">
  <g id="patch_1">
   <path d="M 0 288 
L 432 288 
L 432 0 
L 0 0 
z
" style="fill:#ffffff;"/>
  </g>
  <g id="axes_1">
   <g id="patch_2">
    <path d="M 54 252 
L 388.8 252 
L 388.8 28.8 
L 54 28.8 
z
" style="fill:#eaeaf2;"/>
   </g>
   <g id="matplotlib.axis_1">
    <g id="xtick_1">
     <g id="line2d_1">
      <path clip-path="url(#p557b11c16c)" d="M 54 252 
L 54 28.8 
" style="fill:none;stroke:#ffffff;stroke-linecap:round;"/>
     </g>
     <g id="line2d_2">
      <defs>
       <path d="M 0 0 
L 0 0 
" id="m8af77d1877" style="stroke:#262626;"/>
      </defs>
      <g>
       <use style="fill:#262626;stroke:#262626;" x="54.0" xlink:href="#m8af77d1877" y="252.0"/>
      </g>
     </g>
     <g id="line2d_3">
      <g>
       <use style="fill:#262626;stroke:#262626;" x="54.0" xlink:href="#m8af77d1877" y="28.8"/>
      </g>
     </g>
     <g id="text_1">
      <!-- 0.5 -->
      <defs>
       <path d="M 4.15625 35.296875 
Q 4.15625 48 6.765625 55.734375 
Q 9.375 63.484375 14.515625 67.671875 
Q 19.671875 71.875 27.484375 71.875 
Q 33.25 71.875 37.59375 69.546875 
Q 41.9375 67.234375 44.765625 62.859375 
Q 47.609375 58.5 49.21875 52.21875 
Q 50.828125 45.953125 50.828125 35.296875 
Q 50.828125 22.703125 48.234375 14.96875 
Q 45.65625 7.234375 40.5 3 
Q 35.359375 -1.21875 27.484375 -1.21875 
Q 17.140625 -1.21875 11.234375 6.203125 
Q 4.15625 15.140625 4.15625 35.296875 
M 13.1875 35.296875 
Q 13.1875 17.671875 17.3125 11.828125 
Q 21.4375 6 27.484375 6 
Q 33.546875 6 37.671875 11.859375 
Q 41.796875 17.71875 41.796875 35.296875 
Q 41.796875 52.984375 37.671875 58.78125 
Q 33.546875 64.59375 27.390625 64.59375 
Q 21.34375 64.59375 17.71875 59.46875 
Q 13.1875 52.9375 13.1875 35.296875 
" id="ArialMT-30"/>
       <path d="M 4.15625 18.75 
L 13.375 19.53125 
Q 14.40625 12.796875 18.140625 9.390625 
Q 21.875 6 27.15625 6 
Q 33.5 6 37.890625 10.78125 
Q 42.28125 15.578125 42.28125 23.484375 
Q 42.28125 31 38.0625 35.34375 
Q 33.84375 39.703125 27 39.703125 
Q 22.75 39.703125 19.328125 37.765625 
Q 15.921875 35.84375 13.96875 32.765625 
L 5.71875 33.84375 
L 12.640625 70.609375 
L 48.25 70.609375 
L 48.25 62.203125 
L 19.671875 62.203125 
L 15.828125 42.96875 
Q 22.265625 47.46875 29.34375 47.46875 
Q 38.71875 47.46875 45.15625 40.96875 
Q 51.609375 34.46875 51.609375 24.265625 
Q 51.609375 14.546875 45.953125 7.46875 
Q 39.0625 -1.21875 27.15625 -1.21875 
Q 17.390625 -1.21875 11.203125 4.25 
Q 5.03125 9.71875 4.15625 18.75 
" id="ArialMT-35"/>
       <path d="M 9.078125 0 
L 9.078125 10.015625 
L 19.09375 10.015625 
L 19.09375 0 
z
" id="ArialMT-2e"/>
      </defs>
      <g style="fill:#262626;" transform="translate(47.05 266.1578125)scale(0.1 -0.1)">
       <use xlink:href="#ArialMT-30"/>
       <use x="55.615234375" xlink:href="#ArialMT-2e"/>
       <use x="83.3984375" xlink:href="#ArialMT-35"/>
      </g>
     </g>
    </g>
    <g id="xtick_2">
     <g id="line2d_4">
      <path clip-path="url(#p557b11c16c)" d="M 95.85 252 
L 95.85 28.8 
" style="fill:none;stroke:#ffffff;stroke-linecap:round;"/>
     </g>
     <g id="line2d_5">
      <g>
       <use style="fill:#262626;stroke:#262626;" x="95.85" xlink:href="#m8af77d1877" y="252.0"/>
      </g>
     </g>
     <g id="line2d_6">
      <g>
       <use style="fill:#262626;stroke:#262626;" x="95.85" xlink:href="#m8af77d1877" y="28.8"/>
      </g>
     </g>
     <g id="text_2">
      <!-- 1.0 -->
      <defs>
       <path d="M 37.25 0 
L 28.46875 0 
L 28.46875 56 
Q 25.296875 52.984375 20.140625 49.953125 
Q 14.984375 46.921875 10.890625 45.40625 
L 10.890625 53.90625 
Q 18.265625 57.375 23.78125 62.296875 
Q 29.296875 67.234375 31.59375 71.875 
L 37.25 71.875 
z
" id="ArialMT-31"/>
      </defs>
      <g style="fill:#262626;" transform="translate(88.9 266.1578125)scale(0.1 -0.1)">
       <use xlink:href="#ArialMT-31"/>
       <use x="55.615234375" xlink:href="#ArialMT-2e"/>
       <use x="83.3984375" xlink:href="#ArialMT-30"/>
      </g>
     </g>
    </g>
    <g id="xtick_3">
     <g id="line2d_7">
      <path clip-path="url(#p557b11c16c)" d="M 137.7 252 
L 137.7 28.8 
" style="fill:none;stroke:#ffffff;stroke-linecap:round;"/>
     </g>
     <g id="line2d_8">
      <g>
       <use style="fill:#262626;stroke:#262626;" x="137.7" xlink:href="#m8af77d1877" y="252.0"/>
      </g>
     </g>
     <g id="line2d_9">
      <g>
       <use style="fill:#262626;stroke:#262626;" x="137.7" xlink:href="#m8af77d1877" y="28.8"/>
      </g>
     </g>
     <g id="text_3">
      <!-- 1.5 -->
      <g style="fill:#262626;" transform="translate(130.75 266.1578125)scale(0.1 -0.1)">
       <use xlink:href="#ArialMT-31"/>
       <use x="55.615234375" xlink:href="#ArialMT-2e"/>
       <use x="83.3984375" xlink:href="#ArialMT-35"/>
      </g>
     </g>
    </g>
    <g id="xtick_4">
     <g id="line2d_10">
      <path clip-path="url(#p557b11c16c)" d="M 179.55 252 
L 179.55 28.8 
" style="fill:none;stroke:#ffffff;stroke-linecap:round;"/>
     </g>
     <g id="line2d_11">
      <g>
       <use style="fill:#262626;stroke:#262626;" x="179.55" xlink:href="#m8af77d1877" y="252.0"/>
      </g>
     </g>
     <g id="line2d_12">
      <g>
       <use style="fill:#262626;stroke:#262626;" x="179.55" xlink:href="#m8af77d1877" y="28.8"/>
      </g>
     </g>
     <g id="text_4">
      <!-- 2.0 -->
      <defs>
       <path d="M 50.34375 8.453125 
L 50.34375 0 
L 3.03125 0 
Q 2.9375 3.171875 4.046875 6.109375 
Q 5.859375 10.9375 9.828125 15.625 
Q 13.8125 20.3125 21.34375 26.46875 
Q 33.015625 36.03125 37.109375 41.625 
Q 41.21875 47.21875 41.21875 52.203125 
Q 41.21875 57.421875 37.46875 61 
Q 33.734375 64.59375 27.734375 64.59375 
Q 21.390625 64.59375 17.578125 60.78125 
Q 13.765625 56.984375 13.71875 50.25 
L 4.6875 51.171875 
Q 5.609375 61.28125 11.65625 66.578125 
Q 17.71875 71.875 27.9375 71.875 
Q 38.234375 71.875 44.234375 66.15625 
Q 50.25 60.453125 50.25 52 
Q 50.25 47.703125 48.484375 43.546875 
Q 46.734375 39.40625 42.65625 34.8125 
Q 38.578125 30.21875 29.109375 22.21875 
Q 21.1875 15.578125 18.9375 13.203125 
Q 16.703125 10.84375 15.234375 8.453125 
z
" id="ArialMT-32"/>
      </defs>
      <g style="fill:#262626;" transform="translate(172.6 266.1578125)scale(0.1 -0.1)">
       <use xlink:href="#ArialMT-32"/>
       <use x="55.615234375" xlink:href="#ArialMT-2e"/>
       <use x="83.3984375" xlink:href="#ArialMT-30"/>
      </g>
     </g>
    </g>
    <g id="xtick_5">
     <g id="line2d_13">
      <path clip-path="url(#p557b11c16c)" d="M 221.4 252 
L 221.4 28.8 
" style="fill:none;stroke:#ffffff;stroke-linecap:round;"/>
     </g>
     <g id="line2d_14">
      <g>
       <use style="fill:#262626;stroke:#262626;" x="221.4" xlink:href="#m8af77d1877" y="252.0"/>
      </g>
     </g>
     <g id="line2d_15">
      <g>
       <use style="fill:#262626;stroke:#262626;" x="221.4" xlink:href="#m8af77d1877" y="28.8"/>
      </g>
     </g>
     <g id="text_5">
      <!-- 2.5 -->
      <g style="fill:#262626;" transform="translate(214.45 266.1578125)scale(0.1 -0.1)">
       <use xlink:href="#ArialMT-32"/>
       <use x="55.615234375" xlink:href="#ArialMT-2e"/>
       <use x="83.3984375" xlink:href="#ArialMT-35"/>
      </g>
     </g>
    </g>
    <g id="xtick_6">
     <g id="line2d_16">
      <path clip-path="url(#p557b11c16c)" d="M 263.25 252 
L 263.25 28.8 
" style="fill:none;stroke:#ffffff;stroke-linecap:round;"/>
     </g>
     <g id="line2d_17">
      <g>
       <use style="fill:#262626;stroke:#262626;" x="263.25" xlink:href="#m8af77d1877" y="252.0"/>
      </g>
     </g>
     <g id="line2d_18">
      <g>
       <use style="fill:#262626;stroke:#262626;" x="263.25" xlink:href="#m8af77d1877" y="28.8"/>
      </g>
     </g>
     <g id="text_6">
      <!-- 3.0 -->
      <defs>
       <path d="M 4.203125 18.890625 
L 12.984375 20.0625 
Q 14.5 12.59375 18.140625 9.296875 
Q 21.78125 6 27 6 
Q 33.203125 6 37.46875 10.296875 
Q 41.75 14.59375 41.75 20.953125 
Q 41.75 27 37.796875 30.921875 
Q 33.84375 34.859375 27.734375 34.859375 
Q 25.25 34.859375 21.53125 33.890625 
L 22.515625 41.609375 
Q 23.390625 41.5 23.921875 41.5 
Q 29.546875 41.5 34.03125 44.421875 
Q 38.53125 47.359375 38.53125 53.46875 
Q 38.53125 58.296875 35.25 61.46875 
Q 31.984375 64.65625 26.8125 64.65625 
Q 21.6875 64.65625 18.265625 61.421875 
Q 14.84375 58.203125 13.875 51.765625 
L 5.078125 53.328125 
Q 6.6875 62.15625 12.390625 67.015625 
Q 18.109375 71.875 26.609375 71.875 
Q 32.46875 71.875 37.390625 69.359375 
Q 42.328125 66.84375 44.9375 62.5 
Q 47.5625 58.15625 47.5625 53.265625 
Q 47.5625 48.640625 45.0625 44.828125 
Q 42.578125 41.015625 37.703125 38.765625 
Q 44.046875 37.3125 47.5625 32.6875 
Q 51.078125 28.078125 51.078125 21.140625 
Q 51.078125 11.765625 44.234375 5.25 
Q 37.40625 -1.265625 26.953125 -1.265625 
Q 17.53125 -1.265625 11.296875 4.34375 
Q 5.078125 9.96875 4.203125 18.890625 
" id="ArialMT-33"/>
      </defs>
      <g style="fill:#262626;" transform="translate(256.3 266.1578125)scale(0.1 -0.1)">
       <use xlink:href="#ArialMT-33"/>
       <use x="55.615234375" xlink:href="#ArialMT-2e"/>
       <use x="83.3984375" xlink:href="#ArialMT-30"/>
      </g>
     </g>
    </g>
    <g id="xtick_7">
     <g id="line2d_19">
      <path clip-path="url(#p557b11c16c)" d="M 305.1 252 
L 305.1 28.8 
" style="fill:none;stroke:#ffffff;stroke-linecap:round;"/>
     </g>
     <g id="line2d_20">
      <g>
       <use style="fill:#262626;stroke:#262626;" x="305.1" xlink:href="#m8af77d1877" y="252.0"/>
      </g>
     </g>
     <g id="line2d_21">
      <g>
       <use style="fill:#262626;stroke:#262626;" x="305.1" xlink:href="#m8af77d1877" y="28.8"/>
      </g>
     </g>
     <g id="text_7">
      <!-- 3.5 -->
      <g style="fill:#262626;" transform="translate(298.15 266.1578125)scale(0.1 -0.1)">
       <use xlink:href="#ArialMT-33"/>
       <use x="55.615234375" xlink:href="#ArialMT-2e"/>
       <use x="83.3984375" xlink:href="#ArialMT-35"/>
      </g>
     </g>
    </g>
    <g id="xtick_8">
     <g id="line2d_22">
      <path clip-path="url(#p557b11c16c)" d="M 346.95 252 
L 346.95 28.8 
" style="fill:none;stroke:#ffffff;stroke-linecap:round;"/>
     </g>
     <g id="line2d_23">
      <g>
       <use style="fill:#262626;stroke:#262626;" x="346.95" xlink:href="#m8af77d1877" y="252.0"/>
      </g>
     </g>
     <g id="line2d_24">
      <g>
       <use style="fill:#262626;stroke:#262626;" x="346.95" xlink:href="#m8af77d1877" y="28.8"/>
      </g>
     </g>
     <g id="text_8">
      <!-- 4.0 -->
      <defs>
       <path d="M 32.328125 0 
L 32.328125 17.140625 
L 1.265625 17.140625 
L 1.265625 25.203125 
L 33.9375 71.578125 
L 41.109375 71.578125 
L 41.109375 25.203125 
L 50.78125 25.203125 
L 50.78125 17.140625 
L 41.109375 17.140625 
L 41.109375 0 
z
M 32.328125 25.203125 
L 32.328125 57.46875 
L 9.90625 25.203125 
z
" id="ArialMT-34"/>
      </defs>
      <g style="fill:#262626;" transform="translate(340.0 266.1578125)scale(0.1 -0.1)">
       <use xlink:href="#ArialMT-34"/>
       <use x="55.615234375" xlink:href="#ArialMT-2e"/>
       <use x="83.3984375" xlink:href="#ArialMT-30"/>
      </g>
     </g>
    </g>
    <g id="xtick_9">
     <g id="line2d_25">
      <path clip-path="url(#p557b11c16c)" d="M 388.8 252 
L 388.8 28.8 
" style="fill:none;stroke:#ffffff;stroke-linecap:round;"/>
     </g>
     <g id="line2d_26">
      <g>
       <use style="fill:#262626;stroke:#262626;" x="388.8" xlink:href="#m8af77d1877" y="252.0"/>
      </g>
     </g>
     <g id="line2d_27">
      <g>
       <use style="fill:#262626;stroke:#262626;" x="388.8" xlink:href="#m8af77d1877" y="28.8"/>
      </g>
     </g>
     <g id="text_9">
      <!-- 4.5 -->
      <g style="fill:#262626;" transform="translate(381.85 266.1578125)scale(0.1 -0.1)">
       <use xlink:href="#ArialMT-34"/>
       <use x="55.615234375" xlink:href="#ArialMT-2e"/>
       <use x="83.3984375" xlink:href="#ArialMT-35"/>
      </g>
     </g>
    </g>
   </g>
   <g id="matplotlib.axis_2">
    <g id="ytick_1">
     <g id="line2d_28">
      <path clip-path="url(#p557b11c16c)" d="M 54 252 
L 388.8 252 
" style="fill:none;stroke:#ffffff;stroke-linecap:round;"/>
     </g>
     <g id="line2d_29">
      <g>
       <use style="fill:#262626;stroke:#262626;" x="54.0" xlink:href="#m8af77d1877" y="252.0"/>
      </g>
     </g>
     <g id="line2d_30">
      <g>
       <use style="fill:#262626;stroke:#262626;" x="388.8" xlink:href="#m8af77d1877" y="252.0"/>
      </g>
     </g>
     <g id="text_10">
      <!-- 2 -->
      <g style="fill:#262626;" transform="translate(41.4390625 254.58515625)scale(0.1 -0.1)">
       <use xlink:href="#ArialMT-32"/>
      </g>
     </g>
    </g>
    <g id="ytick_2">
     <g id="line2d_31">
      <path clip-path="url(#p557b11c16c)" d="M 54 224.1 
L 388.8 224.1 
" style="fill:none;stroke:#ffffff;stroke-linecap:round;"/>
     </g>
     <g id="line2d_32">
      <g>
       <use style="fill:#262626;stroke:#262626;" x="54.0" xlink:href="#m8af77d1877" y="224.1"/>
      </g>
     </g>
     <g id="line2d_33">
      <g>
       <use style="fill:#262626;stroke:#262626;" x="388.8" xlink:href="#m8af77d1877" y="224.1"/>
      </g>
     </g>
     <g id="text_11">
      <!-- 4 -->
      <g style="fill:#262626;" transform="translate(41.4390625 226.68515625)scale(0.1 -0.1)">
       <use xlink:href="#ArialMT-34"/>
      </g>
     </g>
    </g>
    <g id="ytick_3">
     <g id="line2d_34">
      <path clip-path="url(#p557b11c16c)" d="M 54 196.2 
L 388.8 196.2 
" style="fill:none;stroke:#ffffff;stroke-linecap:round;"/>
     </g>
     <g id="line2d_35">
      <g>
       <use style="fill:#262626;stroke:#262626;" x="54.0" xlink:href="#m8af77d1877" y="196.2"/>
      </g>
     </g>
     <g id="line2d_36">
      <g>
       <use style="fill:#262626;stroke:#262626;" x="388.8" xlink:href="#m8af77d1877" y="196.2"/>
      </g>
     </g>
     <g id="text_12">
      <!-- 6 -->
      <defs>
       <path d="M 49.75 54.046875 
L 41.015625 53.375 
Q 39.84375 58.546875 37.703125 60.890625 
Q 34.125 64.65625 28.90625 64.65625 
Q 24.703125 64.65625 21.53125 62.3125 
Q 17.390625 59.28125 14.984375 53.46875 
Q 12.59375 47.65625 12.5 36.921875 
Q 15.671875 41.75 20.265625 44.09375 
Q 24.859375 46.4375 29.890625 46.4375 
Q 38.671875 46.4375 44.84375 39.96875 
Q 51.03125 33.5 51.03125 23.25 
Q 51.03125 16.5 48.125 10.71875 
Q 45.21875 4.9375 40.140625 1.859375 
Q 35.0625 -1.21875 28.609375 -1.21875 
Q 17.625 -1.21875 10.6875 6.859375 
Q 3.765625 14.9375 3.765625 33.5 
Q 3.765625 54.25 11.421875 63.671875 
Q 18.109375 71.875 29.4375 71.875 
Q 37.890625 71.875 43.28125 67.140625 
Q 48.6875 62.40625 49.75 54.046875 
M 13.875 23.1875 
Q 13.875 18.65625 15.796875 14.5 
Q 17.71875 10.359375 21.1875 8.171875 
Q 24.65625 6 28.46875 6 
Q 34.03125 6 38.03125 10.484375 
Q 42.046875 14.984375 42.046875 22.703125 
Q 42.046875 30.125 38.078125 34.390625 
Q 34.125 38.671875 28.125 38.671875 
Q 22.171875 38.671875 18.015625 34.390625 
Q 13.875 30.125 13.875 23.1875 
" id="ArialMT-36"/>
      </defs>
      <g style="fill:#262626;" transform="translate(41.4390625 198.78515625)scale(0.1 -0.1)">
       <use xlink:href="#ArialMT-36"/>
      </g>
     </g>
    </g>
    <g id="ytick_4">
     <g id="line2d_37">
      <path clip-path="url(#p557b11c16c)" d="M 54 168.3 
L 388.8 168.3 
" style="fill:none;stroke:#ffffff;stroke-linecap:round;"/>
     </g>
     <g id="line2d_38">
      <g>
       <use style="fill:#262626;stroke:#262626;" x="54.0" xlink:href="#m8af77d1877" y="168.3"/>
      </g>
     </g>
     <g id="line2d_39">
      <g>
       <use style="fill:#262626;stroke:#262626;" x="388.8" xlink:href="#m8af77d1877" y="168.3"/>
      </g>
     </g>
     <g id="text_13">
      <!-- 8 -->
      <defs>
       <path d="M 17.671875 38.8125 
Q 12.203125 40.828125 9.5625 44.53125 
Q 6.9375 48.25 6.9375 53.421875 
Q 6.9375 61.234375 12.546875 66.546875 
Q 18.171875 71.875 27.484375 71.875 
Q 36.859375 71.875 42.578125 66.421875 
Q 48.296875 60.984375 48.296875 53.171875 
Q 48.296875 48.1875 45.671875 44.5 
Q 43.0625 40.828125 37.75 38.8125 
Q 44.34375 36.671875 47.78125 31.875 
Q 51.21875 27.09375 51.21875 20.453125 
Q 51.21875 11.28125 44.71875 5.03125 
Q 38.234375 -1.21875 27.640625 -1.21875 
Q 17.046875 -1.21875 10.546875 5.046875 
Q 4.046875 11.328125 4.046875 20.703125 
Q 4.046875 27.6875 7.59375 32.390625 
Q 11.140625 37.109375 17.671875 38.8125 
M 15.921875 53.71875 
Q 15.921875 48.640625 19.1875 45.40625 
Q 22.46875 42.1875 27.6875 42.1875 
Q 32.765625 42.1875 36.015625 45.375 
Q 39.265625 48.578125 39.265625 53.21875 
Q 39.265625 58.0625 35.90625 61.359375 
Q 32.5625 64.65625 27.59375 64.65625 
Q 22.5625 64.65625 19.234375 61.421875 
Q 15.921875 58.203125 15.921875 53.71875 
M 13.09375 20.65625 
Q 13.09375 16.890625 14.875 13.375 
Q 16.65625 9.859375 20.171875 7.921875 
Q 23.6875 6 27.734375 6 
Q 34.03125 6 38.125 10.046875 
Q 42.234375 14.109375 42.234375 20.359375 
Q 42.234375 26.703125 38.015625 30.859375 
Q 33.796875 35.015625 27.4375 35.015625 
Q 21.234375 35.015625 17.15625 30.90625 
Q 13.09375 26.8125 13.09375 20.65625 
" id="ArialMT-38"/>
      </defs>
      <g style="fill:#262626;" transform="translate(41.4390625 170.88515625)scale(0.1 -0.1)">
       <use xlink:href="#ArialMT-38"/>
      </g>
     </g>
    </g>
    <g id="ytick_5">
     <g id="line2d_40">
      <path clip-path="url(#p557b11c16c)" d="M 54 140.4 
L 388.8 140.4 
" style="fill:none;stroke:#ffffff;stroke-linecap:round;"/>
     </g>
     <g id="line2d_41">
      <g>
       <use style="fill:#262626;stroke:#262626;" x="54.0" xlink:href="#m8af77d1877" y="140.4"/>
      </g>
     </g>
     <g id="line2d_42">
      <g>
       <use style="fill:#262626;stroke:#262626;" x="388.8" xlink:href="#m8af77d1877" y="140.4"/>
      </g>
     </g>
     <g id="text_14">
      <!-- 10 -->
      <g style="fill:#262626;" transform="translate(35.878125 142.98515625)scale(0.1 -0.1)">
       <use xlink:href="#ArialMT-31"/>
       <use x="55.615234375" xlink:href="#ArialMT-30"/>
      </g>
     </g>
    </g>
    <g id="ytick_6">
     <g id="line2d_43">
      <path clip-path="url(#p557b11c16c)" d="M 54 112.5 
L 388.8 112.5 
" style="fill:none;stroke:#ffffff;stroke-linecap:round;"/>
     </g>
     <g id="line2d_44">
      <g>
       <use style="fill:#262626;stroke:#262626;" x="54.0" xlink:href="#m8af77d1877" y="112.5"/>
      </g>
     </g>
     <g id="line2d_45">
      <g>
       <use style="fill:#262626;stroke:#262626;" x="388.8" xlink:href="#m8af77d1877" y="112.5"/>
      </g>
     </g>
     <g id="text_15">
      <!-- 12 -->
      <g style="fill:#262626;" transform="translate(35.878125 115.08515625)scale(0.1 -0.1)">
       <use xlink:href="#ArialMT-31"/>
       <use x="55.615234375" xlink:href="#ArialMT-32"/>
      </g>
     </g>
    </g>
    <g id="ytick_7">
     <g id="line2d_46">
      <path clip-path="url(#p557b11c16c)" d="M 54 84.6 
L 388.8 84.6 
" style="fill:none;stroke:#ffffff;stroke-linecap:round;"/>
     </g>
     <g id="line2d_47">
      <g>
       <use style="fill:#262626;stroke:#262626;" x="54.0" xlink:href="#m8af77d1877" y="84.6"/>
      </g>
     </g>
     <g id="line2d_48">
      <g>
       <use style="fill:#262626;stroke:#262626;" x="388.8" xlink:href="#m8af77d1877" y="84.6"/>
      </g>
     </g>
     <g id="text_16">
      <!-- 14 -->
      <g style="fill:#262626;" transform="translate(35.878125 87.18515625)scale(0.1 -0.1)">
       <use xlink:href="#ArialMT-31"/>
       <use x="55.615234375" xlink:href="#ArialMT-34"/>
      </g>
     </g>
    </g>
    <g id="ytick_8">
     <g id="line2d_49">
      <path clip-path="url(#p557b11c16c)" d="M 54 56.7 
L 388.8 56.7 
" style="fill:none;stroke:#ffffff;stroke-linecap:round;"/>
     </g>
     <g id="line2d_50">
      <g>
       <use style="fill:#262626;stroke:#262626;" x="54.0" xlink:href="#m8af77d1877" y="56.7"/>
      </g>
     </g>
     <g id="line2d_51">
      <g>
       <use style="fill:#262626;stroke:#262626;" x="388.8" xlink:href="#m8af77d1877" y="56.7"/>
      </g>
     </g>
     <g id="text_17">
      <!-- 16 -->
      <g style="fill:#262626;" transform="translate(35.878125 59.28515625)scale(0.1 -0.1)">
       <use xlink:href="#ArialMT-31"/>
       <use x="55.615234375" xlink:href="#ArialMT-36"/>
      </g>
     </g>
    </g>
    <g id="ytick_9">
     <g id="line2d_52">
      <path clip-path="url(#p557b11c16c)" d="M 54 28.8 
L 388.8 28.8 
" style="fill:none;stroke:#ffffff;stroke-linecap:round;"/>
     </g>
     <g id="line2d_53">
      <g>
       <use style="fill:#262626;stroke:#262626;" x="54.0" xlink:href="#m8af77d1877" y="28.8"/>
      </g>
     </g>
     <g id="line2d_54">
      <g>
       <use style="fill:#262626;stroke:#262626;" x="388.8" xlink:href="#m8af77d1877" y="28.8"/>
      </g>
     </g>
     <g id="text_18">
      <!-- 18 -->
      <g style="fill:#262626;" transform="translate(35.878125 31.38515625)scale(0.1 -0.1)">
       <use xlink:href="#ArialMT-31"/>
       <use x="55.615234375" xlink:href="#ArialMT-38"/>
      </g>
     </g>
    </g>
   </g>
   <g id="PolyCollection_1">
    <defs>
     <path d="M 116.775 -189.45 
L 74.925 -189.45 
L 74.925 -189.45 
L 74.925 -189.45 
L 74.925 -189.45 
L 74.925 -189.45 
L 74.925 -189.45 
L 74.925 -189.45 
L 74.925 -189.45 
L 74.925 -189.45 
L 74.925 -189.45 
L 74.925 -189.45 
L 74.925 -189.45 
L 74.925 -189.45 
L 74.925 -189.45 
L 74.925 -189.45 
L 74.925 -189.45 
L 74.925 -189.45 
L 74.925 -189.45 
L 74.925 -189.45 
L 74.925 -189.45 
L 74.925 -189.45 
L 74.925 -189.45 
L 74.925 -189.45 
L 74.925 -189.45 
L 74.925 -189.45 
L 74.925 -189.45 
L 74.925 -189.45 
L 74.925 -189.45 
L 74.925 -189.45 
L 74.925 -189.45 
L 74.925 -189.45 
L 74.925 -189.45 
L 74.925 -189.45 
L 74.925 -189.45 
L 74.925 -189.45 
L 74.925 -189.45 
L 74.925 -189.45 
L 74.925 -189.45 
L 74.925 -189.45 
L 74.925 -189.45 
L 74.925 -189.45 
L 74.925 -189.45 
L 74.925 -189.45 
L 74.925 -189.45 
L 74.925 -189.45 
L 74.925 -189.45 
L 74.925 -189.45 
L 74.925 -189.45 
L 74.925 -189.45 
L 74.925 -189.45 
L 74.925 -189.45 
L 74.925 -189.45 
L 74.925 -189.45 
L 74.925 -189.45 
L 74.925 -189.45 
L 74.925 -189.45 
L 74.925 -189.45 
L 74.925 -189.45 
L 74.925 -189.45 
L 74.925 -189.45 
L 74.925 -189.45 
L 74.925 -189.45 
L 74.925 -189.45 
L 74.925 -189.45 
L 74.925 -189.45 
L 74.925 -189.45 
L 74.925 -189.45 
L 74.925 -189.45 
L 74.925 -189.45 
L 74.925 -189.45 
L 74.925 -189.45 
L 74.925 -189.45 
L 74.925 -189.45 
L 74.925 -189.45 
L 74.925 -189.45 
L 74.925 -189.45 
L 74.925 -189.45 
L 74.925 -189.45 
L 74.925 -189.45 
L 74.925 -189.45 
L 74.925 -189.45 
L 74.925 -189.45 
L 74.925 -189.45 
L 74.925 -189.45 
L 74.925 -189.45 
L 74.925 -189.45 
L 74.925 -189.45 
L 74.925 -189.45 
L 74.925 -189.45 
L 74.925 -189.45 
L 74.925 -189.45 
L 74.925 -189.45 
L 74.925 -189.45 
L 74.925 -189.45 
L 74.925 -189.45 
L 74.925 -189.45 
L 74.925 -189.45 
L 74.925 -189.45 
L 74.925 -189.45 
L 74.925 -189.45 
L 116.775 -189.45 
L 116.775 -189.45 
L 116.775 -189.45 
L 116.775 -189.45 
L 116.775 -189.45 
L 116.775 -189.45 
L 116.775 -189.45 
L 116.775 -189.45 
L 116.775 -189.45 
L 116.775 -189.45 
L 116.775 -189.45 
L 116.775 -189.45 
L 116.775 -189.45 
L 116.775 -189.45 
L 116.775 -189.45 
L 116.775 -189.45 
L 116.775 -189.45 
L 116.775 -189.45 
L 116.775 -189.45 
L 116.775 -189.45 
L 116.775 -189.45 
L 116.775 -189.45 
L 116.775 -189.45 
L 116.775 -189.45 
L 116.775 -189.45 
L 116.775 -189.45 
L 116.775 -189.45 
L 116.775 -189.45 
L 116.775 -189.45 
L 116.775 -189.45 
L 116.775 -189.45 
L 116.775 -189.45 
L 116.775 -189.45 
L 116.775 -189.45 
L 116.775 -189.45 
L 116.775 -189.45 
L 116.775 -189.45 
L 116.775 -189.45 
L 116.775 -189.45 
L 116.775 -189.45 
L 116.775 -189.45 
L 116.775 -189.45 
L 116.775 -189.45 
L 116.775 -189.45 
L 116.775 -189.45 
L 116.775 -189.45 
L 116.775 -189.45 
L 116.775 -189.45 
L 116.775 -189.45 
L 116.775 -189.45 
L 116.775 -189.45 
L 116.775 -189.45 
L 116.775 -189.45 
L 116.775 -189.45 
L 116.775 -189.45 
L 116.775 -189.45 
L 116.775 -189.45 
L 116.775 -189.45 
L 116.775 -189.45 
L 116.775 -189.45 
L 116.775 -189.45 
L 116.775 -189.45 
L 116.775 -189.45 
L 116.775 -189.45 
L 116.775 -189.45 
L 116.775 -189.45 
L 116.775 -189.45 
L 116.775 -189.45 
L 116.775 -189.45 
L 116.775 -189.45 
L 116.775 -189.45 
L 116.775 -189.45 
L 116.775 -189.45 
L 116.775 -189.45 
L 116.775 -189.45 
L 116.775 -189.45 
L 116.775 -189.45 
L 116.775 -189.45 
L 116.775 -189.45 
L 116.775 -189.45 
L 116.775 -189.45 
L 116.775 -189.45 
L 116.775 -189.45 
L 116.775 -189.45 
L 116.775 -189.45 
L 116.775 -189.45 
L 116.775 -189.45 
L 116.775 -189.45 
L 116.775 -189.45 
L 116.775 -189.45 
L 116.775 -189.45 
L 116.775 -189.45 
L 116.775 -189.45 
L 116.775 -189.45 
L 116.775 -189.45 
L 116.775 -189.45 
L 116.775 -189.45 
L 116.775 -189.45 
L 116.775 -189.45 
L 116.775 -189.45 
L 116.775 -189.45 
z
" id="m8d08e3b81d" style="stroke:#000000;stroke-opacity:0.3;stroke-width:0.3;"/>
    </defs>
    <g clip-path="url(#p557b11c16c)">
     <use style="fill:#bfbf00;fill-opacity:0.3;stroke:#000000;stroke-opacity:0.3;stroke-width:0.3;" x="0.0" xlink:href="#m8d08e3b81d" y="288.0"/>
    </g>
   </g>
   <g id="PolyCollection_2">
    <defs>
     <path d="M 197.990481 -36 
L 161.109519 -36 
L 161.006951 -37.690909 
L 160.906593 -39.381818 
L 160.808455 -41.072727 
L 160.712542 -42.763636 
L 160.618859 -44.454545 
L 160.52741 -46.145455 
L 160.438197 -47.836364 
L 160.351222 -49.527273 
L 160.266484 -51.218182 
L 160.183982 -52.909091 
L 160.103713 -54.6 
L 160.025675 -56.290909 
L 159.949863 -57.981818 
L 159.876271 -59.672727 
L 159.804893 -61.363636 
L 159.735722 -63.054545 
L 159.668751 -64.745455 
L 159.60397 -66.436364 
L 159.541372 -68.127273 
L 159.480946 -69.818182 
L 159.422681 -71.509091 
L 159.366569 -73.2 
L 159.312596 -74.890909 
L 159.260754 -76.581818 
L 159.211029 -78.272727 
L 159.16341 -79.963636 
L 159.117886 -81.654545 
L 159.074445 -83.345455 
L 159.033075 -85.036364 
L 158.993765 -86.727273 
L 158.956502 -88.418182 
L 158.921276 -90.109091 
L 158.888076 -91.8 
L 158.85689 -93.490909 
L 158.827709 -95.181818 
L 158.800522 -96.872727 
L 158.77532 -98.563636 
L 158.752093 -100.254545 
L 158.730834 -101.945455 
L 158.711533 -103.636364 
L 158.694185 -105.327273 
L 158.678781 -107.018182 
L 158.665317 -108.709091 
L 158.653786 -110.4 
L 158.644184 -112.090909 
L 158.636507 -113.781818 
L 158.630752 -115.472727 
L 158.626917 -117.163636 
L 158.625 -118.854545 
L 158.625 -120.545455 
L 158.626917 -122.236364 
L 158.630752 -123.927273 
L 158.636507 -125.618182 
L 158.644184 -127.309091 
L 158.653786 -129 
L 158.665317 -130.690909 
L 158.678781 -132.381818 
L 158.694185 -134.072727 
L 158.711533 -135.763636 
L 158.730834 -137.454545 
L 158.752093 -139.145455 
L 158.77532 -140.836364 
L 158.800522 -142.527273 
L 158.827709 -144.218182 
L 158.85689 -145.909091 
L 158.888076 -147.6 
L 158.921276 -149.290909 
L 158.956502 -150.981818 
L 158.993765 -152.672727 
L 159.033075 -154.363636 
L 159.074445 -156.054545 
L 159.117886 -157.745455 
L 159.16341 -159.436364 
L 159.211029 -161.127273 
L 159.260754 -162.818182 
L 159.312596 -164.509091 
L 159.366569 -166.2 
L 159.422681 -167.890909 
L 159.480946 -169.581818 
L 159.541372 -171.272727 
L 159.60397 -172.963636 
L 159.668751 -174.654545 
L 159.735722 -176.345455 
L 159.804893 -178.036364 
L 159.876271 -179.727273 
L 159.949863 -181.418182 
L 160.025675 -183.109091 
L 160.103713 -184.8 
L 160.183982 -186.490909 
L 160.266484 -188.181818 
L 160.351222 -189.872727 
L 160.438197 -191.563636 
L 160.52741 -193.254545 
L 160.618859 -194.945455 
L 160.712542 -196.636364 
L 160.808455 -198.327273 
L 160.906593 -200.018182 
L 161.006951 -201.709091 
L 161.109519 -203.4 
L 197.990481 -203.4 
L 197.990481 -203.4 
L 198.093049 -201.709091 
L 198.193407 -200.018182 
L 198.291545 -198.327273 
L 198.387458 -196.636364 
L 198.481141 -194.945455 
L 198.57259 -193.254545 
L 198.661803 -191.563636 
L 198.748778 -189.872727 
L 198.833516 -188.181818 
L 198.916018 -186.490909 
L 198.996287 -184.8 
L 199.074325 -183.109091 
L 199.150137 -181.418182 
L 199.223729 -179.727273 
L 199.295107 -178.036364 
L 199.364278 -176.345455 
L 199.431249 -174.654545 
L 199.49603 -172.963636 
L 199.558628 -171.272727 
L 199.619054 -169.581818 
L 199.677319 -167.890909 
L 199.733431 -166.2 
L 199.787404 -164.509091 
L 199.839246 -162.818182 
L 199.888971 -161.127273 
L 199.93659 -159.436364 
L 199.982114 -157.745455 
L 200.025555 -156.054545 
L 200.066925 -154.363636 
L 200.106235 -152.672727 
L 200.143498 -150.981818 
L 200.178724 -149.290909 
L 200.211924 -147.6 
L 200.24311 -145.909091 
L 200.272291 -144.218182 
L 200.299478 -142.527273 
L 200.32468 -140.836364 
L 200.347907 -139.145455 
L 200.369166 -137.454545 
L 200.388467 -135.763636 
L 200.405815 -134.072727 
L 200.421219 -132.381818 
L 200.434683 -130.690909 
L 200.446214 -129 
L 200.455816 -127.309091 
L 200.463493 -125.618182 
L 200.469248 -123.927273 
L 200.473083 -122.236364 
L 200.475 -120.545455 
L 200.475 -118.854545 
L 200.473083 -117.163636 
L 200.469248 -115.472727 
L 200.463493 -113.781818 
L 200.455816 -112.090909 
L 200.446214 -110.4 
L 200.434683 -108.709091 
L 200.421219 -107.018182 
L 200.405815 -105.327273 
L 200.388467 -103.636364 
L 200.369166 -101.945455 
L 200.347907 -100.254545 
L 200.32468 -98.563636 
L 200.299478 -96.872727 
L 200.272291 -95.181818 
L 200.24311 -93.490909 
L 200.211924 -91.8 
L 200.178724 -90.109091 
L 200.143498 -88.418182 
L 200.106235 -86.727273 
L 200.066925 -85.036364 
L 200.025555 -83.345455 
L 199.982114 -81.654545 
L 199.93659 -79.963636 
L 199.888971 -78.272727 
L 199.839246 -76.581818 
L 199.787404 -74.890909 
L 199.733431 -73.2 
L 199.677319 -71.509091 
L 199.619054 -69.818182 
L 199.558628 -68.127273 
L 199.49603 -66.436364 
L 199.431249 -64.745455 
L 199.364278 -63.054545 
L 199.295107 -61.363636 
L 199.223729 -59.672727 
L 199.150137 -57.981818 
L 199.074325 -56.290909 
L 198.996287 -54.6 
L 198.916018 -52.909091 
L 198.833516 -51.218182 
L 198.748778 -49.527273 
L 198.661803 -47.836364 
L 198.57259 -46.145455 
L 198.481141 -44.454545 
L 198.387458 -42.763636 
L 198.291545 -41.072727 
L 198.193407 -39.381818 
L 198.093049 -37.690909 
L 197.990481 -36 
z
" id="md7c5464c16" style="stroke:#000000;stroke-opacity:0.3;stroke-width:0.3;"/>
    </defs>
    <g clip-path="url(#p557b11c16c)">
     <use style="fill:#bfbf00;fill-opacity:0.3;stroke:#000000;stroke-opacity:0.3;stroke-width:0.3;" x="0.0" xlink:href="#md7c5464c16" y="288.0"/>
    </g>
   </g>
   <g id="PolyCollection_3">
    <defs>
     <path d="M 275.319282 -133.65 
L 251.180718 -133.65 
L 251.080445 -134.777273 
L 250.981605 -135.904545 
L 250.884107 -137.031818 
L 250.787859 -138.159091 
L 250.692761 -139.286364 
L 250.598708 -140.413636 
L 250.50559 -141.540909 
L 250.413294 -142.668182 
L 250.321703 -143.795455 
L 250.230695 -144.922727 
L 250.140147 -146.05 
L 250.049932 -147.177273 
L 249.959924 -148.304545 
L 249.869993 -149.431818 
L 249.78001 -150.559091 
L 249.689844 -151.686364 
L 249.599367 -152.813636 
L 249.50845 -153.940909 
L 249.416967 -155.068182 
L 249.324793 -156.195455 
L 249.231808 -157.322727 
L 249.137894 -158.45 
L 249.042937 -159.577273 
L 248.946828 -160.704545 
L 248.849464 -161.831818 
L 248.750748 -162.959091 
L 248.650587 -164.086364 
L 248.548899 -165.213636 
L 248.445607 -166.340909 
L 248.340642 -167.468182 
L 248.233944 -168.595455 
L 248.125464 -169.722727 
L 248.015159 -170.85 
L 247.902999 -171.977273 
L 247.788963 -173.104545 
L 247.67304 -174.231818 
L 247.555231 -175.359091 
L 247.435548 -176.486364 
L 247.314015 -177.613636 
L 247.190666 -178.740909 
L 247.06555 -179.868182 
L 246.938725 -180.995455 
L 246.810262 -182.122727 
L 246.680244 -183.25 
L 246.548768 -184.377273 
L 246.41594 -185.504545 
L 246.28188 -186.631818 
L 246.146718 -187.759091 
L 246.010599 -188.886364 
L 245.873676 -190.013636 
L 245.736114 -191.140909 
L 245.59809 -192.268182 
L 245.459791 -193.395455 
L 245.321412 -194.522727 
L 245.18316 -195.65 
L 245.045251 -196.777273 
L 244.907909 -197.904545 
L 244.771365 -199.031818 
L 244.635858 -200.159091 
L 244.501636 -201.286364 
L 244.36895 -202.413636 
L 244.238059 -203.540909 
L 244.109225 -204.668182 
L 243.982715 -205.795455 
L 243.858798 -206.922727 
L 243.737748 -208.05 
L 243.619838 -209.177273 
L 243.505345 -210.304545 
L 243.394543 -211.431818 
L 243.287707 -212.559091 
L 243.18511 -213.686364 
L 243.087024 -214.813636 
L 242.993716 -215.940909 
L 242.90545 -217.068182 
L 242.822485 -218.195455 
L 242.745076 -219.322727 
L 242.673468 -220.45 
L 242.607904 -221.577273 
L 242.548615 -222.704545 
L 242.495825 -223.831818 
L 242.449749 -224.959091 
L 242.410592 -226.086364 
L 242.378549 -227.213636 
L 242.353803 -228.340909 
L 242.336525 -229.468182 
L 242.326875 -230.595455 
L 242.325 -231.722727 
L 242.331033 -232.85 
L 242.345093 -233.977273 
L 242.367287 -235.104545 
L 242.397706 -236.231818 
L 242.436427 -237.359091 
L 242.483513 -238.486364 
L 242.53901 -239.613636 
L 242.602949 -240.740909 
L 242.675348 -241.868182 
L 242.756208 -242.995455 
L 242.845513 -244.122727 
L 242.943235 -245.25 
L 283.556765 -245.25 
L 283.556765 -245.25 
L 283.654487 -244.122727 
L 283.743792 -242.995455 
L 283.824652 -241.868182 
L 283.897051 -240.740909 
L 283.96099 -239.613636 
L 284.016487 -238.486364 
L 284.063573 -237.359091 
L 284.102294 -236.231818 
L 284.132713 -235.104545 
L 284.154907 -233.977273 
L 284.168967 -232.85 
L 284.175 -231.722727 
L 284.173125 -230.595455 
L 284.163475 -229.468182 
L 284.146197 -228.340909 
L 284.121451 -227.213636 
L 284.089408 -226.086364 
L 284.050251 -224.959091 
L 284.004175 -223.831818 
L 283.951385 -222.704545 
L 283.892096 -221.577273 
L 283.826532 -220.45 
L 283.754924 -219.322727 
L 283.677515 -218.195455 
L 283.59455 -217.068182 
L 283.506284 -215.940909 
L 283.412976 -214.813636 
L 283.31489 -213.686364 
L 283.212293 -212.559091 
L 283.105457 -211.431818 
L 282.994655 -210.304545 
L 282.880162 -209.177273 
L 282.762252 -208.05 
L 282.641202 -206.922727 
L 282.517285 -205.795455 
L 282.390775 -204.668182 
L 282.261941 -203.540909 
L 282.13105 -202.413636 
L 281.998364 -201.286364 
L 281.864142 -200.159091 
L 281.728635 -199.031818 
L 281.592091 -197.904545 
L 281.454749 -196.777273 
L 281.31684 -195.65 
L 281.178588 -194.522727 
L 281.040209 -193.395455 
L 280.90191 -192.268182 
L 280.763886 -191.140909 
L 280.626324 -190.013636 
L 280.489401 -188.886364 
L 280.353282 -187.759091 
L 280.21812 -186.631818 
L 280.08406 -185.504545 
L 279.951232 -184.377273 
L 279.819756 -183.25 
L 279.689738 -182.122727 
L 279.561275 -180.995455 
L 279.43445 -179.868182 
L 279.309334 -178.740909 
L 279.185985 -177.613636 
L 279.064452 -176.486364 
L 278.944769 -175.359091 
L 278.82696 -174.231818 
L 278.711037 -173.104545 
L 278.597001 -171.977273 
L 278.484841 -170.85 
L 278.374536 -169.722727 
L 278.266056 -168.595455 
L 278.159358 -167.468182 
L 278.054393 -166.340909 
L 277.951101 -165.213636 
L 277.849413 -164.086364 
L 277.749252 -162.959091 
L 277.650536 -161.831818 
L 277.553172 -160.704545 
L 277.457063 -159.577273 
L 277.362106 -158.45 
L 277.268192 -157.322727 
L 277.175207 -156.195455 
L 277.083033 -155.068182 
L 276.99155 -153.940909 
L 276.900633 -152.813636 
L 276.810156 -151.686364 
L 276.71999 -150.559091 
L 276.630007 -149.431818 
L 276.540076 -148.304545 
L 276.450068 -147.177273 
L 276.359853 -146.05 
L 276.269305 -144.922727 
L 276.178297 -143.795455 
L 276.086706 -142.668182 
L 275.99441 -141.540909 
L 275.901292 -140.413636 
L 275.807239 -139.286364 
L 275.712141 -138.159091 
L 275.615893 -137.031818 
L 275.518395 -135.904545 
L 275.419555 -134.777273 
L 275.319282 -133.65 
z
" id="m4c69908012" style="stroke:#000000;stroke-opacity:0.3;stroke-width:0.3;"/>
    </defs>
    <g clip-path="url(#p557b11c16c)">
     <use style="fill:#bfbf00;fill-opacity:0.3;stroke:#000000;stroke-opacity:0.3;stroke-width:0.3;" x="0.0" xlink:href="#m4c69908012" y="288.0"/>
    </g>
   </g>
   <g id="PolyCollection_4">
    <defs>
     <path d="M 362.233815 -147.6 
L 331.666185 -147.6 
L 331.385568 -148.445455 
L 331.109002 -149.290909 
L 330.836809 -150.136364 
L 330.569307 -150.981818 
L 330.306812 -151.827273 
L 330.049637 -152.672727 
L 329.798088 -153.518182 
L 329.552467 -154.363636 
L 329.313071 -155.209091 
L 329.08019 -156.054545 
L 328.854108 -156.9 
L 328.635103 -157.745455 
L 328.423441 -158.590909 
L 328.219384 -159.436364 
L 328.023183 -160.281818 
L 327.835078 -161.127273 
L 327.655301 -161.972727 
L 327.48407 -162.818182 
L 327.321594 -163.663636 
L 327.168068 -164.509091 
L 327.023672 -165.354545 
L 326.888576 -166.2 
L 326.762931 -167.045455 
L 326.646875 -167.890909 
L 326.540529 -168.736364 
L 326.443997 -169.581818 
L 326.357367 -170.427273 
L 326.280707 -171.272727 
L 326.214067 -172.118182 
L 326.157478 -172.963636 
L 326.110952 -173.809091 
L 326.07448 -174.654545 
L 326.048034 -175.5 
L 326.031564 -176.345455 
L 326.025 -177.190909 
L 326.028252 -178.036364 
L 326.041209 -178.881818 
L 326.063739 -179.727273 
L 326.095689 -180.572727 
L 326.13689 -181.418182 
L 326.187148 -182.263636 
L 326.246255 -183.109091 
L 326.313982 -183.954545 
L 326.390083 -184.8 
L 326.474298 -185.645455 
L 326.56635 -186.490909 
L 326.665946 -187.336364 
L 326.772782 -188.181818 
L 326.886543 -189.027273 
L 327.006903 -189.872727 
L 327.133526 -190.718182 
L 327.26607 -191.563636 
L 327.404187 -192.409091 
L 327.547526 -193.254545 
L 327.695732 -194.1 
L 327.84845 -194.945455 
L 328.005327 -195.790909 
L 328.166013 -196.636364 
L 328.33016 -197.481818 
L 328.497428 -198.327273 
L 328.667487 -199.172727 
L 328.840012 -200.018182 
L 329.014692 -200.863636 
L 329.191228 -201.709091 
L 329.369334 -202.554545 
L 329.548739 -203.4 
L 329.729189 -204.245455 
L 329.910446 -205.090909 
L 330.09229 -205.936364 
L 330.274521 -206.781818 
L 330.456957 -207.627273 
L 330.639436 -208.472727 
L 330.821816 -209.318182 
L 331.003977 -210.163636 
L 331.185815 -211.009091 
L 331.367251 -211.854545 
L 331.548222 -212.7 
L 331.728685 -213.545455 
L 331.908618 -214.390909 
L 332.088014 -215.236364 
L 332.266884 -216.081818 
L 332.445255 -216.927273 
L 332.62317 -217.772727 
L 332.800684 -218.618182 
L 332.977864 -219.463636 
L 333.154791 -220.309091 
L 333.331553 -221.154545 
L 333.508245 -222 
L 333.684972 -222.845455 
L 333.861842 -223.690909 
L 334.038965 -224.536364 
L 334.216455 -225.381818 
L 334.394424 -226.227273 
L 334.572986 -227.072727 
L 334.752247 -227.918182 
L 334.932314 -228.763636 
L 335.113284 -229.609091 
L 335.295249 -230.454545 
L 335.478293 -231.3 
L 358.421707 -231.3 
L 358.421707 -231.3 
L 358.604751 -230.454545 
L 358.786716 -229.609091 
L 358.967686 -228.763636 
L 359.147753 -227.918182 
L 359.327014 -227.072727 
L 359.505576 -226.227273 
L 359.683545 -225.381818 
L 359.861035 -224.536364 
L 360.038158 -223.690909 
L 360.215028 -222.845455 
L 360.391755 -222 
L 360.568447 -221.154545 
L 360.745209 -220.309091 
L 360.922136 -219.463636 
L 361.099316 -218.618182 
L 361.27683 -217.772727 
L 361.454745 -216.927273 
L 361.633116 -216.081818 
L 361.811986 -215.236364 
L 361.991382 -214.390909 
L 362.171315 -213.545455 
L 362.351778 -212.7 
L 362.532749 -211.854545 
L 362.714185 -211.009091 
L 362.896023 -210.163636 
L 363.078184 -209.318182 
L 363.260564 -208.472727 
L 363.443043 -207.627273 
L 363.625479 -206.781818 
L 363.80771 -205.936364 
L 363.989554 -205.090909 
L 364.170811 -204.245455 
L 364.351261 -203.4 
L 364.530666 -202.554545 
L 364.708772 -201.709091 
L 364.885308 -200.863636 
L 365.059988 -200.018182 
L 365.232513 -199.172727 
L 365.402572 -198.327273 
L 365.56984 -197.481818 
L 365.733987 -196.636364 
L 365.894673 -195.790909 
L 366.05155 -194.945455 
L 366.204268 -194.1 
L 366.352474 -193.254545 
L 366.495813 -192.409091 
L 366.63393 -191.563636 
L 366.766474 -190.718182 
L 366.893097 -189.872727 
L 367.013457 -189.027273 
L 367.127218 -188.181818 
L 367.234054 -187.336364 
L 367.33365 -186.490909 
L 367.425702 -185.645455 
L 367.509917 -184.8 
L 367.586018 -183.954545 
L 367.653745 -183.109091 
L 367.712852 -182.263636 
L 367.76311 -181.418182 
L 367.804311 -180.572727 
L 367.836261 -179.727273 
L 367.858791 -178.881818 
L 367.871748 -178.036364 
L 367.875 -177.190909 
L 367.868436 -176.345455 
L 367.851966 -175.5 
L 367.82552 -174.654545 
L 367.789048 -173.809091 
L 367.742522 -172.963636 
L 367.685933 -172.118182 
L 367.619293 -171.272727 
L 367.542633 -170.427273 
L 367.456003 -169.581818 
L 367.359471 -168.736364 
L 367.253125 -167.890909 
L 367.137069 -167.045455 
L 367.011424 -166.2 
L 366.876328 -165.354545 
L 366.731932 -164.509091 
L 366.578406 -163.663636 
L 366.41593 -162.818182 
L 366.244699 -161.972727 
L 366.064922 -161.127273 
L 365.876817 -160.281818 
L 365.680616 -159.436364 
L 365.476559 -158.590909 
L 365.264897 -157.745455 
L 365.045892 -156.9 
L 364.81981 -156.054545 
L 364.586929 -155.209091 
L 364.347533 -154.363636 
L 364.101912 -153.518182 
L 363.850363 -152.672727 
L 363.593188 -151.827273 
L 363.330693 -150.981818 
L 363.063191 -150.136364 
L 362.790998 -149.290909 
L 362.514432 -148.445455 
L 362.233815 -147.6 
z
" id="m6405c70078" style="stroke:#000000;stroke-opacity:0.3;stroke-width:0.3;"/>
    </defs>
    <g clip-path="url(#p557b11c16c)">
     <use style="fill:#bfbf00;fill-opacity:0.3;stroke:#000000;stroke-opacity:0.3;stroke-width:0.3;" x="0.0" xlink:href="#m6405c70078" y="288.0"/>
    </g>
   </g>
   <g id="LineCollection_1">
    <path clip-path="url(#p557b11c16c)" d="M 85.3875 98.55 
L 106.3125 98.55 
" style="fill:none;stroke:#ff0000;stroke-width:1.75;"/>
    <path clip-path="url(#p557b11c16c)" d="M 169.0875 84.6 
L 190.0125 84.6 
" style="fill:none;stroke:#ff0000;stroke-width:1.75;"/>
    <path clip-path="url(#p557b11c16c)" d="M 252.7875 42.75 
L 273.7125 42.75 
" style="fill:none;stroke:#ff0000;stroke-width:1.75;"/>
    <path clip-path="url(#p557b11c16c)" d="M 336.4875 56.7 
L 357.4125 56.7 
" style="fill:none;stroke:#ff0000;stroke-width:1.75;"/>
   </g>
   <g id="LineCollection_2">
    <path clip-path="url(#p557b11c16c)" d="M 85.3875 98.55 
L 106.3125 98.55 
" style="fill:none;stroke:#ff0000;stroke-width:1.75;"/>
    <path clip-path="url(#p557b11c16c)" d="M 169.0875 252 
L 190.0125 252 
" style="fill:none;stroke:#ff0000;stroke-width:1.75;"/>
    <path clip-path="url(#p557b11c16c)" d="M 252.7875 154.35 
L 273.7125 154.35 
" style="fill:none;stroke:#ff0000;stroke-width:1.75;"/>
    <path clip-path="url(#p557b11c16c)" d="M 336.4875 140.4 
L 357.4125 140.4 
" style="fill:none;stroke:#ff0000;stroke-width:1.75;"/>
   </g>
   <g id="LineCollection_3">
    <path clip-path="url(#p557b11c16c)" d="M 95.85 98.55 
L 95.85 98.55 
" style="fill:none;stroke:#ff0000;stroke-width:1.75;"/>
    <path clip-path="url(#p557b11c16c)" d="M 179.55 252 
L 179.55 84.6 
" style="fill:none;stroke:#ff0000;stroke-width:1.75;"/>
    <path clip-path="url(#p557b11c16c)" d="M 263.25 154.35 
L 263.25 42.75 
" style="fill:none;stroke:#ff0000;stroke-width:1.75;"/>
    <path clip-path="url(#p557b11c16c)" d="M 346.95 140.4 
L 346.95 56.7 
" style="fill:none;stroke:#ff0000;stroke-width:1.75;"/>
   </g>
   <g id="line2d_55">
    <path clip-path="url(#p557b11c16c)" d="M 54 125.40375 
L 388.8 89.13375 
" style="fill:none;stroke:#4c72b0;stroke-dasharray:6.000000,6.000000;stroke-dashoffset:0.0;stroke-width:1.75;"/>
   </g>
   <g id="patch_3">
    <path d="M 54 252 
L 388.8 252 
" style="fill:none;"/>
   </g>
   <g id="patch_4">
    <path d="M 54 252 
L 54 28.8 
" style="fill:none;"/>
   </g>
   <g id="patch_5">
    <path d="M 388.8 252 
L 388.8 28.8 
" style="fill:none;"/>
   </g>
   <g id="patch_6">
    <path d="M 54 28.8 
L 388.8 28.8 
" style="fill:none;"/>
   </g>
   <g id="legend_1">
    <g id="line2d_56">
     <path d="M 229.3 237.3 
L 249.3 237.3 
" style="fill:none;stroke:#4c72b0;stroke-dasharray:6.000000,6.000000;stroke-dashoffset:0.0;stroke-width:1.75;"/>
    </g>
    <g id="line2d_57"/>
    <g id="text_19">
     <!-- $y = 0.65x + 10.75$ ($p=0.75$) -->
     <defs>
      <path d="M 9.28125 0 
L 9.28125 3.515625 
Q 21.78125 3.515625 21.78125 6.6875 
L 21.78125 59.1875 
Q 16.609375 56.6875 8.6875 56.6875 
L 8.6875 60.203125 
Q 20.953125 60.203125 27.203125 66.609375 
L 28.609375 66.609375 
Q 28.953125 66.609375 29.265625 66.328125 
Q 29.59375 66.0625 29.59375 65.71875 
L 29.59375 6.6875 
Q 29.59375 3.515625 42.09375 3.515625 
L 42.09375 0 
z
" id="Cmr10-31"/>
      <path d="M 25 -2.203125 
Q 12.75 -2.203125 8.328125 7.875 
Q 3.90625 17.96875 3.90625 31.890625 
Q 3.90625 40.578125 5.484375 48.234375 
Q 7.078125 55.90625 11.78125 61.25 
Q 16.5 66.609375 25 66.609375 
Q 31.59375 66.609375 35.78125 63.375 
Q 39.984375 60.15625 42.1875 55.046875 
Q 44.390625 49.953125 45.1875 44.109375 
Q 46 38.28125 46 31.890625 
Q 46 23.296875 44.40625 15.796875 
Q 42.828125 8.296875 38.1875 3.046875 
Q 33.546875 -2.203125 25 -2.203125 
M 25 0.390625 
Q 30.5625 0.390625 33.296875 6.09375 
Q 36.03125 11.8125 36.671875 18.75 
Q 37.3125 25.6875 37.3125 33.5 
Q 37.3125 41.015625 36.671875 47.359375 
Q 36.03125 53.71875 33.3125 58.859375 
Q 30.609375 64.015625 25 64.015625 
Q 19.34375 64.015625 16.609375 58.828125 
Q 13.875 53.65625 13.234375 47.328125 
Q 12.59375 41.015625 12.59375 33.5 
Q 12.59375 27.9375 12.859375 23 
Q 13.140625 18.0625 14.3125 12.8125 
Q 15.484375 7.5625 18.09375 3.96875 
Q 20.703125 0.390625 25 0.390625 
" id="Cmr10-30"/>
      <path d="M 12.359375 -21.046875 
L 6.0625 -21.046875 
Q 20.65625 2.390625 20.65625 25.875 
Q 20.65625 35.0625 18.5625 44.09375 
Q 16.890625 51.421875 13.921875 58.15625 
Q 12.015625 62.546875 6.0625 72.796875 
L 12.359375 72.796875 
Q 21.53125 60.546875 25.921875 48.1875 
Q 29.6875 37.546875 29.6875 25.921875 
Q 29.6875 12.75 24.625 0.4375 
Q 19.578125 -11.859375 12.359375 -21.046875 
" id="ArialMT-29"/>
      <path d="M 17.390625 2.59375 
Q 17.390625 8.15625 18.359375 13.46875 
Q 19.34375 18.796875 21.21875 24 
Q 23.09375 29.203125 25.75 34.203125 
Q 28.421875 39.203125 31.59375 43.609375 
L 40.71875 56.296875 
L 29.296875 56.296875 
Q 11.53125 56.296875 10.984375 55.8125 
Q 9.671875 54.203125 8.5 46.578125 
L 5.609375 46.578125 
L 8.890625 67.578125 
L 11.8125 67.578125 
L 11.8125 67.28125 
Q 11.8125 65.484375 17.921875 64.9375 
Q 24.03125 64.40625 29.890625 64.40625 
L 48.484375 64.40625 
L 48.484375 61.8125 
Q 48.484375 61.71875 48.453125 61.671875 
Q 48.4375 61.625 48.390625 61.53125 
L 34.625 42.1875 
Q 29.546875 34.671875 28.265625 25.484375 
Q 27 16.3125 27 2.59375 
Q 27 0.640625 25.578125 -0.78125 
Q 24.171875 -2.203125 22.21875 -2.203125 
Q 20.21875 -2.203125 18.796875 -0.78125 
Q 17.390625 0.640625 17.390625 2.59375 
" id="Cmr10-37"/>
      <path d="M 8.40625 5.515625 
Q 8.40625 7.765625 10.0625 9.375 
Q 11.71875 10.984375 13.921875 10.984375 
Q 15.28125 10.984375 16.59375 10.25 
Q 17.921875 9.515625 18.65625 8.203125 
Q 19.390625 6.890625 19.390625 5.515625 
Q 19.390625 3.328125 17.765625 1.65625 
Q 16.15625 0 13.921875 0 
Q 11.71875 0 10.0625 1.65625 
Q 8.40625 3.328125 8.40625 5.515625 
" id="Cmmi10-3a"/>
      <path d="M 7.8125 2.875 
Q 9.578125 1.515625 12.796875 1.515625 
Q 15.921875 1.515625 18.3125 4.515625 
Q 20.703125 7.515625 21.578125 11.078125 
L 26.125 28.8125 
Q 27.203125 33.640625 27.203125 35.40625 
Q 27.203125 37.890625 25.8125 39.75 
Q 24.421875 41.609375 21.921875 41.609375 
Q 18.75 41.609375 15.96875 39.625 
Q 13.1875 37.640625 11.28125 34.59375 
Q 9.375 31.546875 8.59375 28.421875 
Q 8.40625 27.78125 7.8125 27.78125 
L 6.59375 27.78125 
Q 5.8125 27.78125 5.8125 28.71875 
L 5.8125 29 
Q 6.78125 32.71875 9.125 36.25 
Q 11.46875 39.796875 14.859375 41.984375 
Q 18.265625 44.1875 22.125 44.1875 
Q 25.78125 44.1875 28.734375 42.234375 
Q 31.6875 40.28125 32.90625 36.921875 
Q 34.625 39.984375 37.28125 42.078125 
Q 39.9375 44.1875 43.109375 44.1875 
Q 45.265625 44.1875 47.5 43.421875 
Q 49.75 42.671875 51.171875 41.109375 
Q 52.59375 39.546875 52.59375 37.203125 
Q 52.59375 34.671875 50.953125 32.828125 
Q 49.3125 31 46.78125 31 
Q 45.171875 31 44.09375 32.03125 
Q 43.015625 33.0625 43.015625 34.625 
Q 43.015625 36.71875 44.453125 38.296875 
Q 45.90625 39.890625 47.90625 40.1875 
Q 46.09375 41.609375 42.921875 41.609375 
Q 39.703125 41.609375 37.328125 38.625 
Q 34.96875 35.640625 33.984375 31.984375 
L 29.59375 14.3125 
Q 28.515625 10.296875 28.515625 7.71875 
Q 28.515625 5.171875 29.953125 3.34375 
Q 31.390625 1.515625 33.796875 1.515625 
Q 38.484375 1.515625 42.15625 5.640625 
Q 45.84375 9.765625 47.015625 14.703125 
Q 47.21875 15.28125 47.796875 15.28125 
L 49.03125 15.28125 
Q 49.421875 15.28125 49.65625 15.015625 
Q 49.90625 14.75 49.90625 14.40625 
Q 49.90625 14.3125 49.8125 14.109375 
Q 48.390625 8.15625 43.84375 3.515625 
Q 39.3125 -1.125 33.59375 -1.125 
Q 29.9375 -1.125 26.984375 0.84375 
Q 24.03125 2.828125 22.796875 6.203125 
Q 21.234375 3.265625 18.46875 1.0625 
Q 15.71875 -1.125 12.59375 -1.125 
Q 10.453125 -1.125 8.171875 -0.359375 
Q 5.90625 0.390625 4.484375 1.953125 
Q 3.078125 3.515625 3.078125 5.90625 
Q 3.078125 8.25 4.703125 10.171875 
Q 6.34375 12.109375 8.796875 12.109375 
Q 10.453125 12.109375 11.578125 11.109375 
Q 12.703125 10.109375 12.703125 8.5 
Q 12.703125 6.390625 11.296875 4.828125 
Q 9.90625 3.265625 7.8125 2.875 
" id="Cmmi10-78"/>
      <path d="M 23.390625 -21.046875 
Q 16.109375 -11.859375 11.078125 0.4375 
Q 6.0625 12.75 6.0625 25.921875 
Q 6.0625 37.546875 9.8125 48.1875 
Q 14.203125 60.546875 23.390625 72.796875 
L 29.6875 72.796875 
Q 23.78125 62.640625 21.875 58.296875 
Q 18.890625 51.5625 17.1875 44.234375 
Q 15.09375 35.109375 15.09375 25.875 
Q 15.09375 2.390625 29.6875 -21.046875 
z
" id="ArialMT-28"/>
      <path d="M 7.515625 23 
Q 6.6875 23 6.140625 23.625 
Q 5.609375 24.265625 5.609375 25 
Q 5.609375 25.734375 6.140625 26.359375 
Q 6.6875 27 7.515625 27 
L 36.921875 27 
L 36.921875 56.5 
Q 36.921875 57.28125 37.5 57.78125 
Q 38.09375 58.296875 38.921875 58.296875 
Q 39.65625 58.296875 40.28125 57.78125 
Q 40.921875 57.28125 40.921875 56.5 
L 40.921875 27 
L 70.3125 27 
Q 71.046875 27 71.578125 26.359375 
Q 72.125 25.734375 72.125 25 
Q 72.125 24.265625 71.578125 23.625 
Q 71.046875 23 70.3125 23 
L 40.921875 23 
L 40.921875 -6.5 
Q 40.921875 -7.28125 40.28125 -7.78125 
Q 39.65625 -8.296875 38.921875 -8.296875 
Q 38.09375 -8.296875 37.5 -7.78125 
Q 36.921875 -7.28125 36.921875 -6.5 
L 36.921875 23 
z
" id="Cmr10-2b"/>
      <path d="M 25 -2.203125 
Q 18.796875 -2.203125 14.640625 1.09375 
Q 10.5 4.390625 8.21875 9.640625 
Q 5.953125 14.890625 5.078125 20.65625 
Q 4.203125 26.421875 4.203125 32.328125 
Q 4.203125 40.234375 7.28125 48.1875 
Q 10.359375 56.15625 16.328125 61.375 
Q 22.3125 66.609375 30.515625 66.609375 
Q 33.9375 66.609375 36.890625 65.3125 
Q 39.84375 64.015625 41.53125 61.5 
Q 43.21875 58.984375 43.21875 55.421875 
Q 43.21875 53.375 41.828125 51.984375 
Q 40.4375 50.59375 38.375 50.59375 
Q 36.421875 50.59375 35 52 
Q 33.59375 53.421875 33.59375 55.421875 
Q 33.59375 57.375 35 58.78125 
Q 36.421875 60.203125 38.375 60.203125 
L 38.921875 60.203125 
Q 37.640625 62.015625 35.328125 62.859375 
Q 33.015625 63.71875 30.515625 63.71875 
Q 27.484375 63.71875 24.921875 62.390625 
Q 22.359375 61.078125 20.3125 58.828125 
Q 18.265625 56.59375 16.890625 53.875 
Q 15.53125 51.171875 14.765625 47.703125 
Q 14.015625 44.234375 13.8125 41.203125 
Q 13.625 38.1875 13.625 33.59375 
Q 15.375 37.703125 18.59375 40.3125 
Q 21.828125 42.921875 25.875 42.921875 
Q 30.328125 42.921875 33.984375 41.109375 
Q 37.640625 39.3125 40.28125 36.109375 
Q 42.921875 32.90625 44.3125 28.796875 
Q 45.703125 24.703125 45.703125 20.515625 
Q 45.703125 14.65625 43.09375 9.34375 
Q 40.484375 4.046875 35.734375 0.921875 
Q 31 -2.203125 25 -2.203125 
M 25 0.984375 
Q 28.859375 0.984375 31.203125 2.734375 
Q 33.546875 4.5 34.640625 7.390625 
Q 35.75 10.296875 36.015625 13.25 
Q 36.28125 16.21875 36.28125 20.515625 
Q 36.28125 26.171875 35.734375 30.171875 
Q 35.203125 34.1875 32.8125 37.234375 
Q 30.421875 40.28125 25.484375 40.28125 
Q 21.4375 40.28125 18.828125 37.546875 
Q 16.21875 34.8125 15.015625 30.640625 
Q 13.8125 26.46875 13.8125 22.609375 
Q 13.8125 21.296875 13.921875 20.609375 
Q 13.921875 20.453125 13.890625 20.359375 
Q 13.875 20.265625 13.8125 20.125 
Q 13.8125 15.828125 14.6875 11.421875 
Q 15.578125 7.03125 18.0625 4 
Q 20.5625 0.984375 25 0.984375 
" id="Cmr10-36"/>
      <path d="M 7.515625 13.28125 
Q 6.6875 13.28125 6.140625 13.90625 
Q 5.609375 14.546875 5.609375 15.28125 
Q 5.609375 16.109375 6.140625 16.6875 
Q 6.6875 17.28125 7.515625 17.28125 
L 70.3125 17.28125 
Q 71.046875 17.28125 71.578125 16.6875 
Q 72.125 16.109375 72.125 15.28125 
Q 72.125 14.546875 71.578125 13.90625 
Q 71.046875 13.28125 70.3125 13.28125 
z
M 7.515625 32.71875 
Q 6.6875 32.71875 6.140625 33.296875 
Q 5.609375 33.890625 5.609375 34.71875 
Q 5.609375 35.453125 6.140625 36.078125 
Q 6.6875 36.71875 7.515625 36.71875 
L 70.3125 36.71875 
Q 71.046875 36.71875 71.578125 36.078125 
Q 72.125 35.453125 72.125 34.71875 
Q 72.125 33.890625 71.578125 33.296875 
Q 71.046875 32.71875 70.3125 32.71875 
z
" id="Cmr10-3d"/>
      <path d="M -2.484375 -19.390625 
Q -3.421875 -19.390625 -3.421875 -18.109375 
Q -3.078125 -15.921875 -2.09375 -15.921875 
Q 1.03125 -15.921875 2.265625 -15.359375 
Q 3.515625 -14.796875 4.203125 -12.5 
L 15.484375 32.515625 
Q 16.21875 34.375 16.21875 37.3125 
Q 16.21875 41.609375 13.28125 41.609375 
Q 10.15625 41.609375 8.640625 37.859375 
Q 7.125 34.125 5.71875 28.421875 
Q 5.71875 27.78125 4.890625 27.78125 
L 3.71875 27.78125 
Q 3.46875 27.78125 3.171875 28.140625 
Q 2.875 28.515625 2.875 28.8125 
Q 3.953125 33.15625 4.953125 36.171875 
Q 5.953125 39.203125 8.078125 41.6875 
Q 10.203125 44.1875 13.375 44.1875 
Q 16.796875 44.1875 19.375 42.25 
Q 21.96875 40.328125 22.703125 37.015625 
Q 25.4375 40.1875 28.75 42.1875 
Q 32.078125 44.1875 35.59375 44.1875 
Q 39.796875 44.1875 42.890625 41.9375 
Q 46 39.703125 47.5625 36.0625 
Q 49.125 32.421875 49.125 28.21875 
Q 49.125 21.78125 45.828125 14.890625 
Q 42.53125 8.015625 36.890625 3.4375 
Q 31.25 -1.125 24.8125 -1.125 
Q 21.875 -1.125 19.5 0.53125 
Q 17.140625 2.203125 15.828125 4.890625 
L 11.28125 -12.890625 
Q 11.03125 -14.359375 10.984375 -14.59375 
Q 10.984375 -15.921875 17.578125 -15.921875 
Q 18.609375 -15.921875 18.609375 -17.1875 
Q 18.265625 -18.5 18.046875 -18.9375 
Q 17.828125 -19.390625 16.890625 -19.390625 
z
M 24.90625 1.515625 
Q 28.375 1.515625 31.34375 4.375 
Q 34.328125 7.234375 36.1875 10.796875 
Q 37.546875 13.484375 38.734375 17.359375 
Q 39.9375 21.234375 40.8125 25.625 
Q 41.703125 30.03125 41.703125 32.625 
Q 41.703125 34.90625 41.09375 36.90625 
Q 40.484375 38.921875 39.09375 40.265625 
Q 37.703125 41.609375 35.40625 41.609375 
Q 31.734375 41.609375 28.484375 38.984375 
Q 25.25 36.375 22.609375 32.515625 
L 22.609375 32.171875 
L 17.09375 10.109375 
Q 17.78125 6.546875 19.734375 4.03125 
Q 21.6875 1.515625 24.90625 1.515625 
" id="Cmmi10-70"/>
      <path d="M 8.40625 -14.3125 
Q 10.5 -17.921875 15.71875 -17.921875 
Q 20.453125 -17.921875 23.921875 -14.59375 
Q 27.390625 -11.28125 29.515625 -6.5625 
Q 31.640625 -1.859375 32.8125 3.078125 
Q 28.375 -1.125 23.1875 -1.125 
Q 19.234375 -1.125 16.453125 0.234375 
Q 13.671875 1.609375 12.125 4.3125 
Q 10.59375 7.03125 10.59375 10.890625 
Q 10.59375 14.15625 11.46875 17.59375 
Q 12.359375 21.046875 13.9375 25.265625 
Q 15.53125 29.5 16.703125 32.625 
Q 18.015625 36.28125 18.015625 38.625 
Q 18.015625 41.609375 15.828125 41.609375 
Q 11.859375 41.609375 9.296875 37.53125 
Q 6.734375 33.453125 5.515625 28.421875 
Q 5.328125 27.78125 4.6875 27.78125 
L 3.515625 27.78125 
Q 2.6875 27.78125 2.6875 28.71875 
L 2.6875 29 
Q 4.296875 34.96875 7.609375 39.578125 
Q 10.9375 44.1875 16.015625 44.1875 
Q 19.578125 44.1875 22.046875 41.84375 
Q 24.515625 39.5 24.515625 35.890625 
Q 24.515625 34.03125 23.6875 31.984375 
Q 23.25 30.765625 21.6875 26.65625 
Q 20.125 22.5625 19.28125 19.875 
Q 18.453125 17.1875 17.921875 14.59375 
Q 17.390625 12.015625 17.390625 9.421875 
Q 17.390625 6.109375 18.796875 3.8125 
Q 20.21875 1.515625 23.296875 1.515625 
Q 29.5 1.515625 34.421875 9.078125 
L 42 39.890625 
Q 42.328125 41.21875 43.546875 42.15625 
Q 44.78125 43.109375 46.1875 43.109375 
Q 47.40625 43.109375 48.3125 42.328125 
Q 49.21875 41.546875 49.21875 40.28125 
Q 49.21875 39.703125 49.125 39.5 
L 39.203125 -0.296875 
Q 37.890625 -5.421875 34.375 -10.109375 
Q 30.859375 -14.796875 25.90625 -17.65625 
Q 20.953125 -20.515625 15.578125 -20.515625 
Q 12.984375 -20.515625 10.4375 -19.5 
Q 7.90625 -18.5 6.34375 -16.5 
Q 4.78125 -14.5 4.78125 -11.8125 
Q 4.78125 -9.078125 6.390625 -7.078125 
Q 8.015625 -5.078125 10.6875 -5.078125 
Q 12.3125 -5.078125 13.40625 -6.078125 
Q 14.5 -7.078125 14.5 -8.6875 
Q 14.5 -10.984375 12.78125 -12.6875 
Q 11.078125 -14.40625 8.796875 -14.40625 
Q 8.6875 -14.359375 8.59375 -14.328125 
Q 8.5 -14.3125 8.40625 -14.3125 
" id="Cmmi10-79"/>
      <path d="M 8.6875 11.375 
Q 9.71875 8.453125 11.84375 6.046875 
Q 13.96875 3.65625 16.875 2.3125 
Q 19.78125 0.984375 22.90625 0.984375 
Q 30.125 0.984375 32.859375 6.59375 
Q 35.59375 12.203125 35.59375 20.21875 
Q 35.59375 23.6875 35.46875 26.046875 
Q 35.359375 28.421875 34.8125 30.609375 
Q 33.890625 34.125 31.5625 36.765625 
Q 29.25 39.40625 25.875 39.40625 
Q 22.515625 39.40625 20.09375 38.375 
Q 17.671875 37.359375 16.15625 35.984375 
Q 14.65625 34.625 13.484375 33.109375 
Q 12.3125 31.59375 12.015625 31.5 
L 10.890625 31.5 
Q 10.640625 31.5 10.265625 31.8125 
Q 9.90625 32.125 9.90625 32.421875 
L 9.90625 65.828125 
Q 9.90625 66.0625 10.21875 66.328125 
Q 10.546875 66.609375 10.890625 66.609375 
L 11.1875 66.609375 
Q 17.921875 63.375 25.484375 63.375 
Q 32.90625 63.375 39.796875 66.609375 
L 40.09375 66.609375 
Q 40.4375 66.609375 40.71875 66.359375 
Q 41.015625 66.109375 41.015625 65.828125 
L 41.015625 64.890625 
Q 41.015625 64.40625 40.828125 64.40625 
Q 37.40625 59.859375 32.25 57.3125 
Q 27.09375 54.78125 21.578125 54.78125 
Q 17.578125 54.78125 13.375 55.90625 
L 13.375 37.015625 
Q 16.703125 39.703125 19.3125 40.84375 
Q 21.921875 42 25.984375 42 
Q 31.5 42 35.859375 38.8125 
Q 40.234375 35.640625 42.578125 30.53125 
Q 44.921875 25.4375 44.921875 20.125 
Q 44.921875 14.109375 41.96875 8.984375 
Q 39.015625 3.859375 33.9375 0.828125 
Q 28.859375 -2.203125 22.90625 -2.203125 
Q 17.96875 -2.203125 13.84375 0.328125 
Q 9.71875 2.875 7.34375 7.171875 
Q 4.984375 11.46875 4.984375 16.3125 
Q 4.984375 18.5625 6.4375 19.96875 
Q 7.90625 21.390625 10.109375 21.390625 
Q 12.3125 21.390625 13.796875 19.9375 
Q 15.28125 18.5 15.28125 16.3125 
Q 15.28125 14.15625 13.796875 12.671875 
Q 12.3125 11.1875 10.109375 11.1875 
Q 9.765625 11.1875 9.328125 11.25 
Q 8.890625 11.328125 8.6875 11.375 
" id="Cmr10-35"/>
      <path id="ArialMT-20"/>
     </defs>
     <g style="fill:#262626;" transform="translate(257.3 240.8)scale(0.1 -0.1)">
      <use transform="translate(0.0 0.203125)" xlink:href="#Cmmi10-79"/>
      <use transform="translate(66.58203125 0.203125)" xlink:href="#Cmr10-3d"/>
      <use transform="translate(161.826171875 0.203125)" xlink:href="#Cmr10-30"/>
      <use transform="translate(211.826171875 0.203125)" xlink:href="#Cmmi10-3a"/>
      <use transform="translate(257.0703125 0.203125)" xlink:href="#Cmr10-36"/>
      <use transform="translate(307.0703125 0.203125)" xlink:href="#Cmr10-35"/>
      <use transform="translate(357.0703125 0.203125)" xlink:href="#Cmmi10-78"/>
      <use transform="translate(431.708984375 0.203125)" xlink:href="#Cmr10-2b"/>
      <use transform="translate(526.953125 0.203125)" xlink:href="#Cmr10-31"/>
      <use transform="translate(576.953125 0.203125)" xlink:href="#Cmr10-30"/>
      <use transform="translate(626.953125 0.203125)" xlink:href="#Cmmi10-3a"/>
      <use transform="translate(672.197265625 0.203125)" xlink:href="#Cmr10-37"/>
      <use transform="translate(722.197265625 0.203125)" xlink:href="#Cmr10-35"/>
      <use transform="translate(772.197265625 0.203125)" xlink:href="#ArialMT-20"/>
      <use transform="translate(799.98046875 0.203125)" xlink:href="#ArialMT-28"/>
      <use transform="translate(833.28125 0.203125)" xlink:href="#Cmmi10-70"/>
      <use transform="translate(901.1328125 0.203125)" xlink:href="#Cmr10-3d"/>
      <use transform="translate(996.376953125 0.203125)" xlink:href="#Cmr10-30"/>
      <use transform="translate(1046.376953125 0.203125)" xlink:href="#Cmmi10-3a"/>
      <use transform="translate(1091.62109375 0.203125)" xlink:href="#Cmr10-37"/>
      <use transform="translate(1141.62109375 0.203125)" xlink:href="#Cmr10-35"/>
      <use transform="translate(1191.62109375 0.203125)" xlink:href="#ArialMT-29"/>
     </g>
    </g>
   </g>
  </g>
 </g>
 <defs>
  <clipPath id="p557b11c16c">
   <rect height="223.2" width="334.8" x="54.0" y="28.8"/>
  </clipPath>
 </defs>
</svg>
