<?xml version="1.0" encoding="utf-8" standalone="no"?>
<!DOCTYPE svg PUBLIC "-//W3C//DTD SVG 1.1//EN"
  "http://www.w3.org/Graphics/SVG/1.1/DTD/svg11.dtd">
<!-- Created with matplotlib (http://matplotlib.org/) -->
<svg height="420pt" version="1.1" viewBox="0 0 407 420" width="407pt" xmlns="http://www.w3.org/2000/svg" xmlns:xlink="http://www.w3.org/1999/xlink">
 <defs>
  <style type="text/css">
*{stroke-linecap:butt;stroke-linejoin:round;}
  </style>
 </defs>
 <g id="figure_1">
  <g id="patch_1">
   <path d="
M0 420.598
L407.695 420.598
L407.695 0
L0 0
z
" style="fill:#ffffff;"/>
  </g>
  <g id="axes_1">
   <g id="patch_2">
    <path d="
M8.41547 413.398
L400.495 413.398
L400.495 21.3181
L8.41547 21.3181
z
" style="fill:#ffffff;"/>
   </g>
   <g id="patch_3">
    <path clip-path="url(#pc581fc927e)" d="
M33.3988 223.904
Q103.285 284.958 132.232 370.77" style="fill:none;stroke:#000000;stroke-linecap:round;stroke-width:2.0;"/>
    <path clip-path="url(#pc581fc927e)" d="
M133.774 359.696
L132.232 370.77
L124.298 362.893
L133.774 359.696
z
" style="stroke:#000000;stroke-linecap:round;stroke-width:2.0;"/>
   </g>
   <g id="patch_4">
    <path clip-path="url(#pc581fc927e)" d="
M29.8006 228.905
Q58.7476 314.717 128.634 375.771" style="fill:none;stroke:#000000;stroke-linecap:round;stroke-width:2.0;"/>
    <path clip-path="url(#pc581fc927e)" d="
M28.2592 239.979
L29.8006 228.905
L37.7346 236.782
L28.2592 239.979
z
" style="stroke:#000000;stroke-linecap:round;stroke-width:2.0;"/>
   </g>
   <g id="patch_5">
    <path clip-path="url(#pc581fc927e)" d="
M216.407 41.1855
Q238.62 45.6038 263.025 50.4583" style="fill:none;stroke:#000000;stroke-linecap:round;stroke-width:2.0;"/>
    <path clip-path="url(#pc581fc927e)" d="
M225.24 48.0403
L216.407 41.1855
L227.191 38.2325
L225.24 48.0403
z
" style="stroke:#000000;stroke-linecap:round;stroke-width:2.0;"/>
   </g>
   <g id="patch_6">
    <path clip-path="url(#pc581fc927e)" d="
M337.48 333.48
Q350.062 314.649 363.886 293.959" style="fill:none;stroke:#000000;stroke-linecap:round;stroke-width:2.0;"/>
    <path clip-path="url(#pc581fc927e)" d="
M347.193 327.943
L337.48 333.48
L338.878 322.387
L347.193 327.943
z
" style="stroke:#000000;stroke-linecap:round;stroke-width:2.0;"/>
   </g>
   <g id="patch_7">
    <path clip-path="url(#pc581fc927e)" d="
M367.473 275.927
Q350.062 188.395 333.087 103.056" style="fill:none;stroke:#000000;stroke-linecap:round;stroke-width:2.0;"/>
    <path clip-path="url(#pc581fc927e)" d="
M330.134 113.839
L333.087 103.056
L339.942 111.889
L330.134 113.839
z
" style="stroke:#000000;stroke-linecap:round;stroke-width:2.0;"/>
   </g>
   <g id="patch_8">
    <path clip-path="url(#pc581fc927e)" d="
M214.588 45.5783
Q286.935 93.9191 361.141 143.502" style="fill:none;stroke:#000000;stroke-linecap:round;stroke-width:2.0;"/>
    <path clip-path="url(#pc581fc927e)" d="
M220.125 55.2914
L214.588 45.5783
L225.68 46.9767
L220.125 55.2914
z
" style="stroke:#000000;stroke-linecap:round;stroke-width:2.0;"/>
   </g>
   <g id="patch_9">
    <path clip-path="url(#pc581fc927e)" d="
M214.214 393.967
Q238.62 389.112 260.832 384.694" style="fill:none;stroke:#000000;stroke-linecap:round;stroke-width:2.0;"/>
    <path clip-path="url(#pc581fc927e)" d="
M250.048 381.741
L260.832 384.694
L251.999 391.549
L250.048 381.741
z
" style="stroke:#000000;stroke-linecap:round;stroke-width:2.0;"/>
   </g>
   <g id="patch_10">
    <path clip-path="url(#pc581fc927e)" d="
M209.119 50.0666
Q267.582 191.21 326.902 334.419" style="fill:none;stroke:#000000;stroke-linecap:round;stroke-width:2.0;"/>
    <path clip-path="url(#pc581fc927e)" d="
M208.326 61.2188
L209.119 50.0666
L217.565 57.392
L208.326 61.2188
z
" style="stroke:#000000;stroke-linecap:round;stroke-width:2.0;"/>
   </g>
   <g id="patch_11">
    <path clip-path="url(#pc581fc927e)" d="
M136.127 62.3494
Q136.127 217.358 136.127 370.131" style="fill:none;stroke:#000000;stroke-linecap:round;stroke-width:2.0;"/>
    <path clip-path="url(#pc581fc927e)" d="
M141.127 360.131
L136.127 370.131
L131.127 360.131
L141.127 360.131
z
" style="stroke:#000000;stroke-linecap:round;stroke-width:2.0;"/>
   </g>
   <g id="patch_12">
    <path clip-path="url(#pc581fc927e)" d="
M215.714 43.4715
Q267.582 64.9562 321.517 87.2965" style="fill:none;stroke:#000000;stroke-linecap:round;stroke-width:2.0;"/>
    <path clip-path="url(#pc581fc927e)" d="
M223.039 51.9178
L215.714 43.4715
L226.866 42.679
L223.039 51.9178
z
" style="stroke:#000000;stroke-linecap:round;stroke-width:2.0;"/>
   </g>
   <g id="patch_13">
    <path clip-path="url(#pc581fc927e)" d="
M87.9604 345.553
Q175.493 362.964 260.832 379.939" style="fill:none;stroke:#000000;stroke-linecap:round;stroke-width:2.0;"/>
    <path clip-path="url(#pc581fc927e)" d="
M251.999 373.085
L260.832 379.939
L250.048 382.892
L251.999 373.085
z
" style="stroke:#000000;stroke-linecap:round;stroke-width:2.0;"/>
   </g>
   <g id="patch_14">
    <path clip-path="url(#pc581fc927e)" d="
M50.7552 153.693
Q204.455 217.358 360.222 281.879" style="fill:none;stroke:#000000;stroke-linecap:round;stroke-width:2.0;"/>
    <path clip-path="url(#pc581fc927e)" d="
M58.0806 162.14
L50.7552 153.693
L61.9074 152.901
L58.0806 162.14
z
" style="stroke:#000000;stroke-linecap:round;stroke-width:2.0;"/>
   </g>
   <g id="patch_15">
    <path clip-path="url(#pc581fc927e)" d="
M148.313 382.317
Q204.455 382.317 262.834 382.317" style="fill:none;stroke:#000000;stroke-linecap:round;stroke-width:2.0;"/>
    <path clip-path="url(#pc581fc927e)" d="
M158.313 387.317
L148.313 382.317
L158.313 377.317
L158.313 387.317
z
" style="stroke:#000000;stroke-linecap:round;stroke-width:2.0;"/>
   </g>
   <g id="patch_16">
    <path clip-path="url(#pc581fc927e)" d="
M43.3045 158.223
Q87.8121 265.673 131.464 371.058" style="fill:none;stroke:#000000;stroke-linecap:round;stroke-width:2.0;"/>
    <path clip-path="url(#pc581fc927e)" d="
M132.257 359.906
L131.464 371.058
L123.018 363.733
L132.257 359.906
z
" style="stroke:#000000;stroke-linecap:round;stroke-width:2.0;"/>
   </g>
   <g id="patch_17">
    <path clip-path="url(#pc581fc927e)" d="
M369.414 275.736
Q369.414 217.358 369.414 161.216" style="fill:none;stroke:#000000;stroke-linecap:round;stroke-width:2.0;"/>
    <path clip-path="url(#pc581fc927e)" d="
M364.414 171.216
L369.414 161.216
L374.414 171.216
L364.414 171.216
z
" style="stroke:#000000;stroke-linecap:round;stroke-width:2.0;"/>
   </g>
   <g id="patch_18">
    <path clip-path="url(#pc581fc927e)" d="
M146.26 375.547
Q259.566 299.837 374.732 222.886" style="fill:none;stroke:#000000;stroke-linecap:round;stroke-width:2.0;"/>
    <path clip-path="url(#pc581fc927e)" d="
M157.352 374.148
L146.26 375.547
L151.797 365.834
L157.352 374.148
z
" style="stroke:#000000;stroke-linecap:round;stroke-width:2.0;"/>
   </g>
   <g id="patch_19">
    <path clip-path="url(#pc581fc927e)" d="
M83.7295 99.3773
Q175.493 236.711 266.013 372.184" style="fill:none;stroke:#000000;stroke-linecap:round;stroke-width:2.0;"/>
    <path clip-path="url(#pc581fc927e)" d="
M264.615 361.092
L266.013 372.184
L256.3 366.648
L264.615 361.092
z
" style="stroke:#000000;stroke-linecap:round;stroke-width:2.0;"/>
   </g>
   <g id="matplotlib.axis_1"/>
   <g id="matplotlib.axis_2"/>
   <g id="text_1">
    <!-- Risk Averse - All guides -->
    <defs>
     <path id="BitstreamVeraSans-Roman-20"/>
     <path d="
M9.42188 75.9844
L18.4062 75.9844
L18.4062 0
L9.42188 0
z
" id="BitstreamVeraSans-Roman-6c"/>
     <path d="
M9.07812 75.9844
L18.1094 75.9844
L18.1094 31.1094
L44.9219 54.6875
L56.3906 54.6875
L27.3906 29.1094
L57.625 0
L45.9062 0
L18.1094 26.7031
L18.1094 0
L9.07812 0
z
" id="BitstreamVeraSans-Roman-6b"/>
     <path d="
M56.2031 29.5938
L56.2031 25.2031
L14.8906 25.2031
Q15.4844 15.9219 20.4844 11.0625
Q25.4844 6.20312 34.4219 6.20312
Q39.5938 6.20312 44.4531 7.46875
Q49.3125 8.73438 54.1094 11.2812
L54.1094 2.78125
Q49.2656 0.734375 44.1875 -0.34375
Q39.1094 -1.42188 33.8906 -1.42188
Q20.7969 -1.42188 13.1562 6.1875
Q5.51562 13.8125 5.51562 26.8125
Q5.51562 40.2344 12.7656 48.1094
Q20.0156 56 32.3281 56
Q43.3594 56 49.7812 48.8906
Q56.2031 41.7969 56.2031 29.5938
M47.2188 32.2344
Q47.125 39.5938 43.0938 43.9844
Q39.0625 48.3906 32.4219 48.3906
Q24.9062 48.3906 20.3906 44.1406
Q15.875 39.8906 15.1875 32.1719
z
" id="BitstreamVeraSans-Roman-65"/>
     <path d="
M44.3906 34.1875
Q47.5625 33.1094 50.5625 29.5938
Q53.5625 26.0781 56.5938 19.9219
L66.6094 0
L56 0
L46.6875 18.7031
Q43.0625 26.0312 39.6719 28.4219
Q36.2812 30.8125 30.4219 30.8125
L19.6719 30.8125
L19.6719 0
L9.8125 0
L9.8125 72.9062
L32.0781 72.9062
Q44.5781 72.9062 50.7344 67.6719
Q56.8906 62.4531 56.8906 51.9062
Q56.8906 45.0156 53.6875 40.4688
Q50.4844 35.9375 44.3906 34.1875
M19.6719 64.7969
L19.6719 38.9219
L32.0781 38.9219
Q39.2031 38.9219 42.8438 42.2188
Q46.4844 45.5156 46.4844 51.9062
Q46.4844 58.2969 42.8438 61.5469
Q39.2031 64.7969 32.0781 64.7969
z
" id="BitstreamVeraSans-Roman-52"/>
     <path d="
M9.42188 54.6875
L18.4062 54.6875
L18.4062 0
L9.42188 0
z

M9.42188 75.9844
L18.4062 75.9844
L18.4062 64.5938
L9.42188 64.5938
z
" id="BitstreamVeraSans-Roman-69"/>
     <path d="
M4.89062 31.3906
L31.2031 31.3906
L31.2031 23.3906
L4.89062 23.3906
z
" id="BitstreamVeraSans-Roman-2d"/>
     <path d="
M34.1875 63.1875
L20.7969 26.9062
L47.6094 26.9062
z

M28.6094 72.9062
L39.7969 72.9062
L67.5781 0
L57.3281 0
L50.6875 18.7031
L17.8281 18.7031
L11.1875 0
L0.78125 0
z
" id="BitstreamVeraSans-Roman-41"/>
     <path d="
M2.98438 54.6875
L12.5 54.6875
L29.5938 8.79688
L46.6875 54.6875
L56.2031 54.6875
L35.6875 0
L23.4844 0
z
" id="BitstreamVeraSans-Roman-76"/>
     <path d="
M45.4062 46.3906
L45.4062 75.9844
L54.3906 75.9844
L54.3906 0
L45.4062 0
L45.4062 8.20312
Q42.5781 3.32812 38.25 0.953125
Q33.9375 -1.42188 27.875 -1.42188
Q17.9688 -1.42188 11.7344 6.48438
Q5.51562 14.4062 5.51562 27.2969
Q5.51562 40.1875 11.7344 48.0938
Q17.9688 56 27.875 56
Q33.9375 56 38.25 53.625
Q42.5781 51.2656 45.4062 46.3906
M14.7969 27.2969
Q14.7969 17.3906 18.875 11.75
Q22.9531 6.10938 30.0781 6.10938
Q37.2031 6.10938 41.2969 11.75
Q45.4062 17.3906 45.4062 27.2969
Q45.4062 37.2031 41.2969 42.8438
Q37.2031 48.4844 30.0781 48.4844
Q22.9531 48.4844 18.875 42.8438
Q14.7969 37.2031 14.7969 27.2969" id="BitstreamVeraSans-Roman-64"/>
     <path d="
M45.4062 27.9844
Q45.4062 37.75 41.375 43.1094
Q37.3594 48.4844 30.0781 48.4844
Q22.8594 48.4844 18.8281 43.1094
Q14.7969 37.75 14.7969 27.9844
Q14.7969 18.2656 18.8281 12.8906
Q22.8594 7.51562 30.0781 7.51562
Q37.3594 7.51562 41.375 12.8906
Q45.4062 18.2656 45.4062 27.9844
M54.3906 6.78125
Q54.3906 -7.17188 48.1875 -13.9844
Q42 -20.7969 29.2031 -20.7969
Q24.4688 -20.7969 20.2656 -20.0938
Q16.0625 -19.3906 12.1094 -17.9219
L12.1094 -9.1875
Q16.0625 -11.3281 19.9219 -12.3438
Q23.7812 -13.375 27.7812 -13.375
Q36.625 -13.375 41.0156 -8.76562
Q45.4062 -4.15625 45.4062 5.17188
L45.4062 9.625
Q42.625 4.78125 38.2812 2.39062
Q33.9375 0 27.875 0
Q17.8281 0 11.6719 7.65625
Q5.51562 15.3281 5.51562 27.9844
Q5.51562 40.6719 11.6719 48.3281
Q17.8281 56 27.875 56
Q33.9375 56 38.2812 53.6094
Q42.625 51.2188 45.4062 46.3906
L45.4062 54.6875
L54.3906 54.6875
z
" id="BitstreamVeraSans-Roman-67"/>
     <path d="
M8.5 21.5781
L8.5 54.6875
L17.4844 54.6875
L17.4844 21.9219
Q17.4844 14.1562 20.5 10.2656
Q23.5312 6.39062 29.5938 6.39062
Q36.8594 6.39062 41.0781 11.0312
Q45.3125 15.6719 45.3125 23.6875
L45.3125 54.6875
L54.2969 54.6875
L54.2969 0
L45.3125 0
L45.3125 8.40625
Q42.0469 3.42188 37.7188 1
Q33.4062 -1.42188 27.6875 -1.42188
Q18.2656 -1.42188 13.375 4.4375
Q8.5 10.2969 8.5 21.5781" id="BitstreamVeraSans-Roman-75"/>
     <path d="
M41.1094 46.2969
Q39.5938 47.1719 37.8125 47.5781
Q36.0312 48 33.8906 48
Q26.2656 48 22.1875 43.0469
Q18.1094 38.0938 18.1094 28.8125
L18.1094 0
L9.07812 0
L9.07812 54.6875
L18.1094 54.6875
L18.1094 46.1875
Q20.9531 51.1719 25.4844 53.5781
Q30.0312 56 36.5312 56
Q37.4531 56 38.5781 55.875
Q39.7031 55.7656 41.0625 55.5156
z
" id="BitstreamVeraSans-Roman-72"/>
     <path d="
M44.2812 53.0781
L44.2812 44.5781
Q40.4844 46.5312 36.375 47.5
Q32.2812 48.4844 27.875 48.4844
Q21.1875 48.4844 17.8438 46.4375
Q14.5 44.3906 14.5 40.2812
Q14.5 37.1562 16.8906 35.375
Q19.2812 33.5938 26.5156 31.9844
L29.5938 31.2969
Q39.1562 29.25 43.1875 25.5156
Q47.2188 21.7812 47.2188 15.0938
Q47.2188 7.46875 41.1875 3.01562
Q35.1562 -1.42188 24.6094 -1.42188
Q20.2188 -1.42188 15.4531 -0.5625
Q10.6875 0.296875 5.42188 2
L5.42188 11.2812
Q10.4062 8.6875 15.2344 7.39062
Q20.0625 6.10938 24.8125 6.10938
Q31.1562 6.10938 34.5625 8.28125
Q37.9844 10.4531 37.9844 14.4062
Q37.9844 18.0625 35.5156 20.0156
Q33.0625 21.9688 24.7031 23.7812
L21.5781 24.5156
Q13.2344 26.2656 9.51562 29.9062
Q5.8125 33.5469 5.8125 39.8906
Q5.8125 47.6094 11.2812 51.7969
Q16.75 56 26.8125 56
Q31.7812 56 36.1719 55.2656
Q40.5781 54.5469 44.2812 53.0781" id="BitstreamVeraSans-Roman-73"/>
    </defs>
    <g transform="translate(134.897658317 16.318125)scale(0.12 -0.12)">
     <use xlink:href="#BitstreamVeraSans-Roman-52"/>
     <use x="69.482421875" xlink:href="#BitstreamVeraSans-Roman-69"/>
     <use x="97.265625" xlink:href="#BitstreamVeraSans-Roman-73"/>
     <use x="149.365234375" xlink:href="#BitstreamVeraSans-Roman-6b"/>
     <use x="207.275390625" xlink:href="#BitstreamVeraSans-Roman-20"/>
     <use x="239.0625" xlink:href="#BitstreamVeraSans-Roman-41"/>
     <use x="301.595703125" xlink:href="#BitstreamVeraSans-Roman-76"/>
     <use x="360.775390625" xlink:href="#BitstreamVeraSans-Roman-65"/>
     <use x="422.298828125" xlink:href="#BitstreamVeraSans-Roman-72"/>
     <use x="463.412109375" xlink:href="#BitstreamVeraSans-Roman-73"/>
     <use x="515.51171875" xlink:href="#BitstreamVeraSans-Roman-65"/>
     <use x="577.03515625" xlink:href="#BitstreamVeraSans-Roman-20"/>
     <use x="608.822265625" xlink:href="#BitstreamVeraSans-Roman-2d"/>
     <use x="644.90625" xlink:href="#BitstreamVeraSans-Roman-20"/>
     <use x="676.693359375" xlink:href="#BitstreamVeraSans-Roman-41"/>
     <use x="745.1015625" xlink:href="#BitstreamVeraSans-Roman-6c"/>
     <use x="772.884765625" xlink:href="#BitstreamVeraSans-Roman-6c"/>
     <use x="800.66796875" xlink:href="#BitstreamVeraSans-Roman-20"/>
     <use x="832.455078125" xlink:href="#BitstreamVeraSans-Roman-67"/>
     <use x="895.931640625" xlink:href="#BitstreamVeraSans-Roman-75"/>
     <use x="959.310546875" xlink:href="#BitstreamVeraSans-Roman-69"/>
     <use x="987.09375" xlink:href="#BitstreamVeraSans-Roman-64"/>
     <use x="1050.5703125" xlink:href="#BitstreamVeraSans-Roman-65"/>
     <use x="1112.09375" xlink:href="#BitstreamVeraSans-Roman-73"/>
    </g>
   </g>
   <g id="patch_20">
    <path clip-path="url(#pc581fc927e)" d="
M39.4968 312.469
C43.0482 312.469 46.4546 311.058 48.9658 308.547
C51.477 306.035 52.888 302.629 52.888 299.078
C52.888 295.526 51.477 292.12 48.9658 289.608
C46.4546 287.097 43.0482 285.686 39.4968 285.686
C35.9454 285.686 32.539 287.097 30.0277 289.608
C27.5165 292.12 26.1055 295.526 26.1055 299.078
C26.1055 302.629 27.5165 306.035 30.0277 308.547
C32.539 311.058 35.9454 312.469 39.4968 312.469
L39.4968 312.469" style="fill:none;stroke:#000000;stroke-linejoin:miter;"/>
   </g>
   <g id="patch_21">
    <path clip-path="url(#pc581fc927e)" d="
M204.455 65.5906
C208.007 65.5906 211.413 64.1796 213.925 61.6684
C216.436 59.1572 217.847 55.7508 217.847 52.1994
C217.847 48.648 216.436 45.2415 213.925 42.7303
C211.413 40.2191 208.007 38.8081 204.455 38.8081
C200.904 38.8081 197.498 40.2191 194.986 42.7303
C192.475 45.2415 191.064 48.648 191.064 52.1994
C191.064 55.7508 192.475 59.1572 194.986 61.6684
C197.498 64.1796 200.904 65.5906 204.455 65.5906
L204.455 65.5906" style="fill:none;stroke:#000000;stroke-linejoin:miter;"/>
   </g>
   <g id="patch_22">
    <path d="
M204.455 48.7581
C207.094 48.7581 209.625 47.7097 211.491 45.8438
C213.357 43.9779 214.405 41.4469 214.405 38.8081
C214.405 36.1694 213.357 33.6383 211.491 31.7724
C209.625 29.9065 207.094 28.8581 204.455 28.8581
C201.817 28.8581 199.286 29.9065 197.42 31.7724
C195.554 33.6383 194.505 36.1694 194.505 38.8081
C194.505 41.4469 195.554 43.9779 197.42 45.8438
C199.286 47.7097 201.817 48.7581 204.455 48.7581
z
" style="fill:#00bfff;stroke:#000000;stroke-linejoin:miter;"/>
   </g>
   <g id="patch_23">
    <path d="
M78.2016 101.054
C80.8403 101.054 83.3714 100.006 85.2373 98.1399
C87.1032 96.274 88.1516 93.743 88.1516 91.1042
C88.1516 88.4654 87.1032 85.9344 85.2373 84.0685
C83.3714 82.2026 80.8403 81.1542 78.2016 81.1542
C75.5628 81.1542 73.0317 82.2026 71.1658 84.0685
C69.3 85.9344 68.2516 88.4654 68.2516 91.1042
C68.2516 93.743 69.3 96.274 71.1658 98.1399
C73.0317 100.006 75.5628 101.054 78.2016 101.054
z
" style="fill:#00bfff;stroke:#000000;stroke-linejoin:miter;"/>
   </g>
   <g id="patch_24">
    <path d="
M136.127 392.267
C138.766 392.267 141.297 391.218 143.163 389.353
C145.029 387.487 146.077 384.956 146.077 382.317
C146.077 379.678 145.029 377.147 143.163 375.281
C141.297 373.415 138.766 372.367 136.127 372.367
C133.489 372.367 130.958 373.415 129.092 375.281
C127.226 377.147 126.177 379.678 126.177 382.317
C126.177 384.956 127.226 387.487 129.092 389.353
C130.958 391.218 133.489 392.267 136.127 392.267
z
" style="fill:#00bfff;stroke:#000000;stroke-linejoin:miter;"/>
   </g>
   <g id="patch_25">
    <path d="
M272.784 392.267
C275.422 392.267 277.953 391.218 279.819 389.353
C281.685 387.487 282.734 384.956 282.734 382.317
C282.734 379.678 281.685 377.147 279.819 375.281
C277.953 373.415 275.422 372.367 272.784 372.367
C270.145 372.367 267.614 373.415 265.748 375.281
C263.882 377.147 262.834 379.678 262.834 382.317
C262.834 384.956 263.882 387.487 265.748 389.353
C267.614 391.218 270.145 392.267 272.784 392.267
z
" style="fill:#00bfff;stroke:#000000;stroke-linejoin:miter;"/>
   </g>
   <g id="patch_26">
    <path d="
M39.4968 295.636
C42.1355 295.636 44.6666 294.588 46.5325 292.722
C48.3984 290.856 49.4468 288.325 49.4468 285.686
C49.4468 283.047 48.3984 280.516 46.5325 278.651
C44.6666 276.785 42.1355 275.736 39.4968 275.736
C36.858 275.736 34.327 276.785 32.4611 278.651
C30.5952 280.516 29.5468 283.047 29.5468 285.686
C29.5468 288.325 30.5952 290.856 32.4611 292.722
C34.327 294.588 36.858 295.636 39.4968 295.636
z
" style="fill:#00bfff;stroke:#000000;stroke-linejoin:miter;"/>
   </g>
   <g id="patch_27">
    <path d="
M25.9055 227.308
C28.5442 227.308 31.0753 226.26 32.9412 224.394
C34.8071 222.528 35.8555 219.997 35.8555 217.358
C35.8555 214.719 34.8071 212.188 32.9412 210.322
C31.0753 208.457 28.5442 207.408 25.9055 207.408
C23.2667 207.408 20.7357 208.457 18.8698 210.322
C17.0039 212.188 15.9555 214.719 15.9555 217.358
C15.9555 219.997 17.0039 222.528 18.8698 224.394
C20.7357 226.26 23.2667 227.308 25.9055 227.308
z
" style="fill:#00bfff;stroke:#000000;stroke-linejoin:miter;"/>
   </g>
   <g id="patch_28">
    <path d="
M136.127 62.3494
C138.766 62.3494 141.297 61.301 143.163 59.4351
C145.029 57.5693 146.077 55.0382 146.077 52.3994
C146.077 49.7607 145.029 47.2296 143.163 45.3637
C141.297 43.4978 138.766 42.4494 136.127 42.4494
C133.489 42.4494 130.958 43.4978 129.092 45.3637
C127.226 47.2296 126.177 49.7607 126.177 52.3994
C126.177 55.0382 127.226 57.5693 129.092 59.4351
C130.958 61.301 133.489 62.3494 136.127 62.3494
z
" style="fill:#ff0d00;stroke:#000000;stroke-linejoin:miter;"/>
   </g>
   <g id="patch_29">
    <path d="
M272.784 62.3494
C275.422 62.3494 277.953 61.301 279.819 59.4351
C281.685 57.5693 282.734 55.0382 282.734 52.3994
C282.734 49.7607 281.685 47.2296 279.819 45.3637
C277.953 43.4978 275.422 42.4494 272.784 42.4494
C270.145 42.4494 267.614 43.4978 265.748 45.3637
C263.882 47.2296 262.834 49.7607 262.834 52.3994
C262.834 55.0382 263.882 57.5693 265.748 59.4351
C267.614 61.301 270.145 62.3494 272.784 62.3494
z
" style="fill:#ff0d00;stroke:#000000;stroke-linejoin:miter;"/>
   </g>
   <g id="patch_30">
    <path d="
M204.455 405.858
C207.094 405.858 209.625 404.81 211.491 402.944
C213.357 401.078 214.405 398.547 214.405 395.908
C214.405 393.269 213.357 390.738 211.491 388.872
C209.625 387.007 207.094 385.958 204.455 385.958
C201.817 385.958 199.286 387.007 197.42 388.872
C195.554 390.738 194.505 393.269 194.505 395.908
C194.505 398.547 195.554 401.078 197.42 402.944
C199.286 404.81 201.817 405.858 204.455 405.858
z
" style="fill:#ff0d00;stroke:#000000;stroke-linejoin:miter;"/>
   </g>
   <g id="patch_31">
    <path d="
M39.4968 158.98
C42.1355 158.98 44.6666 157.932 46.5325 156.066
C48.3984 154.2 49.4468 151.669 49.4468 149.03
C49.4468 146.391 48.3984 143.86 46.5325 141.994
C44.6666 140.128 42.1355 139.08 39.4968 139.08
C36.858 139.08 34.327 140.128 32.4611 141.994
C30.5952 143.86 29.5468 146.391 29.5468 149.03
C29.5468 151.669 30.5952 154.2 32.4611 156.066
C34.327 157.932 36.858 158.98 39.4968 158.98
z
" style="fill:#ff0d00;stroke:#000000;stroke-linejoin:miter;"/>
   </g>
   <g id="patch_32">
    <path d="
M330.709 353.562
C333.348 353.562 335.879 352.514 337.745 350.648
C339.611 348.782 340.659 346.251 340.659 343.612
C340.659 340.973 339.611 338.442 337.745 336.576
C335.879 334.71 333.348 333.662 330.709 333.662
C328.071 333.662 325.54 334.71 323.674 336.576
C321.808 338.442 320.759 340.973 320.759 343.612
C320.759 346.251 321.808 348.782 323.674 350.648
C325.54 352.514 328.071 353.562 330.709 353.562
z
" style="fill:#ff0d00;stroke:#000000;stroke-linejoin:miter;"/>
   </g>
   <g id="patch_33">
    <path d="
M369.414 158.98
C372.053 158.98 374.584 157.932 376.45 156.066
C378.316 154.2 379.364 151.669 379.364 149.03
C379.364 146.391 378.316 143.86 376.45 141.994
C374.584 140.128 372.053 139.08 369.414 139.08
C366.775 139.08 364.244 140.128 362.378 141.994
C360.513 143.86 359.464 146.391 359.464 149.03
C359.464 151.669 360.513 154.2 362.378 156.066
C364.244 157.932 366.775 158.98 369.414 158.98
z
" style="fill:#ff0d00;stroke:#000000;stroke-linejoin:miter;"/>
   </g>
   <g id="patch_34">
    <path d="
M330.709 101.054
C333.348 101.054 335.879 100.006 337.745 98.1399
C339.611 96.274 340.659 93.743 340.659 91.1042
C340.659 88.4654 339.611 85.9344 337.745 84.0685
C335.879 82.2026 333.348 81.1542 330.709 81.1542
C328.071 81.1542 325.54 82.2026 323.674 84.0685
C321.808 85.9344 320.759 88.4654 320.759 91.1042
C320.759 93.743 321.808 96.274 323.674 98.1399
C325.54 100.006 328.071 101.054 330.709 101.054
z
" style="fill:#ff0d00;stroke:#000000;stroke-linejoin:miter;"/>
   </g>
   <g id="patch_35">
    <path d="
M369.414 295.636
C372.053 295.636 374.584 294.588 376.45 292.722
C378.316 290.856 379.364 288.325 379.364 285.686
C379.364 283.047 378.316 280.516 376.45 278.651
C374.584 276.785 372.053 275.736 369.414 275.736
C366.775 275.736 364.244 276.785 362.378 278.651
C360.513 280.516 359.464 283.047 359.464 285.686
C359.464 288.325 360.513 290.856 362.378 292.722
C364.244 294.588 366.775 295.636 369.414 295.636
z
" style="fill:#ff0d00;stroke:#000000;stroke-linejoin:miter;"/>
   </g>
   <g id="patch_36">
    <path d="
M383.005 227.308
C385.644 227.308 388.175 226.26 390.041 224.394
C391.907 222.528 392.955 219.997 392.955 217.358
C392.955 214.719 391.907 212.188 390.041 210.322
C388.175 208.457 385.644 207.408 383.005 207.408
C380.367 207.408 377.836 208.457 375.97 210.322
C374.104 212.188 373.055 214.719 373.055 217.358
C373.055 219.997 374.104 222.528 375.97 224.394
C377.836 226.26 380.367 227.308 383.005 227.308
z
" style="fill:#ff0d00;stroke:#000000;stroke-linejoin:miter;"/>
   </g>
   <g id="patch_37">
    <path d="
M78.2016 353.562
C80.8403 353.562 83.3714 352.514 85.2373 350.648
C87.1032 348.782 88.1516 346.251 88.1516 343.612
C88.1516 340.973 87.1032 338.442 85.2373 336.576
C83.3714 334.71 80.8403 333.662 78.2016 333.662
C75.5628 333.662 73.0317 334.71 71.1658 336.576
C69.3 338.442 68.2516 340.973 68.2516 343.612
C68.2516 346.251 69.3 348.782 71.1658 350.648
C73.0317 352.514 75.5628 353.562 78.2016 353.562
z
" style="fill:#ff0d00;stroke:#000000;stroke-linejoin:miter;"/>
   </g>
   <g id="text_2">
    <!-- adagio -->
    <defs>
     <path d="
M30.6094 48.3906
Q23.3906 48.3906 19.1875 42.75
Q14.9844 37.1094 14.9844 27.2969
Q14.9844 17.4844 19.1562 11.8438
Q23.3438 6.20312 30.6094 6.20312
Q37.7969 6.20312 41.9844 11.8594
Q46.1875 17.5312 46.1875 27.2969
Q46.1875 37.0156 41.9844 42.7031
Q37.7969 48.3906 30.6094 48.3906
M30.6094 56
Q42.3281 56 49.0156 48.375
Q55.7188 40.7656 55.7188 27.2969
Q55.7188 13.875 49.0156 6.21875
Q42.3281 -1.42188 30.6094 -1.42188
Q18.8438 -1.42188 12.1719 6.21875
Q5.51562 13.875 5.51562 27.2969
Q5.51562 40.7656 12.1719 48.375
Q18.8438 56 30.6094 56" id="BitstreamVeraSans-Roman-6f"/>
     <path d="
M34.2812 27.4844
Q23.3906 27.4844 19.1875 25
Q14.9844 22.5156 14.9844 16.5
Q14.9844 11.7188 18.1406 8.90625
Q21.2969 6.10938 26.7031 6.10938
Q34.1875 6.10938 38.7031 11.4062
Q43.2188 16.7031 43.2188 25.4844
L43.2188 27.4844
z

M52.2031 31.2031
L52.2031 0
L43.2188 0
L43.2188 8.29688
Q40.1406 3.32812 35.5469 0.953125
Q30.9531 -1.42188 24.3125 -1.42188
Q15.9219 -1.42188 10.9531 3.29688
Q6 8.01562 6 15.9219
Q6 25.1406 12.1719 29.8281
Q18.3594 34.5156 30.6094 34.5156
L43.2188 34.5156
L43.2188 35.4062
Q43.2188 41.6094 39.1406 45
Q35.0625 48.3906 27.6875 48.3906
Q23 48.3906 18.5469 47.2656
Q14.1094 46.1406 10.0156 43.8906
L10.0156 52.2031
Q14.9375 54.1094 19.5781 55.0469
Q24.2188 56 28.6094 56
Q40.4844 56 46.3438 49.8438
Q52.2031 43.7031 52.2031 31.2031" id="BitstreamVeraSans-Roman-61"/>
    </defs>
    <g transform="translate(188.103908317 41.5674979327)scale(0.1 -0.1)">
     <use xlink:href="#BitstreamVeraSans-Roman-61"/>
     <use x="61.279296875" xlink:href="#BitstreamVeraSans-Roman-64"/>
     <use x="124.755859375" xlink:href="#BitstreamVeraSans-Roman-61"/>
     <use x="186.03515625" xlink:href="#BitstreamVeraSans-Roman-67"/>
     <use x="249.51171875" xlink:href="#BitstreamVeraSans-Roman-69"/>
     <use x="277.294921875" xlink:href="#BitstreamVeraSans-Roman-6f"/>
    </g>
   </g>
   <g id="text_3">
    <!-- ardan -->
    <defs>
     <path d="
M54.8906 33.0156
L54.8906 0
L45.9062 0
L45.9062 32.7188
Q45.9062 40.4844 42.875 44.3281
Q39.8438 48.1875 33.7969 48.1875
Q26.5156 48.1875 22.3125 43.5469
Q18.1094 38.9219 18.1094 30.9062
L18.1094 0
L9.07812 0
L9.07812 54.6875
L18.1094 54.6875
L18.1094 46.1875
Q21.3438 51.125 25.7031 53.5625
Q30.0781 56 35.7969 56
Q45.2188 56 50.0469 50.1719
Q54.8906 44.3438 54.8906 33.0156" id="BitstreamVeraSans-Roman-6e"/>
    </defs>
    <g transform="translate(122.412499427 55.1588075602)scale(0.1 -0.1)">
     <use xlink:href="#BitstreamVeraSans-Roman-61"/>
     <use x="61.279296875" xlink:href="#BitstreamVeraSans-Roman-72"/>
     <use x="100.642578125" xlink:href="#BitstreamVeraSans-Roman-64"/>
     <use x="164.119140625" xlink:href="#BitstreamVeraSans-Roman-61"/>
     <use x="225.3984375" xlink:href="#BitstreamVeraSans-Roman-6e"/>
    </g>
   </g>
   <g id="text_4">
    <!-- catherine -->
    <defs>
     <path d="
M18.3125 70.2188
L18.3125 54.6875
L36.8125 54.6875
L36.8125 47.7031
L18.3125 47.7031
L18.3125 18.0156
Q18.3125 11.3281 20.1406 9.42188
Q21.9688 7.51562 27.5938 7.51562
L36.8125 7.51562
L36.8125 0
L27.5938 0
Q17.1875 0 13.2344 3.875
Q9.28125 7.76562 9.28125 18.0156
L9.28125 47.7031
L2.6875 47.7031
L2.6875 54.6875
L9.28125 54.6875
L9.28125 70.2188
z
" id="BitstreamVeraSans-Roman-74"/>
     <path d="
M54.8906 33.0156
L54.8906 0
L45.9062 0
L45.9062 32.7188
Q45.9062 40.4844 42.875 44.3281
Q39.8438 48.1875 33.7969 48.1875
Q26.5156 48.1875 22.3125 43.5469
Q18.1094 38.9219 18.1094 30.9062
L18.1094 0
L9.07812 0
L9.07812 75.9844
L18.1094 75.9844
L18.1094 46.1875
Q21.3438 51.125 25.7031 53.5625
Q30.0781 56 35.7969 56
Q45.2188 56 50.0469 50.1719
Q54.8906 44.3438 54.8906 33.0156" id="BitstreamVeraSans-Roman-68"/>
     <path d="
M48.7812 52.5938
L48.7812 44.1875
Q44.9688 46.2969 41.1406 47.3438
Q37.3125 48.3906 33.4062 48.3906
Q24.6562 48.3906 19.8125 42.8438
Q14.9844 37.3125 14.9844 27.2969
Q14.9844 17.2812 19.8125 11.7344
Q24.6562 6.20312 33.4062 6.20312
Q37.3125 6.20312 41.1406 7.25
Q44.9688 8.29688 48.7812 10.4062
L48.7812 2.09375
Q45.0156 0.34375 40.9844 -0.53125
Q36.9688 -1.42188 32.4219 -1.42188
Q20.0625 -1.42188 12.7812 6.34375
Q5.51562 14.1094 5.51562 27.2969
Q5.51562 40.6719 12.8594 48.3281
Q20.2188 56 33.0156 56
Q37.1562 56 41.1094 55.1406
Q45.0625 54.2969 48.7812 52.5938" id="BitstreamVeraSans-Roman-63"/>
    </defs>
    <g transform="translate(55.0351473246 93.8635827574)scale(0.1 -0.1)">
     <use xlink:href="#BitstreamVeraSans-Roman-63"/>
     <use x="54.98046875" xlink:href="#BitstreamVeraSans-Roman-61"/>
     <use x="116.259765625" xlink:href="#BitstreamVeraSans-Roman-74"/>
     <use x="155.46875" xlink:href="#BitstreamVeraSans-Roman-68"/>
     <use x="218.84765625" xlink:href="#BitstreamVeraSans-Roman-65"/>
     <use x="280.37109375" xlink:href="#BitstreamVeraSans-Roman-72"/>
     <use x="321.484375" xlink:href="#BitstreamVeraSans-Roman-69"/>
     <use x="349.267578125" xlink:href="#BitstreamVeraSans-Roman-6e"/>
     <use x="412.646484375" xlink:href="#BitstreamVeraSans-Roman-65"/>
    </g>
   </g>
   <g id="text_5">
    <!-- celeste -->
    <g transform="translate(22.1061533775 151.78937236)scale(0.1 -0.1)">
     <use xlink:href="#BitstreamVeraSans-Roman-63"/>
     <use x="54.98046875" xlink:href="#BitstreamVeraSans-Roman-65"/>
     <use x="116.50390625" xlink:href="#BitstreamVeraSans-Roman-6c"/>
     <use x="144.287109375" xlink:href="#BitstreamVeraSans-Roman-65"/>
     <use x="205.810546875" xlink:href="#BitstreamVeraSans-Roman-73"/>
     <use x="257.91015625" xlink:href="#BitstreamVeraSans-Roman-74"/>
     <use x="297.119140625" xlink:href="#BitstreamVeraSans-Roman-65"/>
    </g>
   </g>
   <g id="text_6">
    <!-- fortress -->
    <defs>
     <path d="
M37.1094 75.9844
L37.1094 68.5
L28.5156 68.5
Q23.6875 68.5 21.7969 66.5469
Q19.9219 64.5938 19.9219 59.5156
L19.9219 54.6875
L34.7188 54.6875
L34.7188 47.7031
L19.9219 47.7031
L19.9219 0
L10.8906 0
L10.8906 47.7031
L2.29688 47.7031
L2.29688 54.6875
L10.8906 54.6875
L10.8906 58.5
Q10.8906 67.625 15.1406 71.7969
Q19.3906 75.9844 28.6094 75.9844
z
" id="BitstreamVeraSans-Roman-66"/>
    </defs>
    <g transform="translate(7.2 220.1175)scale(0.1 -0.1)">
     <use xlink:href="#BitstreamVeraSans-Roman-66"/>
     <use x="35.205078125" xlink:href="#BitstreamVeraSans-Roman-6f"/>
     <use x="96.38671875" xlink:href="#BitstreamVeraSans-Roman-72"/>
     <use x="137.5" xlink:href="#BitstreamVeraSans-Roman-74"/>
     <use x="176.708984375" xlink:href="#BitstreamVeraSans-Roman-72"/>
     <use x="215.572265625" xlink:href="#BitstreamVeraSans-Roman-65"/>
     <use x="277.095703125" xlink:href="#BitstreamVeraSans-Roman-73"/>
     <use x="329.1953125" xlink:href="#BitstreamVeraSans-Roman-73"/>
    </g>
   </g>
   <g id="text_7">
    <!-- glaive -->
    <g transform="translate(24.9866221275 288.44562764)scale(0.1 -0.1)">
     <use xlink:href="#BitstreamVeraSans-Roman-67"/>
     <use x="63.4765625" xlink:href="#BitstreamVeraSans-Roman-6c"/>
     <use x="91.259765625" xlink:href="#BitstreamVeraSans-Roman-61"/>
     <use x="152.5390625" xlink:href="#BitstreamVeraSans-Roman-69"/>
     <use x="180.322265625" xlink:href="#BitstreamVeraSans-Roman-76"/>
     <use x="239.501953125" xlink:href="#BitstreamVeraSans-Roman-65"/>
    </g>
   </g>
   <g id="text_8">
    <!-- joule -->
    <defs>
     <path d="
M9.42188 54.6875
L18.4062 54.6875
L18.4062 -0.984375
Q18.4062 -11.4219 14.4219 -16.1094
Q10.4531 -20.7969 1.60938 -20.7969
L-1.8125 -20.7969
L-1.8125 -13.1875
L0.59375 -13.1875
Q5.71875 -13.1875 7.5625 -10.8125
Q9.42188 -8.45312 9.42188 -0.984375
z

M9.42188 75.9844
L18.4062 75.9844
L18.4062 64.5938
L9.42188 64.5938
z
" id="BitstreamVeraSans-Roman-6a"/>
    </defs>
    <g transform="translate(66.2945223246 346.371417243)scale(0.1 -0.1)">
     <use xlink:href="#BitstreamVeraSans-Roman-6a"/>
     <use x="27.783203125" xlink:href="#BitstreamVeraSans-Roman-6f"/>
     <use x="88.96484375" xlink:href="#BitstreamVeraSans-Roman-75"/>
     <use x="152.34375" xlink:href="#BitstreamVeraSans-Roman-6c"/>
     <use x="180.126953125" xlink:href="#BitstreamVeraSans-Roman-65"/>
    </g>
   </g>
   <g id="text_9">
    <!-- koshka -->
    <g transform="translate(119.616405677 385.07619244)scale(0.1 -0.1)">
     <use xlink:href="#BitstreamVeraSans-Roman-6b"/>
     <use x="54.28515625" xlink:href="#BitstreamVeraSans-Roman-6f"/>
     <use x="115.466796875" xlink:href="#BitstreamVeraSans-Roman-73"/>
     <use x="167.56640625" xlink:href="#BitstreamVeraSans-Roman-68"/>
     <use x="230.9453125" xlink:href="#BitstreamVeraSans-Roman-6b"/>
     <use x="287.10546875" xlink:href="#BitstreamVeraSans-Roman-61"/>
    </g>
   </g>
   <g id="text_10">
    <!-- krul -->
    <g transform="translate(195.869533317 398.667502067)scale(0.1 -0.1)">
     <use xlink:href="#BitstreamVeraSans-Roman-6b"/>
     <use x="57.91015625" xlink:href="#BitstreamVeraSans-Roman-72"/>
     <use x="99.0234375" xlink:href="#BitstreamVeraSans-Roman-75"/>
     <use x="162.40234375" xlink:href="#BitstreamVeraSans-Roman-6c"/>
    </g>
   </g>
   <g id="text_11">
    <!-- petal -->
    <defs>
     <path d="
M18.1094 8.20312
L18.1094 -20.7969
L9.07812 -20.7969
L9.07812 54.6875
L18.1094 54.6875
L18.1094 46.3906
Q20.9531 51.2656 25.2656 53.625
Q29.5938 56 35.5938 56
Q45.5625 56 51.7812 48.0938
Q58.0156 40.1875 58.0156 27.2969
Q58.0156 14.4062 51.7812 6.48438
Q45.5625 -1.42188 35.5938 -1.42188
Q29.5938 -1.42188 25.2656 0.953125
Q20.9531 3.32812 18.1094 8.20312
M48.6875 27.2969
Q48.6875 37.2031 44.6094 42.8438
Q40.5312 48.4844 33.4062 48.4844
Q26.2656 48.4844 22.1875 42.8438
Q18.1094 37.2031 18.1094 27.2969
Q18.1094 17.3906 22.1875 11.75
Q26.2656 6.10938 33.4062 6.10938
Q40.5312 6.10938 44.6094 11.75
Q48.6875 17.3906 48.6875 27.2969" id="BitstreamVeraSans-Roman-70"/>
    </defs>
    <g transform="translate(261.042192207 385.07619244)scale(0.1 -0.1)">
     <use xlink:href="#BitstreamVeraSans-Roman-70"/>
     <use x="63.4765625" xlink:href="#BitstreamVeraSans-Roman-65"/>
     <use x="125.0" xlink:href="#BitstreamVeraSans-Roman-74"/>
     <use x="164.208984375" xlink:href="#BitstreamVeraSans-Roman-61"/>
     <use x="225.48828125" xlink:href="#BitstreamVeraSans-Roman-6c"/>
    </g>
   </g>
   <g id="text_12">
    <!-- ringo -->
    <g transform="translate(318.58985681 346.371417243)scale(0.1 -0.1)">
     <use xlink:href="#BitstreamVeraSans-Roman-72"/>
     <use x="41.11328125" xlink:href="#BitstreamVeraSans-Roman-69"/>
     <use x="68.896484375" xlink:href="#BitstreamVeraSans-Roman-6e"/>
     <use x="132.275390625" xlink:href="#BitstreamVeraSans-Roman-67"/>
     <use x="195.751953125" xlink:href="#BitstreamVeraSans-Roman-6f"/>
    </g>
   </g>
   <g id="text_13">
    <!-- rona -->
    <g transform="translate(359.086819507 288.44562764)scale(0.1 -0.1)">
     <use xlink:href="#BitstreamVeraSans-Roman-72"/>
     <use x="38.86328125" xlink:href="#BitstreamVeraSans-Roman-6f"/>
     <use x="100.044921875" xlink:href="#BitstreamVeraSans-Roman-6e"/>
     <use x="163.423828125" xlink:href="#BitstreamVeraSans-Roman-61"/>
    </g>
   </g>
   <g id="text_14">
    <!-- saw -->
    <defs>
     <path d="
M4.20312 54.6875
L13.1875 54.6875
L24.4219 12.0156
L35.5938 54.6875
L46.1875 54.6875
L57.4219 12.0156
L68.6094 54.6875
L77.5938 54.6875
L63.2812 0
L52.6875 0
L40.9219 44.8281
L29.1094 0
L18.5 0
z
" id="BitstreamVeraSans-Roman-77"/>
    </defs>
    <g transform="translate(373.728129135 220.1175)scale(0.1 -0.1)">
     <use xlink:href="#BitstreamVeraSans-Roman-73"/>
     <use x="52.099609375" xlink:href="#BitstreamVeraSans-Roman-61"/>
     <use x="113.37890625" xlink:href="#BitstreamVeraSans-Roman-77"/>
    </g>
   </g>
   <g id="text_15">
    <!-- skaarf -->
    <g transform="translate(354.233694507 151.78937236)scale(0.1 -0.1)">
     <use xlink:href="#BitstreamVeraSans-Roman-73"/>
     <use x="52.099609375" xlink:href="#BitstreamVeraSans-Roman-6b"/>
     <use x="108.259765625" xlink:href="#BitstreamVeraSans-Roman-61"/>
     <use x="169.5390625" xlink:href="#BitstreamVeraSans-Roman-61"/>
     <use x="230.818359375" xlink:href="#BitstreamVeraSans-Roman-72"/>
     <use x="271.931640625" xlink:href="#BitstreamVeraSans-Roman-66"/>
    </g>
   </g>
   <g id="text_16">
    <!-- taka -->
    <g transform="translate(320.40157556 93.8635827574)scale(0.1 -0.1)">
     <use xlink:href="#BitstreamVeraSans-Roman-74"/>
     <use x="39.208984375" xlink:href="#BitstreamVeraSans-Roman-61"/>
     <use x="100.48828125" xlink:href="#BitstreamVeraSans-Roman-6b"/>
     <use x="156.6484375" xlink:href="#BitstreamVeraSans-Roman-61"/>
    </g>
   </g>
   <g id="text_17">
    <!-- vox -->
    <defs>
     <path d="
M54.8906 54.6875
L35.1094 28.0781
L55.9062 0
L45.3125 0
L29.3906 21.4844
L13.4844 0
L2.875 0
L24.125 28.6094
L4.6875 54.6875
L15.2812 54.6875
L29.7812 35.2031
L44.2812 54.6875
z
" id="BitstreamVeraSans-Roman-78"/>
    </defs>
    <g transform="translate(264.275004707 55.1588075602)scale(0.1 -0.1)">
     <use xlink:href="#BitstreamVeraSans-Roman-76"/>
     <use x="59.1796875" xlink:href="#BitstreamVeraSans-Roman-6f"/>
     <use x="117.236328125" xlink:href="#BitstreamVeraSans-Roman-78"/>
    </g>
   </g>
  </g>
 </g>
 <defs>
  <clipPath id="pc581fc927e">
   <rect height="392.08" width="392.08" x="8.41547081727" y="21.318125"/>
  </clipPath>
 </defs>
</svg>
