<?xml version="1.0" encoding="utf-8" standalone="no"?>
<!DOCTYPE svg PUBLIC "-//W3C//DTD SVG 1.1//EN"
  "http://www.w3.org/Graphics/SVG/1.1/DTD/svg11.dtd">
<!-- Created with matplotlib (http://matplotlib.org/) -->
<svg height="420pt" version="1.1" viewBox="0 0 419 420" width="419pt" xmlns="http://www.w3.org/2000/svg" xmlns:xlink="http://www.w3.org/1999/xlink">
 <defs>
  <style type="text/css">
*{stroke-linecap:butt;stroke-linejoin:round;}
  </style>
 </defs>
 <g id="figure_1">
  <g id="patch_1">
   <path d="
M0 420.598
L419.383 420.598
L419.383 0
L0 0
z
" style="fill:#ffffff;"/>
  </g>
  <g id="axes_1">
   <g id="patch_2">
    <path d="
M18.3655 413.398
L410.445 413.398
L410.445 21.3181
L18.3655 21.3181
z
" style="fill:#ffffff;"/>
   </g>
   <g id="patch_3">
    <path clip-path="url(#pb7fbeb4136)" d="
M207.031 31.9128
Q147.76 56.4635 90.5557 80.1584" style="fill:none;stroke:#000000;stroke-linecap:round;stroke-width:2.0;"/>
    <path clip-path="url(#pb7fbeb4136)" d="
M101.708 80.9509
L90.5557 80.1584
L97.8811 71.7122
L101.708 80.9509
z
" style="stroke:#000000;stroke-linecap:round;stroke-width:2.0;"/>
   </g>
   <g id="patch_4">
    <path clip-path="url(#pb7fbeb4136)" d="
M48.0837 143.665
Q193.978 114.645 337.68 86.0607" style="fill:none;stroke:#000000;stroke-linecap:round;stroke-width:2.0;"/>
    <path clip-path="url(#pb7fbeb4136)" d="
M326.897 83.1076
L337.68 86.0607
L328.847 92.9155
L326.897 83.1076
z
" style="stroke:#000000;stroke-linecap:round;stroke-width:2.0;"/>
   </g>
   <g id="patch_5">
    <path clip-path="url(#pb7fbeb4136)" d="
M143.827 51.0341
Q178.338 224.533 212.413 395.839" style="fill:none;stroke:#000000;stroke-linecap:round;stroke-width:2.0;"/>
    <path clip-path="url(#pb7fbeb4136)" d="
M215.366 385.056
L212.413 395.839
L205.558 387.006
L215.366 385.056
z
" style="stroke:#000000;stroke-linecap:round;stroke-width:2.0;"/>
   </g>
   <g id="patch_6">
    <path clip-path="url(#pb7fbeb4136)" d="
M48.7491 283.818
Q193.975 186.781 341.06 88.5017" style="fill:none;stroke:#000000;stroke-linecap:round;stroke-width:2.0;"/>
    <path clip-path="url(#pb7fbeb4136)" d="
M59.8416 282.419
L48.7491 283.818
L54.2859 274.105
L59.8416 282.419
z
" style="stroke:#000000;stroke-linecap:round;stroke-width:2.0;"/>
   </g>
   <g id="patch_7">
    <path clip-path="url(#pb7fbeb4136)" d="
M152.29 389.516
Q244.984 371.078 339.871 352.204" style="fill:none;stroke:#000000;stroke-linecap:round;stroke-width:2.0;"/>
    <path clip-path="url(#pb7fbeb4136)" d="
M163.073 392.469
L152.29 389.516
L161.122 382.661
L163.073 392.469
z
" style="stroke:#000000;stroke-linecap:round;stroke-width:2.0;"/>
   </g>
   <g id="patch_8">
    <path clip-path="url(#pb7fbeb4136)" d="
M146.18 382.069
Q214.405 217.358 283.487 50.5809" style="fill:none;stroke:#000000;stroke-linecap:round;stroke-width:2.0;"/>
    <path clip-path="url(#pb7fbeb4136)" d="
M154.626 374.744
L146.18 382.069
L145.387 370.917
L154.626 374.744
z
" style="stroke:#000000;stroke-linecap:round;stroke-width:2.0;"/>
   </g>
   <g id="patch_9">
    <path clip-path="url(#pb7fbeb4136)" d="
M150.093 393.066
Q178.338 398.684 204.389 403.866" style="fill:none;stroke:#000000;stroke-linecap:round;stroke-width:2.0;"/>
    <path clip-path="url(#pb7fbeb4136)" d="
M195.557 397.011
L204.389 403.866
L193.606 406.819
L195.557 397.011
z
" style="stroke:#000000;stroke-linecap:round;stroke-width:2.0;"/>
   </g>
   <g id="patch_10">
    <path clip-path="url(#pb7fbeb4136)" d="
M33.278 214.304
Q186.801 150.713 338.258 87.9776" style="fill:none;stroke:#000000;stroke-linecap:round;stroke-width:2.0;"/>
    <path clip-path="url(#pb7fbeb4136)" d="
M327.105 87.185
L338.258 87.9776
L330.932 96.4238
L327.105 87.185
z
" style="stroke:#000000;stroke-linecap:round;stroke-width:2.0;"/>
   </g>
   <g id="patch_11">
    <path clip-path="url(#pb7fbeb4136)" d="
M217.459 398.486
Q281.05 244.963 343.786 93.5059" style="fill:none;stroke:#000000;stroke-linecap:round;stroke-width:2.0;"/>
    <path clip-path="url(#pb7fbeb4136)" d="
M335.34 100.831
L343.786 93.5059
L344.579 104.658
L335.34 100.831
z
" style="stroke:#000000;stroke-linecap:round;stroke-width:2.0;"/>
   </g>
   <g id="patch_12">
    <path clip-path="url(#pb7fbeb4136)" d="
M152.488 391.509
Q214.406 391.509 278.56 391.509" style="fill:none;stroke:#000000;stroke-linecap:round;stroke-width:2.0;"/>
    <path clip-path="url(#pb7fbeb4136)" d="
M162.488 396.509
L152.488 391.509
L162.488 386.509
L162.488 396.509
z
" style="stroke:#000000;stroke-linecap:round;stroke-width:2.0;"/>
   </g>
   <g id="patch_13">
    <path clip-path="url(#pb7fbeb4136)" d="
M86.7597 345.004
Q214.405 217.358 340.47 91.2935" style="fill:none;stroke:#000000;stroke-linecap:round;stroke-width:2.0;"/>
    <path clip-path="url(#pb7fbeb4136)" d="
M329.863 94.829
L340.47 91.2935
L336.935 101.9
L329.863 94.829
z
" style="stroke:#000000;stroke-linecap:round;stroke-width:2.0;"/>
   </g>
   <g id="patch_14">
    <path clip-path="url(#pb7fbeb4136)" d="
M222.9 400.182
Q301.482 347.675 381.924 293.926" style="fill:none;stroke:#000000;stroke-linecap:round;stroke-width:2.0;"/>
    <path clip-path="url(#pb7fbeb4136)" d="
M233.993 398.784
L222.9 400.182
L228.437 390.469
L233.993 398.784
z
" style="stroke:#000000;stroke-linecap:round;stroke-width:2.0;"/>
   </g>
   <g id="patch_15">
    <path clip-path="url(#pb7fbeb4136)" d="
M90.5542 87.978
Q242.011 150.714 395.534 214.305" style="fill:none;stroke:#000000;stroke-linecap:round;stroke-width:2.0;"/>
    <path clip-path="url(#pb7fbeb4136)" d="
M97.8796 96.4242
L90.5542 87.978
L101.706 87.1854
L97.8796 96.4242
z
" style="stroke:#000000;stroke-linecap:round;stroke-width:2.0;"/>
   </g>
   <g id="patch_16">
    <path clip-path="url(#pb7fbeb4136)" d="
M85.5497 90.7042
Q183.829 237.789 280.866 383.015" style="fill:none;stroke:#000000;stroke-linecap:round;stroke-width:2.0;"/>
    <path clip-path="url(#pb7fbeb4136)" d="
M279.467 371.923
L280.866 383.015
L271.153 377.479
L279.467 371.923
z
" style="stroke:#000000;stroke-linecap:round;stroke-width:2.0;"/>
   </g>
   <g id="patch_17">
    <path clip-path="url(#pb7fbeb4136)" d="
M46.8895 293.928
Q127.331 347.677 205.913 400.184" style="fill:none;stroke:#000000;stroke-linecap:round;stroke-width:2.0;"/>
    <path clip-path="url(#pb7fbeb4136)" d="
M200.376 390.471
L205.913 400.184
L194.821 398.785
L200.376 390.471
z
" style="stroke:#000000;stroke-linecap:round;stroke-width:2.0;"/>
   </g>
   <g id="patch_18">
    <path clip-path="url(#pb7fbeb4136)" d="
M384.125 138.59
Q368.126 114.645 353.369 92.5598" style="fill:none;stroke:#000000;stroke-linecap:round;stroke-width:2.0;"/>
    <path clip-path="url(#pb7fbeb4136)" d="
M354.767 103.652
L353.369 92.5598
L363.082 98.0967
L354.767 103.652
z
" style="stroke:#000000;stroke-linecap:round;stroke-width:2.0;"/>
   </g>
   <g id="matplotlib.axis_1"/>
   <g id="matplotlib.axis_2"/>
   <g id="text_1">
    <!-- Threatening - All guides -->
    <defs>
     <path id="BitstreamVeraSans-Roman-20"/>
     <path d="
M54.8906 33.0156
L54.8906 0
L45.9062 0
L45.9062 32.7188
Q45.9062 40.4844 42.875 44.3281
Q39.8438 48.1875 33.7969 48.1875
Q26.5156 48.1875 22.3125 43.5469
Q18.1094 38.9219 18.1094 30.9062
L18.1094 0
L9.07812 0
L9.07812 54.6875
L18.1094 54.6875
L18.1094 46.1875
Q21.3438 51.125 25.7031 53.5625
Q30.0781 56 35.7969 56
Q45.2188 56 50.0469 50.1719
Q54.8906 44.3438 54.8906 33.0156" id="BitstreamVeraSans-Roman-6e"/>
     <path d="
M34.2812 27.4844
Q23.3906 27.4844 19.1875 25
Q14.9844 22.5156 14.9844 16.5
Q14.9844 11.7188 18.1406 8.90625
Q21.2969 6.10938 26.7031 6.10938
Q34.1875 6.10938 38.7031 11.4062
Q43.2188 16.7031 43.2188 25.4844
L43.2188 27.4844
z

M52.2031 31.2031
L52.2031 0
L43.2188 0
L43.2188 8.29688
Q40.1406 3.32812 35.5469 0.953125
Q30.9531 -1.42188 24.3125 -1.42188
Q15.9219 -1.42188 10.9531 3.29688
Q6 8.01562 6 15.9219
Q6 25.1406 12.1719 29.8281
Q18.3594 34.5156 30.6094 34.5156
L43.2188 34.5156
L43.2188 35.4062
Q43.2188 41.6094 39.1406 45
Q35.0625 48.3906 27.6875 48.3906
Q23 48.3906 18.5469 47.2656
Q14.1094 46.1406 10.0156 43.8906
L10.0156 52.2031
Q14.9375 54.1094 19.5781 55.0469
Q24.2188 56 28.6094 56
Q40.4844 56 46.3438 49.8438
Q52.2031 43.7031 52.2031 31.2031" id="BitstreamVeraSans-Roman-61"/>
     <path d="
M9.42188 75.9844
L18.4062 75.9844
L18.4062 0
L9.42188 0
z
" id="BitstreamVeraSans-Roman-6c"/>
     <path d="
M44.2812 53.0781
L44.2812 44.5781
Q40.4844 46.5312 36.375 47.5
Q32.2812 48.4844 27.875 48.4844
Q21.1875 48.4844 17.8438 46.4375
Q14.5 44.3906 14.5 40.2812
Q14.5 37.1562 16.8906 35.375
Q19.2812 33.5938 26.5156 31.9844
L29.5938 31.2969
Q39.1562 29.25 43.1875 25.5156
Q47.2188 21.7812 47.2188 15.0938
Q47.2188 7.46875 41.1875 3.01562
Q35.1562 -1.42188 24.6094 -1.42188
Q20.2188 -1.42188 15.4531 -0.5625
Q10.6875 0.296875 5.42188 2
L5.42188 11.2812
Q10.4062 8.6875 15.2344 7.39062
Q20.0625 6.10938 24.8125 6.10938
Q31.1562 6.10938 34.5625 8.28125
Q37.9844 10.4531 37.9844 14.4062
Q37.9844 18.0625 35.5156 20.0156
Q33.0625 21.9688 24.7031 23.7812
L21.5781 24.5156
Q13.2344 26.2656 9.51562 29.9062
Q5.8125 33.5469 5.8125 39.8906
Q5.8125 47.6094 11.2812 51.7969
Q16.75 56 26.8125 56
Q31.7812 56 36.1719 55.2656
Q40.5781 54.5469 44.2812 53.0781" id="BitstreamVeraSans-Roman-73"/>
     <path d="
M-0.296875 72.9062
L61.375 72.9062
L61.375 64.5938
L35.5 64.5938
L35.5 0
L25.5938 0
L25.5938 64.5938
L-0.296875 64.5938
z
" id="BitstreamVeraSans-Roman-54"/>
     <path d="
M54.8906 33.0156
L54.8906 0
L45.9062 0
L45.9062 32.7188
Q45.9062 40.4844 42.875 44.3281
Q39.8438 48.1875 33.7969 48.1875
Q26.5156 48.1875 22.3125 43.5469
Q18.1094 38.9219 18.1094 30.9062
L18.1094 0
L9.07812 0
L9.07812 75.9844
L18.1094 75.9844
L18.1094 46.1875
Q21.3438 51.125 25.7031 53.5625
Q30.0781 56 35.7969 56
Q45.2188 56 50.0469 50.1719
Q54.8906 44.3438 54.8906 33.0156" id="BitstreamVeraSans-Roman-68"/>
     <path d="
M34.1875 63.1875
L20.7969 26.9062
L47.6094 26.9062
z

M28.6094 72.9062
L39.7969 72.9062
L67.5781 0
L57.3281 0
L50.6875 18.7031
L17.8281 18.7031
L11.1875 0
L0.78125 0
z
" id="BitstreamVeraSans-Roman-41"/>
     <path d="
M45.4062 46.3906
L45.4062 75.9844
L54.3906 75.9844
L54.3906 0
L45.4062 0
L45.4062 8.20312
Q42.5781 3.32812 38.25 0.953125
Q33.9375 -1.42188 27.875 -1.42188
Q17.9688 -1.42188 11.7344 6.48438
Q5.51562 14.4062 5.51562 27.2969
Q5.51562 40.1875 11.7344 48.0938
Q17.9688 56 27.875 56
Q33.9375 56 38.25 53.625
Q42.5781 51.2656 45.4062 46.3906
M14.7969 27.2969
Q14.7969 17.3906 18.875 11.75
Q22.9531 6.10938 30.0781 6.10938
Q37.2031 6.10938 41.2969 11.75
Q45.4062 17.3906 45.4062 27.2969
Q45.4062 37.2031 41.2969 42.8438
Q37.2031 48.4844 30.0781 48.4844
Q22.9531 48.4844 18.875 42.8438
Q14.7969 37.2031 14.7969 27.2969" id="BitstreamVeraSans-Roman-64"/>
     <path d="
M56.2031 29.5938
L56.2031 25.2031
L14.8906 25.2031
Q15.4844 15.9219 20.4844 11.0625
Q25.4844 6.20312 34.4219 6.20312
Q39.5938 6.20312 44.4531 7.46875
Q49.3125 8.73438 54.1094 11.2812
L54.1094 2.78125
Q49.2656 0.734375 44.1875 -0.34375
Q39.1094 -1.42188 33.8906 -1.42188
Q20.7969 -1.42188 13.1562 6.1875
Q5.51562 13.8125 5.51562 26.8125
Q5.51562 40.2344 12.7656 48.1094
Q20.0156 56 32.3281 56
Q43.3594 56 49.7812 48.8906
Q56.2031 41.7969 56.2031 29.5938
M47.2188 32.2344
Q47.125 39.5938 43.0938 43.9844
Q39.0625 48.3906 32.4219 48.3906
Q24.9062 48.3906 20.3906 44.1406
Q15.875 39.8906 15.1875 32.1719
z
" id="BitstreamVeraSans-Roman-65"/>
     <path d="
M9.42188 54.6875
L18.4062 54.6875
L18.4062 0
L9.42188 0
z

M9.42188 75.9844
L18.4062 75.9844
L18.4062 64.5938
L9.42188 64.5938
z
" id="BitstreamVeraSans-Roman-69"/>
     <path d="
M18.3125 70.2188
L18.3125 54.6875
L36.8125 54.6875
L36.8125 47.7031
L18.3125 47.7031
L18.3125 18.0156
Q18.3125 11.3281 20.1406 9.42188
Q21.9688 7.51562 27.5938 7.51562
L36.8125 7.51562
L36.8125 0
L27.5938 0
Q17.1875 0 13.2344 3.875
Q9.28125 7.76562 9.28125 18.0156
L9.28125 47.7031
L2.6875 47.7031
L2.6875 54.6875
L9.28125 54.6875
L9.28125 70.2188
z
" id="BitstreamVeraSans-Roman-74"/>
     <path d="
M8.5 21.5781
L8.5 54.6875
L17.4844 54.6875
L17.4844 21.9219
Q17.4844 14.1562 20.5 10.2656
Q23.5312 6.39062 29.5938 6.39062
Q36.8594 6.39062 41.0781 11.0312
Q45.3125 15.6719 45.3125 23.6875
L45.3125 54.6875
L54.2969 54.6875
L54.2969 0
L45.3125 0
L45.3125 8.40625
Q42.0469 3.42188 37.7188 1
Q33.4062 -1.42188 27.6875 -1.42188
Q18.2656 -1.42188 13.375 4.4375
Q8.5 10.2969 8.5 21.5781" id="BitstreamVeraSans-Roman-75"/>
     <path d="
M41.1094 46.2969
Q39.5938 47.1719 37.8125 47.5781
Q36.0312 48 33.8906 48
Q26.2656 48 22.1875 43.0469
Q18.1094 38.0938 18.1094 28.8125
L18.1094 0
L9.07812 0
L9.07812 54.6875
L18.1094 54.6875
L18.1094 46.1875
Q20.9531 51.1719 25.4844 53.5781
Q30.0312 56 36.5312 56
Q37.4531 56 38.5781 55.875
Q39.7031 55.7656 41.0625 55.5156
z
" id="BitstreamVeraSans-Roman-72"/>
     <path d="
M45.4062 27.9844
Q45.4062 37.75 41.375 43.1094
Q37.3594 48.4844 30.0781 48.4844
Q22.8594 48.4844 18.8281 43.1094
Q14.7969 37.75 14.7969 27.9844
Q14.7969 18.2656 18.8281 12.8906
Q22.8594 7.51562 30.0781 7.51562
Q37.3594 7.51562 41.375 12.8906
Q45.4062 18.2656 45.4062 27.9844
M54.3906 6.78125
Q54.3906 -7.17188 48.1875 -13.9844
Q42 -20.7969 29.2031 -20.7969
Q24.4688 -20.7969 20.2656 -20.0938
Q16.0625 -19.3906 12.1094 -17.9219
L12.1094 -9.1875
Q16.0625 -11.3281 19.9219 -12.3438
Q23.7812 -13.375 27.7812 -13.375
Q36.625 -13.375 41.0156 -8.76562
Q45.4062 -4.15625 45.4062 5.17188
L45.4062 9.625
Q42.625 4.78125 38.2812 2.39062
Q33.9375 0 27.875 0
Q17.8281 0 11.6719 7.65625
Q5.51562 15.3281 5.51562 27.9844
Q5.51562 40.6719 11.6719 48.3281
Q17.8281 56 27.875 56
Q33.9375 56 38.2812 53.6094
Q42.625 51.2188 45.4062 46.3906
L45.4062 54.6875
L54.3906 54.6875
z
" id="BitstreamVeraSans-Roman-67"/>
     <path d="
M4.89062 31.3906
L31.2031 31.3906
L31.2031 23.3906
L4.89062 23.3906
z
" id="BitstreamVeraSans-Roman-2d"/>
    </defs>
    <g transform="translate(143.15921875 16.318125)scale(0.12 -0.12)">
     <use xlink:href="#BitstreamVeraSans-Roman-54"/>
     <use x="61.083984375" xlink:href="#BitstreamVeraSans-Roman-68"/>
     <use x="124.462890625" xlink:href="#BitstreamVeraSans-Roman-72"/>
     <use x="163.326171875" xlink:href="#BitstreamVeraSans-Roman-65"/>
     <use x="224.849609375" xlink:href="#BitstreamVeraSans-Roman-61"/>
     <use x="286.12890625" xlink:href="#BitstreamVeraSans-Roman-74"/>
     <use x="325.337890625" xlink:href="#BitstreamVeraSans-Roman-65"/>
     <use x="386.861328125" xlink:href="#BitstreamVeraSans-Roman-6e"/>
     <use x="450.240234375" xlink:href="#BitstreamVeraSans-Roman-69"/>
     <use x="478.0234375" xlink:href="#BitstreamVeraSans-Roman-6e"/>
     <use x="541.40234375" xlink:href="#BitstreamVeraSans-Roman-67"/>
     <use x="604.87890625" xlink:href="#BitstreamVeraSans-Roman-20"/>
     <use x="636.666015625" xlink:href="#BitstreamVeraSans-Roman-2d"/>
     <use x="672.75" xlink:href="#BitstreamVeraSans-Roman-20"/>
     <use x="704.537109375" xlink:href="#BitstreamVeraSans-Roman-41"/>
     <use x="772.9453125" xlink:href="#BitstreamVeraSans-Roman-6c"/>
     <use x="800.728515625" xlink:href="#BitstreamVeraSans-Roman-6c"/>
     <use x="828.51171875" xlink:href="#BitstreamVeraSans-Roman-20"/>
     <use x="860.298828125" xlink:href="#BitstreamVeraSans-Roman-67"/>
     <use x="923.775390625" xlink:href="#BitstreamVeraSans-Roman-75"/>
     <use x="987.154296875" xlink:href="#BitstreamVeraSans-Roman-69"/>
     <use x="1014.9375" xlink:href="#BitstreamVeraSans-Roman-64"/>
     <use x="1078.4140625" xlink:href="#BitstreamVeraSans-Roman-65"/>
     <use x="1139.9375" xlink:href="#BitstreamVeraSans-Roman-73"/>
    </g>
   </g>
   <g id="PathCollection_1">
    <defs>
     <path d="
M0 7.07107
C1.87527 7.07107 3.67398 6.32602 5 5
C6.32602 3.67398 7.07107 1.87527 7.07107 0
C7.07107 -1.87527 6.32602 -3.67398 5 -5
C3.67398 -6.32602 1.87527 -7.07107 0 -7.07107
C-1.87527 -7.07107 -3.67398 -6.32602 -5 -5
C-6.32602 -3.67398 -7.07107 -1.87527 -7.07107 0
C-7.07107 1.87527 -6.32602 3.67398 -5 5
C-3.67398 6.32602 -1.87527 7.07107 0 7.07107
z
" id="C0_0_483d1e1a4f"/>
    </defs>
    <use style="fill:#00bfff;stroke:#000000;" x="214.40546875" xlink:href="#C0_0_483d1e1a4f" y="405.858125"/>
    <use style="fill:#00bfff;stroke:#000000;" x="347.695097004" xlink:href="#C0_0_483d1e1a4f" y="84.0684967463"/>
    <use style="fill:#00bfff;stroke:#000000;" x="40.2541768716" xlink:href="#C0_0_483d1e1a4f" y="289.493952001"/>
    <use style="fill:#ff0d00;stroke:#000000;" x="214.40546875" xlink:href="#C0_0_483d1e1a4f" y="28.858125"/>
    <use style="fill:#ff0d00;stroke:#000000;" x="142.269641749" xlink:href="#C0_0_483d1e1a4f" y="43.2068331216"/>
    <use style="fill:#ff0d00;stroke:#000000;" x="286.541295751" xlink:href="#C0_0_483d1e1a4f" y="43.2068331216"/>
    <use style="fill:#ff0d00;stroke:#000000;" x="40.2541768716" xlink:href="#C0_0_483d1e1a4f" y="145.222297999"/>
    <use style="fill:#ff0d00;stroke:#000000;" x="347.695097004" xlink:href="#C0_0_483d1e1a4f" y="350.647753254"/>
    <use style="fill:#ff0d00;stroke:#000000;" x="81.1158404963" xlink:href="#C0_0_483d1e1a4f" y="84.0684967463"/>
    <use style="fill:#ff0d00;stroke:#000000;" x="388.556760628" xlink:href="#C0_0_483d1e1a4f" y="145.222297999"/>
    <use style="fill:#ff0d00;stroke:#000000;" x="142.269641749" xlink:href="#C0_0_483d1e1a4f" y="391.509416878"/>
    <use style="fill:#ff0d00;stroke:#000000;" x="286.541295751" xlink:href="#C0_0_483d1e1a4f" y="391.509416878"/>
    <use style="fill:#ff0d00;stroke:#000000;" x="388.556760628" xlink:href="#C0_0_483d1e1a4f" y="289.493952001"/>
    <use style="fill:#ff0d00;stroke:#000000;" x="402.90546875" xlink:href="#C0_0_483d1e1a4f" y="217.358125"/>
    <use style="fill:#ff0d00;stroke:#000000;" x="81.1158404963" xlink:href="#C0_0_483d1e1a4f" y="350.647753254"/>
    <use style="fill:#ff0d00;stroke:#000000;" x="25.90546875" xlink:href="#C0_0_483d1e1a4f" y="217.358125"/>
   </g>
   <g id="text_2">
    <!-- adagio -->
    <defs>
     <path d="
M30.6094 48.3906
Q23.3906 48.3906 19.1875 42.75
Q14.9844 37.1094 14.9844 27.2969
Q14.9844 17.4844 19.1562 11.8438
Q23.3438 6.20312 30.6094 6.20312
Q37.7969 6.20312 41.9844 11.8594
Q46.1875 17.5312 46.1875 27.2969
Q46.1875 37.0156 41.9844 42.7031
Q37.7969 48.3906 30.6094 48.3906
M30.6094 56
Q42.3281 56 49.0156 48.375
Q55.7188 40.7656 55.7188 27.2969
Q55.7188 13.875 49.0156 6.21875
Q42.3281 -1.42188 30.6094 -1.42188
Q18.8438 -1.42188 12.1719 6.21875
Q5.51562 13.875 5.51562 27.2969
Q5.51562 40.7656 12.1719 48.375
Q18.8438 56 30.6094 56" id="BitstreamVeraSans-Roman-6f"/>
    </defs>
    <g transform="translate(198.05390625 31.6175)scale(0.1 -0.1)">
     <use xlink:href="#BitstreamVeraSans-Roman-61"/>
     <use x="61.279296875" xlink:href="#BitstreamVeraSans-Roman-64"/>
     <use x="124.755859375" xlink:href="#BitstreamVeraSans-Roman-61"/>
     <use x="186.03515625" xlink:href="#BitstreamVeraSans-Roman-67"/>
     <use x="249.51171875" xlink:href="#BitstreamVeraSans-Roman-69"/>
     <use x="277.294921875" xlink:href="#BitstreamVeraSans-Roman-6f"/>
    </g>
   </g>
   <g id="text_3">
    <!-- ardan -->
    <g transform="translate(128.554797999 45.9662081216)scale(0.1 -0.1)">
     <use xlink:href="#BitstreamVeraSans-Roman-61"/>
     <use x="61.279296875" xlink:href="#BitstreamVeraSans-Roman-72"/>
     <use x="100.642578125" xlink:href="#BitstreamVeraSans-Roman-64"/>
     <use x="164.119140625" xlink:href="#BitstreamVeraSans-Roman-61"/>
     <use x="225.3984375" xlink:href="#BitstreamVeraSans-Roman-6e"/>
    </g>
   </g>
   <g id="text_4">
    <!-- catherine -->
    <defs>
     <path d="
M48.7812 52.5938
L48.7812 44.1875
Q44.9688 46.2969 41.1406 47.3438
Q37.3125 48.3906 33.4062 48.3906
Q24.6562 48.3906 19.8125 42.8438
Q14.9844 37.3125 14.9844 27.2969
Q14.9844 17.2812 19.8125 11.7344
Q24.6562 6.20312 33.4062 6.20312
Q37.3125 6.20312 41.1406 7.25
Q44.9688 8.29688 48.7812 10.4062
L48.7812 2.09375
Q45.0156 0.34375 40.9844 -0.53125
Q36.9688 -1.42188 32.4219 -1.42188
Q20.0625 -1.42188 12.7812 6.34375
Q5.51562 14.1094 5.51562 27.2969
Q5.51562 40.6719 12.8594 48.3281
Q20.2188 56 33.0156 56
Q37.1562 56 41.1094 55.1406
Q45.0625 54.2969 48.7812 52.5938" id="BitstreamVeraSans-Roman-63"/>
    </defs>
    <g transform="translate(57.9494342463 86.8278717463)scale(0.1 -0.1)">
     <use xlink:href="#BitstreamVeraSans-Roman-63"/>
     <use x="54.98046875" xlink:href="#BitstreamVeraSans-Roman-61"/>
     <use x="116.259765625" xlink:href="#BitstreamVeraSans-Roman-74"/>
     <use x="155.46875" xlink:href="#BitstreamVeraSans-Roman-68"/>
     <use x="218.84765625" xlink:href="#BitstreamVeraSans-Roman-65"/>
     <use x="280.37109375" xlink:href="#BitstreamVeraSans-Roman-72"/>
     <use x="321.484375" xlink:href="#BitstreamVeraSans-Roman-69"/>
     <use x="349.267578125" xlink:href="#BitstreamVeraSans-Roman-6e"/>
     <use x="412.646484375" xlink:href="#BitstreamVeraSans-Roman-65"/>
    </g>
   </g>
   <g id="text_5">
    <!-- celeste -->
    <g transform="translate(22.8635518716 147.981672999)scale(0.1 -0.1)">
     <use xlink:href="#BitstreamVeraSans-Roman-63"/>
     <use x="54.98046875" xlink:href="#BitstreamVeraSans-Roman-65"/>
     <use x="116.50390625" xlink:href="#BitstreamVeraSans-Roman-6c"/>
     <use x="144.287109375" xlink:href="#BitstreamVeraSans-Roman-65"/>
     <use x="205.810546875" xlink:href="#BitstreamVeraSans-Roman-73"/>
     <use x="257.91015625" xlink:href="#BitstreamVeraSans-Roman-74"/>
     <use x="297.119140625" xlink:href="#BitstreamVeraSans-Roman-65"/>
    </g>
   </g>
   <g id="text_6">
    <!-- fortress -->
    <defs>
     <path d="
M37.1094 75.9844
L37.1094 68.5
L28.5156 68.5
Q23.6875 68.5 21.7969 66.5469
Q19.9219 64.5938 19.9219 59.5156
L19.9219 54.6875
L34.7188 54.6875
L34.7188 47.7031
L19.9219 47.7031
L19.9219 0
L10.8906 0
L10.8906 47.7031
L2.29688 47.7031
L2.29688 54.6875
L10.8906 54.6875
L10.8906 58.5
Q10.8906 67.625 15.1406 71.7969
Q19.3906 75.9844 28.6094 75.9844
z
" id="BitstreamVeraSans-Roman-66"/>
    </defs>
    <g transform="translate(7.2 220.1175)scale(0.1 -0.1)">
     <use xlink:href="#BitstreamVeraSans-Roman-66"/>
     <use x="35.205078125" xlink:href="#BitstreamVeraSans-Roman-6f"/>
     <use x="96.38671875" xlink:href="#BitstreamVeraSans-Roman-72"/>
     <use x="137.5" xlink:href="#BitstreamVeraSans-Roman-74"/>
     <use x="176.708984375" xlink:href="#BitstreamVeraSans-Roman-72"/>
     <use x="215.572265625" xlink:href="#BitstreamVeraSans-Roman-65"/>
     <use x="277.095703125" xlink:href="#BitstreamVeraSans-Roman-73"/>
     <use x="329.1953125" xlink:href="#BitstreamVeraSans-Roman-73"/>
    </g>
   </g>
   <g id="text_7">
    <!-- glaive -->
    <defs>
     <path d="
M2.98438 54.6875
L12.5 54.6875
L29.5938 8.79688
L46.6875 54.6875
L56.2031 54.6875
L35.6875 0
L23.4844 0
z
" id="BitstreamVeraSans-Roman-76"/>
    </defs>
    <g transform="translate(25.7440206216 292.253327001)scale(0.1 -0.1)">
     <use xlink:href="#BitstreamVeraSans-Roman-67"/>
     <use x="63.4765625" xlink:href="#BitstreamVeraSans-Roman-6c"/>
     <use x="91.259765625" xlink:href="#BitstreamVeraSans-Roman-61"/>
     <use x="152.5390625" xlink:href="#BitstreamVeraSans-Roman-69"/>
     <use x="180.322265625" xlink:href="#BitstreamVeraSans-Roman-76"/>
     <use x="239.501953125" xlink:href="#BitstreamVeraSans-Roman-65"/>
    </g>
   </g>
   <g id="text_8">
    <!-- joule -->
    <defs>
     <path d="
M9.42188 54.6875
L18.4062 54.6875
L18.4062 -0.984375
Q18.4062 -11.4219 14.4219 -16.1094
Q10.4531 -20.7969 1.60938 -20.7969
L-1.8125 -20.7969
L-1.8125 -13.1875
L0.59375 -13.1875
Q5.71875 -13.1875 7.5625 -10.8125
Q9.42188 -8.45312 9.42188 -0.984375
z

M9.42188 75.9844
L18.4062 75.9844
L18.4062 64.5938
L9.42188 64.5938
z
" id="BitstreamVeraSans-Roman-6a"/>
    </defs>
    <g transform="translate(69.2088092463 353.407128254)scale(0.1 -0.1)">
     <use xlink:href="#BitstreamVeraSans-Roman-6a"/>
     <use x="27.783203125" xlink:href="#BitstreamVeraSans-Roman-6f"/>
     <use x="88.96484375" xlink:href="#BitstreamVeraSans-Roman-75"/>
     <use x="152.34375" xlink:href="#BitstreamVeraSans-Roman-6c"/>
     <use x="180.126953125" xlink:href="#BitstreamVeraSans-Roman-65"/>
    </g>
   </g>
   <g id="text_9">
    <!-- koshka -->
    <defs>
     <path d="
M9.07812 75.9844
L18.1094 75.9844
L18.1094 31.1094
L44.9219 54.6875
L56.3906 54.6875
L27.3906 29.1094
L57.625 0
L45.9062 0
L18.1094 26.7031
L18.1094 0
L9.07812 0
z
" id="BitstreamVeraSans-Roman-6b"/>
    </defs>
    <g transform="translate(125.758704249 394.268791878)scale(0.1 -0.1)">
     <use xlink:href="#BitstreamVeraSans-Roman-6b"/>
     <use x="54.28515625" xlink:href="#BitstreamVeraSans-Roman-6f"/>
     <use x="115.466796875" xlink:href="#BitstreamVeraSans-Roman-73"/>
     <use x="167.56640625" xlink:href="#BitstreamVeraSans-Roman-68"/>
     <use x="230.9453125" xlink:href="#BitstreamVeraSans-Roman-6b"/>
     <use x="287.10546875" xlink:href="#BitstreamVeraSans-Roman-61"/>
    </g>
   </g>
   <g id="text_10">
    <!-- krul -->
    <g transform="translate(205.81953125 408.6175)scale(0.1 -0.1)">
     <use xlink:href="#BitstreamVeraSans-Roman-6b"/>
     <use x="57.91015625" xlink:href="#BitstreamVeraSans-Roman-72"/>
     <use x="99.0234375" xlink:href="#BitstreamVeraSans-Roman-75"/>
     <use x="162.40234375" xlink:href="#BitstreamVeraSans-Roman-6c"/>
    </g>
   </g>
   <g id="text_11">
    <!-- petal -->
    <defs>
     <path d="
M18.1094 8.20312
L18.1094 -20.7969
L9.07812 -20.7969
L9.07812 54.6875
L18.1094 54.6875
L18.1094 46.3906
Q20.9531 51.2656 25.2656 53.625
Q29.5938 56 35.5938 56
Q45.5625 56 51.7812 48.0938
Q58.0156 40.1875 58.0156 27.2969
Q58.0156 14.4062 51.7812 6.48438
Q45.5625 -1.42188 35.5938 -1.42188
Q29.5938 -1.42188 25.2656 0.953125
Q20.9531 3.32812 18.1094 8.20312
M48.6875 27.2969
Q48.6875 37.2031 44.6094 42.8438
Q40.5312 48.4844 33.4062 48.4844
Q26.2656 48.4844 22.1875 42.8438
Q18.1094 37.2031 18.1094 27.2969
Q18.1094 17.3906 22.1875 11.75
Q26.2656 6.10938 33.4062 6.10938
Q40.5312 6.10938 44.6094 11.75
Q48.6875 17.3906 48.6875 27.2969" id="BitstreamVeraSans-Roman-70"/>
    </defs>
    <g transform="translate(274.799889501 394.268791878)scale(0.1 -0.1)">
     <use xlink:href="#BitstreamVeraSans-Roman-70"/>
     <use x="63.4765625" xlink:href="#BitstreamVeraSans-Roman-65"/>
     <use x="125.0" xlink:href="#BitstreamVeraSans-Roman-74"/>
     <use x="164.208984375" xlink:href="#BitstreamVeraSans-Roman-61"/>
     <use x="225.48828125" xlink:href="#BitstreamVeraSans-Roman-6c"/>
    </g>
   </g>
   <g id="text_12">
    <!-- ringo -->
    <g transform="translate(335.575565754 353.407128254)scale(0.1 -0.1)">
     <use xlink:href="#BitstreamVeraSans-Roman-72"/>
     <use x="41.11328125" xlink:href="#BitstreamVeraSans-Roman-69"/>
     <use x="68.896484375" xlink:href="#BitstreamVeraSans-Roman-6e"/>
     <use x="132.275390625" xlink:href="#BitstreamVeraSans-Roman-67"/>
     <use x="195.751953125" xlink:href="#BitstreamVeraSans-Roman-6f"/>
    </g>
   </g>
   <g id="text_13">
    <!-- rona -->
    <g transform="translate(378.229416878 292.253327001)scale(0.1 -0.1)">
     <use xlink:href="#BitstreamVeraSans-Roman-72"/>
     <use x="38.86328125" xlink:href="#BitstreamVeraSans-Roman-6f"/>
     <use x="100.044921875" xlink:href="#BitstreamVeraSans-Roman-6e"/>
     <use x="163.423828125" xlink:href="#BitstreamVeraSans-Roman-61"/>
    </g>
   </g>
   <g id="text_14">
    <!-- saw -->
    <defs>
     <path d="
M4.20312 54.6875
L13.1875 54.6875
L24.4219 12.0156
L35.5938 54.6875
L46.1875 54.6875
L57.4219 12.0156
L68.6094 54.6875
L77.5938 54.6875
L63.2812 0
L52.6875 0
L40.9219 44.8281
L29.1094 0
L18.5 0
z
" id="BitstreamVeraSans-Roman-77"/>
    </defs>
    <g transform="translate(393.628125 220.1175)scale(0.1 -0.1)">
     <use xlink:href="#BitstreamVeraSans-Roman-73"/>
     <use x="52.099609375" xlink:href="#BitstreamVeraSans-Roman-61"/>
     <use x="113.37890625" xlink:href="#BitstreamVeraSans-Roman-77"/>
    </g>
   </g>
   <g id="text_15">
    <!-- skaarf -->
    <g transform="translate(373.376291878 147.981672999)scale(0.1 -0.1)">
     <use xlink:href="#BitstreamVeraSans-Roman-73"/>
     <use x="52.099609375" xlink:href="#BitstreamVeraSans-Roman-6b"/>
     <use x="108.259765625" xlink:href="#BitstreamVeraSans-Roman-61"/>
     <use x="169.5390625" xlink:href="#BitstreamVeraSans-Roman-61"/>
     <use x="230.818359375" xlink:href="#BitstreamVeraSans-Roman-72"/>
     <use x="271.931640625" xlink:href="#BitstreamVeraSans-Roman-66"/>
    </g>
   </g>
   <g id="text_16">
    <!-- taka -->
    <g transform="translate(337.387284504 86.8278717463)scale(0.1 -0.1)">
     <use xlink:href="#BitstreamVeraSans-Roman-74"/>
     <use x="39.208984375" xlink:href="#BitstreamVeraSans-Roman-61"/>
     <use x="100.48828125" xlink:href="#BitstreamVeraSans-Roman-6b"/>
     <use x="156.6484375" xlink:href="#BitstreamVeraSans-Roman-61"/>
    </g>
   </g>
   <g id="text_17">
    <!-- vox -->
    <defs>
     <path d="
M54.8906 54.6875
L35.1094 28.0781
L55.9062 0
L45.3125 0
L29.3906 21.4844
L13.4844 0
L2.875 0
L24.125 28.6094
L4.6875 54.6875
L15.2812 54.6875
L29.7812 35.2031
L44.2812 54.6875
z
" id="BitstreamVeraSans-Roman-78"/>
    </defs>
    <g transform="translate(278.032702001 45.9662081216)scale(0.1 -0.1)">
     <use xlink:href="#BitstreamVeraSans-Roman-76"/>
     <use x="59.1796875" xlink:href="#BitstreamVeraSans-Roman-6f"/>
     <use x="117.236328125" xlink:href="#BitstreamVeraSans-Roman-78"/>
    </g>
   </g>
  </g>
 </g>
 <defs>
  <clipPath id="pb7fbeb4136">
   <rect height="392.08" width="392.08" x="18.36546875" y="21.318125"/>
  </clipPath>
 </defs>
</svg>
